<?xml version="1.0" encoding="UTF-8"?>
<!DOCTYPE svg PUBLIC "-//W3C//DTD SVG 1.1//EN" "http://www.w3.org/Graphics/SVG/1.1/DTD/svg11.dtd">
<!-- Creator: CorelDRAW -->
<svg xmlns="http://www.w3.org/2000/svg" xml:space="preserve" width="1in" height="1in" version="1.1" style="shape-rendering:geometricPrecision; text-rendering:geometricPrecision; image-rendering:optimizeQuality; fill-rule:evenodd; clip-rule:evenodd"
viewBox="0 0 1000 1000"
 xmlns:xlink="http://www.w3.org/1999/xlink"
 xmlns:xodm="http://www.corel.com/coreldraw/odm/2003">
 <defs>
  <style type="text/css">
   <![CDATA[
    .fil0 {fill:#057231}
    .fil2 {fill:#FDD001}
    .fil1 {fill:#FEFEFE}
    .fil4 {fill:#FDD001;fill-rule:nonzero}
    .fil3 {fill:#FEFEFE;fill-rule:nonzero}
   ]]>
  </style>
 </defs>
 <g id="Layer_x0020_1">
  <metadata id="CorelCorpID_0Corel-Layer"/>
  <g id="_2229470693744">
   <path class="fil0" d="M229.92 211.54c0.52,34.75 12.74,64.15 29.82,82.78 23.19,25.28 32.74,27.72 68.6,42.06l-0.76 188.34c-94.64,19.66 -229.59,78.37 -288.71,155.12l63.28 70.28c6.35,6.73 10.54,9.14 16.35,16.41l48.46 51.91c15.26,-15.64 13.98,-27.56 55.71,-63.31 136.54,-116.99 419.93,-115.89 554.06,-0.99 43.39,37.17 41.91,48.99 57.05,64.21 21.27,-17.93 18.57,-21.23 31.93,-33.05l95.43 -104.72c-11.63,-27.84 -92.1,-79.74 -124.55,-96.87 -46.97,-24.79 -106.12,-47.54 -162.4,-58.59l0.24 -18.91 0.17 -158.92c53.94,-25.86 90.33,-59.28 96.42,-134.52l-1.21 -22.18c12.4,3.58 33.26,16.5 42.46,23.2 28.09,20.48 15.71,12.83 35.31,30.33 22.72,20.29 38.37,60.3 38.69,93.63 0.31,32.67 -10.2,83.67 -15.65,116.8 -6.17,37.56 -16.98,78.04 -21.86,114.5l17.9 8.26c6.17,-8.31 18.21,-78.33 19.97,-88.08 5.61,-31.01 10.74,-62.35 15.08,-93.31 8.87,-63.3 11.46,-114.93 -37.94,-168.01 -40.02,-43 -83.43,-53.74 -98.07,-63.95 -9.8,-6.83 -16.89,-54.24 -78.31,-83.81 -33.76,-16.26 -53.3,-15.82 -93.11,-14.04 -59.07,-71.11 -184.22,-77.53 -238.26,17.06 -11.18,19.56 -48.46,-0.16 -94.38,51.17 -25.9,28.96 -3.4,18.25 -37.98,34.65 -60.87,28.85 -125.34,76.46 -130.33,159.32 -2.7,44.87 23.1,177.5 35.63,235.16l5.13 13.9 17.45 -9.03c-4.19,-35.26 -14.73,-73.77 -21.12,-111.76 -12.11,-71.96 -35.88,-157.96 22.77,-212.43 23.02,-21.38 44.82,-42.17 78.98,-54.31l-2.24 21.72z"/>
   <path class="fil1" d="M363.91 109.31c-104.27,-1.17 -148.21,113.8 -87.63,175.54 26.6,27.11 32.52,21.92 69.37,36.47l0.86 196.71c5.87,0.52 110.11,-11.89 153.85,-11.95 56.05,-0.07 101.51,8.55 155.14,12.98l0.19 -185.48c72.15,-23.96 110.68,-88.17 91.88,-156.18 -9.09,-32.88 -33.5,-59.4 -55.67,-73.38 -35.67,-22.49 -61.44,-22.43 -107.63,-16.87 -11.35,-32.49 -71.26,-61.56 -120.46,-55.13 -24.99,3.27 -45.35,12.91 -62.29,26.13 -19.87,15.5 -24.12,25.05 -37.61,51.16z"/>
   <path class="fil0" d="M247.21 760.53c12.52,34.31 83.15,84.28 115.19,105.01 22.24,14.38 45.31,27.43 68.54,41.8 84.8,52.46 54.28,52.41 138.83,0 37.22,-23.07 64.86,-38.29 100.98,-63.37 22.5,-15.62 74.85,-60.22 82.65,-83.59 -139.55,-97.06 -366.89,-99.12 -506.19,0.15z"/>
   <path class="fil2" d="M327.58 524.7l0.76 -188.34c-35.87,-14.34 -45.42,-16.77 -68.6,-42.06 -17.07,-18.62 -29.3,-48.02 -29.82,-82.78 -48.25,25.44 -102.62,64.35 -95.33,142.61 2.85,30.56 27.87,190.67 37.07,203.7 41.83,-17.11 109.49,-47.64 155.9,-51.9l0.03 18.76z"/>
   <path class="fil2" d="M674.42 506.19c49.12,3.72 114.6,36.62 154.66,51.64 11.31,-15.78 32.36,-169.13 36.39,-203.1 4.58,-38.58 -6.15,-66.3 -25.81,-90.98 -12.2,-15.31 -45.34,-44.56 -68.64,-51 -6.09,75.24 -42.48,108.67 -96.42,134.52l-0.17 158.92z"/>
   <path class="fil0" d="M216.98 786.5c8.55,18.82 29.6,36.48 40.58,47.65 48.96,49.83 100.55,73.67 160.86,111.56 85.97,54.01 74.13,57.3 162.46,0.94 24.44,-15.59 50.68,-31.31 75.85,-46.26 30.56,-18.14 110.39,-76.11 126.95,-113.83l-15.17 -13.58c-16.78,18.54 -35.8,44.44 -54.46,60.15 -19.17,16.13 -42.83,33.04 -67.15,47.88 -21.34,13.04 -130.8,84.59 -146.54,84.5 -15.32,-0.09 -28.71,-11.64 -38.98,-18.3 -52.48,-34.06 -129.41,-75.59 -173.35,-113.1 -25.29,-21.59 -39.05,-43.01 -55.33,-60.6l-15.72 12.98z"/>
   <path class="fil1" d="M555.01 527.61c-31.11,6.96 -57.67,37.57 -46.15,76.55 22.29,75.48 147.46,45.78 123.56,-34.68 -8.31,-27.96 -39.46,-50.36 -77.41,-41.87z"/>
   <path class="fil1" d="M413.88 529.59c-86.55,14.26 -65.6,133.63 17.15,121.36 32.79,-4.86 59.35,-32.28 54.27,-70.74 -4.02,-30.44 -35.46,-56.54 -71.42,-50.62z"/>
   <path class="fil1" d="M640.89 652.22c11.46,7.46 57.26,20.89 73.15,20.94 28.38,0.1 47.04,-16.53 54.54,-38.87 10.67,-31.78 -3.35,-51.17 -21.15,-64.56 -10.18,-7.66 -52.71,-24.54 -68.61,-26.68l-37.93 109.17z"/>
   <path class="fil0" d="M573.11 260.26c-1.09,34.24 -9.42,187.69 -1.11,205.36l18.48 0.47c8.42,-20.96 -2.28,-169.8 -1.55,-206.21 45.45,-10.17 25.02,-108.55 -6.25,-107.64 -31.8,0.93 -40.22,62.29 -31.91,87.85 4.4,13.52 8.65,16.67 22.34,20.17z"/>
   <path class="fil0" d="M487.52 166.36l-0.02 42.26c-0.02,9.28 2.47,14.81 -3.57,18.95l-2.56 -35.39c0,-6.3 0.1,-12.6 0.12,-18.89l-1.59 -15.12c-0.12,-0.44 -0.36,-1.22 -0.66,-1.78 -6.92,6.51 -34.67,96.3 11.1,111.23l-4.52 182.84c0,17.75 7.8,18.59 22.2,14.54 7.46,-18.21 -1.47,-162.06 -1.62,-195.33 8.61,-7.91 26.81,-4.88 25.29,-49.39 -0.75,-21.93 -5.74,-46.03 -11.5,-64.31 -4.65,4.61 -5.01,-2.05 -4.6,24.47 0.13,8.58 4.18,42.04 -3.48,47.17 -6.61,-10.59 2.21,-53.61 -5.74,-74.13 -2.06,1.97 -4.81,0.66 -5.18,15.12l0.37 47.07c-0,10.57 2.29,8 -3.53,12l-1.94 -5.36c-2.95,-15.97 3.08,-60.1 -2.57,-69.4 -5.43,4.16 -5.97,2.98 -5.98,13.46z"/>
   <path class="fil1" d="M228.72 582.35l38.53 110.38 36.75 -12.02 -12.22 -37.62 50.8 -17.13 -8.83 -28.44 -51.48 17.27 -5.28 -11.6c0.7,-0.5 1.4,-1.59 1.61,-1.17l52.97 -19.79 -10.05 -31.42 -92.81 31.53z"/>
   <path class="fil0" d="M412.69 467.02c42.29,1.54 -1.28,-70.15 9.88,-120.71 3.8,-17.18 12.49,-13.72 17.97,-33.27 11.26,-40.12 -19.83,-145.25 -35.04,-159.7l-0.11 240.77c-0.01,31.48 -4.54,56.12 7.3,72.91z"/>
   <path class="fil0" d="M410.62 566.76c-25.19,13.19 -11.44,59.92 21.26,47.98 29.06,-10.61 10.26,-64.48 -21.26,-47.98z"/>
   <path class="fil0" d="M563.15 561.85c-28.09,8.75 -18.5,62.36 15.88,49.82 27.01,-9.85 17.64,-60.26 -15.88,-49.82z"/>
   <path class="fil0" d="M688.91 634.38c18.43,3.53 35.29,8.04 41.43,-10.77 7.66,-23.47 -8.49,-31.49 -26.69,-35.85l-14.74 46.63z"/>
   <path class="fil3" d="M322.05 788.78l-6.66 -27.07 4.35 -2.16 2.95 11.99 5.8 -16.35 5.83 -2.89 -5.5 14.57 12.58 12.29 -5.61 2.79 -9.03 -9.77 -2.37 6.26 2.01 8.19 -4.35 2.16zm21.4 -10.8l-5.8 -27.46 4.41 -1.88 5.8 27.46 -4.41 1.88zm13.5 -5.76l-4.82 -22.82 -6.44 2.75 -0.98 -4.64 17.27 -7.37 0.98 4.64 -6.41 2.74 4.81 22.82 -4.41 1.88zm26 -20.93l4.6 0.13c-0.12,3.3 -0.82,5.96 -2.09,8.01 -1.28,2.03 -3.09,3.48 -5.46,4.32 -2.93,1.05 -5.56,0.65 -7.89,-1.2 -2.33,-1.85 -3.89,-4.96 -4.66,-9.34 -0.82,-4.63 -0.51,-8.57 0.93,-11.81 1.44,-3.24 3.71,-5.42 6.8,-6.52 2.7,-0.97 5.07,-0.74 7.11,0.67 1.22,0.83 2.27,2.27 3.17,4.32l-4.17 2.9c-0.52,-1.34 -1.26,-2.29 -2.24,-2.83 -0.98,-0.54 -2.06,-0.59 -3.24,-0.17 -1.64,0.59 -2.83,1.8 -3.59,3.65 -0.76,1.84 -0.84,4.42 -0.26,7.73 0.62,3.51 1.57,5.83 2.83,6.96 1.27,1.14 2.7,1.41 4.31,0.84 1.19,-0.43 2.12,-1.26 2.8,-2.52 0.69,-1.26 1.04,-2.96 1.05,-5.14zm9.98 7.56l-4.05 -28.09 4.51 -1.31 1.59 11.06 8.77 -2.55 -1.59 -11.07 4.51 -1.31 4.04 28.09 -4.51 1.31 -1.77 -12.28 -8.77 2.55 1.77 12.28 -4.51 1.31zm22.49 -6.32l-3.16 -28.32 16.62 -3.74 0.54 4.79 -12.07 2.72 0.7 6.29 11.23 -2.53 0.53 4.78 -11.22 2.53 0.85 7.67 12.51 -2.82 0.53 4.79 -17.06 3.84zm20.92 -4.63l-2.26 -28.5 4.43 -0.7 10.81 17.6 -1.51 -19.09 4.23 -0.68 2.26 28.49 -4.57 0.74 -10.64 -17.26 1.48 18.73 -4.23 0.68zm31.52 -4.44l-1.36 -28.61 6.88 -0.66 4.99 19.13 3.09 -19.9 6.89 -0.66 1.36 28.61 -4.24 0.41 -1.08 -22.52 -3.41 22.95 -4.41 0.43 -5.52 -22.1 1.06 22.52 -4.24 0.41zm46.94 -2.41l-4.96 0.16 -2.06 -6.46 -9.11 0.29 -1.79 6.59 -4.87 0.15 8.37 -28.95 4.86 -0.16 9.56 28.38zm-8.59 -11.1l-3.32 -10.51 -2.9 10.71 6.22 -0.2zm11.04 11.73l0.46 -28.67 4.45 0.14 9.05 19.51 0.3 -19.21 4.25 0.13 -0.45 28.67 -4.59 -0.15 -8.91 -19.14 -0.3 18.84 -4.26 -0.14zm43.33 3.33l-4.95 -0.47 -1.65 -6.7 -9.1 -0.87 -2.19 6.33 -4.86 -0.47 10.16 -27.76 4.85 0.46 7.73 29.48zm-7.86 -12.15l-2.65 -10.89 -3.56 10.3 6.21 0.59zm21.6 4.19l0.38 -4.81 9.81 1.57 -0.9 11.37c-1.04,1.02 -2.51,1.83 -4.39,2.43 -1.88,0.6 -3.75,0.75 -5.61,0.45 -2.36,-0.38 -4.37,-1.33 -6.02,-2.87 -1.65,-1.53 -2.83,-3.54 -3.53,-6.01 -0.7,-2.47 -0.94,-5.08 -0.72,-7.82 0.24,-2.97 0.94,-5.53 2.11,-7.69 1.17,-2.15 2.75,-3.7 4.75,-4.63 1.52,-0.72 3.36,-0.9 5.52,-0.56 2.8,0.45 4.94,1.55 6.4,3.28 1.45,1.74 2.3,3.96 2.55,6.65l-4.63 0.35c-0.2,-1.45 -0.72,-2.65 -1.53,-3.61 -0.81,-0.95 -1.87,-1.53 -3.19,-1.74 -1.99,-0.32 -3.63,0.22 -4.93,1.64 -1.3,1.41 -2.07,3.68 -2.32,6.82 -0.27,3.39 0.12,6.03 1.18,7.91 1.06,1.88 2.55,2.98 4.48,3.29 0.95,0.15 1.93,0.07 2.92,-0.25 1,-0.32 1.87,-0.76 2.61,-1.33l0.29 -3.61 -5.21 -0.83zm13.14 13.37l3.15 -28.32 16.62 3.74 -0.53 4.79 -12.07 -2.72 -0.7 6.29 11.22 2.53 -0.53 4.79 -11.23 -2.53 -0.85 7.67 12.51 2.81 -0.54 4.79 -17.06 -3.85zm20.79 5.21l4.04 -28.09 6.76 1.97 1.23 20.32 6.7 -18.01 6.77 1.97 -4.04 28.09 -4.17 -1.22 3.17 -22.12 -7.57 20.83 -4.33 -1.26 -1.19 -23.39 -3.2 22.11 -4.17 -1.22zm25.85 8.29l4.93 -27.81 16.31 5.85 -0.83 4.7 -11.85 -4.25 -1.09 6.17 11.02 3.95 -0.83 4.7 -11.02 -3.95 -1.33 7.54 12.28 4.4 -0.83 4.7 -16.74 -6zm20.41 7.96l5.8 -27.46 4.26 1.82 5.07 22.23 3.89 -18.41 4.07 1.74 -5.8 27.46 -4.41 -1.88 -5.01 -21.82 -3.81 18.06 -4.07 -1.74zm26.65 12.39l5.53 -22.5 -6.35 -3.16 1.13 -4.57 17.02 8.47 -1.13 4.57 -6.32 -3.15 -5.53 22.5 -4.34 -2.16z"/>
   <path class="fil4" d="M426.56 848.4l-12.6 -54.6 11.06 -2.55 4.96 21.5 21.5 -4.96 -4.96 -21.51 11.06 -2.55 12.6 54.6 -11.06 2.55 -5.51 -23.87 -21.5 4.96 5.51 23.87 -11.06 2.55zm55.44 -11.13l-1.41 -56.02 23.82 -0.6c5.98,-0.15 10.35,0.24 13.09,1.18 2.75,0.94 4.96,2.67 6.66,5.2 1.69,2.54 2.59,5.45 2.67,8.76 0.11,4.21 -1.03,7.71 -3.43,10.51 -2.39,2.8 -6.03,4.61 -10.91,5.46 2.48,1.36 4.52,2.87 6.15,4.54 1.63,1.67 3.85,4.65 6.65,8.94l7.11 10.76 -13.52 0.34 -8.42 -12.03c-3.02,-4.27 -5.08,-6.96 -6.19,-8.06 -1.1,-1.09 -2.25,-1.85 -3.46,-2.24 -1.22,-0.39 -3.13,-0.55 -5.74,-0.48l-2.3 0.06 0.59 23.39 -11.35 0.28zm10.53 -32.6l8.37 -0.21c5.43,-0.13 8.8,-0.46 10.14,-0.94 1.33,-0.49 2.38,-1.31 3.11,-2.45 0.74,-1.14 1.08,-2.56 1.04,-4.24 -0.05,-1.89 -0.59,-3.39 -1.63,-4.54 -1.03,-1.13 -2.47,-1.83 -4.31,-2.08 -0.93,-0.11 -3.68,-0.1 -8.26,0.02l-8.83 0.22 0.36 14.24zm76.18 18.42l2.13 -9.23 23.72 5.47 -5.03 21.79c-2.82,1.72 -6.62,2.92 -11.4,3.62 -4.76,0.7 -9.4,0.52 -13.9,-0.52 -5.7,-1.31 -10.4,-3.66 -14.09,-7.04 -3.68,-3.38 -6.07,-7.56 -7.18,-12.52 -1.11,-4.95 -1.05,-10.07 0.16,-15.31 1.31,-5.69 3.67,-10.48 7.07,-14.37 3.41,-3.87 7.68,-6.47 12.81,-7.78 3.93,-1.01 8.48,-0.91 13.69,0.3 6.77,1.56 11.74,4.21 14.9,7.94 3.14,3.74 4.69,8.23 4.62,13.52l-11.46 -0.48c-0.15,-2.86 -1.1,-5.31 -2.87,-7.37 -1.75,-2.04 -4.22,-3.42 -7.39,-4.15 -4.8,-1.11 -8.98,-0.47 -12.52,1.94 -3.54,2.41 -6.01,6.62 -7.4,12.63 -1.5,6.5 -1.19,11.69 0.94,15.6 2.14,3.91 5.52,6.4 10.19,7.48 2.3,0.53 4.72,0.61 7.24,0.24 2.54,-0.37 4.77,-1.01 6.74,-1.93l1.6 -6.93 -12.58 -2.9z"/>
  </g>
 </g>
</svg>
