<?xml version="1.0" encoding="UTF-8"?>
<!DOCTYPE svg PUBLIC "-//W3C//DTD SVG 1.1//EN" "http://www.w3.org/Graphics/SVG/1.1/DTD/svg11.dtd">
<!-- Creator: CorelDRAW 2020 (64-Bit) -->
<svg xmlns="http://www.w3.org/2000/svg" xml:space="preserve" width="1in" height="1in" version="1.1" style="shape-rendering:geometricPrecision; text-rendering:geometricPrecision; image-rendering:optimizeQuality; fill-rule:evenodd; clip-rule:evenodd"
viewBox="0 0 1000 1000"
 xmlns:xlink="http://www.w3.org/1999/xlink"
 xmlns:xodm="http://www.corel.com/coreldraw/odm/2003">
 <defs>
  <style type="text/css">
   <![CDATA[
    .fil0 {fill:#4D4D4D}
   ]]>
  </style>
 </defs>
 <g id="Layer_x0020_1">
  <metadata id="CorelCorpID_0Corel-Layer"/>
  <g id="_1856106653392">
   <path class="fil0" d="M376.94 24.5c0,10.13 2.96,19.93 2.96,31.07 -13.39,7.08 -30.86,15.67 -43.16,24.91 -2.14,1.61 -3.86,3.11 -5.67,4.69l-28.11 -17.76c-4.63,6.92 -19.37,20.11 -26.26,27.01l-28.49 26.26c20.5,38.74 24.94,13.76 3.42,52.25 -3.61,6.46 -11.65,18.42 -12.3,26.18 -9.36,-0.78 -24.31,-2.96 -34.04,-2.96 -0.83,9.97 -18.24,63.52 -19.24,75.47l29.59 13.32c-0.15,6.69 -1.48,5.88 -1.48,13.31l1.48 44.39c-9.94,2.32 -19.65,11 -29.59,13.32l14.48 56.55c1.68,6.55 4.19,12.14 4.75,18.92l14.8 0c1.16,-4.35 12.39,-17.99 15.85,-22.63 41.01,-54.96 18.19,-4.76 18.19,-109.07 0,-34.16 17.71,-84.91 33.43,-108.63 13.22,-19.95 19.77,-29.66 37.97,-47.86 40.81,-40.8 94.59,-71.4 156.48,-71.4 56.07,0 92.61,10.07 138.63,37.46 8.06,4.8 16.78,10.39 23.69,16.27l16.37 14.7c2.81,2.46 3.38,2.2 5.77,4.59 38.77,38.77 67.8,99.23 68.56,154.88 0.12,8.42 2.12,10.97 1.46,19.1 -0.9,11.13 -2.39,26.23 -3.97,36.08 -4.92,30.62 -11.56,11.72 27.05,65.29 2.87,3.98 6.87,8.35 8.02,12.7l17.76 0c0.15,-6.98 2.69,-12.82 4.13,-18.06l10.04 -37.31c1.7,-5.98 2.93,-14.17 5.06,-18.61 -8.87,-2.07 -21.81,-11.63 -28.11,-13.32l1.48 -28.11c-0,-10.36 0,-20.72 0,-31.07l26.64 -11.84c-0.19,-8.43 -16.66,-64.41 -19.24,-75.47 -11.95,0 -19.36,1.48 -29.59,1.48 -12.73,-24.05 -13.27,-27.41 -29.6,-51.79 3.82,-5.71 14.88,-19.14 16.28,-25.16l-53.63 -54.39 -26.28 15.92c-10.11,-6.77 -39.02,-27.18 -50.31,-28.12 0.19,-8.62 2.96,-22.26 2.96,-31.07l-75.47 -20.72 -13.31 28.12c-16.77,-3.91 -41.31,-1.48 -60.67,-1.48 -0.89,-3.81 -10.83,-21.93 -13.31,-26.64 -7.31,0.17 -13.09,2.83 -19.23,4.45 -6.45,1.71 -12,2.99 -18.72,4.95 -12.59,3.68 -25.22,6.97 -37.52,9.83z"/>
   <path class="fil0" d="M498.28 734.79c-13.04,0 -19.78,-0.62 -32.1,-6.38 -12.96,-6.06 -25.6,-19.09 -31.15,-32.48 -32.6,-78.79 80.52,-130.39 118.54,-53.43 3.68,7.45 5.66,15.63 6.04,26.09 0.65,18.19 -7.71,34.75 -17.29,45.13 -8.93,9.68 -26.13,21.07 -44.05,21.07zm56.23 -127.26l0.44 0.44c-0.03,-0.03 -0.59,-0.3 -0.44,-0.44zm-34.04 -22.2l0.44 0.44c-0.03,-0.03 -0.59,-0.3 -0.44,-0.44zm-5.92 -1.48l0 0zm190.89 -53.27l0 -8.88c0,-28.21 26.23,-54.75 60.67,-54.75 28.21,0 56.23,26.63 56.23,54.75 0,20.37 -3.32,32.51 -18.08,47.03 -39.11,38.45 -98.82,3.63 -98.82,-38.15zm-538.63 -4.44c0,-16.76 9.35,-32.34 18.11,-41.08 23.53,-23.47 56.71,-23.91 81.4,-2.2 35.96,31.62 20.56,102.47 -43.28,102.47 -30.13,0 -56.23,-29.18 -56.23,-59.19zm347.74 57.71c-40.95,0 -57.35,-7.5 -86.85,-31.54 -7.89,-6.42 -14.41,-11.77 -22.66,-17.3 0,33.7 41.77,43.02 28.14,72.53 -1.87,4.05 -3.93,7.65 -6.18,11.58 -2.99,5.24 -2.07,7.45 -10.12,7.63 0,-20.32 -5.06,-33.4 -13.71,-45.48 -2.31,-3.23 -4.02,-5.25 -6.63,-8.17 -3.03,-3.39 -3.64,-4.88 -6.65,-8.15 -20.32,-22.04 -50.17,-35.24 -63.5,-69.68 -1.63,-4.2 -2.21,-8.02 -5.7,-10.57 -7.72,16.1 8.69,41.72 -6.23,57.39 -21.55,22.65 -24.84,17.74 -24.84,41.75 11.43,-0.95 10.18,-13.59 29.33,-19.5 36.21,-11.19 77,14.67 85.55,57.15 0.8,3.99 -0.91,15.85 -1.74,20.74 -1.6,9.33 -3.26,11.9 -6.57,18.58 -5.57,11.22 -12.74,18.64 -23.07,25.76 -42.05,29.03 -123.35,-4.56 -106.31,-90.04 4.19,-21.02 5.06,-4.91 19.82,-30.5 9.55,-16.56 14.97,-40.86 10.87,-61.09 -2.82,-13.89 -10.08,-21.82 -15.78,-33.05 -14.42,-28.42 -18.72,-38.19 -18.72,-80.43 -15.74,0 -4.97,5.52 -18.36,27.52 -5.96,9.81 -12.52,17.93 -21.83,24.04 -15.21,9.98 -38.82,10.06 -57.09,34.65 -31.18,41.97 -11.91,102.26 38.94,115.68 8.59,2.27 21.54,3.28 31.51,2.09 3.62,-0.43 5.56,-1.73 10.45,-1.23 15.19,1.55 7.84,19.7 9.82,33.17 3.61,24.57 6.81,44.46 29.6,62.16 10,7.76 15.83,12.37 30.3,15.57 26.91,5.96 50.13,1.25 71,-14.7 6.73,-5.15 18.54,-17.47 20.68,-26.67l4.44 0c0,13.77 2.62,24.46 6.93,34.51 16.11,37.61 65.45,62.48 109.5,41.96 31.06,-14.46 49.3,-40.81 49.3,-76.48 7.8,0.65 6.22,5.09 10.74,11.46 8.85,12.46 25.3,23.69 39.84,28.23 57.7,18.01 111.2,-28.91 104.94,-91.76 -2.29,-23.02 19.92,-15.92 25.63,-15.04 5.8,0.9 14.92,-0.62 20.71,-1.81 53.07,-10.91 74.81,-69.8 48.54,-111.93 -23.74,-38.07 -52.86,-23.03 -78.99,-58.63 -6.28,-8.55 -13.09,-18.38 -13.09,-32.79l-8.88 0c0,100.88 -52.09,83.56 -32.28,156.58 10.6,39.07 30.1,23.08 30.87,68.29 0.81,47.83 -26.09,74.98 -67.89,80.27 -15.13,1.92 -27.78,-2.08 -39.22,-8.69 -40.26,-23.29 -49.58,-95.43 10.39,-120.83 17.29,-7.32 42.37,-7.22 57.07,6.02 4.66,4.2 6.82,10.1 14.43,10.73 4.87,-20.9 -16.95,-32.52 -23.94,-41.17 -16.3,-20.2 0.24,-42.59 -7.14,-57.97 -4.64,3.4 -3.48,8.25 -9.87,19.72 -3.93,7.06 -7.86,11.53 -12.31,17.28 -24.17,31.26 -74,45.98 -74,105.05l-5.92 0c-1.46,-5.46 -15.64,-13.75 3.02,-45.81 6.51,-11.19 20.66,-28.31 20.66,-44.45 -5.22,1.39 -20.24,18.36 -35.03,27.11 -7.07,4.19 -12.5,7.28 -20.2,10.87 -7.91,3.69 -17.76,5.93 -21.71,9.36z"/>
   <path class="fil0" d="M434.65 357.45l0.44 0.44c-0.03,-0.03 -0.59,-0.3 -0.44,-0.44zm-2.96 -1.48l0.44 0.44c-0.03,-0.03 -0.59,-0.3 -0.44,-0.44zm-4.44 -2.96l0.44 0.44c-0.03,-0.03 -0.59,-0.3 -0.44,-0.44zm-2.96 -1.48l0 0zm0 0l0 0zm-4.44 -2.96l0.44 0.44c-0.03,-0.03 -0.59,-0.3 -0.44,-0.44zm-2.96 -1.48l0 0zm0 0l-2.96 -1.48 2.96 1.48zm-2.96 -1.48l-1.48 -1.48 1.48 1.48zm-1.48 -1.48l-2.96 -1.48 2.96 1.48zm-2.96 -1.48l-2.96 -1.48 2.96 1.48zm-2.96 -1.48c-4.22,-1.01 -2.23,0.22 -4.44,-2.96 4.22,1.01 2.23,-0.22 4.44,2.96zm41.43 -10.36l0.44 0.44c-0.03,-0.03 -0.59,-0.29 -0.44,-0.44zm-4.44 -5.92l0 0zm-147.97 -2.96c0,-4.35 10.87,-8.19 15.13,-8.57 21.8,-1.95 78.07,30.78 98.73,42.68 4,2.3 11.77,7.58 16.35,8.8l0 5.92 -76.1 -12.69c-17.82,-3.52 -54.12,-14.38 -54.12,-36.15zm183.49 1.48l0.44 0.44c-0.03,-0.03 -0.59,-0.3 -0.44,-0.44zm-35.52 1.48l0 0zm-2.96 -4.44l0 0zm0 0l-1.48 -1.48 1.48 1.48zm36.99 -2.96c-0.53,-2.8 1.86,-5.26 0.94,-0.94 -0.02,0.1 0.04,6.1 -0.94,0.94zm-38.47 1.48l-1.48 -1.48 1.48 1.48zm-2.96 -4.44l1.48 2.96 -1.48 -2.96zm0 0l-1.48 -1.48 1.48 1.48zm-4.44 -5.92c3.18,2.21 1.95,0.22 2.96,4.44 -3.18,-2.21 -1.95,-0.22 -2.96,-4.44zm-106.54 -57.71c0,-26.72 37.34,-2.72 47,6.27 16.41,15.27 32.69,37.1 46.85,55.26l23.06 28.74 -4.76 4.12c-11.06,-5.7 -21.04,-12.21 -31.95,-19.2 -5.39,-3.45 -9.95,-6.88 -15.15,-10l-31.64 -20.16c-13.97,-10.09 -33.41,-25.42 -33.41,-45.02zm66.59 -88.79c28.09,0 43.33,46.37 50.87,68.99 3.49,10.46 23.6,80.33 24.6,92.3 -4.59,1.07 -4.29,1.89 -8.88,2.96l-51.5 -75.76c-10.94,-16.31 -27.88,-45.52 -26.76,-67.59 0.36,-7.13 4.48,-20.91 11.67,-20.91zm128.74 26.64c0,19.57 -16.65,109.79 -20.72,127.26l-10.36 0 -10.99 -65.96c-1.94,-11.64 -4.04,-21.81 -5.29,-33.19l-1.8 -27.64c-0.26,-4.7 -0.1,-1.76 0.19,-7.92 3,-64.06 33.62,-56.74 43.63,-27.18 2.7,7.96 5.34,24.69 5.34,34.62zm-88.78 119.86l-45.5 -53.65c-8,-8.08 -18.24,-15.96 -28.95,-21.37 -37.78,-19.04 -54.53,9.13 -38.34,36.87 15.8,27.07 42.37,41.81 68.33,57.45 3.47,2.09 12.77,7.44 14.86,10.29 -9.71,-2.26 -70.48,-46.14 -104.07,-33.04 -12.05,4.7 -17.84,16.08 -10.91,29.63 15.54,30.36 67.7,35.23 101.24,40.83l41.85 6.98c6.2,-26.61 20.46,-44.13 46.43,-54.19 8.36,-3.24 21.19,-2.04 31.99,-2.04l1.48 -2.96 8.87 -53.28c6.37,-38.56 22.02,-96.96 -0.04,-133.12 -21.27,-34.86 -57.93,-10.56 -57.7,35.43 0.15,28.8 -3.56,20.07 2.78,57.97l13.54 82.65c-0.2,-0.31 -0.41,-1.21 -0.48,-1l-6.4 -21.72c-6.87,-23.7 -12.68,-50.7 -20.3,-72.93 -38.93,-113.63 -112.16,-67.3 -67.04,16.73 7.46,13.9 47.44,71.11 48.35,74.47z"/>
   <path class="fil0" d="M566.35 350.05l0.44 0.44c-0.03,-0.03 -0.59,-0.29 -0.44,-0.44zm2.96 -1.48l0.44 0.44c-0.03,-0.03 -0.59,-0.3 -0.44,-0.44zm4.44 -1.48l0 0zm0 0l0 0zm4.44 -2.96l0 0zm2.96 -1.48l-2.96 1.48 2.96 -1.48zm0 0c2.65,-3.62 2.02,-3.19 7.4,-4.44 -2.65,3.63 -2.02,3.19 -7.4,4.44zm-45.87 -2.96l0 0zm5.92 -7.4l0 0zm0 0l0 0zm23.68 37c0.61,-7.28 -0.06,-3.77 12.46,-11.22l31.48 -17.36c18.19,-10.18 49.69,-28.32 70.56,-26.58 29.42,2.46 18.96,30.86 -39.6,44.22 -10.65,2.43 -68.14,14.18 -74.89,10.94zm-19.24 -42.91l0 0zm1.48 -1.48l-1.48 1.48 1.48 -1.48zm1.48 -2.96l-1.48 2.96 1.48 -2.96zm1.48 -1.48l-1.48 1.48 1.48 -1.48zm1.48 -1.48l-1.48 1.48 1.48 -1.48zm0 0c1.01,-4.22 -0.22,-2.22 2.96,-4.44 -1.01,4.22 0.22,2.22 -2.96,4.44zm1.48 26.64l-3.04 -5.88c14.13,-20.8 61.4,-79.35 79.16,-91.13 48.47,-32.18 53.01,18.41 -11.47,56.59 -11.32,6.71 -20.85,12.96 -31.81,19.98 -11.25,7.21 -20.92,14.13 -32.84,20.43zm-20.72 -19.24l-10.29 -3.17c5.93,-12.2 19.52,-91.99 42.36,-133.46 12.87,-23.37 44.88,-47.85 44.88,-2.47 0,43.2 -56.02,99.55 -76.95,139.1zm-22.2 -2.96l0 4.44c7.07,0.59 20.11,8.46 25.16,11.83 4.65,4.04 12.27,12.63 15.88,18.16 4.11,6.29 7.45,16.91 9.28,24.76 16.76,-1.39 34.72,-7.4 53.27,-7.4l15.65 -3.59c23.83,-4.24 54.37,-10.19 70.45,-30.17 13.71,-17.04 5.73,-42.17 -26.7,-38.57 -40.52,4.48 -70.26,32 -84.56,35.33 3.98,-5.43 45.97,-27.67 61.02,-41.08 13.08,-11.66 28.17,-29.71 27.9,-47.7 -0.13,-8.6 -2.59,-15.15 -8.07,-18.7 -22.59,-14.66 -53.66,13.04 -67.91,27.21 -10.76,10.7 -25.33,29.21 -34.93,42.02 -3.3,4.39 -8.03,11.89 -12.05,14.59 1.2,-4.48 8.33,-13.23 12.13,-18.94 4.54,-6.84 8.37,-12.91 13.23,-19.33 2.59,-3.43 4.57,-5.73 6.93,-9.35l18.53 -30.3c9.61,-17.59 12.91,-24.17 15.58,-48.09 2.19,-19.56 -7.19,-39.74 -26.35,-38.3 -17.26,1.3 -28.5,15.75 -36.24,27.56 -7.37,11.25 -16.02,30.86 -20.29,44.82l-20.52 75.66c-1.26,4.81 -2.21,7.18 -3.57,12.71l-3.83 12.44z"/>
   <path class="fil0" d="M529.36 535.02c0,3.82 -6.54,2.96 -10.36,2.96 -16.46,0 -17.22,-45.38 -13.68,-61.03 2.02,-8.9 3.52,-13.57 8.14,-19.97 7.35,-10.17 17.42,-19.75 29.81,-24.95 38.89,-16.32 75.89,-9.61 111.87,8.29 5.45,2.71 14.8,5.56 14.8,13.32 0,7.65 -8.26,12.19 -14.85,10.52 -8.92,-2.25 -25.42,-20.88 -65.06,-20.88 -25.12,0 -45.1,10.75 -56.06,25.33 -19.9,26.47 -4.61,60.92 -4.61,66.41zm-204.2 -79.91c0,-6.35 0.51,-7.5 7.86,-11.37 4.53,-2.39 6.2,-3.8 10.37,-5.91 37.76,-18.97 96.54,-22.81 128.69,7.98 34.45,33 12.08,82.7 11.42,90.69 -31.26,2.6 -13.32,6.04 -13.32,-37 0,-17.39 -5.07,-26.54 -14.94,-36.85l-4.58 -4.3c-23.56,-20.24 -65.6,-17.72 -91.48,-4.74 -10.99,5.52 -18.78,14.07 -27.55,9.95 -3.03,-1.43 -6.47,-4.84 -6.47,-8.45zm287.07 -38.47c0.82,0 2.42,-0.03 2.86,0.1 2.68,0.77 1.58,0.41 3.06,1.38 -0.83,0 -2.42,0.03 -2.86,-0.1 -2.62,-0.76 -1.64,-0.48 -3.06,-1.38zm31.07 -34.04c6.49,0 42.64,-1.7 44.39,11.84 1.29,9.93 -18.61,16.28 -35.51,16.28 -8.96,0 -14.35,-1.54 -21.15,-2.53 -7.83,-1.14 -13.83,-2.08 -20.5,-3.18 -13.49,-2.22 -27.14,-4.68 -39.74,-7.61 1.6,-5.99 0.17,-3.36 5.6,-4.76 2.4,-0.62 5.63,-0.84 8.98,-1.37l38.06 -6.34c7.3,-1.23 11.8,-2.33 19.87,-2.33zm-29.59 -7.4l-12.03 2.76c-5.62,0.91 -8.08,1.22 -14.17,2.11 -8.14,1.18 -17.55,4.01 -27.07,4.01l0 22.2c8.92,2.08 40.56,8.88 48.83,8.88l0 1.48c-15.96,0 -24.13,-1.86 -41.08,0.36 -21.77,2.85 -45.29,12.81 -58.09,30.69 -13.52,18.89 -9.39,26.43 -13.3,32.58 -5.34,-64.22 -87.86,-74.2 -138.04,-56.65 -7.64,2.67 -18.15,7.2 -24.46,11.06 -7.91,4.85 -17.06,5.83 -16.75,18.93 0.23,9.8 7.7,17.71 16.94,18.72 18.96,2.07 28.95,-27.75 82.37,-20.14 18.47,2.63 34.78,14.37 42.02,29.01 4.24,8.59 6.13,18.87 4.36,29.12 -1.06,6.13 -1.63,9.93 -3.26,14.52 -2.39,6.75 -3.14,5.23 -3.14,14.62 5.35,3.58 5.3,5.7 14.81,6.04 5.66,0.2 12.72,-0.51 16.19,-4.64 3.51,-4.18 8.95,-25.48 8.95,-33.96l1.48 0c0,10.02 2.04,16.57 4.23,23.89 2.82,9.42 3.72,13.74 15.05,14.63 31.91,2.49 16.54,-19.42 14.31,-30.67 -10.56,-53.34 51.81,-82.8 106.94,-50.71 5.85,3.4 17.87,14.52 30.81,4.08 4.39,-3.54 9.27,-11.5 6.98,-19.53 -4.41,-15.37 -51.66,-27.1 -56.97,-30.47 6.86,0 17.61,2.06 23.89,2.74 60.52,6.64 76.72,-42.72 21.78,-48.42 -20.26,-2.1 -34.57,2.76 -51.59,2.76z"/>
   <path class="fil0" d="M338.47 410.72c-8.14,0 -16.38,-0.69 -23.13,-3.51 -26.22,-10.98 -4.92,-24.61 9.81,-24.61l22.2 0c9.13,0 67.72,9.54 72.51,11.84 -1.56,4.32 -1.03,3.45 -7.11,4.72 -11.15,2.33 -65.14,11.56 -74.27,11.56zm-45.87 -17.76c0,39.58 67.16,27.24 91.88,22.33 15.35,-3.05 30.96,-5.57 45.74,-9.02 0,-14.68 -1.42,-5.13 0,-22.2 -17.94,0 -55.81,-11.84 -97.67,-11.84 -16.76,0 -39.95,5.09 -39.95,20.72z"/>
   <path class="fil0" d="M393.22 478.79c0,4.18 4.52,5.01 7.34,17.81 1.26,5.73 2.52,17.64 3.02,23.62 6.05,-0.5 5.98,-1.39 7.13,-6.19 2.67,-11.08 1.23,-23.3 1.34,-23.71 0.25,-0.93 -2.09,-1.13 2.19,-2.01 3.75,-0.77 9.42,4.27 14.37,-6.7 1.92,-4.27 1.61,-9.99 1.61,-16.15 -8.83,0.74 -3.01,2.48 -10.36,7.4 -2.94,-6.13 0.73,-6.72 -7.4,-7.4 -0.57,6.87 1.59,2.59 -2.96,5.92 -4.82,-1.29 -6.11,-2.58 -7.4,-7.4l-2.96 0c-1.2,5.16 -5.92,11.42 -5.92,14.8z"/>
   <path class="fil0" d="M554.52 478.79c0,3.15 5.97,12.32 7.02,18.13 1.5,8.31 1.59,15.81 3.33,23.3 7.93,-0.66 6.7,-4.77 7.59,-13.2 1.72,-16.46 -0.19,-6.65 -0.19,-17.87 6.59,-1.54 19.24,4.17 19.24,-19.24 0,-5.66 0.46,-0.54 -1.48,-4.44 -6.45,0.71 -4.38,1.7 -7.4,7.4 -3.62,-2.65 -3.19,-2.02 -4.44,-7.4l-4.44 0c-0.91,3.89 -1.35,4.35 -2.96,7.4 -10.94,-5.79 -2.73,-6.64 -11.84,-7.4 -0.6,7.26 -4.44,8.93 -4.44,13.32z"/>
   <path class="fil0" d="M595.95 480.27c0,3.1 7.44,15.58 9.09,20.5 5.26,15.77 0.76,18.67 10.15,19.45 0.44,-19.74 14.8,-35.41 14.8,-38.47 0,-8.22 -1.48,-8.78 -1.48,-16.28 -5.36,0.45 -2.63,-2.55 -9.53,8.23 -3.01,4.7 -4.72,7.36 -5.27,13.97 -0.2,-0.3 -0.46,-1.15 -0.54,-0.93 -0.08,0.22 -0.44,-0.74 -0.54,-0.94 -0.02,-0.04 -1.45,-2.94 -1.46,-2.98l-7.81 -17.35 -4.44 0c-1.12,4.78 -2.96,9.18 -2.96,14.8z"/>
   <path class="fil0" d="M369.55 478.79c0,1.64 4.13,10.12 5.75,19.41 1.13,6.53 2.61,15.79 3.13,22.03l4.44 0c3.09,-13.28 7,-46.1 -5.92,-54.75 -2.68,1.96 -7.4,9.05 -7.4,13.32z"/>
   <g>
    <path class="fil0" d="M606.31 824.56c3.29,-4.92 16.21,-17.07 23.68,-5.92 -4.17,5.7 -13.85,5.92 -23.68,5.92zm-109.5 -14.8c3.61,5.39 7.47,5.31 11.84,11.84 -10.2,0 -16.83,0.46 -25.15,-1.48 -0.95,-4.07 -2.01,-7.77 -2.96,-11.84 -15.36,0.34 -2.33,10.41 -16.57,13.02 -1.59,0.29 -2.42,0.33 -4.05,0.39 -8.67,0.32 -48.93,0.76 -48.93,17.66 0,11.54 1.26,13.32 29.6,13.32l0 1.48c-15.95,0 -51.79,8.62 -51.79,-16.28 0,-9.16 2.21,-3.81 0,-13.32 -13.69,-3.5 -14.8,18.05 -14.8,29.59 0,35.39 76.95,32.99 76.95,0 0,-6.77 -3.96,-10.56 -9.16,-11.56 -8.56,-1.63 -13.15,2.66 -17.48,-3.24 42.52,0 20.04,16.61 45.84,8.85 6,-1.8 4.09,-2.65 8.91,-5.89 1.37,5.12 0.87,4.07 6.07,5.77 7.26,2.36 16.02,1.94 23.22,-0.15 5.85,-1.7 4.69,-2.61 9.18,-5.61 6.24,4.17 9.92,7.4 23.68,7.4 8.24,0 12.87,-2.65 17.76,-5.92 11.43,7.65 25.57,8.05 28.12,-1.48 42.61,22.55 66.85,-21.95 56.28,-40 -6.39,-10.91 -19.89,-6.84 -28.15,-1.41 -9.33,6.14 -15.52,17.2 -20.74,20.69 -3.18,-6.63 -1.16,-9.14 -7.4,-13.32 -10.52,7.7 2.94,13.32 -17.76,13.32 -8.29,0 -3.19,-8.07 -10.36,-13.32 -7.88,2.11 -2.65,1.81 -10.36,13.32l-19.24 0c2.44,-3.64 14.61,-16.62 2.08,-24.28 -12.56,-7.68 -30.7,-4.47 -34.64,12.44z"/>
    <path class="fil0" d="M803.11 772.77c-1.63,1.51 2.59,1.48 -4.44,1.48 -1.63,1.51 2.59,1.48 -4.44,1.48l-33.96 12.06c-0.47,12.1 -5.23,11.18 -0.68,18.03 3.67,5.52 9.23,7.83 10.96,14.3 -4.76,2.28 -15.96,2.28 -20.72,0 -4.09,-8.52 -1.48,-44.68 -1.48,-57.71 -7.76,1.81 -15.06,9.54 -22.2,13.32 0,11.77 1.54,20.6 1.47,34.04 -0.05,8.93 0.85,26.2 4.16,31.35 8.39,13.04 48.15,11.48 52.08,-3.24 6.88,1.83 15.23,14.72 30.5,11.38 5.3,-1.16 6.05,-3.18 9.46,-5.46 13.79,9.24 9.41,6.09 20.72,-1.48 3.57,13.39 16.98,2.99 19.24,1.48 14.39,9.63 33.8,6.66 39.45,-6.42 6.72,-15.54 0.83,-40.69 -8.38,-46.85 -4.54,3.04 -10.56,12.54 -13.32,17.76 3.24,4.85 8.69,7.06 10.36,13.32l-20.72 0c-0.94,-4.07 -2.01,-7.77 -2.96,-11.84l-7.4 0c-0.94,4.07 -2.01,7.77 -2.96,11.84 -8.63,-0.19 -8.12,-2.73 -8.88,-11.84l-7.4 0c-1.11,4.79 -2.51,6.49 -2.96,11.84l-7.4 0c-0.95,-4.07 -2.01,-7.77 -2.96,-11.84l-7.4 0c-1.2,5.17 -2.26,7.72 -4.44,11.84 -19.5,0 -21.69,-0.07 -35.52,-20.72 4.24,-2.03 18.49,-6.19 23.68,-7.4 0,-9.35 0.89,-13.65 1.48,-20.72l-2.96 0z"/>
    <path class="fil0" d="M128.35 800.89c5.75,3.85 7.16,4.94 12.24,9.96 13.2,13.02 5.43,10.76 -15.2,10.76 -8.26,0 -9.73,-5.73 -10.36,-13.32l-7.4 0c-3.53,15.14 -5.8,13.32 -17.76,13.32 -10.96,0 0.37,-12.98 -14.8,-13.32 -6.57,28.21 -27.58,4.81 -32.56,1.48 -3.91,5.83 -6.95,14.27 -10.36,20.72 4.48,6.69 9.79,7.47 11.84,16.28 -10.64,15.89 -55.7,31.38 -23.81,31.2 8.92,-0.05 17.83,-0.12 26.77,-0.12 3.06,-11.46 8.88,-7.63 8.88,-29.59 9.32,2.17 16.65,0.26 23.67,-4.44 9.81,6.57 22.75,6.57 32.56,0 9.91,6.63 12.11,4.44 31.07,4.44 16.82,0 25.7,-22.59 17.78,-41.46 -2.44,-5.83 -4.4,-7.31 -7.42,-11.81 6.08,-2.92 16.32,-5.69 23.68,-7.4 0,-8.66 1.48,-13.43 1.48,-23.67l-40.24 13.03c-7.13,2.41 -8.44,4.3 -10.07,23.96z"/>
    <path class="fil0" d="M474.61 925.19c-1.56,6.72 -3.93,13.26 -0.4,18.04 8.12,11.01 19.49,11.55 -9.96,11.55 -10.11,0 -13.31,-2.95 -13.31,-13.31 -9.97,0.83 -8.83,13.83 -7.89,18.13 3.5,15.93 16.3,12.94 34.52,12.94 10.5,0 10.4,-3.46 16.28,-7.4 19.29,12.92 17.61,6.36 25.83,5.15 5.93,-0.87 8.66,7.42 23,-2.19 3.42,4.67 4.9,4.44 11.84,4.44 13.43,0 12.07,-2.6 19.24,-7.4 4.2,2.81 7.83,7.4 14.8,7.4 25.96,0 18.57,-32.46 10.36,-38.48 -3.61,2.65 -6.31,8.01 -8.88,11.84 3.06,4.57 4.43,3.29 5.92,8.88 -4.53,-0.1 -5.65,-0.54 -9.2,-1.15 -6.75,-1.18 -3.95,0.39 -8.3,-3.54 -4.52,-4.08 -7.77,-7.69 -10.61,-13.06 7.22,-0.6 8.18,-3.76 16.28,-4.44l0.99 -16.32c-6.48,1.67 -12.44,4.21 -19.68,6.5 -10.37,3.28 -12.38,2.72 -12.38,15.73 0,4.43 8.02,11.31 10.36,14.8l-17.76 0c-1.3,-5.57 -0.61,-6.07 -4.44,-8.88 -7.94,5.82 0.39,8.88 -13.32,8.88 -7.5,0 -1.09,-4.26 -7.4,-8.88 -9.29,6.22 1.02,8.88 -13.32,8.88 -8.72,0 -16.08,-10.31 -19.24,-16.28 5.91,-1.38 10,-3.92 16.28,-4.44 0,-8.21 1.33,-9.84 1.48,-16.28 -10.45,0.87 -20.63,8.01 -31.08,8.88z"/>
    <path class="fil0" d="M294.08 814.2c6.83,0.57 8.88,4.91 8.88,11.84 0,5.66 0.45,0.54 -1.48,4.44 -4.44,-1.19 -5.17,-1.71 -6.92,-6.53 -2.37,-6.51 -0.37,-5.92 -0.48,-9.75zm-23.68 7.4c-9.17,0 -11.45,1.04 -14.8,-13.32 -16.27,0.36 -1.09,13.32 -19.24,13.32 -9.29,0 -13.46,-7.97 -19.24,-11.84l-10.39 20.7c3.46,5.13 9.16,10 13.35,14.81l-5.32 6.52c-11.52,10.66 -48.83,26.32 -19.97,26.16 8.93,-0.05 17.84,-0.12 26.77,-0.12 3.13,-11.74 8.88,-7.39 8.88,-29.59 20.52,0 13.53,0.87 23.68,-5.92 4.97,7.43 4.65,5.92 19.24,5.92 4.5,0 5.02,-2.57 5.92,-5.92 5.48,1.46 8.97,7.4 16.28,7.4 27.91,0 19.57,-48.83 0,-48.83 -28.63,0 -13.04,20.72 -25.16,20.72z"/>
    <path class="fil0" d="M674.37 969.58l-1.48 -1.48 1.48 1.48zm-1.48 -1.48l-3.18 -0.81 3.18 0.81zm-16.28 -2.96l11.84 0 0 1.48 -11.84 0 0 -1.48zm17.76 4.44c3.07,1.47 4.97,2.2 10.14,1.28 6.74,-1.2 0.51,-0.54 4.4,-1.46 0.24,-0.06 0.65,-0.21 0.89,-0.24 3.22,-0.44 2.18,0.73 6.92,1.64 1.46,0.28 4.26,0.44 5.78,0.46 5.53,0.08 6.76,0.4 10.09,-1.93 5.09,-3.56 4.9,-10.48 4.8,-19.04 -0.1,-8.76 -0.85,-15.54 -8.98,-16.22 -1.57,5.87 -4.35,5.97 -5.92,11.84l6.19 7.14c-9.97,4.91 -12.28,0.25 -12.22,-9.99 0.04,-8.92 0.11,-17.82 0.11,-26.75 -5.61,1.31 -9.04,4.54 -13.32,7.4 0,30.31 8.58,30.3 -14.78,31.09 -20.17,0.69 -31.17,17.75 -8.89,17.75l0 2.96c-6.28,0 -15.23,-0.46 -19.76,-2.43 -6.51,-2.83 -5.39,-9.69 -5.39,-18.28 -5.33,0.44 -5.73,0.72 -7.98,5.33 -4.61,9.42 -4.93,24.18 10.66,28.99 7.02,2.17 19.1,1.6 26.32,-0.89 9.77,-3.37 10.96,-6.28 10.96,-18.64z"/>
    <path class="fil0" d="M388.78 971.06c7.6,0.17 4.25,-1.34 7.4,2.96 -4.13,1.71 -4.66,0.78 -7.4,-2.96zm1.48 -16.28l0 -2.96c4.72,-1 2.3,-1.5 5.92,0 -3.44,4.7 1.02,2.23 -5.92,2.96zm19.24 -8.88c5.9,8.81 11.38,8.88 -7.4,8.88 6.43,-13.4 -5.15,-20.58 -15.5,-9.59 -3.83,4.07 -3.06,5.09 -5.21,9.59 -11.02,-2.57 -7.74,-5.51 -14.8,-7.4 -4.71,3.45 -4.46,7.77 -7.4,13.32 20.25,13.56 -11.85,23.33 -13.32,23.67l0 5.92 23.68 0c2.02,-7.59 5.92,-6.89 5.92,-19.24l5.92 0c4.59,19.72 28.69,16.6 20.72,0 23.54,0 22.2,-2.74 22.2,-22.2 0,-8.86 -2.85,-8.84 -4.44,-14.8l-4.44 0c-1.57,5.87 -4.35,5.97 -5.92,11.84z"/>
    <path class="fil0" d="M955.53 805.33c1.22,0.64 33.31,17.76 17.76,17.76 -10.39,0 -15.41,1.47 -19.18,-4.5 -4.46,-7.07 2.35,-2.93 -5.98,-7.34 -7.81,7.41 -9.17,28.34 2.33,34.67 9.03,4.97 40.58,7.4 40.58,-21.35l0 -7.4c0,-13.61 -14.31,-33.01 -26.64,-34.04 -1.95,8.39 -8.15,13.51 -8.88,22.2z"/>
    <path class="fil0" d="M706.93 823.08c-6.39,3.07 -10.98,3.25 -17.76,0 1.09,-13.13 14.7,-4.17 17.76,0zm-31.07 4.44l0 5.92c0,26.14 53.63,19.77 42.74,-18.99 -3.89,-13.85 -19.88,-21.35 -27.84,-20.55 -8.28,0.83 -14.89,22.74 -14.89,33.62z"/>
    <path class="fil0" d="M925.93 849.72c16.46,-11.02 9.42,-80.01 5.92,-87.3 -6.96,1.86 -5.08,4.82 -15.21,14.39 -8.17,7.71 -5.43,6.34 -2.98,23.04 1.48,10.07 2.61,17 4.24,26.84 1.67,10.07 1.45,18.64 8.03,23.04z"/>
    <path class="fil0" d="M334.03 848.24c6.22,-1.66 5.71,-3.64 7.64,-10.12 4.44,-14.94 2.72,-34.07 2.72,-52.03 0,-10.4 -2.25,-15.19 -2.96,-23.68 -5.84,1.56 -11.88,9.19 -15.7,13.9 -7.48,9.22 -5.12,9.15 -3.11,22.67l6.31 38.09c1.3,7 0.54,7.83 5.1,11.18z"/>
    <path class="fil0" d="M307.39 957.74c9.87,14.73 12.35,14.8 -10.36,14.8 -13.69,0 -8.88,-11.83 -8.88,-11.84 0,-5.66 0.46,-0.54 -1.48,-4.44 -7.81,0.65 -8.88,7.59 -8.88,16.28 0,14.9 9.82,17.76 22.2,17.76 33.44,0 26.03,-42.48 13.32,-45.87 -1.19,5.08 -3.7,9.12 -5.92,13.32z"/>
    <path class="fil0" d="M251.17 944.42l0 11.84c0,22.14 25.7,40.51 22.41,26.68 -1.41,-5.94 -14.8,-27.48 -3.63,-55.26 0.86,-2.14 2.56,-5.45 3.24,-7.46 5.65,-16.53 -22.02,5.91 -22.02,24.2z"/>
    <path class="fil0" d="M733.57 951.82c0,4.17 -1.98,15.63 -3.07,19.13 -1.79,5.74 -5.31,10.4 -5.81,16.39 8.04,0 12.09,-2.57 17.33,-12.27 15.63,-28.91 -3.85,-55.51 -11.55,-58.99 -13.94,-6.31 3.1,13.15 3.1,35.75z"/>
    <path class="fil0" d="M326.63 929.63c3.12,13.39 3.17,32.13 8.88,42.91 12.34,-8.26 7.17,-52.03 4.44,-57.71 -3.24,2.17 -4.15,3.1 -6.79,6.52 -2.69,3.48 -4.5,5.26 -6.52,8.28z"/>
    <path class="fil0" d="M63.24 866c0,0.16 5.25,17.21 14.8,2.96l7.14 6.19 9.48 -8.81c-9.69,-13.45 -13.66,-5.28 -16.62,-3.3 -1.65,-1.1 -4.98,-4.44 -5.92,-4.44 -3.2,0 -8.88,5.94 -8.88,7.4z"/>
    <path class="fil0" d="M848.99 778.69l-1.48 1.48 -1.48 1.48c-2.26,2.1 -0.7,2.1 -2.96,0l-1.48 -1.48 -1.48 -1.48c-6.12,0.51 -7.62,3.31 -10.36,7.4 1.3,4.83 3.72,6.41 7.4,8.88l7.14 -6.19 7.4 6.46 9.48 -8.81c-3.58,-5.18 -4.65,-7.57 -12.18,-7.74z"/>
    <path class="fil0" d="M236.37 866l8.54 9.22 7.48 -6.54c1.38,1.94 3.73,6.19 6.18,6.19 3.2,0 8.88,-5.94 8.88,-7.4 0,-0.17 -5.25,-17.22 -14.8,-2.96 -6.02,-4.03 -7.48,-11.66 -16.28,1.48z"/>
    <path class="fil0" d="M794.24 775.73c1.63,-1.52 -2.59,-1.48 4.44,-1.48 1.63,-1.52 -2.59,-1.48 4.44,-1.48l2.96 -8.88 -44.39 13.31c-0.13,5.81 0.41,3.47 -1.48,7.4 12.07,-0.27 21.96,-8.61 34.04,-8.88z"/>
    <path class="fil0" d="M461.29 786.09l8.54 9.22 7.48 -6.53 5.85 6.52 9.55 -8.87c-3.59,-5.18 -4.65,-7.57 -12.18,-7.74 -1.04,4.33 0.19,2.13 -2.96,4.44 -4.06,-2.72 -7.55,-10.07 -16.28,2.96z"/>
    <path class="fil0" d="M701.01 979.94c2.71,4.05 3.99,3.46 4.96,7.15 0.7,2.64 -3.25,1.85 5.4,7.65 13.5,-9.04 0.08,-1.42 7.7,-11.41 3.26,-4.28 1.25,0.41 2.66,-4.86 -10.27,-7.14 -4.64,-0.58 -9.96,-1.09 -2.38,-0.23 -0.57,-1.71 -7.8,-1.87 -0.97,4.06 0.6,2.31 -2.96,4.44z"/>
    <path class="fil0" d="M880.06 771.29c0,0.2 4.83,16.66 15.28,6.41 3.16,-3.1 3.51,-2.6 3.95,-7.89 -5.75,-1.54 -5.52,-4.16 -10.36,-7.4 -1.74,1.17 -8.88,6.8 -8.88,8.88z"/>
    <path class="fil0" d="M103.19 866c0,4.15 6.17,8.54 8.88,10.36l10.7 -10.01c-3.37,-4.86 -6.28,-6.26 -10.7,-9.22 -1.74,1.17 -8.88,6.8 -8.88,8.88z"/>
    <path class="fil0" d="M547.11 786.09c7.54,11.26 11.25,11.93 19.24,0 -7.54,-11.26 -11.25,-11.94 -19.24,0z"/>
    <path class="fil0" d="M840.11 778.69l1.48 1.48 1.48 1.48 2.96 0 1.48 -1.48 1.48 -1.48 4.69 -5.69c-2.72,-3.91 -4.29,-6.33 -9.13,-7.63l-7.74 7.06c1.51,4.72 0.94,2.74 3.3,6.26z"/>
    <path class="fil0" d="M406.29 923.48l4.94 5.92c4.13,-0.94 2.15,-0.37 5.67,-2.73 3.52,2.36 1.54,1.79 5.92,2.96l4.69 -5.69 -4.94 -5.92c-4.12,0.94 -2.15,0.37 -5.67,2.73 -3.52,-2.36 -1.54,-1.79 -5.92,-2.96l-4.69 5.69z"/>
    <path class="fil0" d="M588.3 923.48l4.94 5.92c4.13,-0.94 2.15,-0.37 5.67,-2.73 3.52,2.36 1.54,1.79 5.92,2.96l4.69 -5.69 -4.94 -5.92c-4.13,0.94 -2.15,0.37 -5.67,2.73l-5.88 -3.04 -4.74 5.77z"/>
    <path class="fil0" d="M510.12 981.42c0,3.56 2.4,4.35 4.44,7.4l5.69 -4.69 4.35 5.01c1.42,-1.97 4.76,-5.3 4.76,-6.24 0,-8.62 -6.71,-5.41 -10.36,-2.96 -1.77,-3.15 -0.69,-2.96 -5.92,-2.96 -0.83,1.19 -2.96,3.65 -2.96,4.44z"/>
    <path class="fil0" d="M533.8 931.11c4.86,7.26 7.33,8.94 13.31,0 -4.86,-7.26 -7.33,-8.94 -13.31,0z"/>
    <path class="fil0" d="M292.6 942.94c0,3.56 2.4,4.35 4.44,7.4 7.29,-3.85 11.95,-6.31 1.48,-13.32 -1.67,1.12 -5.92,3.48 -5.92,5.92z"/>
   </g>
  </g>
 </g>
</svg>
