<?xml version="1.0" encoding="UTF-8"?>
<!DOCTYPE svg PUBLIC "-//W3C//DTD SVG 1.1//EN" "http://www.w3.org/Graphics/SVG/1.1/DTD/svg11.dtd">
<!-- Creator: CorelDRAW 2020 (64-Bit) -->
<svg xmlns="http://www.w3.org/2000/svg" xml:space="preserve" width="1in" height="1in" version="1.1" style="shape-rendering:geometricPrecision; text-rendering:geometricPrecision; image-rendering:optimizeQuality; fill-rule:evenodd; clip-rule:evenodd"
viewBox="0 0 1000 1000"
 xmlns:xlink="http://www.w3.org/1999/xlink"
 xmlns:xodm="http://www.corel.com/coreldraw/odm/2003">
 <defs>
  <style type="text/css">
   <![CDATA[
    .fil0 {fill:#4D4D4D}
   ]]>
  </style>
 </defs>
 <g id="Layer_x0020_1">
  <metadata id="CorelCorpID_0Corel-Layer"/>
  <g id="_1856125131008">
   <path class="fil0" d="M766.07 661.11c142.68,13.59 183.44,-81.25 216.75,-190.73 -125.39,-205.34 -476.64,126.21 -216.75,190.73z"/>
   <path class="fil0" d="M214.29 493l0 0zm372.26 9.17c-9.98,-18.01 -2.3,-4.68 -24.01,-15.91 -22.4,48.85 -10.37,15.71 -1.76,65.93l-67.7 0.13c-33.09,-53.2 17.39,4 -10.87,-57.56 -40.48,42.16 -14.22,43.2 -45,54.25 -42.68,15.32 -30.07,-15.06 -60.12,-38.73 -64.73,-51 -86.7,18.45 -162.78,-17.29l61.06 -48.04 11 -17.07c-49.4,-6.44 -127.42,49.35 -115.59,106.48l181.32 9.15c-44.51,14.02 -103.25,9.72 -150.52,10.24 -112.67,1.24 -49.24,-5.93 -115.04,-33.96 -52.67,68.54 79.49,82.66 -73.87,116.02 52.6,65.39 59.8,36.12 91.65,0.13 49.93,-56.43 379.89,0.71 475.03,-28.89 20.29,-43.77 24.44,-60.44 7.23,-104.9z"/>
   <path class="fil0" d="M538.52 886.39l29.45 15.16c121.23,6.32 184.8,-46.36 189.11,-168.39 -29.92,-81.36 -133.98,-90.57 -202.12,-43.61 -67.99,46.86 -105.81,151.57 -16.44,196.85z"/>
   <path class="fil0" d="M742.66 371.71c127.39,9.22 225.59,-50.44 244.7,-178.92 -74.13,-161.11 -398.33,87.71 -244.7,178.92z"/>
   <path class="fil0" d="M231.11 897.85c3.98,14.83 14.82,32.3 38.24,56.43 68.26,70.32 168.92,-52.1 185.11,-124.77 -26.48,-97.82 -85.89,-86.71 -142.69,-59.84 -50.63,23.94 -98.3,62.42 -80.65,128.19z"/>
   <path class="fil0" d="M723.01 173.27c37.28,-39.09 106.56,-130.43 13.65,-148.6l-37.19 0c-234.1,40.23 -158.03,339.03 23.54,148.6z"/>
   <path class="fil0" d="M106.22 875.65c121.91,-9.72 96.78,-53.8 144.1,-128.93 -98.07,-160.6 -254.11,66.23 -144.1,128.93z"/>
   <path class="fil0" d="M358.39 259.59c94.07,-4.34 149.91,-57.9 160.89,-150.86 -43.77,-90.12 -247.18,56.73 -160.89,150.86z"/>
   <path class="fil0" d="M190.28 385.34c77.62,-17.26 117.21,-65.11 121.89,-144.52 -36.86,-51.29 -95.43,-16.67 -124.63,21.3 -33.36,43.37 -56.95,100.04 2.74,123.22z"/>
   <path class="fil0" d="M445.54 453.88l27.89 16.28 14.37 -15.88 -9.55 -31.56c-22.93,5.34 -33.93,-0.76 -32.71,31.16z"/>
   <path class="fil0" d="M529.6 658.02l27.89 16.28 14.37 -15.88 -9.55 -31.56c-22.93,5.34 -33.93,-0.76 -32.71,31.16z"/>
   <polygon class="fil0" points="286.34,427.89 275.35,444.96 "/>
  </g>
 </g>
</svg>
