<?xml version="1.0" encoding="UTF-8"?>
<!DOCTYPE svg PUBLIC "-//W3C//DTD SVG 1.1//EN" "http://www.w3.org/Graphics/SVG/1.1/DTD/svg11.dtd">
<!-- Creator: CorelDRAW 2020 (64-Bit) -->
<svg xmlns="http://www.w3.org/2000/svg" xml:space="preserve" width="1in" height="1in" version="1.1" style="shape-rendering:geometricPrecision; text-rendering:geometricPrecision; image-rendering:optimizeQuality; fill-rule:evenodd; clip-rule:evenodd"
viewBox="0 0 1000 1000"
 xmlns:xlink="http://www.w3.org/1999/xlink"
 xmlns:xodm="http://www.corel.com/coreldraw/odm/2003"
 xmlns:dc="http://purl.org/dc/elements/1.1/"
 xmlns:cc="http://creativecommons.org/ns#"
 xmlns:rdf="http://www.w3.org/1999/02/22-rdf-syntax-ns#"
 xmlns:svg="http://www.w3.org/2000/svg"
 xmlns:sodipodi="http://sodipodi.sourceforge.net/DTD/sodipodi-0.dtd"
 xmlns:inkscape="http://www.inkscape.org/namespaces/inkscape"
 inkscape:version="0.48.4 r9939"
 sodipodi:docname="IRI.NAJA.FATA (New).svg">
 <defs>
  <style type="text/css">
   <![CDATA[
    .fil0 {fill:#231F20}
    .fil3 {fill:#ED1C24}
    .fil4 {fill:#F9A527}
    .fil2 {fill:#FEF584}
    .fil1 {fill:white}
   ]]>
  </style>
 </defs>
 <g id="Layer_x0020_1">
  <metadata id="CorelCorpID_0Corel-Layer"/>
  <sodipodi:namedview id="base" pagecolor="#ffffff" bordercolor="#666666" borderopacity="1.0" inkscape:pageopacity="0.0" inkscape:pageshadow="2" inkscape:zoom="0.175" inkscape:cx="-153.67852" inkscape:cy="901.82896" inkscape:document-units="px" inkscape:current-layer="layer1" showgrid="false" inkscape:window-width="1280" inkscape:window-height="962" inkscape:window-x="-8" inkscape:window-y="-8" inkscape:window-maximized="1"/>
  <g id="_2353689444128">
   <path class="fil0" d="M397.5 214.52c-3.11,0.83 -12.92,8.65 -15.97,10.93l-21.83 18.71c-2.35,2.33 -4.63,4.28 -6.69,6.95l-21.76 25.6c-8.83,11.77 -16.87,24.1 -24.04,36.95 -1.66,2.98 -3.01,6.09 -4.73,8.91 -1.47,2.43 -3.52,6.5 -4.57,9.07 -0.68,1.68 -1.26,2.75 -2.07,4.37 -6.32,12.57 -13.02,30.4 -17.26,43.74 -14.24,44.86 -20.5,89.82 -20.5,137.49 0,6.17 0.29,11.05 0.37,17.06l1.9 24.24c0.24,2.71 0.53,5.06 0.83,7.88 2.81,25.72 8.29,48.38 15.31,72.97 4.17,14.62 12.53,37.2 19.35,50.74 2,3.96 3.56,7.93 5.69,11.74 8.71,15.56 16.21,28.94 26.8,43.67 1.3,1.81 2.41,3.21 3.74,4.98 3.68,4.93 7.49,9.95 11.73,14.41l4.07 4.64c1.81,2.37 10.39,11.06 13.15,13.37 2.82,2.36 5.89,5.83 9.26,8.55l14.5 11.64c8.6,6.46 17.87,11.81 27.13,17.2 5.57,3.24 11.8,5.89 17.85,8.3 11.11,4.43 22.22,7.99 34.01,10.32 26.62,5.26 57.3,4.18 83.14,-3.31 2.4,-0.69 4.53,-1.3 6.73,-1.98 6.46,-1.97 13,-4.5 19.15,-7.37 15.65,-7.3 30.32,-15.94 43.91,-26.56 3.24,-2.53 6.6,-5.04 9.54,-7.9l24.25 -23.87c4.33,-4.26 10.35,-12.04 14.06,-17 1.3,-1.73 2.42,-3.21 3.74,-4.98l23.72 -37.66c5.29,-9.45 10.07,-19.69 14.22,-29.73 0.89,-2.15 1.72,-3.9 2.6,-6.11l7.2 -19.33c6.8,-17.17 15.29,-54.22 17.52,-70.76 1.31,-9.75 3.5,-21.54 3.81,-31.43l0.74 -12.14c0.02,-2.04 0.35,-2.22 0.41,-4.14 0.99,-33.15 -0.17,-68.32 -6.49,-100 -4.61,-23.12 -6.97,-32.27 -13.47,-54.35 -3.39,-11.53 -9.98,-28.31 -15.04,-39.14l-4.37 -9.28c-1.07,-2.65 -2.92,-6.44 -4.38,-8.88 -3.41,-5.7 -6.3,-11.79 -9.76,-17.52 -1.76,-2.92 -3.54,-5.62 -5.22,-8.42 -3.37,-5.63 -7.12,-10.63 -10.85,-16.05 -3.78,-5.48 -13.11,-17.56 -18.05,-22.49l-9.85 -10.6c-7.96,-7.95 -16.35,-15.59 -25.4,-22.34 -2.49,-1.86 -13.25,-10.31 -16.19,-11.09 0.57,-2.15 3.03,-4.13 4.43,-5.8l20.74 -25.11c5.33,-6.78 11.22,-13.06 16.51,-19.86l18.51 -22.41c1.9,-2.35 13.69,-15.66 13.69,-17.37 0,-1.11 -0.64,-2.31 -1.25,-2.92l-4.9 -4.19c-12.07,-10.76 -25.67,-19.59 -39.71,-27.73 -0.98,-0.57 -2.01,-0.98 -3,-1.55 -4.69,-2.72 -10.09,-5.55 -15.06,-7.67 -13.07,-5.58 -25.47,-10.91 -39.29,-14.89 -7.13,-2.05 -13.96,-3.81 -20.79,-6.49 -8.32,-3.25 -16.43,-7.19 -23.49,-12.5 -5.16,-3.89 -10.2,-8 -14.07,-13.2 -4.1,-5.5 -7.62,-11.26 -9.31,-17.96 -0.7,-2.8 -0.65,-5.31 -4.16,-5.31 -5.2,0 -1.8,9.58 -12.41,22.44 -10.63,12.89 -21.84,19.96 -37.7,26.32 -10.37,4.17 -21.76,6.7 -32.24,10.19 -8.87,2.96 -17.08,5.96 -25.24,9.99 -1.61,0.8 -3.33,1.49 -4.93,2.28 -6.23,3.07 -12.66,6.2 -18.63,9.78 -13.7,8.23 -27.46,16.91 -39.24,27.82 -1.61,1.49 -4.72,3.57 -4.06,6.13 0.53,2.04 7.76,10.05 9.56,12.06l6.32 7.7c1.11,1.41 2.22,2.56 3.3,3.9 12.7,15.69 25.9,30.95 38.65,46.6l12.88 15.53c0.85,1.05 2.64,2.97 2.98,4.22z"/>
   <path class="fil1" d="M491.34 190.8c-20.54,0.94 -39.89,5.35 -57.17,12.28 -8.55,3.43 -15.75,7.04 -23.37,11.12 -11.72,6.29 -29.87,19.44 -40.24,29.1 -4.51,4.2 -9.04,8.37 -13.19,12.93l-6.11 6.79c-16.2,18.02 -29.19,37.58 -40.87,59.15 -31.81,58.72 -46.46,130.49 -45.41,198.1 1.45,93.41 31.89,186.42 95,252.34 4.24,4.43 13.41,12.59 18.21,16.65 19.01,16.13 42.63,29.85 66.57,37.6 100.09,32.42 185.03,-30.72 229.05,-101.14 40.42,-64.67 59.35,-140.69 58.14,-219.85 -1.52,-98.64 -35.26,-190.19 -94.96,-252.38 -10.07,-10.49 -25.59,-23.34 -38.18,-31.53 -28.26,-18.38 -64.54,-33.14 -107.47,-31.17z"/>
   <path class="fil0" d="M662.33 153.52c-4.78,0 -9.85,3.18 -9.85,8.33 0,12.19 7.96,12.73 7.96,28.8 -6.79,-3.26 -19.95,-3.41 -28.8,-3.41 -1.66,0 -3.68,1.33 -4.25,2.57 -0.86,1.87 -0.6,3.55 -0.25,5.71 1.53,9.57 14.02,13.02 20.75,34.19 5.52,17.39 8.61,21.57 24.67,30.26 4.23,2.29 8.74,4.89 12.23,8.23 1.28,1.22 1.87,2.29 3.2,3.61 8.66,8.57 15.77,5.69 30.65,10.65 4.35,1.45 16.81,6.31 16.81,10.85l-0.38 3.41c-2.19,-0.51 -7.27,-3.75 -20.49,-6.41 -6.7,-1.35 -13.23,-3.53 -13.23,6.04 0,10.58 11.55,14.87 15.16,36.37 3.41,20.29 4.1,22.04 21.97,35.99l6.73 6.15 5.55 7.33c5.54,7.35 13.5,7.31 21.19,11.01 5.69,2.74 11.18,6 13.9,11.88 1.24,2.67 -1.43,7.63 -3.05,8.71 -0.48,-1.8 -2.31,-3.49 -3.5,-4.84 -3.52,-4.03 -16.29,-16.75 -21.13,-16.75 -5.67,0 -6.82,9.7 -6.82,14.78 0,9.89 4.77,14.62 -0.6,35.77 -2.28,8.96 -3.57,12.21 -3.57,21.81 0,14.09 11.1,26.02 12.82,40.22 1.79,14.81 6.32,14.9 14.52,25.26 1.67,2.11 3.83,6.16 4.11,9.53 -1.74,-1.17 -4.64,-5.63 -6.53,-7.48l-3.21 -3.61c-2.48,-2.61 -6.56,-3.71 -9.06,-0.5 -2.94,3.78 -4.42,7.87 -4.69,13.11 -0.44,8.63 0.71,11.94 -1.88,21.98 -3.32,12.84 -11.37,22.1 -11.37,35.98 0,11.28 4.17,19.87 5.96,30.03 0.65,3.67 0.5,7.44 0.48,11.65 -0.05,13.9 7.45,15.09 10.85,25.14 1.87,5.54 2.03,9.85 2.03,15.78 0,2.88 -0.76,4.3 -0.76,6.82l-0.38 0c0,-9.72 -3.15,-17.45 -6.11,-25.72 -1.23,-3.44 -2.32,-5.72 -6.4,-5.72 -4.07,0 -9.26,6.76 -10.87,9.97 -4.02,8.07 -7.11,16.45 -13.28,23.09l-13.26 13.26c-8.65,8.65 -10.93,16.47 -13.03,29.02 -1.03,6.16 -1.54,11.93 -3.4,17.44 -3.97,11.77 -6.99,10.61 -4.22,24.39 1.95,9.73 1.56,12.54 -2.72,22.1 -1.05,2.35 -5.78,10.05 -7.42,11.15 2.41,-10.33 2.65,-17.27 2.65,-28.04 0,-1.82 -0.97,-3.96 -1.98,-4.84 -1.56,-1.36 -3.17,-1.19 -5.5,-0.74 -7.98,1.51 -11.1,6.89 -16.1,11.94 -14.12,14.27 -21.41,13.04 -35.17,21.28 -3.61,2.17 -5.11,3.46 -8.03,6.37 -2.44,2.42 -4.27,4.87 -6.09,7.93 -4.44,7.48 -8.51,18.03 -14.56,24.08l-5.07 5.54c-6.1,7.51 -4.73,17.56 -8.13,27.49 -1.11,3.23 -3.25,6.62 -6.21,8.19 0,-4.91 0.86,-14.33 -1.13,-18.57 -2.49,-5.32 -6.82,-6.83 -13.27,-6.81l-26.53 0.01c-3.8,0.02 -8.54,-0.85 -11.77,-1.49 -17.73,-3.51 -19.28,-8.79 -38.08,-2.54 -22.04,7.33 -44.26,2.17 -53.29,4.3 -10.36,2.44 -9.37,12.02 -9.37,19.42 0,4.8 0,9.6 0,14.4 -0.7,-0.47 -1.26,-0.81 -2.04,-1.37 -1.1,-0.78 -0.94,-0.97 -2.13,-1.29l0.38 -10.61c0,-12.87 -5.44,-25.63 -11.38,-35.98 -2.02,-3.51 -4.82,-7.24 -7.44,-10.36 -0.65,-0.77 -0.63,-0.92 -1.35,-1.69l-4.17 -4.55c-5.9,-5.94 -16.44,-13.76 -23.66,-18.02 -5.62,-3.32 -15.86,-10.29 -20.86,-14.75l-6.26 -5.87c-3.02,-3.02 -5.56,-6.35 -7.74,-10.07 -3.2,-5.49 -6.56,-1.98 -6.56,0.5 0,13.66 -0.77,19.76 3.83,32.54 0.57,1.57 1.46,3.72 1.85,5.35 -16.4,-3.82 -26.17,-10.49 -28.04,-10.99 0.94,-3.51 8.4,-12.97 8.74,-33.33 0.04,-2.48 -0.39,-3.26 -0.4,-5.69 -0.02,-5.92 -2.44,-15.74 -4.17,-20.08 -3.91,-9.81 -6.87,-15.01 -12.65,-23.72 -9.83,-14.8 -22.35,-27.87 -27.35,-45.39 -0.85,-2.95 -0.63,-8.18 -3.94,-8.18 -3.2,0 -4.38,4.91 -5.24,7.25 -2.48,6.73 -5.05,12.61 -5.36,20.03 -0.17,3.98 -0.38,7.98 -0.38,12.5 -7.41,-4.96 -17.09,-12.41 -21.98,-19.7 0.63,-0.94 1.33,-1.52 2.18,-2.37 6.14,-6.04 11.17,-14.09 14.33,-22.04 0.49,-1.23 0.86,-2.3 1.24,-3.31 6.7,-17.85 4.57,-37.52 -0.66,-55.31l-4.51 -15.19c-2,-7.13 -3.61,-13.51 -4.75,-21.02 -0.74,-4.87 -0.52,-7.48 -0.27,-11.87 0.17,-3.14 2.45,-9.46 -2.26,-9.46 -2.75,0 -4,3.02 -5.59,4.65 -0.88,0.91 -0.96,0.97 -1.78,2.01l-6.21 7.81c-3.21,4.7 -7.32,13.36 -8.78,19.63l-4.24 -5.98c-3.3,-4.97 -9.67,-15.09 -10.15,-20.91 4.67,-1.09 13.41,-7.89 16.96,-11.46l8.17 -8.88c8.59,-10.58 14.83,-25.56 16.91,-40.3 0.76,-5.4 0.98,-10.57 1.14,-15.9l0.39 -10.98c-0.01,-2.55 0.37,-3.44 0.4,-5.67 0.29,-24.76 8.32,-36.63 8.32,-37.52 0,-2.11 -1.46,-3.03 -3.41,-3.03 -2.26,0 -7.15,3.73 -9.11,4.9 -5.89,3.5 -10.69,7.51 -15.42,12.61l-4.52 5.71c-0.68,0.95 -0.79,1.45 -2.01,1.78 -0.05,-2.36 -2.75,-10.22 -3.38,-13.29 -1.02,-4.96 -1.54,-9.11 -1.54,-15.13 11.51,-2.69 23.01,-8.5 31.36,-16.76 20.16,-19.95 22.9,-38.97 29.71,-66.52 2.67,-10.8 6.3,-20.46 12.86,-29.19 0.91,-1.2 2.22,-2.13 2.22,-3.84 0,-5.91 -9.56,-1.17 -12.83,0.06 -6.41,2.38 -12.11,5.31 -17.54,9.36 -2.62,1.96 -4.79,4.29 -7.52,6.12 0,-1.62 -0.2,-1.55 -0.32,-2.71 -0.72,-6.83 -0.87,-14.89 0.05,-21.81 0.22,-1.66 0.89,-4.09 1.03,-5.79l9.09 0.38c13.28,0 25.23,-4.99 33.7,-9.87 4.53,-2.6 8.26,-6.07 12.36,-9.24 1.13,-0.87 1.74,-1.61 2.72,-2.58l7.72 -8.95c4.86,-6.08 9.02,-12.67 13.7,-18.89 1.69,-2.24 2.93,-4.11 4.69,-6.29l4.89 -5.72c5.78,-7.48 15.68,-12.06 16.72,-13.2 1.83,-2 0.44,-4.9 -2.17,-5.19 -5.48,-0.61 -11.46,-0.39 -17.04,-0.39 -6.87,0 -12.69,3.09 -18.94,4.55 2.17,-4.52 2.93,-13.35 10.53,-24.7l12.1 -14.42c1.73,-1.67 4.65,-2.91 4.65,-5.2 0,-5.41 -8.83,-2.44 -13.11,-1.37 -4.88,1.23 -9.9,2.56 -14.28,4.29 -8.69,3.43 -17.62,7.11 -25.27,12.24 0,-3.78 1.52,-8.82 1.52,-13.26 0,-11.03 -3.29,-17.54 -9.08,-25.4 -0.73,-0.99 -1.34,-1.88 -3.05,-1.88 -3.8,0 -3.41,6.51 -6.22,13.86 -4.99,13.05 -13.65,22.73 -24.35,31.35 -4.4,3.54 -9.8,7.69 -13.17,12.22 -11.52,15.46 -15.37,30.68 -15.37,51.69 0,8.14 1.34,15.65 3.74,22.78l2.33 6.77c-1.35,2.01 -6.09,6.33 -8.12,8.93l-7.8 9.63c-0.06,-2.64 -2.04,-10.01 -2.91,-12.24 -2.75,-7.01 -6.19,-13.47 -11.97,-18.34 -1.12,-0.94 -8.49,-5.79 -9.74,-5.79 -1.47,0 -2.76,1 -3.19,2.15l1.29 14.52c0,7.99 -1.42,16.59 -3.55,22.97 -2.97,8.91 -7.82,16.46 -11.98,24.77 -1.48,2.95 -2.52,5.51 -3.79,8.71 -2.66,6.67 -3.79,17.09 -3.79,25.39 0,15.28 5.99,33.78 14.67,45.57 2.69,3.65 5.42,8.34 9.2,10.87 -2.48,4.69 -5.43,8.97 -7.83,13.77 -0.74,1.49 -1.32,3.56 -2.4,4.8 -2.14,-9.18 -11.6,-22.02 -19.83,-26.4 -1.85,-0.99 -9.06,-4.29 -11.24,-4.29 -1.32,0 -3.03,1.71 -3.03,3.03 0,1.31 5.68,14.06 5.68,25.76 0,13.07 -1.1,17.35 -4.68,29.41 -3.15,10.61 -4.79,16.32 -4.79,28.17 0,17.63 8.46,36.12 17.48,48.06 0.99,1.32 1.76,2.29 2.81,3.63 3.86,4.94 8.46,9.22 13.37,13.15 5.22,4.18 4.17,2.07 2.47,8.81 -1.5,6 -3.18,12.35 -3.18,18.8 -0.41,-0.3 -2.39,-2.57 -2.87,-3.19 -1.12,-1.44 -1.84,-2.09 -3.09,-3.35l-7.08 -5.8c-9.11,-6.6 -15.07,-6.98 -25.98,-6.98 -2.69,0 -2.67,3.51 -1.43,5.22 3.94,5.45 6.15,7.34 9.52,13.97 16.3,32.09 -2.34,48.71 22.6,83.49 10.58,14.75 29.76,28.94 46.98,32.96 0,5.86 1.17,12.15 2.3,17.78 0.31,1.58 1.07,4.11 1.11,5.71 -11.16,-5.91 -15.08,-8.71 -29.55,-8.71 -2.73,0 -6.22,0.99 -8.48,1.74 -3.3,1.1 -6.3,1.39 -6.3,5.07 0,1.49 8.01,6.08 11.15,8.55 0.9,0.7 1.04,0.89 1.85,1.56 0.83,0.7 1.05,0.73 1.88,1.53 19.67,18.93 16.74,30.81 28.76,50.8 6.69,11.12 16.51,19 27.42,25.62 11.7,7.1 27.16,11.2 41.84,11.2 2.44,0 3.41,-0.38 6.06,-0.38 0.76,3.26 4.08,8.63 5.69,11.74l6.44 10.99c-1.74,-0.14 -4.39,-0.81 -6.16,-1.04 -14.1,-1.76 -24.11,1.04 -34.27,9.48 -7,5.81 2.17,6.88 5.17,7.49 3.15,0.65 6.19,1.61 9.07,2.68 11.97,4.44 19.44,10.7 28,19.35l11.36 12.51c5.9,5.9 12.11,11.53 19.35,15.89 30.02,18.1 69.9,12.86 102.96,6.97 2.62,-0.47 4.69,-0.94 7.26,-1.45 2.06,-0.41 5.33,-1.42 7.67,-1.42 2.3,0 9.29,6.26 11.54,10.06l2.86 4.33c-12.67,6.7 -30.01,6.59 -44.72,5.31 -6.68,-0.58 -19.37,-4.14 -22.17,4.71 -1.71,5.38 2.17,7.49 2.48,11.19 -5.18,0.43 -7.61,4.17 -29.17,4.17 -7.66,0 -15.37,-1.35 -21.88,-2.74 -3.18,-0.68 -6.43,-1.48 -9.7,-2.43 -7.59,-2.2 -12.37,-5.31 -12.37,0.63 0,1.93 6.61,4.25 8.21,5.05 3.14,1.57 6.18,2.9 9.22,4.42 3.05,1.53 6.08,2.84 9.22,4.42 1.99,1.01 7.5,3.87 9.35,4.3 -1.48,2.79 -10.23,10.56 -10.23,12.88 0,3.47 4.11,3.27 7.2,3.79 18.31,3.08 40.09,3.81 57.75,-0.6 5.08,-1.27 18.41,-5.5 18.41,-12.28 0,-6.05 -4.6,-4.99 -7.58,-7.58 16.52,0 28.03,-2.02 40.24,-10.15 1.63,-1.09 3.2,-2.4 4.56,-3.78 1.24,-1.26 3.62,-2.94 4.07,-4.64 2.74,0.73 3.68,2.27 7.96,2.27 3.7,0 5.23,-1.34 8.13,-1.64 3.16,-0.33 8.35,3.24 13.85,0.89 1.11,-0.47 1.85,-1.21 3.02,-1.52 0.44,1.66 2.68,3.23 3.89,4.45 4.53,4.57 9.52,7.25 15.65,9.73 8.68,3.5 17.34,4.38 29.33,4.38 -1.37,1.19 -3.64,1.42 -5.03,2.55 -3.49,2.85 -3.23,7.2 0.01,10.06 9.28,8.18 30.98,10.51 43.29,10.51 10.41,0 20.44,-1 30.31,-2.65 4.7,-0.79 10.85,-1.5 4.83,-7.49 -0.52,-0.51 -0.84,-0.77 -1.31,-1.34 -1.94,-2.31 -5.24,-5.37 -6.55,-7.84 1.94,-0.45 7.13,-3.17 9.09,-4.17l18.44 -8.84c6.22,-3.11 8.46,-2.67 8.46,-6.69 0,-4.46 -10.08,0.21 -12.08,0.8 -15.39,4.52 -33.65,7.24 -49.9,3.96 -3.04,-0.61 -9.26,-2.72 -11.14,-2.87 0.29,-3.44 4.31,-5.44 2.48,-11.19 -2.81,-8.85 -15.49,-5.29 -22.18,-4.71 -14.7,1.27 -32.05,1.39 -44.72,-5.31 0.81,-1.22 1.47,-1.99 2.3,-3.39 0.33,-0.56 0.76,-1.33 1.13,-1.9 0.5,-0.76 0.71,-0.89 1.33,-1.7 1.88,-2.4 5.02,-5.3 7.86,-6.57 2.13,-0.95 6.63,3.71 16.55,3.71 11.17,0 18.79,-0.83 28.91,-4.81 10.05,-3.95 9.69,-6.93 22.24,-6.93 7.83,0 13.92,3.79 22.73,3.79 12,0 24.67,1.25 32.86,-8.06 1.6,-1.81 2.63,-3.89 4.78,-5.07 3.72,-2.03 26,-1.3 33.29,-5.74 10.05,-6.11 5.6,-16.64 12.95,-26.07 3.12,-4.01 6.63,-5.65 11.34,-7.98 4.7,-2.33 8.96,-5.57 8.96,-11.5 0,-7.9 -12.46,-8.16 -18.1,-9.93 -2.75,-0.87 -3.95,-1.85 -6.15,-3.33 1.76,-3.66 0.69,-10.61 2.26,-14.78 2.92,-7.74 7.72,-11.39 16.01,-13.17 3.1,-0.66 6.94,-0.88 10.18,-1.19 3.96,-0.38 6.48,-1.05 9.82,-1.93 5.53,-1.45 11.77,-3.81 16.8,-6.32 4.94,-2.46 9.69,-6.05 11.79,-11.32 1.01,-2.53 1.6,-5.77 3.64,-7.73 2.13,-2.04 12.14,-5.91 15.52,-7.59 2.63,-1.32 5.04,-2.57 7.7,-4.04 19.96,-11.06 -1.08,-26.07 14.74,-41.71 4.44,-4.4 11.99,-12.37 6.19,-18.88 -1.37,-1.54 -3.15,-1.91 -5.68,-2.3 -3.82,-0.58 -10.53,1 -15,1 -2.31,0 -3.46,-0.71 -5.3,-1.14 0,-5.53 -2.65,-9.61 -2.65,-15.15 0,-3.28 0.91,-5.78 1.11,-8.74 0.26,-4.11 0.06,-3.09 3.53,-6.32 2.44,-2.26 5.97,-4.27 9,-5.78 1.18,-0.58 2.33,-1.08 3.49,-1.81 2.16,-1.37 3.81,-2.45 5.82,-4.03 0.95,-0.74 1.89,-1.44 2.72,-2.21 2.79,-2.6 8.02,-6.76 10.17,-9.54 2.34,-3.02 4.61,-5.31 6.22,-8.93 2.58,-5.78 0.37,-13.99 2.41,-17.29 1.44,-2.34 3.22,-3.4 4.78,-5.44l9.18 -10.52c19.27,-23.45 -10.26,-23.1 0.13,-48.75 2.04,-5.04 4.04,-11.41 0.24,-16.2 -4.3,-5.41 -11.61,-0.59 -16,1.95 -3.8,2.19 -5.77,3.81 -11.72,3.81 -0.99,-4.23 -5.93,-7.78 -7.84,-11.86 -0.83,-1.78 -0.93,-3.73 -1.63,-5.19 1.82,-1.22 2.88,-2.98 4.7,-4.39 5.49,-4.26 9.93,-7.74 14.5,-13.15 1.42,-1.68 2.7,-3.31 4.02,-5.08 7.99,-10.78 10.71,-14.42 7.86,-27.8 -0.89,-4.21 1.73,-6.94 3.85,-10.12 3.91,-5.84 12.43,-18.17 12.43,-24.7 0,-3.18 -1.29,-6 -2.57,-8.04 -2.78,-4.41 -7.02,-7.28 -8.85,-12.37 -5.3,-14.74 4.34,-20.35 -1.6,-29.47 -7.69,-11.8 -19.24,8.2 -27.14,8.2 -1.24,0 -1.3,-1.07 -2.17,-2 -0.8,-0.86 -1.44,-1.43 -2.28,-2.27 -1.44,-1.45 -3.22,-2.63 -4.54,-4.18 -1.47,-1.75 -2.22,-3.26 -3.27,-5.44 -1.2,-2.51 -2.52,-4.87 -2.52,-7.71 0,-6.69 3.01,-11.64 6.14,-16.59 4.04,-6.4 9.78,-21.41 9.78,-28.87l0 -4.17c0,-7.9 -6.82,-10.39 -6.82,-14.78 0,-3.89 1.46,-8.17 2.17,-11.84 1.89,-9.74 4.75,-20.74 -6.55,-25.46 -7.11,-2.96 -12.31,-4.52 -15.84,-11.82 -1.93,-4 -1.64,-10.39 -4.69,-13.88 -1.74,-1.98 -4.24,-3.31 -7.3,-3.31 -7.2,0 -10.35,14.43 -16.3,18.21 -1.89,1.2 -3.92,-0.34 -5.98,-0.86 -5.26,-1.33 -7.93,-1.88 -12.2,-5.22 -1.38,-1.07 -4.55,-2.66 -4.55,-4.54 0,-8.33 5.85,-14.1 7.94,-29.19 1.33,-9.69 2.68,-20.37 -5.5,-26.66 -2.98,-2.29 -3.2,-2.94 -3.2,-7.81l0.39 -10.6c0,-8.03 1.28,-18.01 -7.35,-21.45 -9.69,-3.85 -18.11,-1.52 -22.92,-16.11 -1.17,-3.56 -2.82,-6.95 -6.12,-8.66 -13.39,-6.93 -13.22,18.54 -20.28,20.55l-7.91 -1.07c-3.31,-0.46 -5.19,-0.46 -7.64,-1.83 -3.56,-2 -8.65,-5.53 -13.8,-5.53z"/>
   <path class="fil2" d="M332.03 124.01c1.09,1.7 2.98,3.7 4.35,5.39 10.04,12.28 21.56,25.51 31.23,37.73l35.95 43.23 20.15 -10.18c22.93,-10.37 48.25,-16.33 74.56,-16.34 18.71,-0 36.46,2.93 52.69,7.93 14.77,4.55 19.49,7.23 32.24,13.22 2.73,1.28 7.95,4.79 10.18,5.4l17.93 -21.51c5.93,-7.25 11.75,-14.37 17.87,-21.54 5.97,-6.99 11.8,-14.61 17.86,-21.55l13.4 -16.14c1.16,-1.39 3.78,-4.31 4.52,-5.71l-8.88 -7.35c-10.24,-8.28 -18.63,-13.41 -29.83,-20.17 -11.31,-6.82 -32.83,-16.61 -45.84,-20.85 -22.38,-7.29 -40.48,-10.64 -58.83,-24.13 -10.9,-8.02 -16.39,-14.54 -23.05,-26.96 -2.79,4.96 -7.32,12.98 -11.57,16.93 -8.83,8.2 -8.87,8.92 -21.25,16.25 -14.38,8.52 -31.72,12.14 -48.89,17.79 -15.63,5.15 -32.7,13.3 -45.82,20.85 -11.03,6.35 -20.24,12.46 -29.9,20.11 -3.33,2.64 -6.06,5.2 -9.04,7.59z"/>
   <path class="fil3" d="M482.74 604.75c-2.48,-0.19 -9.93,-7.73 -11.87,-9.7l-10.64 -11.35c-30.94,-35.18 -43.24,-92.52 -28.84,-139.42 2.67,-8.7 5.77,-16.96 9.95,-24.89 1.1,-2.08 4.22,-6.22 1.24,-7.4 -2.28,-0.9 -7.27,5.8 -8.92,7.69 -30.21,34.57 -40.53,85.61 -25.85,129.68 7.25,21.77 13.4,29.92 25.38,45.47 0.87,1.13 1.78,1.93 2.67,3.02l12.07 11.79c6.67,5.18 9.43,7.75 17.19,12.38 1.52,0.9 6.79,3.44 7.45,4.72 -2.07,2.01 -17.26,4.37 -21.35,4.84 -4,0.47 -7.98,0.74 -12.04,0.81 -2.77,0.05 -10.87,-0.55 -12.57,-0.07 -0.51,2.68 1.34,2.61 7.06,4.09 11.13,2.9 21.46,4.07 33.16,4.07 6.39,0 11.93,-1 17.99,-1.3 1.72,3.42 6.74,10.61 9.32,14.79 2.28,3.69 4.44,7.21 8.47,0.59 2.52,-4.13 8.06,-12.12 9.66,-15.31 5.24,-0.06 12.48,1.24 20.1,1.24 8.15,0 32.93,-2.73 38.26,-6.39 -0.12,-3.34 -2.68,-1.68 -10.98,-1.69 -7.56,-0.02 -31.93,-2.48 -35.13,-5.67 0.46,-1.11 0.11,-0.56 1.57,-1.36 9.49,-5.22 13.15,-7.92 21.72,-14.64 10.83,-8.5 23.17,-23.5 30.11,-35.82 13.78,-24.5 21.12,-53.36 16.57,-86.46 -2.04,-14.81 -6.54,-28.41 -12.28,-40.38 -2.83,-5.92 -6.2,-11.44 -9.64,-16.48l-8.5 -11.2c-2.29,-2.72 -8.23,-10.89 -10.49,-7.71 -1.2,1.7 2.52,7.38 3.38,9.15 24.26,50.11 18.08,111.8 -15.15,155.61 -4.79,6.31 -9.65,12.18 -15.39,17.57l-10.08 8.89c-0.74,0.56 -0.85,0.89 -1.98,0.7 -0.44,-3.8 3.07,-173.77 3.48,-190.79 0.21,-8.56 -1.25,-2.34 -12.91,-11.95 -1.25,-1.03 -4.72,-5.26 -5.97,-5.49 -2.12,-0.39 -4.18,3.4 -7.91,6.42 -2.35,1.89 -5.7,4.06 -9.09,5.31 -3.85,1.42 -2.75,2.1 -2.57,11.79 0.09,4.69 0.18,9.35 0.27,14.02l2.94 156.09c0.08,4.39 0.56,10.59 0.15,14.77z"/>
   <path class="fil2" d="M467.96 920.73c2.64,-2.5 4.46,-6.74 11.4,-9.4 -2.51,-5.59 -17.15,-19.07 -22.23,-24.1 -4.63,-4.57 -7.65,-6.89 -12.56,-10.91 -3.18,-2.6 -0.37,-6.11 2.43,-4.75l15.24 13.19c1.82,1.68 4.31,4.34 6.1,5.66 1.01,-0.59 2.41,-2.15 5.49,-3.97 11.79,-6.98 39.36,-7.44 52.02,1.79 1.18,0.86 1.65,1.54 2.73,2.18 2.44,-1.8 6.61,-6.46 8.77,-8.27l9.17 -7.9c0.96,-0.76 2.17,-1.97 3.17,-2.54 2.94,-1.7 5.73,1.96 2.89,4.44 -6.78,5.91 -10.13,8.33 -17.33,15.24 -3.13,3.01 -16.19,16.56 -17.67,19.92 6.94,2.73 8.57,6.75 11.39,9.41 4.31,-2.94 3.49,-4.3 12.59,-8.99 16.91,-8.7 28.01,-5.1 28.31,-14.86 0.21,-7.07 -0.01,-14.51 0,-21.62 0.02,-8.87 -4.77,-8.65 -12.87,-8.65 -14.75,0 -26.26,0.93 -40.65,-2.59 -5.93,-1.45 -10.96,-4.19 -17.7,-4.22 -6.66,-0.02 -11.78,2.56 -17.47,4.06 -14.09,3.71 -26.02,2.74 -40.49,2.74 -8.01,0 -13.6,-0.59 -13.63,8.27 -0.03,7.16 -0.11,14.48 0,21.63 0.17,10.23 10.59,6.31 28.06,15.11 2.28,1.15 4.89,2.61 6.89,4.09 2.29,1.69 4.23,3.85 5.95,5.03z"/>
   <path class="fil3" d="M418.03 406.54c-8.09,3.28 -16.77,8.83 -22.66,13.48 -7.67,6.04 -12.26,10.62 -18.54,17.83 -25.72,29.55 -33.11,75.33 -19.85,111.96 6.72,18.57 17.68,34.14 28.57,44.18 1.54,1.42 7.78,7.74 9.78,8.06 2.65,0.43 4.41,-2.1 3.16,-4.7 -0.81,-1.69 -2.32,-3.89 -3.35,-5.77 -4.44,-8.1 -7.87,-16.04 -10.91,-25.45 -6.34,-19.65 -8.72,-42.47 -6.54,-64.56 2.94,-29.64 13.69,-56.16 31.3,-77.4 2.81,-3.39 5.66,-6.66 8.75,-9.43 0.91,-0.81 4.14,-3.19 4.58,-4.54 0.87,-2.67 -1.53,-4.77 -4.29,-3.65z"/>
   <path class="fil3" d="M576.11 406.65c-5.38,3.36 2.54,6.45 9.16,14.5 8.31,10.09 12.01,14.33 18.5,26.94 22.22,43.15 21.94,103.68 -3.2,145.69 -0.86,1.44 -3.09,4.25 -2.45,6.2 0.92,2.82 4.09,2.19 5.69,0.81 3.49,-3.01 6.48,-5.6 9.49,-8.69 27.7,-28.46 39.72,-68.47 29.93,-108.42 -5.06,-20.64 -14.35,-35.03 -24.69,-47.7l-4.33 -4.76c-6.86,-7.35 -16.85,-14.69 -25.6,-19.85 -2.2,-1.3 -9.96,-6.3 -12.5,-4.72z"/>
   <path class="fil2" d="M676.35 814.28c-1.54,4.68 -7.27,10.63 -10.06,13.05 -4.92,4.26 -8.77,5.06 -15.54,7.56 -8.54,3.16 -6.97,5.15 -10.25,12.87 -2.57,6.05 -6.54,7.54 -13.07,10.04 -20.74,7.93 -3.41,17.06 -35.89,33.46l-16.37 7.13c6.28,3.45 63.51,-7.83 73.12,-15.17 3.26,-2.49 5.35,-5.83 9.91,-7.88 9.35,-4.2 20.38,-1.91 24.89,-11.11 3.75,-7.66 2.78,-17.16 13.11,-22.49 4.37,-2.26 8.46,-2.87 9.52,-8.28 1.24,-6.35 -0.01,-9.44 2.7,-15.51 1.57,-3.53 5.15,-8.42 5.12,-12.76 -0.05,-7.13 -8.2,-2.69 -11.16,-0.85 -8.36,5.2 -13.07,9.38 -26.04,9.96z"/>
   <path class="fil2" d="M418.72 900.93c-0.67,-0.91 -6.21,-4.67 -7.69,-5.85 -23.98,-19.08 -30.12,-43.91 -42.8,-55.32 -19.09,-17.18 -47.58,-9.3 -76.63,-35.15 -0.03,2.95 5.78,17.13 7.21,20.07 9.04,18.62 20.06,35.09 36.97,47.14 22.03,15.69 49.43,25.3 82.94,29.11z"/>
   <path class="fil2" d="M710.79 795.33c1.16,0.56 0.73,-0.06 4.64,1.88 2.29,1.13 11.12,-4.52 13.12,-5.76 5.69,-3.52 10.34,-6.92 15.44,-10.69 4.74,-3.51 10.61,-7.2 13.24,-12.91 3.33,-7.22 6.28,-9.77 12.6,-13.52 5.38,-3.19 11.8,-6.09 12.59,-13.56 0.95,-8.96 -2,-16.13 3,-23.15 3.83,-5.39 10.28,-6.46 7.43,-16.81 -1.13,-4.09 -2.18,-6.8 -1.83,-11.57 0.28,-3.83 1.62,-8.33 1.17,-12.06 -0.5,-4.19 -3.02,-6.38 -6.74,-3.87 -2.51,1.7 -4.28,4.17 -6.37,6.9 -5.29,6.93 -9.3,11.35 -17.71,14.88 -3.74,1.57 -0.5,3.75 -5.65,14.02 -6.14,12.24 -16.07,14.07 -18.37,20.67 -1.23,3.54 -0.02,8.28 -0.96,12.3 -1.66,7.11 -8.03,9.98 -12.11,14.04 -7.06,7.04 -2.4,15.89 -8.8,30.61 -1.51,3.47 -3.23,5.66 -4.69,8.61z"/>
   <path class="fil2" d="M783.19 660.07l-0.56 8.18c1.33,-0.54 2.35,-1.31 4.1,-1.59 3.24,-0.53 2.6,0.61 4.36,-1.71 7.04,-9.31 8.58,-10.77 15.19,-22.32 2.51,-4.4 7.03,-11 7.54,-17.08 0.84,-10.16 1.57,-11.83 6.56,-18.46 3.2,-4.25 8.22,-9.77 5.82,-17.67 -1.85,-6.1 -6.44,-11.02 -6.51,-18.39 -0.07,-7.86 6.68,-12.5 2.5,-19.27 -3.85,-6.24 -6.62,-6.39 -9.12,-15.89 -0.87,-3.3 -1.45,-6.37 -3.18,-8.93 -2.24,-3.33 -4.99,-3.7 -7.43,0.09 -2.38,3.7 -3.98,13.72 -6.24,18.78 -1.23,2.74 -2.89,5.43 -4.59,7.53 -4.68,5.8 -3.96,2.89 -2.96,7.71 1.63,7.91 0.83,15.22 -2.04,21.78 -2.15,4.91 -7.77,11.2 -5.34,17.79 2.54,6.88 5.84,9.48 1.17,19.33 -3.37,7.11 -6.3,9.37 -3.26,19.13 2.14,6.89 4,12.85 4,21.01z"/>
   <path class="fil2" d="M798.72 522.19c1.98,-1.33 4.85,-5.3 10.91,-2.81 2.55,-3.36 12.57,-27.97 12.95,-33.57 0.55,-8.09 -2.53,-9.2 2.41,-19.96 2.12,-4.63 6.94,-11.22 5.34,-17.74 -1.87,-7.65 -11.59,-13.64 -10.72,-24.02 0.28,-3.33 1.78,-6.75 1.83,-9.9 0.15,-7.8 -7.83,-6.31 -14.13,-20.73 -5.4,-12.37 -11.48,-14.43 -13.05,2.58 -0.83,8.95 -2.18,15.57 -7.06,22.2 -2.27,3.09 0.8,2.01 2.51,12.91 1.35,8.61 -0.54,13.07 -2.85,20.07 -3.41,10.34 -1.08,10.13 3.01,17.26 3.83,6.68 1.36,12.16 -0.74,18.73 -3.99,12.54 5.74,16.76 9.57,34.98z"/>
   <path class="fil2" d="M285.06 804.07c-0.59,-3.78 -4.24,-11.61 0.71,-12.26 2.81,-0.37 3.44,2.06 4.78,3.62 1.4,1.63 2.98,2.61 4.1,3.89 0.69,-5.45 -4.66,-33.46 -6.82,-40.57 -11.7,-38.51 -44.43,-38.15 -62.84,-68.26 -0.99,-1.61 -3.72,-6.35 -4.75,-7.31 -1.85,35.34 6.17,65.47 26.29,89.2 1.59,1.87 3.72,4.71 5.46,6.3 2.44,2.24 3.61,3.53 5.87,5.86 4.88,5.05 21.39,17.35 27.2,19.52z"/>
   <path class="fil2" d="M199.35 376.68c0.02,6.24 1.05,23.8 3.13,28.66l4.64 -4.96c2.2,-2.29 8.62,-10.66 11.1,-5.44 1.16,2.43 -1.32,4.68 -1.4,7.75 1.45,-1.5 2.41,-2.71 3.73,-4.06 8.8,-9 19.12,-22.18 23.67,-33.53 10.37,-25.87 -2.56,-48.91 3.71,-75.84 0.55,-2.34 1.19,-4.56 1.89,-6.83 0.67,-2.17 1.85,-4.88 2.16,-6.87 -3.24,1.66 -12.12,9.7 -15.46,12.9 -1.81,1.74 -3.11,3.19 -4.81,5.05 -21.11,23.07 -32.44,48 -32.37,83.17z"/>
   <path class="fil2" d="M214.36 683.15c0.28,-3.48 0.47,-12.35 2.78,-13.65 4.56,-2.56 4.83,4.1 7.24,8.33 2.43,-3.91 6.24,-31.24 6.61,-37.13 1.87,-29.35 -14.41,-41.68 -26.36,-61.68 -2.82,-4.72 -5.11,-8.96 -7.29,-14.69 -1.05,-2.74 -1.87,-5.49 -2.56,-8.43 -0.65,-2.74 -0.77,-6.98 -2.22,-9.14 -5.3,15.01 -7.45,17.59 -10.3,35.2 -4.7,29.08 0.75,50.06 13.25,74.75 2.03,4.01 15.42,25.12 18.85,26.43z"/>
   <path class="fil2" d="M176.13 485.79c0,10.79 1.28,21.08 3.54,31.04 1.77,7.78 4,15.32 6.87,22.68 0.51,1.31 0.66,2.11 1.5,3.1 1.02,-2.06 3.46,-8.11 5.09,-9.27 1.75,-1.24 4.04,-0.5 4.74,1.3 0.69,1.79 -0.54,4.01 0.35,6.08 2.52,-2.39 13.34,-22.81 15.59,-27.23 18.44,-36.13 -3.05,-57.32 -4.95,-86.8 -0.5,-7.79 0.76,-13.33 1.11,-20.55 -2.59,1.76 -10.29,12.44 -12.49,15.64 -3.7,5.4 -7.41,11.66 -10.35,18.07 -6.39,13.87 -10.99,27.74 -10.99,45.94z"/>
   <path class="fil2" d="M740.04 300.15c1.91,2.41 3.43,1.73 7.96,8.68 2.3,3.52 3.84,7.49 4.13,12.53 0.3,5.38 0.06,10.17 3.81,12.86 4.22,3.04 6.91,2.6 9.73,7.32 5.11,8.56 -2.81,14.02 10.42,22.93 5.87,3.94 12.98,10.5 15.4,18.33 1.42,-1.11 1.87,-2.38 3.6,-3.31 3.02,-1.65 2.48,0.13 3.19,-4.02 0.76,-4.43 1.15,-8.6 1.23,-13.19 0.13,-6.99 0.73,-21.33 -2.17,-26.65 -1.91,-3.5 -3.72,-5.14 -4.45,-9.96 -0.68,-4.52 0.38,-8.89 0.48,-13.4 0.3,-14.33 -16.02,-10.87 -20.84,-21.93 -1.49,-3.41 -1.48,-8.81 -3.41,-10.96 -3.71,-4.13 -9.13,-0.63 -19.73,-9.07 -9.19,-7.31 -15.46,-5.91 -11.79,5.72 4.19,13.26 4.13,10.62 2.44,24.12z"/>
   <path class="fil2" d="M665.87 193.17c4.19,3.04 4.54,2.41 8.38,6.39 10.2,10.56 5.2,20.97 12.35,24.79 4.93,2.64 7.88,1.8 11.14,6.3 2.79,3.84 2.77,8.01 4.38,12.67 1.5,4.33 4.98,6.02 9.24,8.16 15.54,7.8 18.49,13.15 20.74,14.33 1.69,-4.64 3.08,0.19 2.66,-11.5 -0.33,-8.98 -2.77,-30.11 -7.61,-35.65 -7.33,-8.39 -4.87,-9.49 -6.69,-21.71 -2.11,-14.23 -17.88,-7.95 -24.1,-18.74 -1.72,-2.99 -2.45,-7.91 -4.61,-9.78 -2.54,-2.2 -8,-1.84 -11.93,-2.45 -4.17,-0.64 -6.98,-2.54 -10.1,-4.3 -10.24,-5.81 -14.91,-1.6 -9.32,8.94 3.87,7.31 6.45,12.13 5.47,22.56z"/>
   <path class="fil2" d="M248.94 270.19c2.26,-0.98 7.92,-5.96 10.28,-6.05 2.4,-0.09 4.02,2.03 2.93,4.44 -0.59,1.32 -2.03,2.39 -2.96,5.49l14.67 -7.02c15.07,-7.86 26.18,-15.21 34.17,-31.74 7.02,-14.52 7.49,-30.54 18.11,-47.44 3,-4.77 6.35,-8.33 9.47,-12.25 -7.17,0.38 -25.38,9.04 -32.14,12.68 -9.34,5.03 -19.93,13.2 -25.8,19.67 -6.72,7.4 -13.16,16.53 -17.94,27.53 -3.75,8.62 -9.77,24.1 -10.78,34.69z"/>
   <path class="fil4" d="M785.84 551.35c3.67,-3.27 7.49,-11.67 8.07,-18.45 1.49,-17.14 -12.16,-29.22 -11.49,-41.07 0.46,-8.22 6.55,-13.71 2.07,-21.37 -4.06,-6.94 -7.05,-9.12 -3.23,-20.31 2.83,-8.32 4.68,-12.95 1.91,-22.7 -3.26,-11.45 -11.86,-19.12 -20.5,-26.1 -1.05,-0.85 -2.68,-2.29 -3.79,-2.95 -3.52,3.73 -0.68,15.14 -0.14,20.42 0.78,7.68 -0.05,15.59 -1.7,22.64 -4.3,18.33 -7.01,22.29 0.97,39.94 2.58,5.71 5.21,11.21 6.84,17.79 2.34,9.41 0.41,11.75 6.18,18.45 3.57,4.14 7.3,6.33 11.01,13.61 1.35,2.64 2.36,5.93 2.61,9.48 0.13,1.87 0.09,4.07 -0.11,5.93 -0.19,1.69 -0.36,3.26 1.29,4.69z"/>
   <path class="fil4" d="M271.74 857.48c19.98,6.21 30.48,13.3 43.32,28.61l5.3 6.09c1.44,1.52 2.31,2.06 3.8,3.76 2.98,3.41 13.17,10.96 17.11,13.2 14.57,8.28 29.73,10.92 49.78,10.84 9.35,-0.04 19.02,-1.02 28.07,-2.22 4.05,-0.54 23.51,-3.43 25.68,-4.59 -1.93,-1.41 -8.35,-2.8 -11.26,-3.47 -7.8,-1.8 -0.78,-1.63 -12.56,-2.58 -30.57,-2.46 -65.14,-13.23 -89.2,-30.91 -5.76,-4.23 -7.37,-5.68 -12.01,-10.35 -4.68,-4.72 -4.67,-4.91 -8.7,-9.87 -1.92,-2.37 -11.84,-3.55 -15.13,-3.81 -4.78,-0.38 -9.09,-0.36 -13.74,0.66 -3.24,0.71 -8.94,2.64 -10.47,4.66z"/>
   <path class="fil4" d="M688.05 806.03c4.32,-1.03 11.27,-6.52 13.62,-8.86 11.01,-10.99 10.74,-20.18 12.76,-32.75 2.92,-18.2 17.17,-13.47 16.74,-28.57 -0.26,-9.09 2.44,-11.85 6.94,-15.91 4.96,-4.48 7.58,-5.33 11.46,-11.27 2.98,-4.57 4.86,-11.65 4.81,-18.28 -0.09,-10.76 -3.64,-18.51 -6.41,-27.26 -5.54,2.29 -7.72,10.87 -10.17,15.56 -5.65,10.8 -8.12,13.65 -16.51,22.14 -1.04,1.06 -2.26,2.02 -3.42,3.04 -2.77,2.44 -7.18,7.13 -9.09,10.22 -7.55,12.23 -4.7,26.56 -10.86,41.04 -1.25,2.94 -3.13,6.02 -3.54,9.7 -1.24,11.34 7.66,15.08 -3.81,36.77 -0.86,1.63 -1.94,2.77 -2.51,4.43z"/>
   <path class="fil4" d="M766.88 685.11c1.57,-0.76 5.24,-4.87 6.35,-6.58 1.49,-2.3 2.74,-6.31 3.38,-9.49 1.56,-7.69 0.89,-16.03 -1.22,-23.15 -2.3,-7.76 -4.93,-12.84 -1.57,-21.32 2.96,-7.45 7.7,-10.02 3.38,-19.11 -3.8,-8 -2.4,-12.99 1.57,-19.88 9.99,-17.31 3.89,-32.75 -8.28,-46.56l-6.35 -6.86c-3.94,3.26 -2.96,13.99 -3.29,19.96 -1.49,26.96 -17.09,32.32 -11.85,56.9 1.37,6.44 3.45,12.35 4.56,18.93 1.21,7.13 -0.49,16.01 2.39,21.48 2.83,5.37 6.5,8.31 8.77,14.7 2.74,7.72 2.46,12.52 2.15,20.98z"/>
   <path class="fil4" d="M580.94 889.88c5.99,-2.36 11.87,-5.26 16.84,-8.68 6.3,-4.33 8.26,-6.12 11.76,-14.02 9.18,-20.78 21.85,-9.14 26.82,-24.69 5.52,-17.29 18.54,-10.18 29.3,-22.24 8.63,-9.69 11.61,-23.56 10.54,-40.69 -7.6,-0.09 -12.59,12.82 -28.95,22.28 -13.32,7.69 -23.22,8.07 -31.48,20.06 -6.44,9.34 -10.22,21.96 -20.31,31.21 -8.55,7.84 -2.73,22.65 -13.09,35.05 -0.53,0.63 -0.95,0.83 -1.43,1.72z"/>
   <path class="fil4" d="M734.59 283.77c-4.04,-14.09 -9.2,-18.39 -22.11,-25.82 -5.72,-3.3 -11.15,-4.85 -14.11,-10.14 -3.84,-6.86 -1.46,-13.36 -7.94,-16.31 -6.23,-2.83 -10.21,-2.35 -12.97,-11.28 -2.64,-8.54 -1.3,-11.08 -7.12,-17.12 -8.38,-8.69 -22.06,-10.79 -37.91,-10.52 -0.1,6.15 6.56,11.06 9.43,14.35 3.37,3.87 6.84,9.48 9.14,15.11 5.58,13.67 3.33,20.67 18.55,29.94 9.81,5.98 13.8,6.67 21.39,15.01 0.61,0.68 2.33,2.43 3.03,3.01 3.54,2.99 9.62,3.18 14.18,4.01 5.77,1.06 13.29,3.44 18.59,5.66 3.06,1.28 5.27,2.82 7.86,4.08z"/>
   <path class="fil4" d="M788.36 398.53c0.92,-7.15 -1.18,-13.77 -4.17,-18.7 -7.58,-12.52 -19.4,-11.66 -21.31,-24.89 -1.52,-10.5 0.78,-10.51 -7.96,-15.17 -13.44,-7.17 -2.47,-19.27 -14.33,-31.88 -3.53,-3.75 -8.14,-6.82 -14.22,-8.9 -4.17,-1.42 -14.58,-4.23 -19.34,-4.25 -2.5,6.39 9.27,13.16 13.85,31.72 3.35,13.61 0.5,21.76 14.07,32.52 6.37,5.04 13.59,10.08 18.05,16.81 1.65,2.49 3.07,4.85 5.39,6.36 5.04,3.28 14.46,3.7 23.99,10.85 2.52,1.89 3.78,3.59 5.98,5.52z"/>
   <path class="fil4" d="M548.26 914.7c13.34,4.37 31.69,0.59 43.68,-6.77 4.06,-2.49 9.81,-3.28 15.45,-3.28 7.42,0 12.67,2.81 19.7,3.54 6.22,0.64 16.02,0.76 22,-0.3 9.19,-1.63 9.61,-5.46 13.56,-9.56 6.64,-6.87 30.11,-2.98 37.46,-8.75 6.09,-4.78 0.74,-18.85 16.46,-29.75 3.51,-2.44 13.57,-5.41 12.54,-9.98 -0.79,-1.76 -9.59,-3.2 -11.25,-3.61 -2.01,-0.5 -3.66,-0.99 -5.42,-1.78 -2.05,-0.92 -3.19,-1.99 -4.67,-2.84 -6.78,4.74 -2.81,1.96 -9.1,5.23 -10.43,5.43 -5.57,19.86 -16.83,27.1 -6.37,4.1 -15.8,3.59 -22.18,7.01 -5.48,2.93 -5.16,7.26 -17.68,11.5 -15.08,5.1 -43.56,11.83 -60.75,12.02 -13.74,0.15 -5.02,-1.69 -11.25,2.73 -4.27,3.03 -17.42,4.11 -21.74,7.5z"/>
   <path class="fil4" d="M182.3 556.65c0.63,-1.19 1.12,-2.81 1.62,-4.07 0.82,-2.09 0.85,-2.19 -0.13,-4.24 -8.65,-17.99 -14.64,-47.67 -13.51,-67.49 0.59,-10.33 2.3,-19.39 5.54,-28.82 1.56,-4.54 1.09,-4.2 -0.51,-8.86 -3.13,-9.15 -11.07,-23.6 -20.67,-26 1.34,7.76 2.99,8.35 3.5,19.76 0.33,7.3 -0.39,14.59 -1.95,21.24 -3.12,13.29 -8.5,23.52 -7.54,39.01 1.2,19.61 9.89,35.07 21.1,48.54 1.74,2.1 9.66,10.07 12.56,10.95z"/>
   <path class="fil4" d="M193.94 416.04c1.07,-0.85 1.61,-1.78 2.47,-2.89 1.51,-1.93 1.28,-1.66 0.67,-4.26 -0.74,-3.17 -1.33,-6.27 -1.83,-9.52 -4.09,-26.48 -1.53,-53.85 9.77,-77.65 1.17,-2.45 2.56,-5.07 3.96,-7.4 2.4,-4.03 2.36,-3.26 1.73,-8.85 -1.44,-12.77 -7.17,-25.96 -15.07,-30.25 -0.14,3.21 0.37,7.33 0.31,10.91 -0.48,27.67 -16.09,40.2 -21.19,60.27 -3.38,13.29 -1.85,27.91 2.11,40.25 3.2,9.96 9.69,21.97 17.07,29.39z"/>
   <path class="fil4" d="M183.5 725.7l6.63 5.33c6.61,5.37 12.43,13.06 16.9,20.61 6.12,10.33 8.97,24.5 15.53,34.11 14.54,21.28 39.81,33.57 67.14,32.71 -1.96,-7.54 -2.63,-6.36 -5.07,-7.66 -12.71,-6.78 -26.1,-16.56 -35.65,-26.85 -2.07,-2.22 -4.07,-4.02 -5.99,-6.5 -7.91,-10.26 -13.94,-18.04 -19.06,-30.95 -0.81,-2.06 -2.48,-7.53 -3.38,-9.13 -1.26,-2.26 -11.89,-7.98 -15.55,-9.45 -6.79,-2.73 -13.47,-4.07 -21.5,-2.22z"/>
   <path class="fil4" d="M213.98 697.45c-0.17,-8.56 0.33,-4.25 -6.78,-13.03 -19.33,-23.91 -32.46,-50.6 -32.46,-83.83 0,-4.44 -0.13,-3.91 -4.56,-9.47 -5.68,-7.13 -16.06,-16.5 -26.46,-16.59 2.65,5.17 4.87,6.43 8.53,15.19 10.96,26.26 2.55,40.89 10.75,62 6.24,16.07 20.54,30.38 34.27,38.47 2.72,1.6 13.28,7.15 16.72,7.26z"/>
   <path class="fil4" d="M719.08 802.91l0.12 3.17c3.25,-1.13 5.24,-2.39 9.03,-3.2 3.62,-0.78 7.47,-0.78 11.27,-1.22 6.57,-0.77 13.82,-3.49 19.36,-5.65 5.94,-2.32 11.72,-5.49 13.71,-10.92 3.21,-8.74 3.56,-9.56 11.83,-13.18 5.83,-2.55 11.16,-5.14 16.52,-8.09 7.83,-4.31 7.65,-6.27 6.26,-16.7 -1.08,-8.07 1.15,-14.94 4.58,-20.21 1.8,-2.76 3.79,-4.58 5.83,-6.67 1.47,-1.5 5.64,-6.01 3.35,-8.17 -1.69,-1.46 -8.75,0.02 -11.24,0.26 -5.34,0.5 -6.86,0.02 -11.35,-1.02 -0.83,0.99 -1.31,2.05 -2.14,3.08 -1.65,2.06 -5.82,5.02 -7.3,8.61 -2.19,5.29 0.14,13.96 -1.12,20.09 -2.69,13.06 -15.15,13.63 -21.74,21.08 -3.23,3.66 -4.43,10.16 -11.16,15.36 -1.04,0.8 -1.84,1.48 -2.95,2.35 -4.77,3.74 -13.75,10.37 -18.81,13.39 -2.21,1.32 -4.33,2.71 -6.72,3.91 -1.74,0.87 -6.18,2.85 -7.31,3.74z"/>
   <path class="fil4" d="M829.27 556.55c-0.49,5.95 -4.56,10.72 -3.82,15.8 0.72,4.91 4.15,9.83 5.76,14.33 4.96,13.83 -5.05,20.2 -9.5,28.57 -3.06,5.76 -1.41,10.57 -3.49,16.59 -1.67,4.85 -4.54,9.18 -6.84,13.23 -5.76,10.15 -9.35,15.23 -16.43,24.09l1.49 2.66c1.07,-0.43 3.35,-3.01 7.05,-5.09 7.02,-3.94 8.72,-4.16 15.32,-9.7 2.44,-2.05 4.19,-3.98 6.47,-6.02 14.82,-13.23 6.85,-18.67 10.02,-26.37 1.62,-3.95 12.03,-13.98 16.82,-20.29 5.59,-7.37 5.2,-8.94 0.32,-16.96 -13.06,-21.46 3.26,-30.5 -1.4,-39.1 -5.2,-0.21 -12.16,7.69 -21.78,8.24z"/>
   <path class="fil4" d="M827.06 412.28c0.31,6.09 -2.96,11.23 -1.22,16.46 1.37,4.12 5.08,8.27 7.2,11.74 7.07,11.6 1.35,18.87 -3.31,28.57 -3.33,6.94 -1.03,9.44 -1.45,16.75 -0.41,7.11 -9.07,27.88 -12.83,34.93 -0.66,1.24 -1.41,1.92 -0.77,3.24 0.4,0.84 1.41,2.5 1.85,3.09 1.24,-0.77 2.43,-2.01 3.76,-3.03 4.19,-3.21 7.49,-5.34 10.94,-9.5 3.59,-4.34 8.91,-10.29 11.7,-15.96 5.07,-10.31 -2.17,-14.46 1.78,-22.83 1.45,-3.07 3.55,-5.51 5.36,-8.28 1.83,-2.78 3.52,-5.66 5.33,-8.7 4.93,-8.26 6.85,-11.62 -0.02,-19.02 -3.98,-4.28 -8.13,-10.49 -8.54,-19.1 -0.23,-4.82 0.65,-7.81 1.54,-12.09 0.86,-4.13 0.6,-10 -4.17,-6.84 -4.45,2.94 -10.79,9.64 -17.17,10.57z"/>
   <path class="fil4" d="M237.39 279.53c6.52,-5.14 3.72,-1.98 6.72,-15.69 1.33,-6.09 2.98,-12.13 4.99,-17.75 8.14,-22.81 18.63,-39.73 37.5,-53.8 3.04,-2.27 4.36,-14.05 4.62,-17.98 0.35,-5.29 -0.59,-12.03 -3.02,-16.82 -0.25,-0.49 -0.29,-0.59 -0.56,-0.96l-0.77 -0.86c-1.01,1.75 -2.22,6.08 -3.16,8.33 -1.05,2.5 -2.52,5.43 -3.79,7.57 -1.42,2.38 -2.91,4.84 -4.51,6.86 -7.2,9.1 -8.3,9.39 -17.12,16.98 -4.68,4.03 -8.22,6.71 -12.01,11.11 -6.67,7.72 -11.3,19.43 -13.04,32.41 -1.63,12.18 -0.46,30.59 4.16,40.6z"/>
   <path class="fil4" d="M774.26 276.93c0.41,1.95 1.29,3.29 1.72,5.43 1.41,7.04 0.97,7.96 9.2,12.04 6.6,3.27 12.3,6.11 13.33,14.67 0.54,4.43 -0.52,8.7 -0.54,13.06 -0.02,5.28 1.58,6.83 3.69,10.31 4.9,8.1 3.59,36.62 1.34,46.48l2.54 1.55c0.94,-1.3 1.31,-5.45 3.46,-9.45 5.71,-10.59 8.26,-11.92 11.69,-27.69 2.89,-13.27 -3.57,-13.18 -5.69,-18.94 -1.7,-4.65 1.81,-16.31 2.63,-22 1.71,-11.87 0.91,-12.2 -8.75,-15.82 -6.3,-2.37 -11.18,-6.55 -13.9,-12.22 -1.94,-4.04 -3.48,-20.72 -9.26,-12.59 -1.83,2.57 -3.31,5.57 -4.95,8.33 -1.36,2.3 -4.24,5.94 -6.52,6.83z"/>
   <path class="fil4" d="M696.38 165.13c0.67,1.87 1.87,3.31 2.72,5.8 2.99,8.76 4.19,7.37 14.34,11.04 10.34,3.74 11.89,8.17 12.82,20.85 1.1,15.08 6.69,8.03 9.97,23.79 2.89,13.93 3.71,20.01 3.91,33.87l3.1 0.22c1.35,-12.53 8.49,-17.43 9.01,-38.61 0.28,-11.35 -5.61,-11.43 -8.26,-15.74 -2.81,-4.57 -0.96,-15.82 -0.96,-22.91 0,-6.65 0.41,-10.83 -5.46,-12.72 -7.57,-2.42 -16.88,-2.44 -22.71,-14.04 -2.72,-5.41 -2.43,-10.96 -7.82,-10.71 -4.26,5.57 -4.95,14.89 -10.64,19.15z"/>
   <path class="fil4" d="M412.06 887.9c0.35,-13.1 -3.54,-25.84 -8.69,-35.19 -15.08,-27.33 -35.65,-33.27 -58.11,-51.38l-10.83 -10.73c-1.1,8.59 2.62,18.93 5.62,26.55 1.86,4.74 0.76,3.88 5.7,5.3 30.38,8.72 31.66,18.64 46.12,41.41 4.95,7.8 10.31,15.25 16.89,21.37l2.21 1.98c1.02,0.77 -0.13,0.11 1.09,0.7z"/>
   <path class="fil4" d="M227.24 484.66c-0.05,23.19 -15.17,44.59 -26.4,63.64 -1.14,1.93 -1.11,1.94 -0.68,4.5 4.09,-1.44 9.28,-5.4 12.21,-7.76 10.47,-8.42 19.64,-22.92 23.54,-37.07 5.54,-20.11 1.88,-44.61 6.37,-64.48 0.6,-2.67 1.78,-5.88 2.17,-8.3 -7.56,3.34 -17.09,14.47 -21.42,21.27 -1.34,2.1 0.73,5.84 1.99,11.24 1.26,5.42 2.23,11.03 2.22,16.96z"/>
   <path class="fil4" d="M229.66 686.62c1.24,-0.48 1.29,-0.74 2.48,-2.08 13.6,-15.41 19.65,-34.72 16.63,-56.06 -3.21,-22.69 -13.86,-40.61 -13.94,-64.92 -2.19,1.15 -6.81,8.84 -8.17,11.69 -2.3,4.82 -3.8,9.6 -5.55,14.95 -0.58,1.78 -0.25,1.93 0.6,3.18 13.63,19.96 18.04,33.54 13.96,59.81 -1.46,9.38 -3.33,16.63 -5.19,25.51 -0.46,2.19 -2.07,6.31 -0.81,7.93z"/>
   <path class="fil4" d="M301.59 803.55c1.95,-2.33 4.82,-11.14 5.67,-15.11 4,-18.74 -0.2,-35.87 -9.15,-51.33 -8.3,-14.33 -29,-37.63 -32.4,-52.22 -0.29,0.31 -0.25,0.21 -0.56,0.77 -0.18,0.32 -0.2,0.38 -0.37,0.83 -3.18,8.23 -3.44,15.88 -3.27,24.73 0.1,5.37 -0.44,4.63 3.07,7.13 19.02,13.52 26.66,26.17 31.74,49.72 1.29,5.99 4.84,34.56 5.28,35.48z"/>
   <path class="fil4" d="M215.08 415.13c10.96,-1.34 26.25,-12.93 32.29,-20.36 21.39,-26.3 16.61,-48.5 29.17,-76.9 0.72,-1.64 3.18,-5.91 3.36,-6.94 -8.55,3.5 -16.2,7.56 -22.58,14.23 -0.99,1.03 -2.03,1.63 -2.82,2.5 -1.35,1.49 -0.29,5.86 -0.19,9.62 0.28,10.85 -0.18,18.05 -3.91,28.33 -4.02,11.11 -13.63,24.39 -20.97,32.07l-7.56 8.33c-0.94,0.98 -1.5,1.86 -2.47,2.86 -1.26,1.3 -1.5,1.64 -2.49,2.81 -0.95,1.12 -1.9,1.51 -1.84,3.44z"/>
   <path class="fil2" d="M493.67 912.2c-7.13,0.87 -17.96,5.24 -21.33,11.77 -1.36,2.64 -0.31,3.06 2.94,7.25l9.72 12.63c2.1,2.3 5.26,1.95 8.33,1.12 4.99,-1.35 4.16,-1.65 9.35,-0.24 9.55,2.57 8.95,-0.78 18.28,-12.66 1.96,-2.5 4.52,-5.05 4.07,-6.99 -0.54,-2.31 -3.47,-5.12 -4.88,-6.16 -7,-5.15 -17.06,-7.87 -26.5,-6.72z"/>
   <path class="fil2" d="M360.59 961.69c2.98,2.44 10.37,4.44 14.17,7.38 0.41,4.46 -5.88,8.02 -9.32,13.15 4.3,2.13 31.82,2.91 37.99,2.42 7.71,-0.6 27.66,-3.51 31.76,-9.72 -0.77,-1.33 -2.02,-1.37 -3.5,-1.98 -4.42,-1.83 -6.61,-3.02 -10.66,-5.64 -6.5,-4.21 -7.33,-5.85 -12.17,-9.81 -6.56,1.27 -8.37,3.94 -22.43,5.22 -12.12,1.1 -15.71,-0.49 -25.84,-1.02z"/>
   <path class="fil2" d="M561.74 974.91c2.16,3.3 12.17,6.54 17.11,7.69 7.51,1.75 15.25,2.24 23.23,2.24 4.96,0 26.19,-1.06 29.4,-2.64 -1.33,-1.97 -3.5,-3.84 -5.11,-5.81 -2.46,-3.02 -4.53,-3.93 -4.21,-7.33 3.1,-2.43 10.2,-5.26 14.22,-7.24 -3.23,-0.42 -15.59,3.18 -34.2,-0.26 -6.94,-1.28 -11.62,-3.59 -14.13,-4.07 -5.35,4.35 -4.57,4.54 -11.96,9.65 -3.31,2.28 -6.8,4.13 -10.57,5.71 -1.46,0.61 -2.99,0.69 -3.8,2.07z"/>
   <path class="fil4" d="M255.54 284.17c9.2,2.59 26.46,-2.36 33.25,-5.95 15.36,-8.1 21.19,-15.28 31.29,-28.96 8.45,-11.44 13.96,-20.98 24.74,-30.57 0.92,-0.81 2.06,-1.32 2.65,-2.51 -7.01,-0.1 -11.14,0.42 -17.35,2.19 -2.57,0.74 -4.76,1.57 -7.34,2.51 -4.56,1.67 -3.51,0.65 -4.96,5.28 -9.96,31.74 -28.68,40.37 -56.58,53.66 -1.22,0.58 -2.09,1.03 -3.32,1.61 -2.19,1.03 -1.67,0.51 -2.37,2.74z"/>
   <path class="fil2" d="M518.37 944.22c2.51,5.91 13.81,12.41 20.94,14.65 11.31,3.56 20.17,2.86 32.48,2.96 4.21,0.04 7.13,-3.11 10.97,-6.64 1.46,-1.35 7.23,-7.31 6.8,-10.94 -0.53,-4.49 -10.77,-2.07 -14.08,-1.65 -14.4,1.83 -30.15,2.11 -43.87,-2.92 -2.65,-0.97 -4.89,-2.33 -7.2,-3.15 -1.17,0.95 -5.03,6.13 -6.05,7.68z"/>
   <path class="fil2" d="M439.55 943.82c-6.53,0 -11.67,-0.39 -18.1,-1.21 -3.28,-0.42 -13.59,-2.84 -14.08,1.64 -0.54,4.93 8.17,12.29 11.53,14.94 2.43,1.91 2.5,2.68 6.63,2.64 15.41,-0.14 30.65,0.63 44.13,-8.72 2.76,-1.92 7.67,-6.04 8.9,-8.89l-6.05 -7.69c-6.01,2.15 -5.33,3.16 -14.82,5.37 -5.37,1.25 -12.35,1.91 -18.14,1.91z"/>
   <path class="fil3" d="M498.39 388.93c6.88,7.33 15.11,10.83 24.87,5.54 10.77,-5.84 13.48,-21.53 11.77,-23.09 -2.59,-2.38 -2.45,5.96 -12.05,10.31 -8.3,3.75 -15.87,0.69 -21.49,-4.81 -0.98,-0.96 -1.58,-2.67 -2.88,-2.78 -1.85,-0.16 -2.37,2.84 -6.13,5.5 -9.85,6.97 -22,3.46 -27.5,-6 -5.28,-9.07 -4.35,6.59 2.23,15.19 5.74,7.51 16.17,10.9 24.93,5.61 2.05,-1.24 5.14,-3.83 6.24,-5.48z"/>
   <path class="fil3" d="M467.59 98.91c-1.39,2.07 -2.02,4.99 -2.78,7.5 -0.84,2.77 -2.22,5.68 -0.73,8.57 2.06,3.98 3.96,5.24 7.74,13.48 2.17,4.72 3.89,10.46 5.17,16.07 0.67,2.96 2.35,16.95 3.1,18.08 2.51,-2.89 2.55,-17.32 2.23,-21.97 -0.54,-7.9 -2.23,-13.45 -4,-20.46 0.84,-0.88 2.07,-1.09 3.33,-2.22 1.2,-1.07 1.71,-2.09 2.98,-2.79 1.63,0.9 7.62,7.39 13.92,-1.52 2.53,-3.58 5.33,-10.85 4.96,-16.54 -2,0.86 -1.52,5.7 -7.51,6.11 -5.57,0.38 -5.56,-4.25 -7.87,-6.06 -1.98,1.5 -3.21,8.35 -9.21,8.57 -3.53,0.13 -6.73,-2.47 -8.98,-4.59 -1.07,-1.01 -1.28,-1.8 -2.37,-2.24z"/>
   <path class="fil3" d="M543.36 136.26c-0.83,-1.28 -1.03,-3.13 -1.6,-5.01 -1.47,-4.87 -3.41,-9.95 -5.67,-14.4 -1.66,-3.28 -7.85,-15.48 -10.05,-16.61 -0.81,1.46 -1.51,6.34 -1.88,8.36 -1.94,10.53 1.53,7.85 8.4,21.61 3.63,7.27 6.33,15.54 7.72,23.76 0.43,2.55 0.24,6.95 1.93,8.61 1,-0.56 0.39,0.33 0.98,-1.25l1.16 -6.07c0.52,-2.74 1.09,-5.39 1.74,-8.06 2.44,-10.06 6.09,-19.49 11.61,-27.8 1.28,-1.91 2.83,-4.06 4.17,-5.68 3.05,-3.69 2.48,-6.78 2.37,-13.23l-0.08 -2.4c-3,1.06 -10.27,13.08 -12.34,16.95 -2.78,5.19 -6.04,12.37 -7.43,18.31l-0.59 2.13c-0.44,0.96 -0.17,0.39 -0.47,0.78z"/>
   <path class="fil3" d="M449.22 162.69c0.89,-0.52 0.48,0.45 1.09,-1.44 0.96,-2.98 1.51,-13.31 1.42,-16.44 -0.17,-5.96 -0.97,-12.28 -2.33,-17.81 -1.38,-5.59 -2.88,-10.12 -4.96,-15.11 -1.29,-3.09 -5.32,-11.78 -7.54,-13.04 -0.91,1.01 -5.28,13.07 -3.6,16.21 2.65,4.94 3.51,4.26 7.57,13.65 3.23,7.46 5.72,16.59 6.97,24.87 0.46,3.04 0.57,6.43 1.38,9.11z"/>
   <path class="fil3" d="M499.44 140.7c9.46,5.89 11.96,7.66 15.83,-0.13 2.3,-4.63 2.69,-6.3 -0.74,-9.38 -1.41,-1.26 -6.61,-4.65 -9.19,-4.63 -1.03,1.94 -5.72,11.86 -5.9,14.13z"/>
  </g>
 </g>
</svg>
