<?xml version="1.0" encoding="UTF-8"?>
<!DOCTYPE svg PUBLIC "-//W3C//DTD SVG 1.1//EN" "http://www.w3.org/Graphics/SVG/1.1/DTD/svg11.dtd">
<!-- Creator: CorelDRAW 2020 (64-Bit) -->
<svg xmlns="http://www.w3.org/2000/svg" xml:space="preserve" width="1in" height="1in" version="1.1" style="shape-rendering:geometricPrecision; text-rendering:geometricPrecision; image-rendering:optimizeQuality; fill-rule:evenodd; clip-rule:evenodd"
viewBox="0 0 1000 1000"
 xmlns:xlink="http://www.w3.org/1999/xlink"
 xmlns:xodm="http://www.corel.com/coreldraw/odm/2003">
 <defs>
  <style type="text/css">
   <![CDATA[
    .fil0 {fill:#4D4D4D}
   ]]>
  </style>
 </defs>
 <g id="Layer_x0020_1">
  <metadata id="CorelCorpID_0Corel-Layer"/>
  <g id="_1856102014384">
   <path class="fil0" d="M303.05 499.6c0,42.96 15.11,84.23 40.68,116.27 5.7,7.15 10.58,12.98 17.3,19.45 7.57,7.29 17.97,15.46 26.85,21.38 32.44,21.63 72.11,34.3 111.93,34.3 48.21,0 91.76,-17.14 128.52,-46.81 1.5,-1.21 1.82,-1.24 3.37,-2.75l6.5 -5.74c13.11,-12.12 28,-32.32 36.16,-48.06 4.15,-8.02 8.17,-15.8 11.22,-24.77 15.89,-46.76 14.68,-97.07 -6.35,-140.86 -5.39,-11.22 -10.78,-20.09 -17.56,-29.91 -6.8,-9.83 -14.06,-17.65 -22.32,-25.91 -11.27,-11.27 -14.51,-12.81 -26.01,-21.46l-14.52 -9.21c-52.9,-29.27 -116.36,-34.5 -172.51,-12.01 -21.12,8.46 -35.09,16.74 -52.73,30.72 -4.98,3.95 -8.41,7.06 -12.93,11.58 -35.61,35.61 -57.61,80.67 -57.61,133.79z"/>
   <path class="fil0" d="M690.45 826.52c12.25,0 24.5,0 36.75,0 12.96,0 23.18,-0.76 35.98,-0.76 25.17,0 47.86,-0.76 72.73,-0.76 0,-9.44 0,-18.89 0,-28.33 0,-9.99 -0.76,-17.86 -0.76,-28.33 0,-9.7 -0,-19.4 0,-29.09 0,-9.99 -0.77,-17.86 -0.77,-28.33 0,-9.7 0,-19.4 0,-29.09 0,-9.99 -0.76,-17.86 -0.76,-28.33 0,-9.7 -0.01,-19.4 0,-29.09 0,-9.82 -0.77,-17.89 -0.77,-28.33 0,-9.44 0,-18.89 0,-28.33 0,-9.99 -0.76,-17.86 -0.76,-28.33 0,-28.04 5.17,-24.76 -15.85,-42.33 -6.91,-5.78 -16.19,-16.99 -21.89,-21.75 -9.36,-7.83 -16.96,-17.46 -25.92,-24.61 -3.66,-2.92 -7.45,-8.21 -11.37,-10.83 0,74.42 3.06,153.17 3.06,228.16l0.75 71.22c-0.08,18.96 6.57,9.13 -13.19,28.88l-21.45 21.43c-2.7,2.68 -4.06,4.87 -6.88,7.67l-28.91 29.28z"/>
   <path class="fil0" d="M159.87 806.61l0 15.31 317.73 0.76c2.78,0 18.72,-18.41 23.62,-22.31 8.33,-6.65 36.24,-35.34 46.61,-45.26 1.77,-1.7 3.51,-2.46 4.8,-4.39 -39.02,0 -75.69,-0.76 -114.84,-0.76l-202.91 0.02c-4,-0.43 -5.82,-3.95 -8.21,-6.34 -9.67,-9.67 -32.54,-33.46 -40.11,-39.5 -1.56,-1.24 -2.46,-2.3 -3.91,-3.75l-22.01 -21.63c0,43.43 -0.77,84.42 -0.77,127.86z"/>
   <path class="fil0" d="M237.2 556.26c0,-76.66 0.77,-151.23 0.77,-228.15 0,-19.1 -0.27,-38.38 -0.03,-57.45 0.06,-4.65 0.82,-7.42 0.8,-12.98 -0.07,-18.81 -1.75,-13.95 6.7,-22.4 5.64,-5.64 11.79,-12.42 17.91,-17.3l18.45 -18.3c6.75,-6.75 25.59,-23.58 28.9,-28.52 -13.89,0 -25.11,-0.76 -39.05,-0.76l-106.42 0c0,76.26 -1.05,152.79 -0.76,229.69 0.02,5.56 -0.74,8.33 -0.8,12.98l0.03 43.67c0,31.76 -5.13,21.28 15.5,41.92 4.46,4.46 54.51,55.28 58,57.61z"/>
   <path class="fil0" d="M445.45 244.65l317.66 0.07c4.43,0.74 12.22,10.17 15.57,13.52 8.84,8.84 42.54,43.52 50.92,50.91l7.84 6.71 0 -143.17 -317.73 0c-2.24,0 -16.13,14.96 -18.57,17.42 -3.32,3.35 -6.18,5.4 -9.57,8.8 -3.24,3.25 -5.94,5.94 -9.19,9.19l-13.79 13.78c-6.57,5.79 -18.87,16.38 -23.15,22.78z"/>
   <path class="fil0" d="M43.5 498.83c0,12.89 4.87,21.91 11.57,30.54l114.18 112.44c5.93,5.93 29.18,29.82 33.5,33.11 5.29,4.04 11.97,11.59 17.04,16.65 5.69,5.69 10.67,11.63 17.09,16.59 3.04,2.35 5.81,5.54 8.56,8.29 5.7,5.7 5.02,6.66 10.08,6.76 31.22,0.62 69.33,-0.07 101.13,-0.07 -2.81,-4.2 -12.42,-12.76 -16.65,-17.04 -3.07,-3.11 -5.66,-4.87 -8.81,-8.04l-17.21 -17.24c-1.89,-1.82 -2.76,-2.08 -4.62,-3.8 -6.57,-6.07 -15.15,-16.46 -21.94,-21.7 -6.48,-5 -11.72,-11.22 -17.48,-16.98 -1.59,-1.59 -2.61,-2.62 -4.2,-4.22l-13.41 -12.62c-11.7,-11.7 -23.18,-22.28 -34.83,-34.07l-87.31 -84.19c-3.15,-4.66 -1.7,-98.59 -1.7,-101.66 -2.93,0.78 -9.19,8.04 -11.68,10.53 -11.74,11.74 -62.5,61 -67.81,69.24 -2.51,3.89 -5.5,11.34 -5.5,17.47z"/>
   <path class="fil0" d="M643.75 278.34c2.71,4.05 12.26,11.87 17.04,16.65 5.17,5.17 12.03,12.93 17.42,17.04 5.39,4.11 12.25,11.87 17.42,17.04l82.34 79.97c7.69,6.43 14.67,13.93 21.78,21.09 3.15,3.17 5.74,4.93 8.81,8.04 7.06,7.14 14.11,14.68 21.78,21.09l21.85 21.8c1.86,1.72 2.73,1.99 4.62,3.8l13.06 12.97c1.91,2.35 1.35,3.22 1.31,7.12 -0.38,31.57 0.74,62.54 0.74,94.2 2.93,-0.78 9.19,-8.05 11.68,-10.53l56.27 -56.28c8.28,-8.28 14.78,-13.74 16.44,-28.79 2.56,-23.18 -19.57,-39.8 -34.06,-54.28l-56.65 -55.89c-1.92,-1.92 -3.39,-3.55 -5.35,-5.37 -21.39,-19.78 -41.78,-40.99 -62.41,-61.63l-11.87 -11.09c-5.1,-5.17 -29.19,-29.73 -33.93,-33.44 -7.02,-5.49 -1.06,-4.27 -18.7,-4.27 -29.97,0 -58.93,0.77 -89.57,0.77z"/>
   <path class="fil0" d="M401.04 860.98c0.55,2.05 9.46,9.85 11.3,11.67l23.35 22.59c2.1,2.1 3.65,3.63 5.74,5.74 2.38,2.41 3.83,3.21 6.14,5.35l17.2 17.25c11.14,10.3 20.29,20.85 37.33,20.85 9.16,0 19.09,-4.46 24.62,-8.3 3.79,-2.63 6,-4.31 9.26,-7.59l67 -66.22c13.87,-12.83 31.44,-32.03 45.91,-45.96l13.03 -12.24c20.16,-20.16 42.66,-43.5 62.8,-62.77 2.06,-1.96 2.93,-2 3.26,-5.16 0.46,-4.33 -0.02,-12.15 -0.02,-16.87l-0.77 -16.07c-1.14,-21.11 0,-45.86 0,-67.38 -3.75,2.51 -196.19,196.57 -206.53,206.91 -2.26,2.26 -15.98,16.48 -17.41,17.04 -3.55,1.41 -27.54,-0.23 -33.96,0.49 -18.64,2.09 -47.61,0.66 -68.25,0.66z"/>
   <path class="fil0" d="M273.95 363.32l224.7 -223.19 102.22 -1.15c-2.8,-4.18 -47.5,-46.34 -57.61,-56.46 -6.51,-6.51 -16.49,-17.67 -24.06,-21.88 -14.71,-8.2 -29.69,-5.86 -42.98,2.69 -4.34,2.79 -5.61,4.17 -9.14,7.7 -1.54,1.55 -2.62,2.76 -4.2,4.22l-113.7 111.39c-3.15,3.17 -5.73,4.93 -8.81,8.04l-63.17 62.39c-2.06,1.97 -2.93,2 -3.26,5.16l0.02 101.09z"/>
  </g>
 </g>
</svg>
