<?xml version="1.0" encoding="UTF-8"?>
<!DOCTYPE svg PUBLIC "-//W3C//DTD SVG 1.1//EN" "http://www.w3.org/Graphics/SVG/1.1/DTD/svg11.dtd">
<!-- Creator: CorelDRAW 2020 (64-Bit) -->
<svg xmlns="http://www.w3.org/2000/svg" xml:space="preserve" width="1in" height="1in" version="1.1" style="shape-rendering:geometricPrecision; text-rendering:geometricPrecision; image-rendering:optimizeQuality; fill-rule:evenodd; clip-rule:evenodd"
viewBox="0 0 1000 1000"
 xmlns:xlink="http://www.w3.org/1999/xlink"
 xmlns:xodm="http://www.corel.com/coreldraw/odm/2003">
 <defs>
  <style type="text/css">
   <![CDATA[
    .fil0 {fill:#4D4D4D}
   ]]>
  </style>
 </defs>
 <g id="Layer_x0020_1">
  <metadata id="CorelCorpID_0Corel-Layer"/>
  <path class="fil0" d="M16.3 492.89c0,46.8 3.31,75.19 13.56,116.35 7.71,30.97 18.73,60.19 31.65,86.01l20.94 37.89c16.83,27.93 25.07,36.65 43.46,59.49 5.6,6.95 14.27,15.15 17.61,19.15 7.01,8.39 20.58,20.67 29.46,28.55 138.06,122.69 347.17,155.88 521.14,82.8 39.02,-16.39 58.87,-28.83 93.17,-51.45 24.02,-15.85 50.23,-40.26 70.81,-60.74 14.55,-14.47 33.78,-40.16 45.42,-55.9 4.37,-5.91 7.67,-11.42 11.72,-17.69l21.36 -37.47c26.67,-53.86 47.11,-124.32 47.11,-186.56 0,-31.88 0.37,-45.32 -4.44,-78.09 -2.45,-16.66 -5.68,-33.09 -9.92,-48.09 -19.27,-68.08 -45.88,-121.17 -91.61,-175.58l-24.15 -26.5c-5.1,-5.1 -9.58,-9.67 -14.69,-14.72l-15.15 -13.45c-1.63,-1.45 -2.02,-1.44 -3.65,-2.89 -10.67,-9.51 -33.76,-26.68 -45.72,-34.35 -67.67,-43.38 -130.5,-66 -211.92,-77.32 -55.29,-7.69 -122.27,-3.48 -174.23,8.69 -29.7,6.96 -39.66,10.36 -66.65,19.96 -48.09,17.1 -89.94,43.55 -129.97,73.48l-23.96 20.17c-3.06,2.83 -4.29,4.34 -7.67,7.04 -10.94,8.73 -31.47,33.14 -41.73,44.88 -13.89,15.89 -30.27,41.35 -41.44,59.87 -10.02,16.63 -26.86,51.32 -32.83,69.3 -6.41,19.32 -8.13,23.07 -13.78,44.23 -7.72,28.92 -13.89,66.59 -13.89,102.94zm458.3 123.78c-54.68,3.98 -99.99,50.16 -96.12,109.56 3.56,54.63 50.51,100.22 109.66,96.25 54.82,-3.68 99.83,-50.52 96.1,-109.83 -3.41,-54.25 -50.87,-100.25 -109.64,-95.98zm3.53 -464.76c-53.26,6.04 -97.8,52.29 -91.82,113.02 5.24,53.2 53.28,98.49 113.55,92.06 53.07,-5.66 98.3,-53.35 91.46,-114.09 -5.88,-52.28 -53.22,-97.79 -113.19,-90.99zm7 316.4c58.39,3.93 109.45,24.73 148.77,58.2l21.74 19.92c3.66,3.56 6.3,6.81 10.24,10.19 5.89,5.07 27.48,32.03 29.41,33.2 5.56,-2.63 12.25,-7.36 18.1,-11l54.66 -35.07c-1.93,-4.5 -7.81,-12.66 -10.63,-16.57 -9.44,-13.11 -16.54,-22.66 -27.32,-34.75 -63.98,-71.75 -139.29,-105.31 -244.97,-108.56l0.01 84.44zm-224.89 217.48l42.09 7.14c14.66,2.06 29.69,4.13 44.28,5.94 8.47,-33.55 39.55,-75.02 69.44,-93.81 40.73,-25.61 86.04,-27.26 127.41,-5.23 11.1,5.91 32.14,20.22 39.43,28.36 2.29,2.56 4.52,4.28 6.98,6.91 4.23,4.52 9.77,9.44 12.72,14.91 4.9,-1.66 28.41,-17.3 34.97,-21.19 5.92,-3.51 11.31,-7.21 17.1,-10.67 5.72,-3.41 12.13,-8.04 17.76,-10.77 -3.81,-9.44 -31.57,-40.74 -39.98,-48.35 -14.37,-13.01 -30.9,-26.34 -51.69,-37.37 -78.86,-41.84 -167.01,-28.79 -237.13,24.02 -38.93,29.32 -75.43,82.78 -83.37,140.11z"/>
 </g>
</svg>
