<?xml version="1.0" encoding="UTF-8"?>
<!DOCTYPE svg PUBLIC "-//W3C//DTD SVG 1.1//EN" "http://www.w3.org/Graphics/SVG/1.1/DTD/svg11.dtd">
<!-- Creator: CorelDRAW 2020 (64-Bit) -->
<svg xmlns="http://www.w3.org/2000/svg" xml:space="preserve" width="1in" height="1in" version="1.1" style="shape-rendering:geometricPrecision; text-rendering:geometricPrecision; image-rendering:optimizeQuality; fill-rule:evenodd; clip-rule:evenodd"
viewBox="0 0 1000 1000"
 xmlns:xlink="http://www.w3.org/1999/xlink"
 xmlns:xodm="http://www.corel.com/coreldraw/odm/2003">
 <defs>
  <style type="text/css">
   <![CDATA[
    .fil0 {fill:#4D4D4D}
   ]]>
  </style>
 </defs>
 <g id="Layer_x0020_1">
  <metadata id="CorelCorpID_0Corel-Layer"/>
  <g id="_1856110005504">
   <path class="fil0" d="M771.34 369.92l0 83.8c0,100.55 153.64,18.96 153.64,90.79 0,48.56 -119.97,34.92 -174.59,34.92 -84.06,0 -43.83,-102.93 -59.2,-143.33 -17.63,-46.37 -88.3,-31.26 -171.26,-31.26l0 62.85c60.85,0 74.74,-4.89 125.71,6.98 61.92,129.05 -72.47,104.76 -153.65,104.76l0 62.85 153.65 0c16.79,0 20.53,-11.31 34.92,-20.95 14.39,9.63 18.13,20.95 34.92,20.95 267.69,0 244.43,25.86 244.43,-153.64 0,-77.19 -146.66,-10.67 -146.66,-76.82 0,-48.81 104.33,-34.92 160.63,-34.92l0 -62.85c-106.29,0 -202.53,-20.49 -202.53,55.87z"/>
   <path class="fil0" d="M268.52 649.27c0,77.8 -45.58,62.85 -153.64,62.85 -70,0 -55.87,-74.35 -55.87,-139.67l-34.92 0c0,237.05 -35.17,202.53 251.41,202.53 33.78,0 55.87,-22.09 55.87,-55.87l0 -391.09 -62.85 0 0 321.25z"/>
   <polygon class="fil0" points="380.25,286.11 380.25,300.08 380.25,642.28 443.11,642.28 443.11,300.08 443.11,286.11 443.11,223.26 380.25,223.26 "/>
   <polygon class="fil0" points="163.76,649.27 226.61,649.27 226.61,439.76 163.76,439.76 "/>
   <polygon class="fil0" points="380.25,300.08 380.25,286.11 31.07,286.11 31.07,544.52 45.04,544.52 45.04,300.08 "/>
   <polygon class="fil0" points="443.11,300.08 701.5,300.08 701.5,286.11 443.11,286.11 "/>
   <path class="fil0" d="M952.92 223.26c-29.55,0 -16.74,20.03 -19.88,47.58 -0.14,1.25 -3.17,10.91 -3.14,11.25 0.35,4.41 -14.12,14.92 12.38,7.86 27.61,-7.35 57.17,-66.69 10.64,-66.69z"/>
  </g>
 </g>
</svg>
