<?xml version="1.0" encoding="UTF-8"?>
<!DOCTYPE svg PUBLIC "-//W3C//DTD SVG 1.1//EN" "http://www.w3.org/Graphics/SVG/1.1/DTD/svg11.dtd">
<!-- Creator: CorelDRAW 2021.5 -->
<svg xmlns="http://www.w3.org/2000/svg" xml:space="preserve" width="1in" height="1in" version="1.1" style="shape-rendering:geometricPrecision; text-rendering:geometricPrecision; image-rendering:optimizeQuality; fill-rule:evenodd; clip-rule:evenodd"
viewBox="0 0 1000 1000"
 xmlns:xlink="http://www.w3.org/1999/xlink"
 xmlns:xodm="http://www.corel.com/coreldraw/odm/2003">
 <defs>
  <style type="text/css">
   <![CDATA[
    .fil0 {fill:black;fill-rule:nonzero}
   ]]>
  </style>
   <clipPath id="id0">
    <rect x="5936.29" y="-5099.06" width="12500" height="12500"/>
   </clipPath>
 </defs>
 <g id="Layer_x0020_1">
  <metadata id="CorelCorpID_0Corel-Layer"/>
  <g style="clip-path:url(#id0)">
   <image x="5936.29" y="-5099.06" width="12500" height="12500" xlink:href="daneshbonyan_Images\daneshbonyan_ImgID1.png"/>
  </g>
  <g id="_2670712492064">
   <path id="Path_22608" class="fil0" d="M444.55 63.5c17.84,-10.54 38.2,-16.14 58.94,-16.14 17.15,0 34.09,3.81 49.57,11.16 34.62,16.35 58.74,49.05 64.15,86.95l-1.19 0.56c-6.23,2.75 -12.29,5.89 -18.16,9.33 -3.46,-49.57 -44.7,-88.04 -94.4,-88.04 -50.93,0 -92.75,40.34 -94.56,91.24 -0.16,34.98 0.05,70.01 -0.09,105.02l0 23.14c0.12,36.05 0,72.07 0.07,108.11 0.09,7.75 0.09,15.52 0,23.26 -0.09,23.19 -0.05,46.41 0,69.59 -6.69,3.87 -13.48,7.56 -20.4,11.01 -0.13,-30.78 -0.04,-61.48 -0.04,-92.23 0,-7.75 -0.05,-15.49 -0.09,-23.24 0.16,-28.3 0,-56.6 0.09,-84.89 0,-7.81 0.01,-15.63 0.04,-23.45 -0.16,-36 0,-72 -0.09,-108 0,-7.05 0.47,-14.1 1.35,-21.09 4.81,-34.32 24.99,-64.63 54.79,-82.31l0.01 0.01z" data-name="Group 11178"/>
   <path id="Path_22609" class="fil0" d="M597.74 194.44c6.74,-3.97 13.58,-7.81 20.4,-11.66 0,30.73 -0.01,61.47 -0.04,92.21 0.04,7.76 0.04,15.56 0,23.32l0 85.31c-6.69,3.81 -13.4,7.6 -20.12,11.37 -0.3,-36.12 0,-72.26 -0.16,-108.38 -0.12,-7.69 -0.13,-15.33 -0.04,-23 0.13,-23.05 0.18,-46.12 -0.03,-69.18z" data-name="Path 22609"/>
   <path id="Path_22622" class="fil0" d="M597.91 418.21c6.76,-3.79 13.49,-7.65 20.19,-11.56 0.12,36.05 -0.07,72.09 0.09,108.16 0,0.87 0.02,1.82 0.02,2.71 0,6.28 -0.4,12.58 -1.15,18.81 -5.28,36.24 -27.56,67.8 -59.93,84.91 -12.15,6.98 -25.87,10.84 -39.87,11.21 -17.06,-0.57 -34.85,2.17 -51.14,-4.14 -40.75,-13.9 -70.23,-49.57 -76.21,-92.2 6.46,-2.79 12.81,-6.04 18.87,-9.62 3.71,49.58 45.05,87.95 94.78,87.95 13.88,0 27.62,-3.05 40.18,-8.91 31.48,-14.63 52.3,-45.54 54,-80.21 0.33,-35.68 0.03,-71.39 0.17,-107.1z" data-name="Path 22622"/>
   <path id="Path_22645" class="fil0" d="M288.41 152.87c17.54,-10.19 37.52,-15.59 57.81,-15.59 14.93,0 29.73,2.92 43.53,8.56 -0.89,6.98 -1.36,14.05 -1.36,21.08 -13,-6.37 -27.31,-9.7 -41.78,-9.7 -44.53,0 -83.09,31.01 -92.63,74.5 -1.33,6.33 -2.02,12.81 -2.02,19.29 0,26.71 11.48,52.17 31.48,69.87 10.14,8.13 21.19,15.26 32.8,21.1 24.08,13.67 48.05,27.54 72.11,41.26 0.05,7.75 0.12,15.49 0.09,23.24 -31.33,-18.05 -62.72,-36.03 -94.16,-53.93 -6.25,-3.49 -12.37,-7.44 -18.14,-11.67 -22.15,-16.93 -37.28,-41.51 -42.39,-68.91 -0.95,-6.51 -1.44,-13.11 -1.44,-19.7 0,-12.91 1.87,-25.79 5.52,-38.16 8.96,-25.78 26.94,-47.55 50.58,-61.24l0 0.01z" data-name="#00c8e9ff"/>
   <path id="Path_22646" class="fil0" d="M422.87 163.19c26.76,15.6 53.81,30.7 80.56,46.29 6.67,3.87 13.31,7.69 20.02,11.49 24.85,14.06 49.62,28.28 74.32,42.66 -0.09,7.69 -0.07,15.33 0.04,23 -31.49,-18.01 -62.98,-36.04 -94.46,-54.1 -7.65,-4.32 -15.09,-8.97 -22.83,-13.16 -19.19,-10.92 -38.47,-21.72 -57.37,-33.04 -0.39,-4.42 -0.59,-8.92 -0.59,-13.36 0,-3.25 0.11,-6.56 0.31,-9.79l0 0z" data-name="Path 22646"/>
   <path id="Path_22647" class="fil0" d="M618.11 274.97c30.87,18.05 62.06,35.56 93.05,53.44 6.23,3.47 12.33,7.31 18.15,11.43 24.44,17.87 40.46,45.09 44.19,75.15 -0.4,16.35 2.14,33.28 -3.4,49.06 -8.72,28.59 -28.46,52.58 -54.83,66.64 -17,9.02 -35.98,13.76 -55.23,13.76 -14.7,0 -29.28,-2.76 -42.95,-8.11 0.75,-6.22 1.15,-12.54 1.15,-18.81 0,-0.91 -0.02,-1.83 -0.02,-2.72 13.13,6.31 27.53,9.61 42.11,9.61 6.04,0 12.07,-0.57 17.99,-1.68 32.92,-6.18 60.12,-29.42 71.36,-60.99 3.51,-9.94 5.31,-20.45 5.31,-31.01 0,-22.33 -8.04,-43.94 -22.63,-60.83 -12.38,-15.19 -30.58,-23.44 -47.16,-33.19 -22.31,-12.85 -44.66,-25.65 -67.05,-38.4 0,-7.78 0,-15.57 -0.04,-23.33z" data-name="Path 22647"/>
   <path id="Path_22648" class="fil0" d="M408.88 394.85c31.38,18.38 63.13,36.12 94.59,54.36 6.73,3.93 13.48,7.81 20.26,11.66 18.56,10.41 37,21.08 55.54,31.61 2.02,1.45 5.61,2.48 4.89,5.78 0.24,6.72 -0.12,13.45 -0.31,20.24 -26.7,-15.56 -53.62,-30.8 -80.41,-46.22 -6.63,-3.81 -13.27,-7.59 -19.91,-11.32 -24.85,-14.35 -49.82,-28.51 -74.67,-42.86 0.12,-7.73 0.12,-15.54 0.03,-23.25z" data-name="Path 22648"/>
   <path id="Path_22649" class="fil0" d="M635.84 139.65c7.81,-1.59 15.82,-2.41 23.81,-2.41 16.62,0 33.07,3.5 48.24,10.25 34.77,15.35 59.41,47.3 65.41,84.83 0,18.36 2.54,37.48 -4.27,55.06 -7.22,21.19 -20.46,39.85 -38.09,53.64l-1.65 -1.18c-5.81,-4.09 -11.9,-7.96 -18.11,-11.43l1.87 0.6c21.27,-14.25 35.93,-36.52 40.55,-61.71 0.84,-5.2 1.28,-10.5 1.28,-15.76 0,-13.35 -2.76,-26.59 -8.07,-38.82 -15.44,-33.78 -49.19,-55.46 -86.34,-55.46 -15.7,0 -31.18,3.91 -45,11.35 -30.75,17.32 -61.18,35.14 -91.94,52.37 -6.71,-3.79 -13.36,-7.63 -20.02,-11.49 31.43,-18.15 63,-35.98 94.43,-54.08 5.88,-3.43 11.95,-6.59 18.16,-9.35 6.47,-2.5 13.1,-4.67 19.78,-6.41l-0.02 0.02z" data-name="#ffaf89ff"/>
   <path id="Path_22650" class="fil0" d="M480.55 219.37c7.74,4.16 15.17,8.83 22.83,13.15 -31.43,18.27 -63.09,36.09 -94.56,54.22l0 -23.14c23.98,-13.23 47.11,-27.91 71.5,-40.36 0.06,-0.94 0.18,-2.9 0.23,-3.87z" data-name="Path 22650"/>
   <path id="Path_22651" class="fil0" d="M308.48 320.94c26.7,-15.24 53.6,-30.22 80.01,-45.98 0,7.81 -0.02,15.63 -0.04,23.45 -20.08,11.66 -40.43,22.89 -60.4,34.73 -6.73,-3.65 -13.31,-7.74 -19.56,-12.18l-0 -0.01z" data-name="Path 22651"/>
   <path id="Path_22652" class="fil0" d="M276.15 340.89c5.79,4.25 11.85,8.16 18.13,11.66 -26.36,17.23 -42.27,46.62 -42.27,78.13 0,13.63 3,27.11 8.75,39.46 15.65,33.17 49.06,54.35 85.74,54.35 8.92,0 17.85,-1.27 26.41,-3.75 14.99,-5.39 29.41,-12.58 42.78,-21.28 22.63,-12.79 44.9,-26.29 67.91,-38.47 6.63,3.73 13.27,7.51 19.91,11.32 -31.57,18.08 -63.13,36.15 -94.68,54.2 -6.07,3.59 -12.41,6.84 -18.88,9.62 -13.79,5.51 -28.53,8.35 -43.39,8.35 -17.04,0 -33.88,-3.74 -49.32,-10.91 -39.32,-18.01 -64.56,-57.31 -64.56,-100.55 0,-0.59 0.01,-1.2 0.01,-1.78 -0.02,-1.11 -0.05,-2.23 -0.05,-3.35 0,-34.22 16.13,-66.47 43.52,-86.98l-0.02 -0z" data-name="Path 22652"/>
   <path id="Path_22653" class="fil0" d="M618.13 383.61c20.02,-11.77 40.5,-22.82 60.29,-34.98 6.83,3.79 13.65,7.65 20.45,11.57 -26.62,16 -53.9,30.91 -80.76,46.48 -6.72,3.92 -13.44,7.78 -20.19,11.56 -24.69,14.29 -49.61,28.13 -74.16,42.66l-20.26 -11.66c31.43,-18.22 63.09,-36.02 94.51,-54.22 6.7,-3.78 13.41,-7.58 20.11,-11.41z" data-name="Path 22653"/>
   <path id="Path_22654" class="fil0" d="M620.05 701.94c7.08,3.07 13.65,7.27 19.43,12.39 -3.69,5.76 -7.24,11.54 -10.86,17.34 -6.05,-4.2 -12.42,-7.93 -18.81,-11.55 3.46,-6.01 6.88,-12.07 10.24,-18.18z" data-name="Group 11151"/>
   <path id="Path_22655" class="fil0" d="M261.13 722.96c6.79,-5.89 13.28,-12.06 20.17,-17.83 3.67,8.97 5.56,18.6 5.56,28.3 0,1.44 -0.05,2.89 -0.13,4.31 0.07,16.3 0,32.59 0,48.88 0,0.06 0,0.12 0,0.17 0,2.87 1.14,5.62 3.17,7.65 2.06,2.06 4.86,3.22 7.78,3.22 0.03,0 0.06,0 0.09,0 1.52,0.07 3.07,0.11 4.6,0.11 7.94,0 15.84,-1.04 23.51,-3.07 -0.72,-7.37 -1.81,-14.7 -2.19,-22.08 7.56,-4.66 15.47,-8.85 23.56,-12.45 1.27,9.65 1.65,19.4 3.19,29.01 1.26,4.45 5.22,7.59 9.83,7.8 2.94,0.37 5.89,0.56 8.85,0.56 6.86,0 13.7,-1.01 20.26,-3 -1,-7.57 -1.63,-15.17 -2.38,-22.76 7.98,-3.87 15.9,-7.84 23.81,-11.79 0.91,9.41 1.65,18.83 2.85,28.25 0.84,4.58 4.59,8.06 9.22,8.57 3.43,0.59 6.91,0.89 10.39,0.89 6.67,0 13.3,-1.1 19.62,-3.25 -2.46,-10.5 -6.01,-20.79 -10.5,-30.58 7.33,-5.69 14.53,-11.56 21.98,-17.09 6.37,14.2 9.76,29.62 9.87,45.2 -2.09,9.54 -6.19,18.55 -12.01,26.39 -7.17,6.14 -16.3,9.51 -25.74,9.51 -0.16,0 -0.33,-0 -0.49,-0 -12.72,1.1 -28.3,0.13 -36,-11.59 -5.29,9.09 -16.9,10.16 -26.35,11.47 -12.95,1.24 -28.93,0.58 -36.93,-11.37 -5.35,8.46 -16.18,9.96 -25.34,11.23 -3.27,0.56 -6.59,0.85 -9.91,0.85 -7.67,0 -15.27,-1.52 -22.35,-4.44 -8.45,-5.74 -13.51,-15.31 -13.51,-25.53 0,-0.31 0.01,-0.63 0.02,-0.93 -0.8,-24.88 1.75,-50.24 -4.51,-74.62z" data-name="Path 22655"/>
   <path id="Path_22656" class="fil0" d="M748.12 723.2c6.66,-6.13 13.32,-12.22 20.22,-18.07 6.57,13.03 4.89,27.96 5.1,42.03 -0.19,25.11 0.45,50.24 -0.45,75.28 -5.84,3.41 -11.87,6.48 -17.92,9.46 -0.17,-21.46 -1.36,-42.89 -2.05,-64.34 -0.02,-14.89 -1.69,-29.83 -4.9,-44.38l-0.01 0.02z" data-name="Path 22656"/>
   <path id="Path_22657" class="fil0" d="M715.09 709.59c8.45,3.06 16.19,7.88 22.67,14.11 -4.35,6.67 -8.44,13.46 -12.67,20.24 -7.07,-4.89 -14.48,-9.2 -21.85,-13.57 3.92,-6.95 8.09,-13.75 11.85,-20.78z" data-name="Path 22657"/>
   <path id="Path_22658" class="fil0" d="M391.5 718.4c8.19,3.43 15.76,8.21 22.38,14.11 -4.14,6.85 -8.48,13.58 -12.54,20.47 -7.18,-4.76 -14.48,-9.34 -22,-13.56 3.99,-7.04 8.15,-13.98 12.16,-21.03z" data-name="Path 22658"/>
   <path id="Path_22659" class="fil0" d="M610.3 727.24c7.09,3.15 13.8,7.17 19.91,11.94 2.26,-3.94 4.53,-7.87 6.73,-11.87 8.26,3.36 15.91,8.15 22.56,14.1 -4.14,6.79 -8.32,13.58 -12.45,20.37 -6.33,-4.25 -12.82,-8.17 -19.41,-11.94 -2.41,4.05 -4.92,8.04 -7.53,11.96 -7.07,-4.81 -14.47,-9.38 -22,-13.46 4.03,-7.05 8.09,-14.08 12.19,-21.1z" data-name="Path 22659"/>
   <path id="Path_22660" class="fil0" d="M807.94 763.34c2.98,-9.08 6.11,-18.1 9.09,-27.2 17.44,9.26 33.91,24.39 37.08,44.65 0.32,2.26 0.5,4.55 0.5,6.83 0,10.92 -3.8,21.52 -10.74,29.94 -8.8,7.06 -19.77,10.91 -31.06,10.91 -2.09,0 -4.19,-0.13 -6.26,-0.39 -8.56,-0.55 -19.68,-2.3 -22.98,-11.47 -0.77,-5 -1.17,-10.08 -1.17,-15.15 0,-6.93 0.74,-13.89 2.2,-20.65 5.27,0.36 10.54,0.9 15.8,1.62 0.31,4.59 -3.14,12.56 3.29,14.19 3.87,0.61 7.82,0.92 11.75,0.92 7.03,0 14.05,-0.99 20.8,-2.93 -5.34,-13.48 -15.39,-24.61 -28.29,-31.26l-0 0z" data-name="Path 22660"/>
   <path id="Path_22661" class="fil0" d="M194.63 740.59c8.17,3.44 15.73,8.21 22.33,14.11 -4.25,6.79 -8.41,13.69 -12.78,20.41 -6.94,-4.95 -14.32,-9.22 -21.72,-13.56 3.94,-7.06 8.04,-14.02 12.17,-20.97z" data-name="Path 22661"/>
   <path id="Path_22662" class="fil0" d="M711.4 763.88c7.39,-5.65 14.48,-11.66 22.06,-17.04 6.27,13.96 9.53,29.13 9.53,44.44 0,0.78 -0.02,1.61 -0.03,2.39 -2.46,9.88 -7.14,19.09 -13.67,26.91 -8.56,5.04 -18.33,7.71 -28.26,7.71 -0.74,0 -1.5,-0.02 -2.24,-0.05 -0.98,0.07 -1.98,0.12 -2.96,0.12 -9.59,0 -18.85,-3.56 -25.98,-9.98 -5.18,6.28 -12.9,9.91 -21.04,9.91 -7.1,0 -13.92,-2.77 -19.01,-7.72 -5.67,5.09 -13.03,7.91 -20.65,7.91 -3.24,0 -6.46,-0.51 -9.54,-1.51 -1.86,7.38 -5.01,14.4 -9.26,20.69 -8.06,6.52 -17.7,10.86 -27.94,12.55 -6.74,1.82 -13.69,2.75 -20.67,2.75 -10.13,0 -20.17,-1.96 -29.56,-5.72 -7.96,-3.9 -13.65,-11.29 -15.39,-19.98 -0.71,-4.74 -1.07,-9.56 -1.07,-14.37 0,-14.93 3.47,-29.69 10.13,-43.03 5.63,1.65 11.2,3.48 16.71,5.49 -3.89,8.96 -5.91,18.65 -5.91,28.43 0,2.74 0.16,5.49 0.47,8.2 1.32,7.03 9.36,8.46 15.3,9.5 3.57,0.35 7.19,0.55 10.79,0.55 11.89,0 23.7,-2 34.92,-5.88 -1.49,-15.76 -4.17,-31.58 -7.98,-46.94 7.56,-4.65 15.21,-9.15 22.87,-13.64 2.19,8.6 3.48,17.49 6.34,25.92 3.13,9.77 22.63,8.36 22.09,-2.79 0.61,-5.55 0.9,-11.11 1.55,-16.67l19.01 0.01c0.04,8.01 0.04,16.02 0,24.03 3.13,1.02 6.41,1.54 9.7,1.54 2.3,0 4.59,-0.25 6.83,-0.75 -0.8,-8.55 -1.74,-17.04 -2.48,-25.64 7.86,-3.94 15.78,-7.82 23.65,-11.77 1.11,9.6 1.7,19.23 2.93,28.81 0.9,5 5.14,8.72 10.21,8.97 3.06,0.5 6.17,0.75 9.27,0.75 6.74,0 13.44,-1.19 19.76,-3.5 -2.52,-10.47 -6.04,-20.79 -10.47,-30.61l-0.01 0.01z" data-name="Path 22662"/>
   <path id="Path_22663" class="fil0" d="M225.52 770.64c7.27,-5.1 14.84,-9.83 22.62,-14.09 5.04,16.35 7.76,33.42 8.02,50.53 -0.26,10.1 -3.24,19.96 -8.6,28.52 -3.67,5.42 -9.13,9.4 -15.41,11.23 -11.93,4.63 -24.65,7.01 -37.45,7.01 -3.37,0 -6.77,-0.16 -10.12,-0.49 -12.67,-1.5 -26.8,-7.17 -31.18,-20.17 -1.69,-6.89 -2.56,-13.99 -2.56,-21.09 0,-14.43 3.56,-28.65 10.34,-41.39 5.48,1.87 10.98,3.72 16.46,5.63 -3.92,12.71 -9.33,26.95 -4.07,40 4.91,4.31 11.22,6.68 17.76,6.68 0.37,0 0.74,-0.01 1.1,-0.02 1.53,0.06 3.1,0.09 4.64,0.09 12.26,0 24.46,-2.03 36.05,-5.98 -1.46,-15.56 -4.08,-31.2 -7.6,-46.44l0.01 -0.01z" data-name="Path 22663"/>
   <path id="Path_22664" class="fil0" d="M315.8 837.2c7.28,2.79 14.05,6.81 19.98,11.88 2.26,-4.04 4.65,-8.02 7.15,-11.91 8.16,3.38 15.65,8.26 22.04,14.35 -4.27,6.58 -8.15,13.38 -12.4,20 -6.22,-4.4 -12.74,-8.44 -19.46,-11.98 -2.38,3.99 -4.8,7.96 -7.19,11.96 -7.24,-4.78 -14.74,-9.1 -22.17,-13.52 4.03,-6.89 8.13,-13.77 12.06,-20.77z" data-name="Path 22664"/>
   <path id="Path_22665" class="fil0" d="M435.15 837.28c8.34,3.18 16.01,7.99 22.51,14.11 -4.23,6.69 -8.3,13.46 -12.4,20.23 -7.11,-4.98 -14.65,-9.24 -22.13,-13.58 4.07,-6.87 8.13,-13.76 12.02,-20.76z" data-name="Path 22665"/>
   <path id="Path_22666" class="fil0" d="M207.53 892.74c2.07,-2.02 4.3,-3.87 6.68,-5.51 1.16,8.02 1.76,16.18 1.76,24.3 0,2.04 -0.04,4.1 -0.1,6.12 0.07,3.24 -0.54,7.52 2.91,9.41 1.85,0.23 3.74,0.35 5.62,0.35 2.91,0 5.84,-0.28 8.7,-0.83 -0.17,-3.9 -0.4,-7.8 -0.59,-11.66 2.15,-1.01 4.33,-2.01 6.5,-3.02 0.91,4.63 -0.22,10.29 2.96,14.13 4.83,2.96 10.79,0.9 16.02,0.37 -0.22,-3.75 -0.49,-7.48 -0.76,-11.21 2.19,-1.19 4.39,-2.38 6.59,-3.54 1.21,4.91 -0.7,12.06 4.37,15.15 3.06,0.56 6.2,0.85 9.31,0.85 4.73,0 9.45,-0.65 14,-1.93 -1.24,-4.44 -2.75,-8.92 -4.44,-13.22 2.22,-1.61 4.42,-3.26 6.61,-4.89 2.61,7.38 6,16.34 1.04,23.54 -2.72,4.68 -8.75,5 -13.58,5.28 -1.69,0.31 -3.41,0.46 -5.12,0.46 -5.2,0 -10.31,-1.4 -14.79,-4.04 -3.61,2.5 -7.91,3.84 -12.3,3.84 -4.44,0 -8.79,-1.38 -12.43,-3.93 -7.51,5.26 -23.27,6.79 -26.46,-4.01 0,-0.19 0,-0.37 0,-0.56 0,-11.83 -0.86,-23.72 -2.52,-35.43l0.01 -0.01z" data-name="Path 22666"/>
   <path id="Path_22667" class="fil0" d="M415 892.98c2.19,-1.43 3.62,-5.95 6.68,-4.76 1.23,9.98 1.89,20.13 1.89,30.21 0,5.93 -0.24,11.92 -0.65,17.82 -1.74,0.39 -3.48,0.8 -5.2,1.22 -0.02,-1.16 0.02,-2.47 0.02,-3.67 0,-13.63 -0.93,-27.34 -2.73,-40.83l0 0z" data-name="Path 22667"/>
   <g data-name="Path 22668">
    <path id="Path_22668" class="fil0" d="M516.76 892.81c2.07,-2.06 4.12,-4.11 6.24,-6.11 1.55,10.32 2.33,20.81 2.33,31.28 0,1.76 -0.05,3.59 -0.08,5.31 1.32,5.96 8.79,3.87 13.2,4.04 -0.46,-1.61 -0.7,-3.3 -0.7,-4.98 0,-3.92 1.28,-7.72 3.63,-10.85 -1.21,-3.43 1.23,-6.56 2.29,-9.69 7.55,3.74 14.64,8.39 21.08,13.81 2.69,2.72 4.2,6.41 4.2,10.24 0,4.81 -2.39,9.32 -6.37,12.03 -5.31,-0.09 -9.78,-3.7 -14.86,-4.39 -4.76,1.89 -9.83,2.87 -14.95,2.87 -2.45,0 -4.91,-0.23 -7.31,-0.67 -4.01,-1.53 -6.66,-5.38 -6.66,-9.67 0,-0.26 0.01,-0.52 0.03,-0.78 0.08,-2.02 0.12,-4.12 0.12,-6.17 0,-8.79 -0.75,-17.62 -2.2,-26.28l-0 -0zm26.04 28.06c1.67,2.63 5.63,5.61 8.03,1.99 3.83,-2.87 -0.46,-6.52 -2.17,-9.13 -2.97,1.33 -5.15,4 -5.86,7.18l0 -0.04zm15.24 -1.35c-1,2.91 -1.97,5.81 -2.9,8.72 2.5,0.91 5.01,1.74 7.54,2.59 1.53,-4.7 -1.53,-8.3 -4.66,-11.31l0.01 0.01z"/>
   </g>
   <path id="Path_22669" class="fil0" d="M649.29 894.83c7.78,-2.57 15.73,-4.74 23.6,-7.11 -0.63,2.72 -1.25,5.51 -1.87,8.27 -6.54,2.1 -13.09,4.13 -19.66,6.13 5.82,4.41 10.7,9.98 14.3,16.34 0.71,1.55 1.07,3.24 1.07,4.94 0,1.93 -0.47,3.83 -1.36,5.53 -1.71,3.28 -4.83,5.59 -8.47,6.28 -8.41,1.11 -18.8,3.59 -25.67,-2.94 -8.39,3.54 -17.43,5.36 -26.54,5.36 -2.61,0 -5.24,-0.16 -7.83,-0.45 -4.78,-0.45 -11.15,-1.29 -13.04,-6.44 -0.49,-2.36 -0.74,-4.77 -0.74,-7.18 0,-4.4 0.83,-8.76 2.44,-12.86 1.23,0.48 3.71,1.5 4.93,2.01 -0.53,4.48 -4.14,12.8 2.48,14.41 4.75,0.9 9.6,1.36 14.44,1.36 6.95,0 13.88,-0.94 20.57,-2.78 -0.26,-3.62 -0.55,-7.27 -0.78,-10.89l6.64 -3.24c1.23,4.98 -0.91,12.45 4.59,15.25 2.85,0.41 5.75,0.63 8.64,0.63 4.67,0 9.33,-0.56 13.87,-1.65 -3.73,-8.2 -9.89,-15.05 -17.65,-19.62 0.96,-4.08 0.81,-10.11 6.02,-11.35z" data-name="Path 22669"/>
   <path id="Path_22670" class="fil0" d="M782.55 895.59c8.15,-3.32 16.78,-5.13 25.14,-7.82 -0.63,2.79 -1.25,5.59 -1.87,8.4 -6.56,1.91 -13.1,3.95 -19.66,5.85 7.54,5.05 13.09,12.59 15.64,21.31 -0.02,5.13 -3.29,9.67 -8.15,11.31 -3.98,1.14 -8.12,1.72 -12.27,1.72 -2.85,0 -5.69,-0.27 -8.49,-0.81 -1.49,8.32 -7.43,15.15 -15.46,17.77 -3.93,-0.56 -7.74,-1.8 -11.24,-3.66 0.38,-1.29 1.11,-3.87 1.49,-5.14 1.44,0.43 2.93,0.65 4.43,0.65 2.55,0 5.06,-0.64 7.3,-1.85 3.57,-1.93 6.23,-5.23 7.35,-9.14 -1.19,-4.94 -2.81,-9.82 -4.85,-14.48 2.06,-1.67 4.13,-3.32 6.2,-4.97 2.22,4.3 2.12,11.71 8.15,12.56 1.74,0.24 3.52,0.36 5.28,0.36 4.65,0 9.26,-0.85 13.6,-2.5 -1.51,-8.55 -10.86,-13.24 -16.56,-19.31 0.16,-3.56 0.23,-8.33 3.96,-10.24z" data-name="Path 22670"/>
   <path id="Path_22671" class="fil0" d="M363.2 891c2.38,1.29 4.76,2.6 7.17,3.89 -1.29,2.17 -2.59,4.33 -3.9,6.48l-6.33 -4.31c1.05,-2.03 2.06,-4.08 3.07,-6.06z" data-name="Path 22671"/>
   <path id="Path_22672" class="fil0" d="M714.21 890.83c2.34,1.46 4.69,2.94 7.06,4.4 -1.3,1.99 -2.61,3.99 -3.89,5.98l-6.39 -4.05c1.08,-2.13 2.17,-4.24 3.22,-6.34z" data-name="Path 22672"/>
   <path id="Path_22673" class="fil0" d="M401.19 893.41c2.48,1.6 4.91,3.2 7.37,4.83 -1.44,2.23 -2.87,4.48 -4.3,6.7 -2.4,-1.53 -4.79,-3.05 -7.18,-4.56 1.35,-2.34 2.73,-4.67 4.11,-6.98z" data-name="Path 22673"/>
   <path id="Path_22674" class="fil0" d="M257.92 897.24c2.48,1.44 4.94,2.9 7.41,4.38 -1.32,2.36 -2.67,4.69 -3.98,7.05 -2.48,-1.63 -4.98,-3.22 -7.43,-4.81l4.01 -6.62z" data-name="Path 22674"/>
   <path id="Path_22675" class="fil0" d="M355.93 906.52l3.97 -6.84c2.48,1.44 4.93,2.91 7.41,4.35 0.63,-1.19 1.89,-3.59 2.54,-4.72 2.46,1.61 4.94,3.21 7.43,4.8 -1.39,2.2 -2.72,4.39 -4.12,6.59l-7.32 -4.18c-0.7,1.12 -2.12,3.39 -2.81,4.52 -2.36,-1.51 -4.72,-3.02 -7.09,-4.51z" data-name="Path 22675"/>
   <path id="Path_22676" class="fil0" d="M710.66 899.83c2.47,1.36 4.98,2.77 7.49,4.15l2.98 -4.57c2.36,1.63 4.67,3.37 7.09,4.95 -1.48,2.12 -2.91,4.25 -4.39,6.38 -2.31,-1.41 -4.59,-2.79 -6.9,-4.16 -0.76,1.1 -2.31,3.31 -3.08,4.42 -2.36,-1.44 -4.74,-2.89 -7.11,-4.31 1.31,-2.3 2.63,-4.59 3.92,-6.84z" data-name="Path 22676"/>
   <path id="Path_22677" class="fil0" d="M763.19 900.96l7.32 4.37c-1.36,2.34 -2.72,4.69 -3.99,7.04 -2.48,-1.52 -4.94,-3.02 -7.39,-4.53 1.34,-2.3 2.7,-4.57 4.06,-6.87z" data-name="Path 22677"/>
   <path id="Path_22678" class="fil0" d="M441.72 902.73c8.85,4.09 14.53,12.96 14.53,22.71 0,0.5 -0.02,1.01 -0.05,1.5 -2.19,10.25 -15.24,11.25 -23.62,9.05 -5.95,-2.81 -2.98,-10.35 -3.02,-15.39l4.52 0.91c0.09,1.44 0.26,4.31 0.37,5.74 2.06,0.33 4.17,0.5 6.26,0.5 3.58,0 7.16,-0.49 10.6,-1.46 -2.3,-6.38 -6.68,-11.82 -12.41,-15.44 0.92,-2.74 1.92,-5.43 2.83,-8.12z" data-name="Path 22678"/>
   <path id="Path_22679" class="fil0" d="M612 902.91c2.53,1.37 5.06,2.74 7.56,4.13 -1.32,2.4 -2.67,4.78 -3.99,7.18 -2.43,-1.43 -4.82,-2.85 -7.24,-4.3l-2.89 4.48 -7.24 -4.37c1.36,-2.32 2.72,-4.63 4.02,-6.93l7.35 4.56c0.67,-1.19 1.85,-3.57 2.42,-4.75z" data-name="Path 22679"/>
   <path id="Path_22680" class="fil0" d="M179.89 904.07c2.65,1.41 5.24,2.91 7.79,4.48 -1.39,2.29 -2.77,4.58 -4.16,6.88l-7.3 -4.28 3.67 -7.09z" data-name="Path 22680"/>
   <path id="Path_22681" class="fil0" d="M489.41 923.31c0.91,-7.56 5.69,-14.1 12.61,-17.25 4.35,-1.41 7.77,1.91 11.02,4.15 -1.28,2.03 -2.57,4.05 -3.85,6.09 -5.67,-4.76 -11.77,0.15 -14.24,5.66 5.42,1.33 10.72,3.3 15.7,5.81 0.76,1.6 1.16,3.35 1.16,5.13 0,1.74 -0.39,3.45 -1.12,5.03 -1.52,3.22 -4.39,5.62 -7.85,6.51 -9.2,3.28 -21.72,5.38 -29.42,-1.93 -5.58,-8.32 -1.81,-18.83 0.85,-27.57 1.3,0.38 3.87,1.12 5.16,1.48 -1.51,3.8 -2.3,7.86 -2.3,11.96 0,2.04 0.2,4.09 0.58,6.09 3.19,5.02 10.25,3.73 15.39,3.73 3.98,-0.72 9.57,-0.48 11.6,-4.74 -5.49,-2.32 -16.33,-1.76 -15.3,-10.14z" data-name="Path 22681"/>
   <path id="Path_22682" class="fil0" d="M400.44 912.46c2.22,-1.61 4.44,-3.2 6.71,-4.76 3.08,8.07 6.28,18.37 -0.72,25.49 -3.62,2.09 -7.74,3.2 -11.93,3.2 -4.19,0 -8.3,-1.11 -11.93,-3.21 -2.37,1.99 -5.36,3.08 -8.45,3.08 -3,0 -5.91,-1.03 -8.24,-2.91 -2.74,1.92 -6.01,2.95 -9.35,2.95 -1.31,0 -2.63,-0.17 -3.91,-0.48 -0.66,3.39 -2,6.63 -3.92,9.5 -5.81,3.78 -12.6,5.8 -19.53,5.8 -1.61,0 -3.23,-0.11 -4.82,-0.33 -5.22,-0.07 -9.93,-3.19 -12.04,-7.96 -0.53,-2.57 -0.8,-5.2 -0.8,-7.82 0,-5.73 1.28,-11.41 3.75,-16.58l4.63 1.63c-0.74,6.34 -4.53,13.56 -0.54,19.54 3.91,1.56 8.1,2.37 12.32,2.37 4.97,0 9.9,-1.12 14.38,-3.28 -0.57,-7.06 -1.68,-14.14 -3.22,-21.07 2.17,-1.33 4.35,-2.69 6.52,-3.98 1.63,5.13 1.36,14.59 9.06,13.81 6,0 5.16,-7.09 6.24,-11.03l5.72 -0.22c0.19,3.33 -1.42,7.13 0.24,10.22 1.71,0.64 3.53,0.96 5.35,0.96 1.06,0 2.11,-0.11 3.14,-0.32 -0.38,-3.98 -0.78,-7.95 -1.23,-11.92 2.29,-1.22 4.57,-2.46 6.87,-3.66 0.78,4.8 -0.17,10.37 2.81,14.55 2.62,0.91 5.38,1.38 8.15,1.38 3.13,0 6.24,-0.6 9.16,-1.76 -1.2,-4.47 -2.7,-8.9 -4.43,-13.2l-0 0z" data-name="Path 22682"/>
   <path id="Path_22683" class="fil0" d="M729.01 912.49c2.22,-1.39 3.91,-4.16 6.79,-4.07 2.79,7.91 5.65,17.87 0,25.23 -2.1,1.83 -4.8,2.84 -7.59,2.84 -2.89,0 -5.67,-1.08 -7.8,-3.03 -2.31,-2.36 -4.52,1.43 -6.38,2.44 -1.21,0.37 -2.48,0.56 -3.75,0.56 -3.27,0 -6.42,-1.27 -8.79,-3.52 -3.35,2.34 -7.35,3.6 -11.44,3.6 -1.83,0 -3.66,-0.26 -5.42,-0.75 -1.59,7.83 -7.01,14.35 -14.42,17.34 -0.13,0 -0.27,0 -0.4,0 -4.06,0 -8.05,-1.15 -11.49,-3.3 0.17,-1.31 0.51,-3.92 0.66,-5.21 3.76,-0.06 8,1.54 11.39,-0.69 3.51,-2.37 6.43,-5.54 8.5,-9.24 -1.59,-5.02 -3.27,-10.03 -5.18,-14.93 1.89,-1.65 3.78,-3.28 5.69,-4.93 2.78,5.16 3.71,14.2 11.77,12.78 7.18,1.31 8.92,-6 9.96,-11.31 1.36,0 4.07,-0.07 5.43,-0.12 -0.29,1.86 -0.44,3.74 -0.44,5.62 0,1.12 0.05,2.24 0.15,3.35 1.14,1.57 2.97,2.5 4.91,2.5 1.88,0 3.66,-0.88 4.8,-2.37 0.83,-2.98 1.49,-6.02 1.94,-9.08l5.53 0.06c-0.26,3.17 -0.53,6.36 -0.81,9.54 2.23,1.08 4.69,1.65 7.17,1.65 1.11,0 2.23,-0.12 3.32,-0.34 -1.03,-4.96 -2.43,-9.85 -4.12,-14.62l0.02 0.01z" data-name="Path 22683"/>
   <path id="Path_22684" class="fil0" d="M193.5 913.93c2.35,-1.24 4.65,-2.51 6.94,-3.79 1.81,9.87 5.74,21.17 -0.07,30.5 -5.22,4.38 -11.82,6.79 -18.64,6.79 -0.92,0 -1.84,-0.05 -2.76,-0.13 -0.72,0.1 -1.46,0.15 -2.19,0.15 -5.33,0 -10.31,-2.66 -13.27,-7.08 -0.78,-3.04 -1.18,-6.17 -1.18,-9.31 0,-5.6 1.26,-11.14 3.67,-16.19 1.13,0.35 3.42,1.08 4.53,1.46 -0.45,6.38 -4.16,13.46 -0.61,19.46 4.02,1.71 8.36,2.6 12.74,2.6 4.91,0 9.76,-1.12 14.18,-3.26 -0.59,-7.1 -1.72,-14.23 -3.34,-21.19l0 -0z" data-name="Path 22684"/>
   <g data-name="Path 22685">
    <path id="Path_22685" class="fil0" d="M840.73 913.98c1.43,-1.39 3.34,-2.17 5.33,-2.17 3.05,0 5.81,1.81 7.02,4.6 1.69,2.76 2.57,5.93 2.57,9.16 0,2.58 -0.57,5.13 -1.66,7.47 -3.95,7.59 -14.7,2.81 -19.51,-1.6 -2.71,3.11 -6.64,4.91 -10.78,4.91 -1.42,0 -2.83,-0.21 -4.19,-0.63 -1.53,8.02 -7.16,14.65 -14.83,17.46 -4.2,-0.19 -8.3,-1.43 -11.91,-3.59 0.4,-1.27 1.21,-3.82 1.61,-5.1 1.39,0.38 2.83,0.58 4.28,0.58 6.75,0 12.79,-4.24 15.07,-10.59 -1.43,-5 -3.19,-9.96 -5.25,-14.72 2.08,-1.72 4.17,-3.43 6.26,-5.15 2.26,4.49 2.29,12.5 8.82,12.86 8.74,0.77 11.89,-8.55 17.1,-13.54l0.05 0.04zm-1.79 10.96c3.3,2.2 7.09,3.59 11.04,4.04 -0.14,-3.55 -1.53,-6.94 -3.92,-9.56 -3.58,-0.51 -5.06,3.34 -7.07,5.53l-0.05 -0.01z"/>
   </g>
   <path id="Path_22686" class="fil0" d="M283.13 940.65c2.44,1.61 4.85,3.22 7.3,4.81 -1.4,2.2 -2.78,4.4 -4.18,6.6 -2.41,-1.46 -4.85,-2.91 -7.3,-4.35 1.39,-2.36 2.78,-4.72 4.18,-7.07z" data-name="Path 22686"/>
   <path id="Path_22687" class="fil0" d="M224.24 947.82c1.3,-2.33 2.61,-4.65 3.91,-6.95l6.77 4.31c1.1,-1.59 2.42,-3 3.93,-4.2 2.25,1.36 4.47,2.88 6.56,4.48l-4.07 6.56c-2.38,-1.43 -4.79,-2.87 -7.19,-4.3 -0.69,1.17 -2.11,3.51 -2.83,4.67 -2.36,-1.54 -4.72,-3.06 -7.09,-4.57z" data-name="Path 22687"/>
  </g>
 </g>
</svg>
