<?xml version="1.0" encoding="UTF-8"?>
<!DOCTYPE svg PUBLIC "-//W3C//DTD SVG 1.1//EN" "http://www.w3.org/Graphics/SVG/1.1/DTD/svg11.dtd">
<!-- Creator: CorelDRAW 2020 (64-Bit) -->
<svg xmlns="http://www.w3.org/2000/svg" xml:space="preserve" width="1in" height="1in" version="1.1" style="shape-rendering:geometricPrecision; text-rendering:geometricPrecision; image-rendering:optimizeQuality; fill-rule:evenodd; clip-rule:evenodd"
viewBox="0 0 1000 1000"
 xmlns:xlink="http://www.w3.org/1999/xlink"
 xmlns:xodm="http://www.corel.com/coreldraw/odm/2003">
 <defs>
  <style type="text/css">
   <![CDATA[
    .fil0 {fill:#4D4D4D}
   ]]>
  </style>
 </defs>
 <g id="Layer_x0020_1">
  <metadata id="CorelCorpID_0Corel-Layer"/>
  <g id="_1856508547808">
   <path class="fil0" d="M669.04 685.99c1.43,-13.88 28.37,-71.92 67.82,-58.68 -2.7,18.5 -15.22,22.56 -30.3,33.86 -12.47,9.34 -25.23,17.19 -37.52,24.82zm-384.04 -276.52c130.79,0 350.31,-22.33 426.12,-91.66 11.15,-10.2 24.22,-28.23 32.43,-33.04 20.67,-12.12 24.61,9.53 39.26,15.25 29.37,11.48 53.52,-38.8 61.76,-61.94 8.41,-23.64 29.58,-213.43 23.27,-222.3 -22.97,31.09 -35.96,64.44 -37.05,110.62 -1.05,44.33 6.83,109.07 -20.88,132.96 -38.33,-2.21 -21.72,-35.13 -73.76,5.16 -97.24,75.29 -343.22,87.55 -464.23,83.43 -148.33,-5.06 -140.85,-30.04 -182.69,-35.93 -3.52,33.41 -2.21,59.14 22.94,74.24l71.5 21.55c0.69,-1.09 2.5,0.89 4.71,2.11l-17.37 29.84c5.68,17.98 25.2,28.44 -2.42,44.44 -9.76,5.66 -107.86,41.1 -86.66,92.98 26.45,51.27 251.65,21.01 313.39,11.41 52.17,-8.12 101.11,-16.4 150.9,-25.81l141.92 -31.3c-30.98,101.48 -0.6,152.43 -57.89,175.76 -51.03,20.78 -136.03,46 -189.87,24.79 -60.98,-24.03 -20.89,-74.3 -29.25,-104.37 -45.39,37.78 9.57,180.54 -69.27,182.04 5.87,-26.87 17.08,-40.57 20.48,-78.37 1.7,-18.81 10.34,-74.84 -0.72,-89.19 -15.56,48.88 -13.78,48.67 -17.46,105.83 -2.92,45.42 -28.06,63.4 -6.11,90.85 40.59,6.08 53.81,-47.16 63.24,-82.38 19.22,8.78 18.54,17.22 50.14,21.93 153.35,22.84 339.69,-131.57 298.39,-176.75 -18.7,-20.45 -47.71,14.33 -63.02,32.31l12.91 -105.91c12.39,-5.61 31.23,-10.54 45.86,-15.31 16.23,-5.3 32.98,-7.04 39.95,-21.79 -48.79,-14.69 -597.06,135.19 -683.52,53.22 16.8,-50.18 130.65,-16.52 93.62,-137.64l89.37 2.96z"/>
   <path class="fil0" d="M329.87 737.93c-17.92,5.35 -44.59,28.26 -61.22,4.92 -18.14,-25.44 28.08,-17.09 37.85,-20.37 6.1,-38.93 -29.49,-24.85 -47.77,4.44 -29.82,47.78 -9.98,49.55 0.71,60.8 -16.59,31.65 -37.25,50.31 -38.04,100.01 -1.55,97.3 115.9,110.27 182.63,-11.64 10.26,-18.76 18.36,-31.96 11.52,-44.38 -75.13,168.8 -279.85,68.01 -119.23,-58.76 16.57,-13.08 26.68,-13.27 33.55,-35.02z"/>
   <path class="fil0" d="M668.82 835.57c17.45,-35.63 85.59,-19.52 33.73,20.22 -17.13,-0.71 -27.6,-4.06 -33.73,-20.22zm-29.8 -49.87c-42.61,39.05 -29.52,166.53 54.36,110.23 64.24,-43.13 78.3,-53.29 85.28,-153.83 -12.17,8.03 -1.19,-4.62 -12.91,12.98 -9.05,13.6 -10.93,30.14 -11.76,45.71 -1.3,24.24 -2.92,37.08 -24.21,46.65 4.31,-18.32 14.12,-26.43 3.23,-46.78 -12.57,-15.14 -79.06,-13.81 -77.25,65.91 -35.29,-15.38 -22.61,-43.27 -16.73,-80.87z"/>
   <path class="fil0" d="M662.15 810.54c6.61,-5.68 0.53,1.79 9.39,-10.39l20.15 -31.94c78.96,-99.7 223.22,-166.17 229.37,-255.62 -15.65,6.14 -8.09,2.02 -17.79,19.28 -23.56,41.92 -85.93,87.52 -123.99,119.45 -35.94,30.14 -112.44,91.8 -117.14,159.21z"/>
   <path class="fil0" d="M685.48 478.95c37.94,-9.3 60.2,-8.42 79.22,-37.92 37.56,-58.22 19.86,-128.49 -17.24,-118.17 -13.06,3.63 -17.06,19.98 -23.7,33.44 -20.41,41.36 -13.94,54.26 33.6,58.13 -9.28,14.89 -18.26,20.94 -34.4,32.65 -13.9,10.08 -32.24,14.41 -37.48,31.86z"/>
   <path class="fil0" d="M842.18 332.36c100.92,39.23 -21.35,95.06 -31.58,121.14 46.06,-6.39 76.75,-23.61 92.99,-70.36 15.12,-43.54 3.7,-106.98 -40.11,-103.95l-21.3 53.17z"/>
   <path class="fil0" d="M429.06 209.7c-18.07,-5.43 -25.82,-14.59 -47.92,-16.37 -10.84,12.97 -26.02,28.05 -32,46.36 60.24,45.06 48.34,-10.12 82.55,-5.09 9.81,1.44 21.79,10.4 31.63,13.5 12.76,-9.13 29.34,-25.91 31.11,-47.55 -12.11,-12 -22.84,-16.44 -44.19,-17.25l-21.2 26.4z"/>
   <path class="fil0" d="M237.15 650.54c-12.15,19.38 -4.46,19.56 -30.5,45.72 -13.8,13.87 -8.7,4.28 -27.07,12.19 -7.02,3.02 -48.24,43.15 -64.3,0.02 -9.08,-24.39 3.47,-49.57 0.09,-61.95 -36.47,12.32 -22.04,167.49 34.5,114.98 14.95,-13.89 4.84,-17.29 27,-25.46 22.73,-8.38 47.6,-26.21 57.11,-47.83 4.97,-11.3 10.64,-27.63 3.18,-37.67z"/>
   <path class="fil0" d="M836.56 796.58c-23.27,-39.35 8.5,-81.24 -3.53,-99.76 -47.34,70.04 -17.13,192.51 20.71,116.22 5.84,-11.79 9.93,-23.3 10.63,-38.76 -0.82,0.78 -1.79,1.97 -2.26,2.55 -0.47,0.57 -1.62,1.87 -2.19,2.56 -16.13,20.1 -7.66,14.57 -23.37,17.19z"/>
   <path class="fil0" d="M539.23 863.75c35.61,3 30.19,31.15 -3.91,28.02l3.91 -28.02zm-5.09 52.6c26.59,1.81 38.02,-20.15 43.47,-39.79 7.96,-28.69 2.86,-50.81 -22.95,-53.61 -17.23,13.02 -37.56,70.27 -20.52,93.4z"/>
   <path class="fil0" d="M707.73 971.22c7.59,-13.28 13.62,-13.48 16.22,-31.53l-22.81 -9.82 -15.33 18.96 -30.83 -4c-8.97,12.72 -14.41,11.93 -17.3,30.39l22.74 8.99 15.21 -20.15 32.09 7.16z"/>
   <path class="fil0" d="M842.03 918.4c8.7,-9.83 15.2,-13.85 18.09,-32.41 -24.02,-12.47 -23.93,-2.93 -39.95,8.46l-23.24 -6.94c-8.48,11.31 -16.06,15.09 -20.22,31.56l22.85 10.04 13.64 -17.76 28.83 7.06z"/>
   <path class="fil0" d="M121.72 888.66c41.41,-5.98 49.95,-4.96 65.78,-37.27 7.35,-15.01 26.76,-60.21 14.86,-76.91 -12.89,30.89 -8.96,40.61 -29.88,65.94 -24.25,29.36 -39.45,26.58 -50.76,48.24z"/>
   <path class="fil0" d="M463.33 940.38c9.19,-9.07 11.65,-15 16.09,-32.22l13.01 -96.87c1.03,-10.35 0.76,-2.16 -0.27,-10.02 -0.09,-0.69 -1.13,-1.44 -1.23,-3.02 -0.1,-1.62 -0.94,-2.02 -1.51,-2.98 -14.8,20.64 -19.38,41.02 -21.5,70.73 -1.52,21.33 -10.3,60.41 -4.59,74.37z"/>
   <path class="fil0" d="M106.67 470.28c11.92,-6.26 19.17,-13.15 22.88,-30.51 -9.7,-12.35 -7.17,-9.94 -22.88,-14.47 -14.13,8.98 -16.96,13.61 -23.26,27.52l23.26 17.46z"/>
   <path class="fil0" d="M400.75 452.81c24.54,21.09 5.21,43.48 2.25,65.23 9.73,-6.22 50.04,-83.05 7.11,-92.09l-9.36 26.87z"/>
   <path class="fil0" d="M811.28 973.21c12.07,-7.9 21.06,-14.78 22.46,-34.41 -23.25,-13.04 -33.55,0.18 -40.87,24.37l18.41 10.04z"/>
  </g>
 </g>
</svg>
