<?xml version="1.0" encoding="UTF-8"?>
<!DOCTYPE svg PUBLIC "-//W3C//DTD SVG 1.1//EN" "http://www.w3.org/Graphics/SVG/1.1/DTD/svg11.dtd">
<!-- Creator: CorelDRAW 2020 (64-Bit) -->
<svg xmlns="http://www.w3.org/2000/svg" xml:space="preserve" width="1in" height="1in" version="1.1" style="shape-rendering:geometricPrecision; text-rendering:geometricPrecision; image-rendering:optimizeQuality; fill-rule:evenodd; clip-rule:evenodd"
viewBox="0 0 1000 1000"
 xmlns:xlink="http://www.w3.org/1999/xlink"
 xmlns:xodm="http://www.corel.com/coreldraw/odm/2003">
 <defs>
  <style type="text/css">
   <![CDATA[
    .fil2 {fill:#4B4B4D}
    .fil3 {fill:#4D4D4D}
    .fil1 {fill:#5D5D5F}
    .fil0 {fill:#E1E2E3}
   ]]>
  </style>
 </defs>
 <g id="Layer_x0020_1">
  <metadata id="CorelCorpID_0Corel-Layer"/>
  <polygon class="fil0" points="-9723.33,-3952.62 -7423.32,-3952.62 -7423.32,-4445.96 -9723.33,-4445.96 "/>
  <path class="fil1" d="M-9081.82 -4147.99c-33.91,22.13 -23.95,49.75 0.36,56.87 31.63,9.26 69.92,-12.89 86.16,11.83 -3.88,21.03 -20.51,22.36 -41.13,21.82 -27.49,-0.71 -31.09,-11.33 -47.84,-18.24l-23.57 34.08c25.54,10.97 40.46,23.4 77.95,21.52 87.27,-4.38 92.79,-80.46 50.23,-99.68 -30.91,-13.95 -69.34,5.35 -82.26,-6.18 10.29,-22.43 51.53,2.85 81.06,-27.54 19.37,-19.94 19.74,-57.3 7.67,-86.29 9.74,-4.56 9.4,-5.73 16.56,-12.84 -7.7,-9.98 -7.3,-4.59 -21.62,-24.75 -15.9,6.01 -15.55,13.86 -21.98,14.91 -7.39,1.21 -48.8,-19.27 -88.52,11.08 -22.83,17.45 -35.84,66.91 6.93,103.39z"/>
  <path class="fil2" d="M-8882.51 -4263.34c-42.01,12.83 -66.93,57.5 -53.8,113.8 10.41,44.61 49.49,75.19 106.38,60.27 94.95,-24.9 72.84,-212.35 -52.58,-174.07z"/>
  <path class="fil2" d="M-9239.07 -4263.28c-42.05,12.91 -66.93,57.46 -53.78,113.64 10.44,44.59 49.38,75.23 106.27,60.4 95.16,-24.81 73,-212.56 -52.49,-174.04z"/>
  <path class="fil2" d="M-8536.17 -4263.48c-88.42,27.74 -66.05,207.26 49.5,174.03 89,-25.6 69.52,-211.37 -49.5,-174.03z"/>
  <path class="fil1" d="M-7789.34 -4102.25l-9.95 -24.9c-21.93,8.98 -39.15,22.02 -69.61,9.95 -21.53,-8.53 -29.61,-27.32 -31.4,-56.56l124.96 -0.12c31.83,-93.84 -115.85,-134.11 -150.87,-41.38 -16.48,43.63 -3.79,88.61 21.93,110.36 35.87,30.33 75.85,19.34 114.94,2.65z"/>
  <polygon class="fil2" points="-9466.37,-4089.57 -9453.33,-4089.37 -9316.66,-4089.4 -9316.02,-4127.02 -9422.5,-4127.02 -9424.12,-4328.76 -9466.37,-4329.48 "/>
  <path class="fil2" d="M-8294.19 -4110.92c4.74,7.36 4.28,11.5 4.28,21.52l30.91 0 0 -175.25 -30.9 0c-0.01,22.35 5.71,120.59 -6.74,135.4 -7.42,8.83 -73.61,52.51 -73.39,-40 0.06,-25.77 2.69,-71.98 -1.28,-95.3l-27.91 0c-4.79,22.58 -3.93,127.86 4.31,146.83 17.3,39.8 80.22,42 100.72,6.81z"/>
  <path class="fil0" d="M-8521.59 -4241.5c-50.93,12.11 -52.8,144.68 21.13,128.93 52.29,-11.15 51.77,-146.26 -21.13,-128.93z"/>
  <path class="fil0" d="M-8872.06 -4229.38c-25.99,12.12 -28.36,44.39 -23.29,72.41 4.93,27.24 26.39,47.54 57.81,33.51 37.92,-16.93 33.38,-137.59 -34.52,-105.92z"/>
  <path class="fil0" d="M-9228.63 -4229.29c-13.23,6.32 -15.87,7.35 -21.67,26.51 -4.22,13.95 -4.32,30.8 -1.61,45.74 4.66,25.61 26.22,48.78 57.65,33.53 39.14,-18.99 32.41,-137.68 -34.38,-105.78z"/>
  <g id="_1856516233680">
   <path class="fil3" d="M349.59 571.46l-1.88 -46.97c0,-91.29 43.83,-202.62 108.15,-252.57 21.95,-17.05 49.2,-38.63 85.36,-38.63 42.65,0 50.73,43.39 50.73,78.91 0,40.9 -11.36,70.91 -26.89,97.11 -7.2,12.15 -17.43,25.3 -27.12,34.88 -39.85,39.39 -75.74,66.82 -125.71,94.11l-62.65 33.17zm-75.15 30.06c-22.5,10.8 -56.09,23.31 -78.3,34.42 -60.38,30.21 -175.33,91.88 -175.33,168.48 9.54,-6.39 18.25,-14.16 28.15,-20.69 9.41,-6.21 20.13,-12.33 30.73,-18.12l96.43 -52c11.94,-5.96 20.04,-10.98 31.94,-16.91 12.08,-6.02 59.25,-28.53 70.14,-29.43 4.46,9.3 7.53,22.61 11.79,33.3 4.24,10.63 8.8,21.08 13.86,31.22 7.83,15.69 24.01,41.51 36.76,53.43 4.61,4.31 7.31,5.54 12.27,10.28 26.04,24.89 77.96,44.62 115.07,44.62 75.51,0 122.73,-45.72 159.72,-101.44 10.09,-15.2 12.18,-26.7 28.94,-36.82 33.17,-20.04 52.42,-19.46 78.17,-53.34 13.31,-17.52 18.75,-25.95 18.75,-52.65 0,-22.45 -23.23,-15.03 -50.73,-15.03 16.32,-24.38 50.85,-29.1 67.3,-39.79 12.37,-8.04 18.75,-13.37 28.99,-23.62 10.01,-10.02 21.78,-19.07 22.07,-32.41 -27.35,6.37 -79.88,34.11 -101.47,50.7 -34.05,26.16 -63.89,64.99 -87.94,101.81 -19.39,29.69 -24.33,38.46 -46.48,68.13 -9.57,12.82 -24.37,28.08 -37.31,37.84 -35.8,27.02 -82.54,28.86 -121.28,6.35 -14.7,-8.54 -21.52,-14.93 -33.41,-26.7 -10.3,-10.21 -18.41,-21.84 -24.93,-35.19 -5.96,-12.19 -13.11,-30.84 -13.11,-48.89 0,-7.32 42.36,-26.89 50.09,-30.69 17.82,-8.75 35.23,-19.6 51.46,-29.33 38.1,-22.83 62.78,-36.63 98.03,-65.43 11.2,-9.15 33.35,-27.95 42.22,-38.56 28.68,-34.3 45.57,-58.99 59.04,-102.53 17.98,-58.12 16.69,-122.02 -20.36,-171.77 -25.88,-34.76 -75.47,-50.42 -120.59,-34.93 -51.39,17.63 -62.53,31.24 -98.19,59.63 -3.71,2.96 -8.31,7.56 -11.27,11.27 -7.03,8.83 -13.54,15.55 -20.65,24.44 -38.22,47.86 -73.03,120.94 -89.54,181 -12.28,44.7 -21.05,111.59 -21.05,159.31z"/>
   <path class="fil3" d="M845.59 486.92c2.15,9.22 32.47,48.59 39.85,59.73 14.48,21.88 14.27,20.89 58.38,-12.23 44.37,-33.32 46.76,-18.9 8.59,-69.77 -20.5,-27.32 -25.88,-41.9 -55.02,-19.87 -10.92,8.26 -45.67,32.99 -51.8,42.14z"/>
  </g>
 </g>
</svg>
