<?xml version="1.0" encoding="UTF-8"?>
<!DOCTYPE svg PUBLIC "-//W3C//DTD SVG 1.1//EN" "http://www.w3.org/Graphics/SVG/1.1/DTD/svg11.dtd">
<!-- Creator: CorelDRAW 2020 (64-Bit) -->
<svg xmlns="http://www.w3.org/2000/svg" xml:space="preserve" width="1in" height="1in" version="1.1" style="shape-rendering:geometricPrecision; text-rendering:geometricPrecision; image-rendering:optimizeQuality; fill-rule:evenodd; clip-rule:evenodd"
viewBox="0 0 1000 1000"
 xmlns:xlink="http://www.w3.org/1999/xlink"
 xmlns:xodm="http://www.corel.com/coreldraw/odm/2003">
 <defs>
  <style type="text/css">
   <![CDATA[
    .str0 {stroke:white;stroke-width:33.33;stroke-miterlimit:2.61313}
    .fil0 {fill:#4D4D4D}
   ]]>
  </style>
 </defs>
 <g id="Layer_x0020_1">
  <metadata id="CorelCorpID_0Corel-Layer"/>
  <g id="_1856097761792">
   <path class="fil0 str0" d="M794.78 419.04c-16.81,19.49 -56.3,43.83 -56.3,80.96 0,37.83 39.58,60.82 56.3,80.96l58.13 57.22c7.82,-3.81 3.67,-1.3 9.53,-6.64 3.03,-2.76 4.83,-5.02 7.84,-8.01l45.37 -47.86c37.58,-37.18 39.8,-31.87 53.96,-67.8l0 -15.73c-14.56,-36.39 -15.54,-29.75 -53.96,-67.81 -10.04,-9.94 -21.61,-20.36 -30.67,-30.73l-21.41 -24c-5.74,-5.56 -2.99,-4.03 -9.94,-7.04 -15.02,8.5 -42.22,42.02 -58.85,56.48z"/>
   <path class="fil0" d="M30.39 550.06l0 30.57c5.74,14.79 3.51,43.14 38.86,53.58 47.21,13.95 98.76,-15.28 122.51,-61.64 11.37,-22.19 18.31,-45.84 22.08,-73.39 20.41,-3.74 58.49,13.37 140.12,-28.15 37.46,-19.05 73.41,-49.26 120.98,-54.09l11.88 -36.28c7.68,-25.35 -21.98,-12.46 -34.99,-7.37 -12.69,4.96 -20.78,8.93 -32.73,14.94 -41.4,20.84 -87.61,46.72 -134.06,52.35 -32.36,3.92 -64.2,-2.66 -90.92,0.15 -6.81,24.22 8.98,120.6 -75,134.39 -33.66,5.53 -58.79,-6.8 -61.08,-38.78 -1.88,-26.31 11.77,-61.29 18.64,-84.93l-18.59 -0.71c-14.16,28.91 -24.12,90.51 -27.71,99.34z"/>
   <path class="fil0" d="M794.78 580.96c-16.72,-20.13 -56.3,-43.12 -56.3,-80.96 0,-37.12 39.48,-61.47 56.3,-80.96l-56.83 -56.66 -64.15 62.4c-15.13,15.24 -51.28,41.6 -51.28,75.22 0,35.06 52.22,76.07 82.26,105.65 10.87,10.7 20.79,22.7 32.87,31.63l57.13 -56.32z"/>
   <path class="fil0" d="M459.7 638.72l18.67 0c23.93,-10.23 49.25,-7.68 73.89,-62.68 32.58,-72.73 -2.53,-147.26 -48.12,-125.37 -14.8,7.1 -48.85,73 -17.63,93.64 18,11.91 36.13,0.65 51.61,-6.24 -4.83,44.05 -75.7,61.09 -91.35,25.53 -16.24,-36.94 17.6,-93.2 22.32,-126.61 -31.89,10.09 -25.56,7.93 -35.28,38.96 -12.21,38.98 -32.24,90.63 -17.56,129.31 9.54,25.14 20.78,24.02 43.44,33.46z"/>
   <path class="fil0" d="M220.19 630.64c26.97,-0.45 54.07,0.37 80.97,0.04 21.76,-0.28 36.17,-20.57 47.78,-35.07 23.15,-28.93 40.09,-70.59 50.83,-112.68 -14.76,4.74 -19.2,3.2 -24.54,16.34 -14.46,35.56 -43.58,68.34 -74.04,87.25 -16.32,10.13 -37.55,19.99 -56.83,25.02 -19.35,5.05 -17.58,-0.05 -24.16,19.11z"/>
   <path class="fil0" d="M530.05 361.28l-0.53 0c-12.89,13.93 -20.33,27.28 -36.27,37.34 6.78,13.46 28.27,28.8 39.72,39.02 37.02,-34.44 39.83,-37.81 17,-59.29l-19.93 -17.08z"/>
  </g>
 </g>
</svg>
