<?xml version="1.0" encoding="UTF-8"?>
<!DOCTYPE svg PUBLIC "-//W3C//DTD SVG 1.1//EN" "http://www.w3.org/Graphics/SVG/1.1/DTD/svg11.dtd">
<!-- Creator: CorelDRAW 2021.5 -->
<svg xmlns="http://www.w3.org/2000/svg" xml:space="preserve" width="1in" height="1in" version="1.1" style="shape-rendering:geometricPrecision; text-rendering:geometricPrecision; image-rendering:optimizeQuality; fill-rule:evenodd; clip-rule:evenodd"
viewBox="0 0 1000 1000"
 xmlns:xlink="http://www.w3.org/1999/xlink"
 xmlns:xodm="http://www.corel.com/coreldraw/odm/2003">
 <defs>
  <style type="text/css">
   <![CDATA[
    .fil0 {fill:#4D4D4D}
   ]]>
  </style>
   <clipPath id="id0">
    <rect x="-5977.56" y="-4075.46" width="14081.57" height="2277.49"/>
   </clipPath>
 </defs>
 <g id="Layer_x0020_1">
  <metadata id="CorelCorpID_0Corel-Layer"/>
  <g style="clip-path:url(#id0)">
   <image x="-5977.56" y="-4075.46" width="14081.57" height="2277.49" xlink:href="ghazal_Images\ghazal_ImgID1.png"/>
  </g>
  <g>
   <path class="fil0" d="M606.09 710.44c-0.75,2.43 -1.74,4.58 -2.07,0.34 -1.64,0.25 -2.96,0.44 -4.56,0.87 -1.77,1.93 -4.8,3.02 -8.13,3.65l-1.98 1.4 0 -1.08c-3.49,0.46 -7.09,0.5 -9.75,0.5l0.05 0.57 -9.7 0 0 -0.43c-1.94,0.08 -3.53,0.19 -4.85,0.31l0 0.11 -1.06 0c-8.36,0.98 -4.66,2.84 -21.26,2.37l-1.93 2.48 0.01 -2.54c-7.94,-0.35 -23.82,0.04 -29.58,-4.19l-35.15 -6.51c-9.04,-4.55 -8.57,-6.56 -9.96,-7.07 -8.17,-3.02 -6.41,4.34 -25.68,-5.22 -15.84,-7.87 -9.01,-8.8 -25.76,-13.27l0.93 -1.9c-1.45,-0.8 -3.31,-1.93 -5.79,-3.57l0.02 0.62c-7,-4.69 -17.74,-12.57 -25.17,-18.48 -3.4,-2.7 -5.85,-5 -8.02,-7.13 -5.05,-1.09 -9.33,-5.79 -11.37,-10.39 -1.18,-0.89 -2.48,-1.82 -3.94,-2.8l-4.85 -9.7c-15.14,-11.09 -20.64,-26.75 -28.06,-43.09 -5.37,-3.68 -7.27,-8.86 -10,-14.42l-6.17 -20.09 -4.28 0c0,-10.42 -6.29,-31.69 -9.7,-38.81l2.01 0.88 -1.6 -14.63c-0.36,-0.27 -0.63,-0.57 -0.41,-0.8l0.38 0.38 -1.69 -25.03c0,-7.96 -2.48,-18.02 1.31,-25.18l0 -22.93 4.85 0 0 16.63c9.35,-7.8 20.31,3.33 12.99,16.02l3.65 11 2.76 0 1.92 14.09c7.13,15.09 0.96,30.78 4.17,46.36 2.41,11.72 8.7,20.09 13.17,26.92l0.13 -0.07 0 0.28c4.11,6.31 6.62,11.32 2.96,16.49 10.12,7.79 -0.44,2.95 17.23,26.09 6.03,7.9 9.68,11.95 11.69,18.52l6.8 6.91 0.13 -0.38 29.77 25.52c8.63,-1.63 11.79,8.42 15.52,10.06l14.59 8.97c1.13,0.73 2.11,1.46 2.96,2.18 2.46,0.52 4.99,1.46 7.15,2.75 51.44,23.65 140.22,27.35 192.29,-0.26 3.98,-10.33 25.53,-17.22 32.32,-20.08l22.72 -18.71c1,-3.07 2.19,-6.34 6.48,-9.53 6.29,-4.68 8.91,-10.51 11.24,-15.45l-2.32 0c-6.35,1.44 -14,2.48 -20.65,3.74 -15.81,3.02 -15.32,1.6 -27.59,11.7 -12.8,10.55 -31.42,18.04 -47.65,21.35l-0.26 1.01c-4.35,16.83 2.62,5.02 -3.74,20.4 -3.08,-1.15 -5.2,-0.84 -6.64,-0.37 -2.18,2.52 -4.99,4.36 -8.89,4.75 -9.11,0.91 -30.56,9.32 -40.77,5.52 -7.44,0.17 -15.14,0.31 -21.37,-0.15 -18.85,-1.39 -12.18,-4.43 -33.9,-4.91l-0.11 -1.48 -5.26 -0.6 0.53 2.08 -22.83 -8.45c-16.95,-6.8 -34.6,-11.19 -45.08,-25.5l-1.9 -0.52c-8.38,-0.25 -19.89,-10.47 -20.21,-10.69l-19.17 -24.67c-17.31,-11.69 -27.31,-37.31 -39.28,-67.87 -14.09,-35.97 -12.56,-51.82 -9.87,-86.52 0.6,-7.73 0.13,-10.31 3.12,-23.14 0.64,-0.35 1.94,-1.24 2.11,-0.62l7.59 -13.93c13.75,6.36 5.65,6.36 19.4,0 -26.72,114.71 6.77,112.76 19.41,160.07 12.06,13.88 4.47,11.75 16.44,22.36 8.19,7.26 9.11,1.52 22.35,21.3 3.13,1.66 8.83,4.16 12.64,6.77 51.49,35.3 90.3,29.53 110.26,32.43 7.44,-3.7 22.51,-2.56 31.25,-1.82 -2.28,-2.66 -4.72,-4.52 -6.59,-12.91 -5.05,-3.4 -5.28,-10.4 -2.03,-14.73l-0 -0.04 0.04 0c4.5,-5.96 11.71,-3.67 16.9,-0.05 24.4,-0.23 21.75,-1.55 51.94,-8.74 3.94,-2.14 7.42,-4.5 9.93,-7.01 6.91,-6.91 15.83,-10.75 25.34,-13.28l7.42 -4.88 -0.88 3.33c7.82,-1.64 15.82,-2.69 23.25,-4.09 1.54,-0.51 3.25,-0.76 5,-0.77 14.15,-19.83 34.77,-49.58 35.69,-90.64 3.13,3.13 6.77,6.44 9.7,9.7 -0.56,-24.89 -11.11,-30.21 0,-53.36 -19.06,-28.46 1.48,-30.03 -32.22,-89.05 -10.02,-17.56 -11.27,-8.57 -16.29,-27.36 -15.1,-11.06 -3.9,-5.07 -14,-15.11l-33.88 -24.32c-11.58,-8.63 -9.91,-4.53 -10.33,-23.62l-9.7 9.71c-27.06,-14.32 -57.92,-17.41 -87.31,-24.26 4.39,-8.85 3.74,-6.06 4.85,-19.4 22.59,0 22.31,4.81 33.95,0l1.61 3.12c2.62,0.28 5.39,0.97 8,1.81 4.5,-4.5 15.43,4.61 8.44,3.3 2.17,0.98 3.57,1.72 3.67,1.76 1.63,0.54 3.11,1.12 4.46,1.72l2.91 -2.01c45.02,23.81 36.91,6.03 63.06,43.65l0 -9.69 9.7 9.69c8.22,5.51 13.43,9.95 20.76,18.05 12.97,14.35 7.3,16.56 15.4,26.24 0.29,0.35 1.35,1.05 1.67,1.34 17.52,16.36 15.52,9.24 15.52,46.53l14.56 0 0 14.56c4.96,5.35 4.85,-8.48 4.85,14.55 14.36,11.99 0.39,30.97 -4.85,38.8 11.03,20.85 -1.31,8.81 14.55,14.56 0,24.59 -4.85,26.42 -4.85,53.35l-18.65 15.38c2.58,13.44 4.11,13.98 4.11,33.12l9.7 0c-0.64,7.69 1.33,4.9 -1.75,12.8 -5.94,15.27 -4.09,7.02 -7.95,11.45 -10.29,38.8 -14.61,7.13 -22.2,15.24 -0.82,5.21 -3.52,11.43 -6.87,16.8l-0.39 1.45c-3.81,14.54 2.2,5.64 -10.4,18.8 -2.14,2.24 -3.65,3.71 -4.81,4.85 -0.97,2.71 -2.54,5.11 -5.87,6.67l-2.81 4.09 -1.46 -1c-2.66,5.94 -12.8,13.18 -23.11,19.06l0.32 1.35c-2.01,0.47 -3.91,1.02 -5.74,1.62 -6.11,3.21 -11.82,5.76 -15.51,7.06 -6.5,3.56 -12.03,6.93 -17.99,7.98 -7.47,5.46 -25.85,9.27 -36.19,11.03zm-567.27 -174.45c0,110.49 57.85,179.39 143.98,224.96 -4.47,-16.74 -36.46,-44.07 -60.73,-92.25 -68.43,-135.85 -10.36,-267.89 85.3,-364.61 70.39,-71.18 162.44,-118.28 258.37,-146.57 18.69,-5.51 25.48,-2.41 36.52,-17.47 -79.07,0 -237.57,70.09 -305.96,121.48 -78.18,58.73 -157.47,164.69 -157.47,274.46zm166.48 -40.5c0,114.23 25.06,169.48 113.83,241.61 119.24,96.88 335.59,86.51 474.1,22.37 48.3,-22.37 109.42,-61.97 151.57,-95.9 9.56,-7.69 12.94,-6.7 16.39,-19.61 -11.67,7.81 -22.41,15.49 -35.06,23.43 -176.98,111.08 -540.77,146.32 -657.66,-55.1 -53.98,-93.01 -31.67,-159.08 -31.67,-229.29 -19.32,14.16 -31.49,86.42 -31.49,112.48zm593.91 292.46c-22.03,1.83 -43.75,13.62 -65.85,19.63 -153.78,41.81 -358.68,22.67 -473,-83.69 -42.87,-39.88 -86.61,-108.09 -90.93,-165.54 -6.55,-87.3 7.8,-127.99 56.48,-199.74 33.4,-49.23 71.7,-67.58 78.38,-92.59 -58.48,15.61 -158.73,130.88 -175.19,207.25 -48.91,226.91 123.02,386.72 359.67,386.66 117.57,-0.03 180.61,-1.38 294.08,-61.37 5.94,-3.14 3.96,-1.89 8.61,-4.88 8.39,-5.38 3.2,-1.78 7.76,-5.74zm-175.89 -129.45l1.45 1.44c-0.1,-0.09 -1.93,-0.96 -1.45,-1.44zm24.26 -9.7l0 4.85 -5.66 -4.05 5.66 -0.81zm9.7 -4.85l-9.7 4.85 9.7 -4.85zm9.7 -4.85l-9.7 4.85 9.7 -4.85zm4.85 -4.85l-4.85 4.85 4.85 -4.85zm4.85 -4.85l-4.85 4.85 4.85 -4.85zm0 0l0 -4.85 5.66 4.04 -5.66 0.8zm-116.41 0c3.14,-11.85 -2.15,-6.55 9.7,-9.7 -3.35,12.61 1.8,5.41 -9.7,9.7zm175.59 0.97c2.38,-13.57 -2.76,-6.38 8.73,-10.67l-8.73 10.67zm-146.48 -39.77l1.44 1.45c-0.09,-0.09 -1.93,-0.96 -1.44,-1.45zm58.21 -4.85c4.76,-4.76 17.6,6.55 5.83,2.71 -0.13,-0.04 -13.98,5.44 -5.83,-2.71zm-82.46 0l10.43 2.67 -10.43 -2.67zm97.01 -4.85l1.45 1.44c-0.09,-0.09 -1.93,-0.96 -1.45,-1.44zm-97.01 4.85l-9.7 -4.85 9.7 4.85zm-9.7 -4.85l-9.7 -4.85 9.7 4.85zm121.27 -9.7l1.45 1.45c-0.1,-0.09 -1.93,-0.96 -1.45,-1.45zm-130.96 4.85l-4.85 -4.85 4.85 4.85zm145.52 -9.7l0 4.85 -5.66 -4.04 5.66 -0.81zm-150.37 4.85l-4.85 -4.85 4.85 4.85zm232.82 -9.7l1.45 1.45c-0.09,-0.09 -1.93,-0.97 -1.45,-1.45zm-77.61 0l-4.85 4.85 4.85 -4.85zm-160.07 4.85l-4.85 -4.85 4.85 4.85zm164.92 -9.7l-4.85 4.85 4.85 -4.85zm77.61 -4.85c0,-11.61 7.84,-1.81 3.12,0 -0.06,0.02 -3.12,13.94 -3.12,0zm-72.76 0l-4.85 4.85 4.85 -4.85zm4.85 -9.7l-4.85 9.7 4.85 -9.7zm4.85 -4.85l-4.85 4.85 4.85 -4.85zm-29.11 0l1.45 1.44c-0.1,-0.09 -1.93,-0.96 -1.45,-1.44zm97.02 -9.7l1.44 1.44c-0.09,-0.09 -1.93,-0.96 -1.44,-1.44zm-67.91 9.7c4.02,-17.26 14.55,-29.15 14.55,-48.51l4.85 0c0,22.51 -6.33,38.93 -19.41,48.51zm77.61 -38.81l1.45 1.44c-0.1,-0.09 -1.93,-0.96 -1.45,-1.44zm-19.41 -48.5l4.85 0 0 14.56 -4.85 0 0 -14.56zm-455.95 -9.7c0,-11.61 7.84,-1.81 3.13,0 -0.06,0.02 -3.13,13.94 -3.13,0zm213.43 -24.26l0 4.85 -5.66 -4.04 5.66 -0.81zm-208.57 0c0,-11.61 7.84,-1.81 3.12,0 -0.06,0.02 -3.12,13.94 -3.12,0zm-14.56 4.85l-4.85 0c0,-23.1 4.85,-15.24 4.85,-33.96l4.85 0c0,23.1 -4.85,15.25 -4.85,33.96zm19.41 -24.25l1.44 1.44c-0.09,-0.09 -1.93,-0.96 -1.44,-1.44zm48.5 -9.7l1.45 1.45c-0.09,-0.1 -1.93,-0.97 -1.45,-1.45zm-19.4 0l0 4.86 -5.66 -4.05 5.66 -0.81zm-24.25 0c0,-11.61 7.84,-1.81 3.12,0 -0.06,0.02 -3.12,13.94 -3.12,0zm29.1 -9.7l-4.85 9.7 4.85 -9.7zm392.9 0c0,-11.61 7.84,-1.81 3.12,0 -0.06,0.03 -3.12,13.94 -3.12,0zm-368.65 -4.85l-2.67 10.43 2.67 -10.43zm-72.76 4.85l1.45 1.45c-0.09,-0.09 -1.93,-0.97 -1.45,-1.45zm53.36 -9.7l-4.85 9.7 4.85 -9.7zm-29.11 4.85l1.45 1.45c-0.1,-0.09 -1.93,-0.97 -1.45,-1.45zm48.5 0l0 -4.85 5.67 4.05 -5.67 0.8zm-63.05 -9.7l-2.67 10.43 2.67 -10.43zm48.5 -4.85l-4.85 9.69 4.85 -9.69zm-24.25 4.85l0 4.84 -5.66 -4.04 5.66 -0.8zm4.85 -9.7l-4.85 9.7 4.85 -9.7zm-24.25 0l-4.85 9.7 4.85 -9.7zm72.76 0l0 4.85 -5.66 -4.04 5.66 -0.81zm-24.25 0l-4.85 4.85 4.85 -4.85zm29.1 -4.86l-4.85 4.86 4.85 -4.86zm-24.25 -4.85l-4.85 9.71 4.85 -9.71zm-29.1 9.71l2.67 -10.43 -2.67 10.43zm-19.4 -9.71l-4.85 9.71 4.85 -9.71zm160.07 227.98c13.55,9.93 9.61,14.75 26.13,27.23 13.46,10.18 15.24,15.94 36.93,16.43 0,25.65 0.04,7.23 4.85,14.55 -1.57,2.81 -1,6.11 -7.12,7.91 -19.62,5.76 -9.29,-0.79 -12.28,-3.06l-24.25 0 0 -0.02c-6.44,0.2 -14.46,-2.24 -19.5,-6.15l-0.64 1.08c-9.74,-4.79 -18.01,-6.65 -30.11,-12.58 -13.43,-6.59 -16.93,-9.29 -27.37,-16.28l1.54 -4.61c-4.99,0.56 -10.48,-4.91 -14.04,-11.8 -6.82,-4.53 -12.93,-8.78 -17.01,-17.41 -7,-7.67 -9.18,-14.85 -12.03,-24.34 -0.45,1.61 -1.11,3.2 -2.11,4.81l-14.22 -48.84c-4.49,-22.09 -13.06,-35.28 4.52,-48.17l4.86 19.41c0,-27.48 4.22,-18.63 -9.7,-24.26 2.36,-28.34 20.02,-65.28 36.82,-84.44 15.89,-18.15 49.35,-42.57 75.22,-50.89 43.55,-14.01 65.79,-13.28 105.79,-0.04l19.85 9.26c36.26,9.68 16.3,21.8 43.65,29.1 14.91,-10.91 7.83,3.13 9.7,-19.39 9.66,7.08 5.65,5.35 12.48,11.77 7.13,6.7 8.3,4.98 14.86,14.24 26.69,37.73 35.72,71.31 35.72,124.35 -23.76,13.09 -17.2,32.43 -30.81,46.91 -11.7,12.44 -9.85,-7.78 -20.23,8.39 -2.45,3.81 3.39,27.56 -46.78,36.06 -59.15,10.01 -75.71,-11.65 -95.1,-34.24 -14.53,-16.92 -20.5,-34.54 -20.5,-61.96 -13.64,9.99 -8.33,-2.41 -10.17,19.15 -0.76,8.87 0.25,19.39 2.15,27.66 5.01,21.84 13.1,23.18 17.72,40.49 -29,-19.42 -29.1,-53.47 -29.1,-101.86 78.63,41.6 79.92,15.03 103.83,27.14 14.72,7.46 4.89,13.48 22.29,26.22 12.14,-25.31 4.32,-62.51 -9.68,-87.33 -27.05,-47.97 -65.71,-15.46 -87.34,-9.68l0 -38.81c-43.3,-29 -17.86,-29.22 -77.61,-24.25 19.74,37.31 0.56,67.56 43.65,77.61 -11.24,16.78 -18.7,44.59 -19.61,67.73 -1.8,45.5 7.77,42.94 14.76,72.94zm-87.31 -223.13l0 -4.85 5.66 4.05 -5.66 0.8zm-19.41 -9.7l-4.85 4.85 4.85 -4.85zm-53.35 4.85l0 -4.85 5.66 4.04 -5.66 0.8zm58.21 -9.7l-4.86 4.85 4.86 -4.85zm-29.11 0c0,-11.61 7.84,-1.8 3.12,0 -0.06,0.02 -3.12,13.94 -3.12,0zm63.06 -4.85l0 4.85 -5.66 -4.05 5.66 -0.8zm-29.1 0l-4.85 4.85 4.85 -4.85zm29.1 0l0 -4.85 5.66 4.04 -5.66 0.81zm-24.25 -4.85l-4.85 4.85 4.85 -4.85zm-53.35 0l0 4.85 -5.66 -4.05 5.66 -0.81zm58.2 -4.85l-4.85 4.85 4.85 -4.85zm-29.1 0l0 4.85 -5.66 -4.04 5.66 -0.81zm-24.25 -4.85l-4.85 9.7 4.85 -9.7zm300.74 0l10.43 2.67 -10.43 -2.67zm-208.58 0l-9.46 5.58 9.46 -5.58zm-33.95 0l-4.85 4.85 4.85 -4.85zm-29.11 0l-4.85 4.85 4.85 -4.85zm67.91 -4.85l-4.85 4.85 4.85 -4.85zm-33.95 0l-4.85 4.85 4.85 -4.85zm-29.11 0l-4.85 4.85 4.85 -4.85zm-29.1 0l-4.85 4.85 4.85 -4.85zm101.86 -4.85l-9.7 4.85 9.7 -4.85zm-38.81 0l-4.85 4.85 4.85 -4.85zm-29.1 0l-4.86 4.85 4.86 -4.85zm-29.11 0l-4.85 4.85 4.85 -4.85zm291.04 9.7c-17.65,-4.11 -15.56,-2.68 -24.25,-14.56 17.65,4.11 15.55,2.69 24.25,14.56zm-184.32 -14.56l-9.7 4.85 9.7 -4.85zm-48.51 4.85l9.46 -5.58 -9.46 5.58zm-29.1 0l0 -4.85 5.66 4.05 -5.66 0.8zm-24.26 -4.85l-4.85 4.85 4.85 -4.85zm252.23 -4.85l1.45 1.45c-0.1,-0.1 -1.93,-0.97 -1.45,-1.45zm-150.37 4.85l0 -4.85 5.66 4.05 -5.66 0.8zm-97.01 -4.85l-4.85 4.85 4.85 -4.85zm232.83 -4.85c4.76,-4.76 17.6,6.55 5.83,2.71 -0.12,-0.04 -13.98,5.44 -5.83,-2.71zm-111.56 0c-6.5,4.92 10.2,4.85 -14.55,4.85l0 -4.85 14.55 0zm-48.51 0l-9.46 5.57 9.46 -5.57zm-43.65 0l1.45 1.44c-0.1,-0.09 -1.93,-0.96 -1.45,-1.44zm-29.1 4.85l0 -4.85 5.66 4.04 -5.66 0.81zm130.96 -9.69c4.77,-4.77 17.61,6.55 5.83,2.7 -0.12,-0.04 -13.98,5.44 -5.83,-2.7zm-9.7 4.85l0 -4.85 5.66 4.04 -5.66 0.81zm-43.66 -4.85l-4.85 4.85 4.85 -4.85zm126.11 -4.85c10.88,2.54 11.15,4.85 24.26,4.85l0 4.85c-24.59,0 -14.46,3.66 -24.26,-9.7zm-58.2 0l53.35 0 0 4.85 -53.35 0 0 -4.85zm-67.91 4.85l0 -4.85 5.67 4.04 -5.67 0.81zm-29.1 -4.85l0 4.85 -5.66 -4.05 5.66 -0.8zm-38.8 0l1.45 1.44c-0.1,-0.1 -1.93,-0.96 -1.45,-1.44zm82.46 -4.85l1.45 1.45c-0.1,-0.1 -1.93,-0.96 -1.45,-1.45zm-43.66 4.85l0 -4.85 5.66 4.04 -5.66 0.81zm67.91 -9.7c-6.5,4.92 10.2,4.85 -14.56,4.85l0 -4.85 14.56 0zm-53.35 0l0 4.85 -5.66 -4.04 5.66 -0.81zm53.35 0c6.5,-4.92 -10.2,-4.85 14.55,-4.85l0 4.85 -14.55 0zm-43.66 -4.85l-9.7 4.85 9.7 -4.85zm63.06 -4.85l29.1 0 0 4.85 -29.1 0 0 -4.85zm-53.35 0l-9.7 4.85 9.7 -4.85zm0 0l9.46 -5.57 -9.46 5.57zm19.4 -4.85c10.92,-14.91 -3.12,-7.83 19.41,-9.7 -3.66,3.18 -1.34,3.29 -8.13,6.42 -11.08,5.1 -4.2,0.54 -11.28,3.28zm38.81 -14.55c4.77,-4.77 17.6,6.56 5.83,2.7 -0.13,-0.04 -13.98,5.44 -5.83,-2.7zm-14.55 0c4.76,-4.77 17.6,6.56 5.83,2.7 -0.13,-0.04 -13.98,5.44 -5.83,-2.7zm-101.86 33.95c-0.33,-0.61 -0.72,-2.44 -0.79,-1.94l-2.19 -6.56c-7.23,-12.54 -8.67,-10.89 -21.27,-10.89 -21.51,44.83 -7.28,13.94 -30.03,42.72 -30.55,38.67 -37.76,57.51 -51.85,103.37 -55.86,181.75 126.69,400.03 357.8,314.15 20.75,-7.71 62.03,-31.08 73.32,-47.95l101.87 -9.7c-15.82,0 -16.11,-4.74 -38.63,-5.04 -14.44,-0.19 -29.32,0.19 -43.83,0.19l9.7 -9.71c13.35,-19.94 12.18,-14.55 43.66,-14.55 -10.33,-14.09 0.68,-9.15 -24.25,-9.7 6.19,-23.16 11.46,-19.41 38.8,-19.41 -10.33,-14.09 0.67,-9.14 -24.25,-9.7 11.22,-21.2 -3.74,-12.02 19.4,-14.55 -0.8,-0.76 -2.36,-2.85 -2.56,-2.08 -0.04,0.14 -6.06,0.43 -2.29,-17.33l4.85 -19.4c39.17,0 63.46,-4.85 97.01,-4.85l-87.31 -9.7c4.98,-12.04 2.62,-10.13 -4.85,-24.26 28.07,0 40.35,-4.85 72.76,-4.85l-58.2 -4.85 -9.7 -19.4 77.61 0c-12.27,-16.74 -54.71,-9.7 -97.01,-9.7l0 -9.7c30.81,0 42.98,-4.69 67.73,-5.02 25.72,-0.35 51.99,0.17 77.79,0.17l0 -4.85c-37.77,0 -59.73,-5.09 -92.11,-4.9 -64.04,0.35 -51.48,11.16 -63.11,-38.76 50.78,0 83.78,-4.85 135.81,-4.85l0 -4.86c-21.28,0 -57.11,2.08 -76.6,-1 -57.66,-9.13 -54.92,5.55 -68.92,-13.55 50.6,0 82.34,-4.85 130.96,-4.85l0 -4.84c-24.43,0 -128.53,0.01 -143.77,-16.3 -4.54,-4.84 -17.02,-26.05 -21.15,-32.2l126.11 0c-21.25,-18.47 -33.55,-5.44 -66.91,-10.7 -23.64,-3.74 -43.43,-3.85 -73.76,-3.85l48.5 -9.7c-33.43,0 -62.91,7.33 -87.31,-29.11l111.57 -4.85 -128.24 -7.58c-78.7,-15.37 -99.38,-46.26 -209.52,-10.04 -31.46,10.35 -42.67,22.17 -64.85,37.02z"/>
  </g>
 </g>
</svg>
