<?xml version="1.0" encoding="UTF-8"?>
<!DOCTYPE svg PUBLIC "-//W3C//DTD SVG 1.1//EN" "http://www.w3.org/Graphics/SVG/1.1/DTD/svg11.dtd">
<!-- Creator: CorelDRAW 2020 (64-Bit) -->
<svg xmlns="http://www.w3.org/2000/svg" xml:space="preserve" width="1in" height="1in" version="1.1" style="shape-rendering:geometricPrecision; text-rendering:geometricPrecision; image-rendering:optimizeQuality; fill-rule:evenodd; clip-rule:evenodd"
viewBox="0 0 1000 1000"
 xmlns:xlink="http://www.w3.org/1999/xlink"
 xmlns:xodm="http://www.corel.com/coreldraw/odm/2003"
 xmlns:dc="http://purl.org/dc/elements/1.1/"
 xmlns:cc="http://creativecommons.org/ns#"
 xmlns:rdf="http://www.w3.org/1999/02/22-rdf-syntax-ns#"
 xmlns:svg="http://www.w3.org/2000/svg"
 xmlns:sodipodi="http://sodipodi.sourceforge.net/DTD/sodipodi-0.dtd"
 xmlns:inkscape="http://www.inkscape.org/namespaces/inkscape"
 inkscape:version="0.48.4 r9939"
 sodipodi:docname="IRI.NAJA.FATA (New).svg">
 <defs>
  <style type="text/css">
   <![CDATA[
    .fil2 {fill:#456DBA}
    .fil19 {fill:#466DBC}
    .fil16 {fill:#486FBD}
    .fil17 {fill:#4A71BD}
    .fil12 {fill:#4C72BF}
    .fil0 {fill:#4D4D4D}
    .fil13 {fill:#4E73BF}
    .fil4 {fill:#4F74BF}
    .fil5 {fill:#5175C0}
    .fil14 {fill:#5376C1}
    .fil10 {fill:#5677C2}
    .fil7 {fill:#5778C2}
    .fil3 {fill:#587AC3}
    .fil1 {fill:#5B7BC4}
    .fil18 {fill:#5D7CC4}
    .fil20 {fill:#5F7DC5}
    .fil8 {fill:#617FC6}
    .fil9 {fill:#6380C7}
    .fil21 {fill:#6581C7}
    .fil6 {fill:#6682C8}
    .fil15 {fill:#6883C8}
    .fil11 {fill:#6A85C9}
   ]]>
  </style>
 </defs>
 <g id="Layer_x0020_1">
  <metadata id="CorelCorpID_0Corel-Layer"/>
  <sodipodi:namedview id="base" pagecolor="#ffffff" bordercolor="#666666" borderopacity="1.0" inkscape:pageopacity="0.0" inkscape:pageshadow="2" inkscape:zoom="0.175" inkscape:cx="-153.67852" inkscape:cy="901.82896" inkscape:document-units="px" inkscape:current-layer="layer1" showgrid="false" inkscape:window-width="1280" inkscape:window-height="962" inkscape:window-x="-8" inkscape:window-y="-8" inkscape:window-maximized="1"/>
  <g id="_2355678484112">
   <path class="fil0" d="M514.87 643.47l2.29 -2.55 2.34 -2.49 7.58 -4.8 2.31 -2.52 2.33 -2.52 7.59 -4.8 2.28 -2.51 2.37 -2.52 7.56 -4.81 2.29 -2.49 2.37 -2.54 7.57 -4.82 2.26 -2.48 2.35 -2.57 7.62 -4.79 2.31 -2.42 2.35 -2.59 10.31 -6.92 1.89 -2.94 10.3 -6.93 1.87 -2.94 10.35 -6.91 2.32 -2.55 2.38 -2.44 7.56 -4.83 2.3 -2.54 2.36 -2.48 7.59 -4.8 2.3 -2.52 2.32 -2.53 7.54 -4.82 2.28 -2.52 2.43 -2.46c3.26,-2.99 1.28,-1.09 5.45,-2.77l1.36 -1.18 0.5 6.93 0.29 336.86c-1.85,6.02 0.08,6.16 -2.36,0l-0.52 -2.89 -2.06 -3.87 -0.33 -1.78 -1.62 -3.87 -0.93 -3.3 -1.73 -3.82 -1.07 -3.15 -1.76 -3.54 -0.31 -1.82 -1.8 -3.61 -3.36 -8.4 -1.88 -3.27 -0.36 -1.92 -1.94 -3.22 -0.36 -1.86 -1.99 -3.15 -0.37 -1.88 -2.04 -3.06 -0.4 -1.83 -2.07 -2.99 -0.36 -2.03 -2.1 -2.91 -0.43 -1.85 -2.16 -2.85 -0.41 -1.94 -2.18 -2.76 -4.8 -9.94 -2.33 -2.54 -0.47 -1.97 -2.34 -2.5 -2.18 -5.35 -2.43 -2.35 -5.34 -9.48 -2.52 -2.17 -4.28 -8.14 -2.69 -2.1 -2.46 -5.04 -2.74 -2.04 -4.56 -7.79 -2.5 -2.39 -2.41 -2.36 -4.81 -7.53 -2.62 -2.28 -2.53 -2.31 -9.54 -12.61 -2.7 -2.14 -2.37 -2.55 -2.39 -2.54 -2.73 -2.14 -17.17 -17.15 -2.11 -2.78 -2.56 -2.35 -2.57 -2.36 -2.13 -2.72 -12.61 -9.53 -2.21 -2.6 -2.65 -2.71 5.18 -4.49zm-178.42 -116.47l2.85 -0.84 3.93 1.93 2.43 2.5 2.31 2.5 7.53 4.81 2.39 2.51 2.31 2.51 7.53 4.82 2.38 2.49 2.31 2.53 7.5 4.87 2.37 2.46 2.34 2.54 7.52 4.84 2.37 2.43 2.33 2.57 10.34 6.91 1.86 2.94 10.35 6.9 1.9 2.94 10.32 6.91 2.31 2.59 2.3 2.44 7.59 4.81 2.37 2.54 2.31 2.46 7.54 4.84 2.37 2.52 2.3 2.5 7.53 4.82 2.39 2.5 2.3 2.51 7.55 4.83 2.33 2.51 2.32 2.52 5.22 4.63 -2.65 2.62 -2.27 2.58 -12.61 9.55 -2.12 2.7 -2.52 2.39 -2.57 2.35 -2.52 2.4 -2.13 2.74 -12.27 12.26 -2.75 2.11 -2.4 2.52 -2.35 2.56 -2.37 2.56 -2.69 2.13 -9.56 12.61 -2.57 2.27 -2.58 2.25 -4.8 7.63 -2.44 2.33 -2.46 2.38 -4.59 7.8 -2.73 2.05 -2.5 4.95 -2.66 2.11 -2.42 5.09 -2.22 2.64 -2.16 2.65 -0.53 2.06 -2.52 2.24 -2.26 5.22 -2.44 2.36 -2.2 5.3 -2.33 2.49 -0.49 1.95 -2.32 2.53 -4.78 9.98 -2.17 2.76 -0.43 1.95 -2.17 2.8 -0.38 1.97 -2.11 2.93 -0.41 1.88 -2.07 2.97 -0.36 1.94 -2.03 3.08 -0.4 1.78 -1.98 3.17 -0.35 1.89 -1.94 3.22 -0.35 1.97 -1.91 3.22 -3.33 8.44 -1.81 3.55 -0.32 1.87 -1.76 3.48 -1.07 3.16 -1.74 3.84 -0.95 3.25 -1.61 3.86 -0.95 3.35 -1.94 4.1 -0.02 1.1c-2.45,6.19 -0.5,6.04 -2.36,0l0.79 -341.01zm457.55 -210.33l0.26 47.83 0.09 7.37 -2.98 6.56 -0.06 4.27 -1.55 4.4 -0.9 3.13 -1.8 3.75 -0.3 1.78 -1.97 3.24 -0.38 1.81 -2.17 2.91 -0.37 1.95 -2.41 2.53 -2.33 4.98 -2.73 2.15c-8.48,13.25 -9.87,12.95 -22.22,21.9l-1.97 2.97 -10.31 6.86 -1.93 2.96 -10.26 6.89 -2.35 2.59 -2.37 2.44 -7.48 4.81 -2.38 2.56 -2.38 2.47 -7.49 4.8 -2.35 2.54 -2.37 2.5 -7.46 4.83 -2.35 2.52 -2.37 2.52 -7.5 4.78 -2.37 2.51 -2.4 2.52c-3.42,-1.57 -3.45,4.26 -2.52,-4.7l-2.67 -7.1 -0.54 -6.33 -1.28 -5.15 -0.33 -3.93 -2.39 -5.11 -0.03 -4.74 -2.64 -4.56 -0.41 -4 -1.57 -4.39 -0.84 -3.05 -1.63 -4.2 -0.9 -3.15 -1.71 -3.93 -0.27 -1.64 -1.82 -3.69 -0.96 -3.25 -1.87 -3.59 -0.31 -1.74 -1.9 -3.42 -10.05 -21.61 -2.26 -2.69 -0.39 -1.91 -2.31 -2.65 -0.41 -1.98 -2.35 -2.55 -2.21 -5.15 -2.5 -2.4 -2.26 -5.13 -2.61 -2.26 -2.35 -5.06 -2.7 -2.15 -4.54 -7.72 -2.87 -2.04 -4.76 -7.56 -2.54 -2.26 -2.32 -2.66 -2.62 -2.27c-9.93,-11.61 -15.13,-17.18 -26.92,-27l-2.21 -2.64 -2.62 -2.33 -2.29 -2.57 -7.49 -4.8 -2.41 -2.46 -2.37 -2.56 -7.51 -4.77 -2.37 -2.47 -2.33 -2.58 -7.52 -4.8 -2.36 -2.46 -2.33 -2.58c-5.82,-3.87 -8.43,-2.51 -8.46,-12.07 -0.02,-9.57 2.57,-8.21 8.37,-12.13l2.36 -2.56 2.35 -2.48 7.56 -4.76 2.36 -2.54 2.38 -2.49 7.44 -4.81 2.38 -2.53 2.39 -2.5 7.47 -4.78 2.39 -2.52 2.39 -2.49 7.5 -4.81 2.36 -2.5 2.41 -2.52 7.49 -4.77 2.33 -2.53 2.36 -2.54 7.52 -4.78 2.37 -2.48 2.43 -2.52 7.45 -4.81 2.35 -2.49 2.37 -2.55 7.56 -4.76 2.33 -2.49 2.33 -2.58 7.52 -4.79 2.36 -2.46 2.38 -2.57 7.54 -4.77 2.34 -2.45 2.37 -2.58 10.28 -6.88 1.96 -2.95 10.28 -6.88 1.97 -2.94 10.24 -6.9 1.93 -2.96 10.28 -6.87 1.93 -2.96 10.36 -6.84 2.35 -2.59 2.32 -2.46 7.54 -4.79 2.36 -2.58 2.39 -2.44 7.5 -4.79 2.32 -2.59 2.32 -2.5 7.61 -4.74 2.35 -2.56 2.31 -2.5 7.54 -4.78 2.39 -2.52 2.39 -2.48 7.5 -4.79 2.34 -2.54 2.35 -2.53 7.52 -4.78 2.3 -2.55 2.44 -2.49 5.2 -3.48 -0.78 75.96 -0.15 6.98 -1.3 5.16 -0.29 3.99 -2.87 4.07 0.09 2.56 -1.76 3.74 -7.98 16.21 -2.58 2.26 -4.56 7.73 -2.57 2.31 -2.37 2.55 -2.44 2.46 -2.51 2.39 -2.61 2.35 -2.33 2.48 -7.46 4.83 -2.38 2.56 -2.41 2.45 -7.51 4.78 -2.33 2.57 -2.35 2.51 -7.5 4.77 -2.39 2.54 -2.39 2.49 -7.51 4.78 -2.34 2.54 -2.35 2.52 -7.54 4.78 -2.34 2.53 -2.36 2.52 -7.5 4.79 -2.38 2.5 -2.43 2.5 -7.49 4.77 -2.37 2.5 -2.39 2.54 -7.49 4.78 -2.36 2.5 -2.37 2.54 -7.49 4.79 -2.37 2.49 -2.38 2.54 -7.5 4.79 -2.37 2.48 -2.62 2.29 -2.4 2.5 -0.38 1.83 -1.6 4.26 -0.05 5.09 1.53 4.52 0.31 1.9 2.78 2.09 2.56 2.21 2.89 2.29 16.58 -2.06 2.39 -2.46 2.39 -2.52 7.52 -4.76 2.35 -2.52 2.37 -2.54 7.48 -4.8 2.37 -2.49 2.39 -2.52 7.43 -4.83 2.4 -2.46 2.42 -2.52 7.53 -4.76 2.35 -2.49 2.35 -2.58 7.51 -4.76 2.34 -2.5 2.36 -2.57 7.59 -4.73 2.34 -2.47 2.37 -2.57 7.49 -4.8 2.37 -2.44 2.37 -2.59 10.27 -6.87 1.96 -2.96 10.28 -6.86 1.97 -2.95 10.24 -6.9 1.96 -2.95c5.33,-3.62 5.02,-2.56 9.35,-7.43l1.02 45.33 -0.4 8.64 -2.15 5.69 -0.41 3.7 -1.56 4.34 -0.88 3.22 -1.8 3.71 -5.22 11.59 -2.38 2.57 -0.44 2 -2.22 2.65 -2.38 2.5 -4.84 7.46 -2.7 2.19 -2.44 2.48 -2.16 2.77 -10.07 7.06 -2.39 2.52 -2.39 2.5 -7.51 4.76 -2.35 2.54 -2.33 2.54 -7.54 4.77 -2.37 2.5 -2.37 2.52 -7.54 4.78 -2.31 2.53 -2.37 2.53 -7.52 4.77 -2.33 2.52 -2.41 2.5 -7.47 7.18 -2.02 3.33 1.75 14.3 2.49 2.3 2.34 2.47 1.96 0.3 4.28 1.64 7.8 -0.39 3.24 -2.05 7.64 -4.66 2.33 -2.5 2.37 -2.55 7.53 -4.76 2.35 -2.49 2.38 -2.56 7.52 -4.77 2.33 -2.5 2.37 -2.57 7.5 -4.78 2.38 -2.44 2.39 -2.56 7.51 -4.79 2.37 -2.44 2.37 -2.59 7.5 -4.79 2.37 -2.44 2.38 -2.59 7.42 -5.45zm12.36 -305.63l0 96.17c-0.4,6.19 -0.98,11.3 -1.82,14.76 -14.91,61.93 -81.96,93.74 -135.98,140.97 -19.01,16.63 -25.48,16.3 -26.41,27.51 10.56,-0.24 8.39,-0.57 14.54,-5.07l149.67 -119.93 0 61.56c-1.27,27.2 -6.52,47.93 -25.19,70.1 -24.93,29.58 -78.7,56.3 -80.19,74.21 10.91,-0.91 20.82,-11.59 28.64,-17.93 9.28,-7.52 16.71,-13.25 25.84,-20.72 16.47,-13.48 33.72,-28.28 50.91,-39.78l0 69.61c-0.8,10.48 -2.35,20.12 -5.21,28.11 -9.92,27.73 -23.03,41.17 -44.37,58.57 -19.5,15.91 -37.19,30.03 -57.2,45.74 -36.65,28.78 -23.46,18.49 -23.02,50.31 1.93,139.09 -0.09,293.07 -0.09,433.91 -0.49,-0.7 -2.86,0.29 -4.63,-12.52 -12.22,-88.14 -47.36,-184.7 -108.72,-249.11 -16.81,-17.65 -40.31,-46.62 -63.11,-61.89l-49.68 45.91c-24.65,25.61 -46.68,59.1 -65.07,89.34 -54.96,90.34 -52.53,175.05 -61.72,188.28l0 -411.75c-0,-21.03 2.45,-36.15 2.45,-53.92 -7.74,-2.07 -16.19,-11.18 -25.57,-18.55 -9.15,-7.19 -15.4,-12.45 -24.51,-19.61 -76.27,-59.91 -81.94,-67 -82.27,-148.71l0 -33.71c17.83,11.94 34.99,26.93 52.24,40.89 9.28,7.51 16.83,13.5 25.87,20.7 7.69,6.13 15.8,15.88 27.28,16.83 -1.04,-12.53 -9.89,-15.13 -17.72,-21.5 -85.9,-69.84 -87.67,-58.15 -87.67,-184.37l141.83 113.06c8.45,6.82 10.11,11.66 22.38,11.93 -0.98,-11.75 -4.39,-9.97 -12.8,-16.61l-46.35 -36.98c-86.99,-69.3 -102.74,-78.34 -105.07,-138.94l0 -86.86c19.41,13 37.93,29.72 56.37,44.12 76.53,59.77 161.47,132.98 236.84,189.61 7.18,5.39 7.87,4.98 8.44,16.07 2.33,45.4 -0.76,143.8 -0.1,198.81 0.44,37.51 -11.7,10.35 -5,39.12 12.5,2.92 7.04,3.01 19.61,0 1.72,-7.36 3.07,-4.51 1.8,-11.74 -1.49,-8.52 -5.79,-4.83 -6.85,-17.52l0.15 -161.91c0,-46.06 -6.61,-51.66 11.14,-64.83 69.2,-51.35 162.39,-131.37 235.34,-188.67 18.72,-14.7 35.89,-30.27 54.98,-43.06zm-598.78 25.58l3.28 1.33 2.37 2.51 2.33 2.53 7.55 4.78 2.36 2.5 2.39 2.53 7.48 4.79 2.33 2.51 2.36 2.53 7.57 4.77 2.35 2.48 2.36 2.57 7.57 4.74 2.34 2.49 2.31 2.59 7.56 4.76 2.35 2.46 2.33 2.58 7.56 4.78 2.32 2.47 2.31 2.61 10.35 6.85 1.94 2.96 10.24 6.89 1.94 2.95 10.35 6.85 1.97 2.95 10.23 6.87 1.96 2.97 10.26 6.87 2.38 2.58 2.36 2.44 7.53 4.77 2.34 2.61 2.32 2.48 7.6 4.72 2.37 2.57 2.33 2.48 7.52 4.78 2.34 2.57 2.32 2.51 7.52 4.78 2.39 2.54 2.36 2.49 7.52 4.77 2.37 2.54 2.3 2.54 7.56 4.73 2.36 2.55 2.33 2.52 7.54 4.78 2.39 2.51 2.33 2.52 7.55 4.78 2.34 2.52 2.37 2.52 7.56 4.76 2.29 2.55 2.36 2.53 7.56 4.76 2.33 2.51 2.37 2.52c5.86,3.85 8.45,2.53 8.43,12.14 -0.02,9.61 -2.58,8.19 -8.41,12.12l-2.37 2.56 -2.36 2.48 -7.56 4.77 -2.33 2.56 -2.35 2.5 -7.53 4.78 -2.37 2.52 -2.39 2.48 -7.46 4.82 -2.26 2.59 -2.64 2.33 -2.24 2.61c-11.73,9.99 -16.82,15.43 -26.92,26.98l-2.63 2.27 -2.66 2.28 -6.97 10.15 -2.88 2.01 -4.47 7.84 -2.71 2.19 -2.39 4.95 -2.59 2.28 -2.28 5.09 -2.5 2.41 -2.17 5.23 -2.36 2.56 -0.44 1.93 -2.3 2.66 -0.37 1.97 -2.26 2.74 -10.05 21.55 -1.9 3.46 -0.29 1.8 -1.86 3.57 -1.04 3.11 -1.78 3.76 -0.26 1.65 -1.72 3.89 -0.89 3.16 -1.63 4.2 -0.85 3.04 -1.56 4.41 -0.41 4.04 -2.62 4.61 -0.05 4.7 -2.39 5.12 -0.37 3.77 -1.28 5.16 -0.53 6.43 -2.67 7.1c0.91,8.1 0.83,3.11 -2.48,4.57l-2.39 -2.51 -2.41 -2.48 -7.48 -4.8 -2.39 -2.49 -2.39 -2.53 -7.45 -4.81 -2.4 -2.47 -2.37 -2.57 -7.45 -4.82 -2.38 -2.45 -2.35 -2.59 -10.3 -6.87 -1.91 -2.97 -10.26 -6.89 -1.96 -2.98 -10.25 -6.89 -2.37 -2.59 -2.35 -2.45c-10.83,-6.82 -12.45,-9.19 -19.52,-19.75l-2.74 -2.12 -2.29 -5.09 -2.39 -2.54 -0.4 -1.96 -2.16 -2.92 -0.36 -1.8 -1.98 -3.25 -0.31 -1.76 -1.79 -3.74 -0.9 -3.14 -1.56 -4.4 -0.07 -4.27 -2.98 -6.55 0.1 -7.4 0.18 -47.75 7.49 5.43 1.97 2.96 10.3 6.85 1.96 2.94 10.23 6.89 2.39 2.59 2.36 2.44 7.55 4.76 2.31 2.61 2.33 2.48 7.55 4.75 2.41 2.56 2.36 2.46 7.51 4.78 2.36 2.57 2.32 2.5 7.61 4.67 3.2 2.09 7.92 0.36 4.28 -1.62 1.86 -0.34 2.38 -2.48 2.54 -2.26 1.73 -14.3 -2.02 -3.33 -7.45 -7.24 -2.38 -2.51 -2.37 -2.51 -7.54 -4.76 -2.35 -2.53 -2.34 -2.54 -7.5 -4.77 -2.39 -2.5 -2.4 -2.52 -7.48 -4.79 -2.39 -2.48 -2.34 -2.55 -7.53 -4.78 -2.35 -2.5 -2.33 -2.57 -10.12 -7.04 -2.19 -2.72 -2.45 -2.49 -2.66 -2.22 -4.87 -7.42 -2.71 -2.13 -2.32 -5.02 -2.38 -2.56 -5.21 -11.64 -1.81 -3.69 -0.87 -3.23 -1.56 -4.35 -0.66 -3.07 -1.33 -5.04 -0.96 -9.99c-2.7,-7.74 -1.95,-13.43 -1.99,-22.83l2.89 -22.43c4.34,4.64 4.3,3.89 9.46,7.44l1.91 2.96 10.33 6.86 1.93 2.96 10.25 6.89 1.96 2.96 10.3 6.84 1.97 2.96 10.23 6.88 1.96 2.95 10.29 6.86 2.37 2.59 2.37 2.44 7.49 4.78 2.41 2.56 2.38 2.44 7.51 4.8 2.37 2.56 2.33 2.5 7.52 4.78 2.38 2.55 2.35 2.49 7.53 4.76 2.37 2.55 2.33 2.52 7.51 4.77 2.38 2.53 2.37 2.47 16.57 2.06 2.89 -2.28 2.62 -2.2 2.75 -2.09 0.32 -1.84 1.55 -4.49 -0.07 -5.24 -1.6 -4.27 -0.38 -1.85 -2.41 -2.48 -2.62 -2.28 -2.36 -2.51 -7.52 -4.76 -2.39 -2.52 -2.36 -2.51 -7.52 -4.76 -2.38 -2.53 -2.33 -2.54 -7.5 -4.78 -2.38 -2.51 -2.37 -2.51 -7.54 -4.78 -2.35 -2.52 -2.34 -2.57 -7.5 -4.75 -2.4 -2.49 -2.39 -2.54 -7.5 -4.77 -2.36 -2.5 -2.33 -2.56 -7.51 -4.78 -2.36 -2.49 -2.34 -2.56 -7.54 -4.78 -2.4 -2.45 -2.37 -2.57 -7.44 -4.81 -2.39 -2.45 -2.38 -2.56 -10.26 -6.9 -2.2 -2.71 -2.49 -2.41 -2.41 -2.49 -2.38 -2.54 -2.56 -2.3 -4.57 -7.72 -2.59 -2.28 -0.45 -2.01 -2.33 -2.56 -5.17 -11.66 -1.78 -3.74 -0.87 -3.22 -1.54 -4.36 -0.65 -3.06 -1.31 -5.11 -0.17 -7.04c-4.93,-6.61 -3.76,-64.74 -1.76,-76.53l2.89 2.81z"/>
   <path class="fil0" d="M355.4 905.62c0,32.06 169.11,-0.61 191.17,-2.45l0 -4.91c-15.31,-3.57 -38.98,0.94 -56.51,2.31l-102.8 2.59c-10.54,0 -13.29,-2.86 -22.06,-4.91 6.03,-22.57 28.77,-8.08 34.31,-31.86 -5.05,-2.67 -5.81,-3.4 -12.25,-4.9 -12.3,18.36 -2.32,11.9 -15.62,21.15 -8.23,5.72 -16.24,10.24 -16.24,22.97z"/>
   <path class="fil0" d="M556.37 964.44c0,-5.65 1.7,-7.35 7.35,-7.35 5.49,0 5.38,1.94 9.8,4.9 -2.85,4.26 -17.16,18.19 -17.16,2.45zm34.31 -53.92l0 0zm2.45 -2.45l-2.45 2.45 2.45 -2.45zm2.45 -2.45l-2.45 2.45 2.45 -2.45zm2.45 -4.9l-2.45 4.9 2.45 -4.9zm0 0c-0.03,-0.09 1.72,-13.16 -10.43,6.97 -11.49,19.04 8.28,-2.28 -3.49,13.24 -1.83,2.42 -26.57,28.02 -27.75,28.81l2.2 -19.63c-0.89,-13.54 1.58,5.89 -0.72,-3.81l-1.47 -3.52c-5.43,23.32 -12.13,45.43 -2.45,63.72 16.2,-0.36 20.82,-9.69 22.06,-24.51 14.07,0 23.77,-2.93 32.7,-8.96 5.43,-3.67 7.14,-6.53 9.15,-12.91 1.9,-6.04 2.27,-11.24 2.27,-19.79 -14.78,10.83 3.41,17.15 -18.46,28.13l-7.79 3.39c-0.33,0.13 -0.99,0.41 -1.34,0.54 -14.43,5.07 -13.15,0.1 -26.33,-0.2 4.11,-15.39 33.86,-33.37 39.22,-56.37l-7.35 4.9z"/>
   <path class="fil0" d="M370.1 979.15c9.99,-14.91 7.75,-29.68 12.26,-49.02 -4.21,1.52 -5.86,1.42 -8.45,11.16 -2.78,10.45 -1.57,16 -6.5,33.08 -3.38,11.73 -3.8,4.89 2.69,14.58 15.07,-1.26 11.84,-8.74 15.95,-13.37 9.46,-10.64 -1.41,9.2 16.22,-3.17 18.56,-13.02 27.93,-15.98 29.1,-30.03 -5.11,3.74 -3.18,3.3 -6.24,6.02l-17.75 9.21c-6.59,2.18 -3.76,1.93 -12.78,1.93 -2.24,-9.61 -2.11,-22.37 2.45,-31.86 -4.21,1.52 -5.86,1.42 -8.45,11.16 -5.63,21.17 1.02,38.69 -18.51,40.31z"/>
   <path class="fil0" d="M536.76 873.76c-2.56,0 -16.65,-8.51 -22.06,14.7 16.65,-8.81 19.79,3.25 36.19,-10.37 5.76,-4.79 10.76,-8.82 12.83,-16.58 -9.02,2.41 -15.51,12.25 -26.96,12.25z"/>
   <path class="fil0" d="M526.96 966.89c10.06,2.69 8.61,1.78 4.9,9.8 -8.05,-5.89 -3.42,1.78 -4.9,-9.8zm-4.9 12.26c0,13.19 19.61,10.52 19.61,-19.61 0,-12.85 -19.61,-11.71 -19.61,19.61z"/>
   <path class="fil0" d="M580.88 878.66l0 0zm2.45 -2.45l-2.45 2.45 2.45 -2.45zm0 0c2.93,-6.33 1.74,-4.78 0,-12.26l-7.35 0c-3.85,16.53 1.25,9.17 -3.95,15.81 -0.54,0.69 -13.7,15.4 2.54,12.5 0.46,-0.08 1.16,-0.52 1.61,-0.64 4.93,-1.23 18.42,-0.23 16.24,-9.81 -1.29,-5.67 -3,-4.94 -9.09,-5.61z"/>
   <path class="fil0" d="M642.15 959.54c0,1.56 5.52,7.07 7.35,9.8 -7.49,11.19 -9.16,3.11 -12.26,14.7 4.9,-2.35 19.61,-4.53 19.61,-22.06 0,-9.08 -2.39,-11.07 -7.35,-14.7 -3.86,2.83 -7.35,5.69 -7.35,12.26z"/>
   <path class="fil0" d="M509.8 974.25c6.33,-4.64 8.27,-11.45 9.64,-24.67l2.61 -31.7c-5.95,6.85 -8.73,15.81 -9.65,24.66l-2.61 31.71z"/>
   <path class="fil0" d="M453.43 961.99c8.02,2.9 1.78,-3.18 7.35,7.35 -9.48,14.15 -8.41,4.06 -12.26,14.7 17.71,-4.13 28.45,-25.91 12.26,-36.76 -5.9,4.32 -6.54,4.9 -7.35,14.7z"/>
   <path class="fil0" d="M436.28 976.7c9.98,-7.31 11.98,-41.73 12.26,-53.92 -6.25,4.58 -9.22,12.28 -9.87,21.99 -0.39,5.84 0.48,10.52 -0.46,16.7 -0.85,5.54 -1.92,5.61 -1.92,15.23z"/>
   <path class="fil0" d="M475.49 971.8c2.32,-0.84 8.04,2.96 9.76,-22.09 0.87,-12.72 2.49,-18.63 2.49,-31.82 -11.26,12.96 -8.54,37.95 -12.25,53.92z"/>
   <path class="fil0" d="M625 974.25c7,-5.13 2.86,0.7 5.97,-8.74l6.28 -45.19c-9.85,7.22 -12.25,42.55 -12.25,53.92z"/>
   <path class="fil0" d="M475.49 984.05c20.65,-1.72 24.28,-14.72 29.41,-36.76 -10.87,7.97 -2.2,5.15 -12.15,19.71 -6.85,10.03 -11.15,7.92 -17.26,17.05z"/>
   <path class="fil0" d="M480.39 886.02c6.48,1.72 2.02,-0.2 7.35,2.45l7.35 -7.35c-4.36,-8.24 -0.2,-4.56 -7.35,-9.8 -5.9,4.32 -6.54,4.9 -7.35,14.7z"/>
   <path class="fil0" d="M617.64 883.56c0,3.37 5.11,5.85 7.35,7.35 5.89,-8.8 10.32,-15.89 -4.9,-17.16 -1.57,6.57 -2.45,4.62 -2.45,9.8z"/>
   <polygon class="fil1" points="664.07,531.12 663.57,524.19 662.21,525.37 "/>
   <polygon class="fil2" points="715.67,96.89 713.35,99.35 "/>
   <polygon class="fil1" points="288.97,101.95 286.67,99.34 "/>
   <polygon class="fil1" points="713.35,99.35 711,101.94 "/>
   <polygon class="fil3" points="301.26,111.75 299.33,108.79 "/>
   <polygon class="fil1" points="700.65,108.78 698.71,111.74 "/>
   <polygon class="fil4" points="207.93,122.49 206.61,117.38 "/>
   <polygon class="fil3" points="313.44,121.59 311.5,118.64 "/>
   <polygon class="fil3" points="688.43,118.61 686.5,121.57 "/>
   <polygon class="fil5" points="793.41,117.39 792.11,122.55 "/>
   <polygon class="fil6" points="210.11,129.91 208.58,125.55 "/>
   <polygon class="fil7" points="325.76,131.39 323.79,128.44 "/>
   <polygon class="fil7" points="676.26,128.48 674.29,131.41 "/>
   <polygon class="fil7" points="788.95,130.61 791.82,126.54 "/>
   <polygon class="fil8" points="212.76,136.88 210.98,133.13 "/>
   <polygon class="fil9" points="789.04,133.17 787.28,136.92 "/>
   <polygon class="fil10" points="337.96,141.24 335.99,138.27 "/>
   <polygon class="fil10" points="664.02,138.29 662.06,141.25 "/>
   <polygon class="fil11" points="220.26,151.1 217.93,148.54 "/>
   <polygon class="fil10" points="350.6,150.7 348.22,148.11 "/>
   <polygon class="fil10" points="651.78,148.13 649.41,150.7 "/>
   <polygon class="fil11" points="352.97,153.13 350.6,150.7 "/>
   <polygon class="fil11" points="649.41,150.7 647.07,153.15 "/>
   <polygon class="fil12" points="223.31,155.37 220.72,153.1 "/>
   <polygon class="fil13" points="779.3,153.13 776.71,155.39 "/>
   <polygon class="fil14" points="362.83,160.51 360.49,157.9 "/>
   <polygon class="fil14" points="639.53,157.92 637.14,160.49 "/>
   <polygon class="fil11" points="365.15,162.99 362.83,160.51 "/>
   <polygon class="fil15" points="637.14,160.49 634.78,162.95 "/>
   <polygon class="fil16" points="230.44,165.39 227.88,163.1 "/>
   <polygon class="fil17" points="772.16,163.12 769.59,165.43 "/>
   <polygon class="fil7" points="232.83,167.93 230.44,165.39 "/>
   <polygon class="fil3" points="769.59,165.43 767.21,167.97 "/>
   <polygon class="fil1" points="235.23,170.43 232.83,167.93 "/>
   <polygon class="fil14" points="375.13,170.28 372.76,167.71 "/>
   <polygon class="fil5" points="627.27,167.74 624.93,170.31 "/>
   <polygon class="fil18" points="767.21,167.97 764.78,170.43 "/>
   <polygon class="fil1" points="237.72,172.84 235.23,170.43 "/>
   <polygon class="fil15" points="377.46,172.76 375.13,170.28 "/>
   <polygon class="fil15" points="624.93,170.31 622.6,172.81 "/>
   <polygon class="fil1" points="764.78,170.43 762.27,172.82 "/>
   <polygon class="fil5" points="239.93,175.55 237.72,172.84 "/>
   <polygon class="fil14" points="762.27,172.82 759.66,175.17 "/>
   <polygon class="fil19" points="759.66,175.17 757.33,177.65 "/>
   <polygon class="fil5" points="387.33,180.12 384.99,177.54 "/>
   <polygon class="fil5" points="615.05,177.57 612.67,180.12 "/>
   <polygon class="fil15" points="389.65,182.63 387.33,180.12 "/>
   <polygon class="fil6" points="612.67,180.12 610.32,182.61 "/>
   <polygon class="fil18" points="252.56,185 250.18,182.44 "/>
   <polygon class="fil20" points="749.87,182.48 747.49,185.04 "/>
   <polygon class="fil16" points="254.96,187.46 252.56,185 "/>
   <polygon class="fil16" points="747.49,185.04 745.08,187.49 "/>
   <polygon class="fil5" points="399.56,189.94 397.17,187.4 "/>
   <polygon class="fil4" points="602.87,187.43 600.44,189.94 "/>
   <polygon class="fil6" points="401.92,192.43 399.56,189.94 "/>
   <polygon class="fil21" points="600.44,189.94 598.08,192.43 "/>
   <polygon class="fil18" points="264.78,194.83 262.4,192.27 "/>
   <polygon class="fil20" points="737.57,192.28 735.24,194.84 "/>
   <polygon class="fil16" points="267.17,197.28 264.78,194.83 "/>
   <polygon class="fil16" points="735.24,194.84 732.89,197.35 "/>
   <polygon class="fil3" points="217.91,199.99 216,197.04 "/>
   <polygon class="fil4" points="411.81,199.74 409.44,197.2 "/>
   <polygon class="fil4" points="590.56,197.21 588.2,199.75 "/>
   <polygon class="fil3" points="784.04,197.05 782.09,200 "/>
   <polygon class="fil6" points="414.11,202.28 411.81,199.74 "/>
   <polygon class="fil21" points="588.2,199.75 585.88,202.28 "/>
   <polygon class="fil20" points="277.05,204.62 274.71,202.06 "/>
   <polygon class="fil20" points="725.4,202.12 723,204.66 "/>
   <polygon class="fil16" points="279.41,207.11 277.05,204.62 "/>
   <polygon class="fil17" points="723,204.66 720.61,207.15 "/>
   <polygon class="fil3" points="230.17,209.81 228.24,206.85 "/>
   <polygon class="fil13" points="424.03,209.57 421.68,207.01 "/>
   <polygon class="fil13" points="578.39,207.06 575.97,209.57 "/>
   <polygon class="fil7" points="771.85,206.91 769.88,209.85 "/>
   <polygon class="fil21" points="426.37,212.08 424.03,209.57 "/>
   <polygon class="fil9" points="575.97,209.57 573.62,212.07 "/>
   <polygon class="fil20" points="289.26,214.46 286.93,211.89 "/>
   <polygon class="fil8" points="713.11,211.93 710.76,214.47 "/>
   <polygon class="fil16" points="291.61,216.96 289.26,214.46 "/>
   <polygon class="fil17" points="710.76,214.47 708.42,216.98 "/>
   <polygon class="fil7" points="242.37,219.65 240.42,216.7 "/>
   <polygon class="fil12" points="436.29,219.37 433.91,216.85 "/>
   <polygon class="fil12" points="566.12,216.89 563.73,219.38 "/>
   <polygon class="fil10" points="759.6,216.72 757.64,219.68 "/>
   <polygon class="fil9" points="438.62,221.89 436.29,219.37 "/>
   <polygon class="fil8" points="563.73,219.38 561.35,221.9 "/>
   <polygon class="fil20" points="301.5,224.27 299.11,221.72 "/>
   <polygon class="fil8" points="700.87,221.76 698.54,224.29 "/>
   <polygon class="fil17" points="303.9,226.76 301.5,224.27 "/>
   <polygon class="fil12" points="698.54,224.29 696.18,226.81 "/>
   <polygon class="fil7" points="254.65,229.46 252.68,226.5 "/>
   <polygon class="fil12" points="448.51,229.19 446.17,226.67 "/>
   <polygon class="fil17" points="553.87,226.68 551.48,229.18 "/>
   <polygon class="fil10" points="747.38,226.55 745,229.13 "/>
   <polygon class="fil8" points="450.87,231.7 448.51,229.19 "/>
   <polygon class="fil20" points="551.48,229.18 549.1,231.72 "/>
   <polygon class="fil11" points="745,229.13 742.63,231.58 "/>
   <polygon class="fil8" points="313.74,234.07 311.4,231.51 "/>
   <polygon class="fil8" points="688.69,231.61 686.31,234.11 "/>
   <polygon class="fil17" points="316.09,236.59 313.74,234.07 "/>
   <polygon class="fil12" points="686.31,234.11 683.88,236.6 "/>
   <polygon class="fil10" points="266.84,239.3 264.88,236.34 "/>
   <polygon class="fil17" points="460.72,239.02 458.43,236.47 "/>
   <polygon class="fil17" points="541.67,236.53 539.28,239.02 "/>
   <polygon class="fil14" points="735.14,236.37 732.77,238.95 "/>
   <polygon class="fil8" points="463.08,241.55 460.72,239.02 "/>
   <polygon class="fil20" points="539.28,239.02 536.92,241.56 "/>
   <polygon class="fil11" points="732.77,238.95 730.43,241.43 "/>
   <polygon class="fil8" points="326,243.87 323.63,241.37 "/>
   <polygon class="fil9" points="676.39,241.37 674.02,243.88 "/>
   <polygon class="fil12" points="328.38,246.39 326,243.87 "/>
   <polygon class="fil13" points="674.02,243.88 671.63,246.41 "/>
   <polygon class="fil5" points="207.92,249.88 206.59,244.84 "/>
   <polygon class="fil10" points="279.51,248.74 277.13,246.15 "/>
   <polygon class="fil17" points="472.97,248.82 470.63,246.31 "/>
   <polygon class="fil16" points="529.36,246.32 527.01,248.8 "/>
   <polygon class="fil5" points="722.85,246.15 720.48,248.72 "/>
   <polygon class="fil20" points="791.86,249.29 794.01,243.6 "/>
   <polygon class="fil11" points="281.88,251.19 279.51,248.74 "/>
   <polygon class="fil20" points="475.34,251.35 472.97,248.82 "/>
   <polygon class="fil20" points="527.01,248.8 524.65,251.36 "/>
   <polygon class="fil15" points="720.48,248.72 718.14,251.22 "/>
   <polygon class="fil9" points="338.21,253.7 335.89,251.17 "/>
   <polygon class="fil21" points="664.14,251.19 661.78,253.69 "/>
   <polygon class="fil6" points="210.14,257.31 208.58,252.95 "/>
   <polygon class="fil12" points="340.59,256.24 338.21,253.7 "/>
   <polygon class="fil13" points="661.78,253.69 659.41,256.23 "/>
   <polygon class="fil15" points="791.45,252.99 789.88,257.33 "/>
   <polygon class="fil14" points="291.78,258.54 289.37,255.97 "/>
   <polygon class="fil5" points="710.63,255.99 708.28,258.57 "/>
   <polygon class="fil15" points="294.15,260.97 291.78,258.54 "/>
   <polygon class="fil15" points="708.28,258.57 705.93,261.06 "/>
   <polygon class="fil20" points="212.82,264.23 211.02,260.54 "/>
   <polygon class="fil9" points="350.47,263.5 348.11,261 "/>
   <polygon class="fil21" points="651.92,261.02 649.54,263.51 "/>
   <polygon class="fil8" points="789.01,260.55 787.21,264.25 "/>
   <polygon class="fil13" points="352.86,266.03 350.47,263.5 "/>
   <polygon class="fil4" points="649.54,263.51 647.17,266.05 "/>
   <polygon class="fil5" points="304.03,268.33 301.67,265.77 "/>
   <polygon class="fil4" points="698.41,265.82 695.98,268.34 "/>
   <polygon class="fil15" points="306.36,270.83 304.03,268.33 "/>
   <polygon class="fil6" points="695.98,268.34 693.59,270.8 "/>
   <polygon class="fil21" points="362.74,273.3 360.38,270.78 "/>
   <polygon class="fil6" points="639.67,270.83 637.3,273.31 "/>
   <polygon class="fil5" points="365.36,275.57 362.74,273.3 "/>
   <polygon class="fil14" points="637.3,273.31 634.67,275.61 "/>
   <polygon class="fil8" points="220.41,278.43 218.03,275.87 "/>
   <polygon class="fil5" points="316.26,278.15 313.88,275.61 "/>
   <polygon class="fil7" points="367.76,278.05 365.36,275.57 "/>
   <polygon class="fil18" points="475.36,275.61 472.98,278.17 "/>
   <polygon class="fil18" points="527.06,278.14 524.74,275.55 "/>
   <polygon class="fil3" points="634.67,275.61 632.28,278.11 "/>
   <polygon class="fil4" points="686.15,275.64 683.76,278.16 "/>
   <polygon class="fil21" points="781.98,275.84 779.6,278.41 "/>
   <polygon class="fil6" points="318.61,280.64 316.26,278.15 "/>
   <polygon class="fil16" points="472.98,278.17 470.63,280.64 "/>
   <polygon class="fil19" points="529.42,280.6 527.06,278.14 "/>
   <polygon class="fil21" points="683.76,278.16 681.39,280.65 "/>
   <polygon class="fil12" points="369.74,284.17 368.14,279.89 "/>
   <polygon class="fil13" points="631.89,279.93 630.3,284.19 "/>
   <polygon class="fil19" points="779.16,280.41 776.94,283.06 "/>
   <polygon class="fil21" points="225.44,285.57 222.73,283.44 "/>
   <polygon class="fil6" points="776.94,283.06 774.56,285.56 "/>
   <polygon class="fil4" points="328.51,287.96 326.14,285.41 "/>
   <polygon class="fil20" points="463.07,285.42 460.74,287.98 "/>
   <polygon class="fil18" points="539.26,287.97 536.94,285.4 "/>
   <polygon class="fil13" points="673.91,285.45 671.54,287.99 "/>
   <polygon class="fil6" points="330.84,290.48 328.51,287.96 "/>
   <polygon class="fil16" points="460.74,287.98 458.39,290.48 "/>
   <polygon class="fil19" points="541.64,290.45 539.26,287.97 "/>
   <polygon class="fil21" points="671.54,287.99 669.19,290.51 "/>
   <polygon class="fil16" points="369.81,289.41 368.26,293.89 "/>
   <polygon class="fil16" points="631.77,293.81 630.24,289.29 "/>
   <polygon class="fil19" points="232.97,295.21 230.31,292.99 "/>
   <polygon class="fil16" points="769.72,293.02 767.02,295.21 "/>
   <polygon class="fil17" points="235.42,297.7 232.97,295.21 "/>
   <polygon class="fil4" points="340.73,297.78 338.35,295.24 "/>
   <polygon class="fil16" points="367.94,295.73 365.18,297.82 "/>
   <polygon class="fil20" points="450.85,295.25 448.48,297.78 "/>
   <polygon class="fil18" points="551.52,297.78 549.15,295.22 "/>
   <polygon class="fil17" points="634.87,297.8 632.09,295.71 "/>
   <polygon class="fil13" points="661.67,295.27 659.28,297.78 "/>
   <polygon class="fil12" points="767.02,295.21 764.58,297.69 "/>
   <polygon class="fil16" points="237.6,300.42 235.42,297.7 "/>
   <polygon class="fil21" points="343.1,300.25 340.73,297.78 "/>
   <polygon class="fil17" points="448.48,297.78 446.09,300.26 "/>
   <polygon class="fil16" points="553.93,300.24 551.52,297.78 "/>
   <polygon class="fil9" points="659.28,297.78 656.89,300.25 "/>
   <polygon class="fil17" points="764.58,297.69 762.42,300.46 "/>
   <polygon class="fil8" points="362.56,300.03 359.67,302.31 "/>
   <polygon class="fil9" points="640.31,302.31 637.42,300.02 "/>
   <polygon class="fil6" points="438.63,305.08 436.37,307.67 "/>
   <polygon class="fil21" points="563.7,307.61 561.42,305.03 "/>
   <polygon class="fil20" points="250.05,310.03 247.72,307.47 "/>
   <polygon class="fil7" points="436.37,307.67 433.72,309.99 "/>
   <polygon class="fil10" points="566.32,309.95 563.7,307.61 "/>
   <polygon class="fil20" points="752.36,307.52 749.96,310.04 "/>
   <polygon class="fil16" points="252.41,312.54 250.05,310.03 "/>
   <polygon class="fil16" points="433.72,309.99 431.48,312.61 "/>
   <polygon class="fil19" points="568.53,312.59 566.32,309.95 "/>
   <polygon class="fil17" points="749.96,310.04 747.57,312.55 "/>
   <polygon class="fil20" points="262.28,319.86 259.94,317.31 "/>
   <polygon class="fil8" points="740.07,317.31 737.71,319.84 "/>
   <polygon class="fil16" points="264.67,322.35 262.28,319.86 "/>
   <polygon class="fil17" points="737.71,319.84 735.38,322.38 "/>
   <polygon class="fil7" points="215.42,325.05 213.45,322.09 "/>
   <polygon class="fil10" points="786.58,322.12 784.2,324.71 "/>
   <polygon class="fil11" points="784.2,324.71 781.83,327.15 "/>
   <polygon class="fil20" points="274.55,329.65 272.15,327.13 "/>
   <polygon class="fil8" points="727.83,327.15 725.46,329.65 "/>
   <polygon class="fil17" points="276.94,332.15 274.55,329.65 "/>
   <polygon class="fil12" points="725.46,329.65 723.09,332.17 "/>
   <polygon class="fil7" points="227.69,334.84 225.72,331.89 "/>
   <polygon class="fil10" points="774.34,331.94 771.96,334.52 "/>
   <polygon class="fil11" points="771.96,334.52 769.59,336.97 "/>
   <polygon class="fil8" points="286.78,339.46 284.44,336.93 "/>
   <polygon class="fil9" points="715.55,336.94 713.24,339.48 "/>
   <polygon class="fil17" points="289.13,341.99 286.78,339.46 "/>
   <polygon class="fil12" points="404.56,339.59 401.93,341.86 "/>
   <polygon class="fil17" points="598.07,341.85 595.45,339.58 "/>
   <polygon class="fil12" points="713.24,339.48 710.86,342.01 "/>
   <polygon class="fil10" points="240.31,344.32 237.92,341.73 "/>
   <polygon class="fil1" points="401.93,341.86 399.27,344.13 "/>
   <polygon class="fil1" points="600.39,344.51 598.07,341.85 "/>
   <polygon class="fil14" points="762.08,341.76 759.69,344.31 "/>
   <polygon class="fil11" points="242.67,346.76 240.31,344.32 "/>
   <polygon class="fil11" points="602.93,346.77 600.39,344.51 "/>
   <polygon class="fil15" points="759.69,344.31 757.31,346.76 "/>
   <polygon class="fil8" points="299.04,349.26 296.67,346.76 "/>
   <polygon class="fil9" points="703.35,346.78 701.02,349.3 "/>
   <polygon class="fil12" points="301.43,351.78 299.04,349.26 "/>
   <polygon class="fil13" points="701.02,349.3 698.61,351.8 "/>
   <polygon class="fil4" points="205.78,364.41 205.96,316.65 "/>
   <polygon class="fil14" points="252.53,354.13 250.22,351.52 "/>
   <polygon class="fil5" points="749.8,351.54 747.44,354.11 "/>
   <polygon class="fil11" points="254.87,356.61 252.53,354.13 "/>
   <polygon class="fil10" points="392.3,354.29 389.43,356.3 "/>
   <polygon class="fil5" points="610.57,356.36 607.7,354.32 "/>
   <polygon class="fil15" points="747.44,354.11 745.11,356.61 "/>
   <polygon class="fil3" points="310.89,362.35 308.88,359.02 "/>
   <polygon class="fil1" points="691.14,358.98 689.13,362.32 "/>
   <polygon class="fil14" points="264.82,363.92 262.41,361.36 "/>
   <polygon class="fil5" points="737.59,361.38 735.21,363.93 "/>
   <polygon class="fil15" points="267.19,366.37 264.82,363.92 "/>
   <polygon class="fil7" points="384.96,364.14 382.25,366.33 "/>
   <polygon class="fil7" points="617.81,366.24 615.11,364.08 "/>
   <polygon class="fil6" points="735.21,363.93 732.86,366.43 "/>
   <polygon class="fil5" points="277.06,373.73 274.7,371.16 "/>
   <polygon class="fil4" points="379.85,371.28 377.26,373.56 "/>
   <polygon class="fil12" points="622.76,373.56 620.15,371.3 "/>
   <polygon class="fil4" points="725.33,371.19 722.96,373.74 "/>
   <polygon class="fil8" points="208.66,378.36 205.68,371.81 "/>
   <polygon class="fil15" points="279.37,376.23 277.06,373.73 "/>
   <polygon class="fil6" points="722.96,373.74 720.63,376.24 "/>
   <polygon class="fil8" points="791.37,378.43 794.35,371.87 "/>
   <polygon class="fil12" points="309.16,376.65 306.63,378.91 "/>
   <polygon class="fil13" points="693.37,378.93 690.87,376.62 "/>
   <polygon class="fil4" points="306.63,378.91 304.24,381.39 "/>
   <polygon class="fil10" points="374.98,378.64 372.49,381.06 "/>
   <polygon class="fil14" points="627.52,381.09 625.01,378.69 "/>
   <polygon class="fil4" points="695.7,381.39 693.37,378.93 "/>
   <polygon class="fil11" points="290.19,382.99 286.99,380.9 "/>
   <polygon class="fil2" points="302.38,381.72 298.1,383.35 "/>
   <polygon class="fil19" points="701.94,383.33 697.66,381.7 "/>
   <polygon class="fil15" points="712.98,380.9 709.74,382.95 "/>
   <polygon class="fil18" points="210.29,387.03 208.73,382.63 "/>
   <polygon class="fil20" points="791.3,382.7 789.76,387.1 "/>
   <polygon class="fil6" points="370.32,386.29 367.97,388.85 "/>
   <polygon class="fil21" points="632.08,388.79 629.72,386.24 "/>
   <polygon class="fil10" points="212.98,393.92 211.19,390.17 "/>
   <polygon class="fil14" points="367.53,390.78 365.22,393.44 "/>
   <polygon class="fil5" points="634.8,393.43 632.48,390.78 "/>
   <polygon class="fil7" points="788.85,390.23 787.06,393.98 "/>
   <polygon class="fil21" points="215.27,398.93 213.29,395.68 "/>
   <polygon class="fil19" points="364.86,395.41 362.6,398.15 "/>
   <polygon class="fil19" points="637.45,398.03 635.19,395.33 "/>
   <polygon class="fil6" points="786.76,395.76 784.79,399 "/>
   <polygon class="fil6" points="217.79,403.64 215.63,400.72 "/>
   <polygon class="fil15" points="784.41,400.8 782.24,403.71 "/>
   <polygon class="fil3" points="220.57,408.14 218.18,405.6 "/>
   <polygon class="fil3" points="781.87,405.66 779.45,408.19 "/>
   <polygon class="fil1" points="225.6,415.34 222.86,413.23 "/>
   <polygon class="fil1" points="777.12,413.17 774.4,415.31 "/>
   <polygon class="fil4" points="352.55,419.7 350.65,423.16 "/>
   <polygon class="fil13" points="649.39,423.06 647.49,419.64 "/>
   <polygon class="fil20" points="350.36,424.95 348.5,428.53 "/>
   <polygon class="fil20" points="651.57,428.39 649.7,424.8 "/>
   <polygon class="fil16" points="347.46,431.64 345.68,435.39 "/>
   <polygon class="fil19" points="654.35,435.33 652.54,431.64 "/>
   <polygon class="fil11" points="247.47,437.54 245.12,435.09 "/>
   <polygon class="fil10" points="249.85,440.13 247.47,437.54 "/>
   <polygon class="fil9" points="345.42,437.05 343.7,440.94 "/>
   <polygon class="fil8" points="656.33,440.9 654.62,436.98 "/>
   <polygon class="fil7" points="752.17,437.21 750.21,440.18 "/>
   <polygon class="fil1" points="342.81,444.09 341.18,448.3 "/>
   <polygon class="fil3" points="658.86,448.26 657.24,444.06 "/>
   <polygon class="fil7" points="262.05,449.99 260.09,447.02 "/>
   <polygon class="fil3" points="739.9,447.04 737.97,450.01 "/>
   <polygon class="fil18" points="340.33,451.34 338.77,455.74 "/>
   <polygon class="fil1" points="661.27,455.69 659.7,451.31 "/>
   <polygon class="fil3" points="274.22,459.85 272.31,456.88 "/>
   <polygon class="fil1" points="727.71,456.9 725.35,459.48 "/>
   <polygon class="fil19" points="725.35,459.48 722.98,461.93 "/>
   <polygon class="fil7" points="335.75,464.39 338.37,459.78 "/>
   <polygon class="fil10" points="664.31,464.26 661.68,459.7 "/>
   <polygon class="fil1" points="286.87,469.31 284.52,466.72 "/>
   <polygon class="fil18" points="715.5,466.74 713.13,469.31 "/>
   <polygon class="fil19" points="289.25,471.76 286.87,469.31 "/>
   <polygon class="fil16" points="713.13,469.31 710.75,471.78 "/>
   <polygon class="fil4" points="333.31,474.21 335.69,469.09 "/>
   <polygon class="fil13" points="666.74,474.11 664.35,468.99 "/>
   <polygon class="fil18" points="299.07,479.15 296.71,476.58 "/>
   <polygon class="fil20" points="703.26,476.58 700.9,479.12 "/>
   <polygon class="fil16" points="301.47,481.62 299.07,479.15 "/>
   <polygon class="fil21" points="332.94,477.98 331.67,483.14 "/>
   <polygon class="fil8" points="668.35,483.18 667.07,478.04 "/>
   <polygon class="fil17" points="700.9,479.12 698.53,481.63 "/>
   <polygon class="fil20" points="311.31,488.96 308.92,486.43 "/>
   <polygon class="fil17" points="213.23,40.47 210.86,37.95 "/>
   <polygon class="fil8" points="691.07,486.45 688.72,488.98 "/>
   <polygon class="fil17" points="313.69,491.46 311.31,488.96 "/>
   <polygon class="fil12" points="789.15,37.93 786.7,40.42 "/>
   <polygon class="fil12" points="688.72,488.98 686.35,491.5 "/>
   <polygon class="fil21" points="328.46,496.67 331.13,489.57 "/>
   <polygon class="fil8" points="671.56,496.61 668.89,489.51 "/>
   <polygon class="fil8" points="323.59,498.74 321.17,496.26 "/>
   <polygon class="fil9" points="678.84,496.28 676.48,498.78 "/>
   <polygon class="fil13" points="325.99,501.24 323.59,498.74 "/>
   <polygon class="fil4" points="676.48,498.78 674.08,501.31 "/>
   <polygon class="fil8" points="215.57,43 213.23,40.47 "/>
   <polygon class="fil13" points="345.67,530.59 343.23,528.09 "/>
   <polygon class="fil12" points="656.76,528.13 654.34,530.59 "/>
   <polygon class="fil8" points="786.7,40.42 784.4,42.97 "/>
   <polygon class="fil9" points="347.97,533.09 345.67,530.59 "/>
   <polygon class="fil8" points="654.34,530.59 652.06,533.11 "/>
   <polygon class="fil12" points="357.89,540.41 355.5,537.91 "/>
   <polygon class="fil17" points="644.51,537.93 642.19,540.46 "/>
   <polygon class="fil8" points="360.2,542.92 357.89,540.41 "/>
   <polygon class="fil8" points="642.19,540.46 639.89,542.98 "/>
   <polygon class="fil17" points="370.11,550.23 367.73,547.74 "/>
   <polygon class="fil16" points="632.3,547.78 629.94,550.26 "/>
   <polygon class="fil20" points="372.43,552.75 370.11,550.23 "/>
   <polygon class="fil17" points="225.48,50.27 223.12,47.78 "/>
   <polygon class="fil16" points="382.29,560.08 379.92,557.62 "/>
   <polygon class="fil19" points="620.08,557.62 617.7,560.07 "/>
   <polygon class="fil18" points="384.63,562.62 382.29,560.08 "/>
   <polygon class="fil1" points="617.7,560.07 615.37,562.62 "/>
   <polygon class="fil19" points="394.52,569.9 392.15,567.46 "/>
   <polygon class="fil1" points="396.86,572.46 394.52,569.9 "/>
   <polygon class="fil3" points="605.02,569.53 603.15,572.47 "/>
   <polygon class="fil3" points="409.06,582.31 407.19,579.37 "/>
   <polygon class="fil7" points="592.85,579.4 590.96,582.33 "/>
   <polygon class="fil7" points="421.3,592.15 419.4,589.21 "/>
   <polygon class="fil10" points="580.65,589.25 578.3,591.85 "/>
   <polygon class="fil11" points="578.3,591.85 576,594.26 "/>
   <polygon class="fil14" points="433.94,601.65 431.63,599.06 "/>
   <polygon class="fil14" points="568.37,599.06 566.03,601.62 "/>
   <polygon class="fil11" points="436.23,604.09 433.94,601.65 "/>
   <polygon class="fil15" points="566.03,601.62 563.77,604.11 "/>
   <polygon class="fil5" points="446.2,611.44 443.83,608.91 "/>
   <polygon class="fil4" points="556.19,608.92 553.82,611.46 "/>
   <polygon class="fil6" points="448.51,613.91 446.2,611.44 "/>
   <polygon class="fil21" points="553.82,611.46 551.53,613.94 "/>
   <polygon class="fil4" points="458.42,621.27 456.05,618.75 "/>
   <polygon class="fil12" points="543.96,618.76 541.59,621.27 "/>
   <polygon class="fil21" points="460.72,623.77 458.42,621.27 "/>
   <polygon class="fil9" points="541.59,621.27 539.31,623.78 "/>
   <polygon class="fil12" points="470.64,631.09 468.25,628.59 "/>
   <polygon class="fil17" points="531.72,628.59 529.39,631.11 "/>
   <polygon class="fil8" points="472.94,633.59 470.64,631.09 "/>
   <polygon class="fil8" points="529.39,631.11 527.08,633.63 "/>
   <polygon class="fil17" points="482.83,640.93 480.49,638.42 "/>
   <polygon class="fil16" points="519.5,638.43 517.16,640.93 "/>
   <polygon class="fil20" points="485.14,643.46 482.83,640.93 "/>
   <polygon class="fil20" points="517.16,640.93 514.87,643.48 "/>
   <polygon class="fil20" points="490.36,648.09 487.7,650.71 "/>
   <polygon class="fil20" points="512.34,650.68 509.7,647.96 "/>
   <polygon class="fil17" points="487.7,650.71 485.44,653.29 "/>
   <polygon class="fil16" points="514.56,653.28 512.34,650.68 "/>
   <polygon class="fil8" points="472.83,662.83 470.7,665.53 "/>
   <polygon class="fil8" points="529.3,665.53 527.17,662.8 "/>
   <polygon class="fil1" points="470.7,665.53 468.18,667.93 "/>
   <polygon class="fil3" points="531.87,667.89 529.3,665.53 "/>
   <polygon class="fil5" points="468.18,667.93 465.61,670.27 "/>
   <polygon class="fil4" points="534.42,670.24 531.87,667.89 "/>
   <polygon class="fil17" points="465.61,670.27 463.09,672.67 "/>
   <polygon class="fil16" points="536.54,673.02 534.42,670.24 "/>
   <polygon class="fil19" points="463.09,672.67 460.97,675.41 "/>
   <polygon class="fil19" points="448.7,687.68 445.95,689.79 "/>
   <polygon class="fil17" points="445.95,689.79 443.55,692.31 "/>
   <polygon class="fil16" points="556.44,692.31 553.7,690.17 "/>
   <polygon class="fil5" points="443.55,692.31 441.2,694.87 "/>
   <polygon class="fil4" points="558.82,694.85 556.44,692.31 "/>
   <polygon class="fil1" points="441.2,694.87 438.83,697.43 "/>
   <polygon class="fil3" points="561.19,697.39 558.82,694.85 "/>
   <polygon class="fil9" points="438.83,697.43 436.14,699.56 "/>
   <polygon class="fil8" points="563.9,699.54 561.19,697.39 "/>
   <polygon class="fil17" points="426.59,712.17 424.02,714.44 "/>
   <polygon class="fil16" points="575.96,714.46 573.43,712.15 "/>
   <polygon class="fil20" points="424.02,714.44 421.43,716.69 "/>
   <polygon class="fil1" points="578.58,716.74 575.96,714.46 "/>
   <polygon class="fil17" points="776.88,47.75 774.53,50.28 "/>
   <polygon class="fil19" points="416.63,724.31 414.19,726.65 "/>
   <polygon class="fil20" points="629.94,550.26 627.64,552.8 "/>
   <polygon class="fil20" points="414.19,726.65 411.74,729.03 "/>
   <polygon class="fil18" points="588.31,729.03 585.81,726.64 "/>
   <polygon class="fil20" points="407.15,736.83 404.42,738.89 "/>
   <polygon class="fil18" points="595.61,738.86 592.87,736.81 "/>
   <polygon class="fil13" points="401.91,743.84 399.26,745.95 "/>
   <polygon class="fil17" points="600.76,746 598.07,743.9 "/>
   <polygon class="fil19" points="396.83,751.04 394.61,753.68 "/>
   <polygon class="fil11" points="394.61,753.68 392.46,756.33 "/>
   <polygon class="fil15" points="607.56,756.31 605.04,754.14 "/>
   <polygon class="fil19" points="391.93,758.39 389.41,760.64 "/>
   <polygon class="fil4" points="387.16,765.85 384.72,768.22 "/>
   <polygon class="fil13" points="615.32,768.13 612.89,765.78 "/>
   <polygon class="fil8" points="382.52,773.51 380.19,776 "/>
   <polygon class="fil20" points="619.84,775.98 617.51,773.49 "/>
   <polygon class="fil0" points="379.69,777.95 377.37,780.48 "/>
   <polygon class="fil0" points="622.64,780.49 620.31,777.96 "/>
   <polygon class="fil0" points="372.59,790.46 370.42,793.23 "/>
   <polygon class="fil0" points="629.62,793.19 627.44,790.43 "/>
   <polygon class="fil0" points="370,795.18 367.82,797.98 "/>
   <polygon class="fil0" points="632.19,797.98 630.04,795.13 "/>
   <polygon class="fil0" points="367.44,799.95 365.33,802.88 "/>
   <polygon class="fil0" points="634.74,802.73 632.63,799.83 "/>
   <polygon class="fil0" points="364.92,804.76 362.85,807.73 "/>
   <polygon class="fil0" points="637.17,807.75 635.09,804.76 "/>
   <polygon class="fil20" points="227.87,52.8 225.48,50.27 "/>
   <polygon class="fil0" points="362.49,809.68 360.45,812.76 "/>
   <polygon class="fil0" points="639.6,812.65 637.57,809.58 "/>
   <polygon class="fil0" points="360.05,814.54 358.07,817.7 "/>
   <polygon class="fil0" points="641.96,817.68 639.97,814.53 "/>
   <polygon class="fil0" points="357.72,819.59 355.77,822.81 "/>
   <polygon class="fil0" points="644.27,822.76 642.32,819.54 "/>
   <polygon class="fil0" points="355.43,824.78 353.52,828.01 "/>
   <polygon class="fil0" points="646.51,827.95 644.63,824.68 "/>
   <polygon class="fil0" points="350.19,836.45 348.38,840 "/>
   <polygon class="fil0" points="651.67,839.96 649.87,836.35 "/>
   <polygon class="fil0" points="348.06,841.87 346.3,845.35 "/>
   <polygon class="fil0" points="653.75,845.31 651.98,841.78 "/>
   <polygon class="fil0" points="345.23,848.52 343.49,852.36 "/>
   <polygon class="fil0" points="656.54,852.28 654.81,848.46 "/>
   <polygon class="fil0" points="342.54,855.6 340.93,859.46 "/>
   <polygon class="fil0" points="659.09,859.44 657.47,855.58 "/>
   <polygon class="fil8" points="774.53,50.28 772.19,52.82 "/>
   <polygon class="fil0" points="339.98,862.81 338.04,866.91 "/>
   <polygon class="fil17" points="237.68,60.11 235.35,57.6 "/>
   <polygon class="fil17" points="764.69,57.61 762.3,60.09 "/>
   <polygon class="fil20" points="240.04,62.64 237.68,60.11 "/>
   <polygon class="fil20" points="762.3,60.09 759.91,62.61 "/>
   <polygon class="fil16" points="249.96,69.89 247.61,67.41 "/>
   <polygon class="fil16" points="752.37,67.39 750.06,69.9 "/>
   <polygon class="fil18" points="252.32,72.46 249.96,69.89 "/>
   <polygon class="fil20" points="750.06,69.9 747.71,72.46 "/>
   <polygon class="fil16" points="262.23,79.69 259.89,77.2 "/>
   <polygon class="fil19" points="740.1,77.2 737.79,79.7 "/>
   <polygon class="fil18" points="264.54,82.28 262.23,79.69 "/>
   <polygon class="fil18" points="737.79,79.7 735.46,82.28 "/>
   <polygon class="fil19" points="274.45,89.51 272.09,87.04 "/>
   <polygon class="fil19" points="727.96,87.08 725.57,89.52 "/>
   <polygon class="fil1" points="276.78,92.09 274.45,89.51 "/>
   <polygon class="fil1" points="725.57,89.52 723.21,92.1 "/>
   <polygon class="fil2" points="286.67,99.34 284.34,96.87 "/>
   <polygon class="fil19" points="585.81,726.64 583.4,724.27 "/>
  </g>
 </g>
</svg>
