<?xml version="1.0" encoding="UTF-8"?>
<!DOCTYPE svg PUBLIC "-//W3C//DTD SVG 1.1//EN" "http://www.w3.org/Graphics/SVG/1.1/DTD/svg11.dtd">
<!-- Creator: CorelDRAW 2020 (64-Bit) -->
<svg xmlns="http://www.w3.org/2000/svg" xml:space="preserve" width="1in" height="1in" version="1.1" style="shape-rendering:geometricPrecision; text-rendering:geometricPrecision; image-rendering:optimizeQuality; fill-rule:evenodd; clip-rule:evenodd"
viewBox="0 0 1000 1000"
 xmlns:xlink="http://www.w3.org/1999/xlink"
 xmlns:xodm="http://www.corel.com/coreldraw/odm/2003"
 xmlns:dc="http://purl.org/dc/elements/1.1/"
 xmlns:cc="http://creativecommons.org/ns#"
 xmlns:rdf="http://www.w3.org/1999/02/22-rdf-syntax-ns#"
 xmlns:svg="http://www.w3.org/2000/svg"
 xmlns:sodipodi="http://sodipodi.sourceforge.net/DTD/sodipodi-0.dtd"
 xmlns:inkscape="http://www.inkscape.org/namespaces/inkscape"
 inkscape:version="0.48.4 r9939"
 sodipodi:docname="IRI.NAJA.FATA (New).svg">
 <defs>
  <style type="text/css">
   <![CDATA[
    .fil0 {fill:#4D4D4D}
    .fil1 {fill:#FEFEFE}
    .fil2 {fill:white}
   ]]>
  </style>
 </defs>
 <g id="Layer_x0020_1">
  <metadata id="CorelCorpID_0Corel-Layer"/>
  <sodipodi:namedview id="base" pagecolor="#ffffff" bordercolor="#666666" borderopacity="1.0" inkscape:pageopacity="0.0" inkscape:pageshadow="2" inkscape:zoom="0.175" inkscape:cx="-153.67852" inkscape:cy="901.82896" inkscape:document-units="px" inkscape:current-layer="layer1" showgrid="false" inkscape:window-width="1280" inkscape:window-height="962" inkscape:window-x="-8" inkscape:window-y="-8" inkscape:window-maximized="1"/>
  <g id="_2355431248880">
   <path class="fil0" d="M470.14 228.78c84.59,-2.46 165.87,5.58 243.79,25.53 66.48,17.02 146.44,52.78 166.5,103.38 7.72,19.47 5.71,37.81 -3.08,55.18 -19.96,39.43 -76.51,68.21 -119.28,83.02 -70.96,24.57 -148.56,36.97 -229.97,39.25 -98.63,2.77 -205.47,-8.21 -295.29,-41.92 -17.05,-6.4 -31.24,-13.24 -46.43,-21.15 -11.06,-5.76 -20.92,-12.6 -30.8,-19.91 -1.8,-1.33 -2.94,-2.29 -4.83,-3.88 -12.86,-10.79 -25.67,-23.39 -33.09,-42.19 -7.39,-18.73 -5.67,-38.24 3.04,-54.96 8.34,-16.01 19.2,-26.41 31.13,-36.46 23.81,-20.06 57.81,-35.43 88.09,-46.59 67.33,-24.82 152.25,-37.04 230.21,-39.31zm-367.99 419.09l2.01 0.04 791.17 -0 1.42 -0.02 0.08 -544.9 -794.67 -0.06 0 544.94z"/>
   <path class="fil1" d="M102.29 659.41l794.53 0.03 0 237.63 -794.67 -0.05 0.14 -237.61zm-0.14 -556.48l794.67 0.06 -0.08 544.9 -1.42 0.02 -791.17 0 -2.01 -0.04 0 -544.94zm-37.42 843.61l870.54 0 0 -893.07 -870.54 0 0 893.07z"/>
   <path class="fil0" d="M523.81 851.97l-36.85 0.1 3.45 -16.1 37.06 -0.1 -3.67 16.1zm72.22 -113.32c-3.38,1.37 -38.55,0.4 -45.33,0.4 -1.48,0.38 -1.01,0.76 -1.93,4.8l-19.88 85.63 -36.77 0.05 20.55 -90.46 -46.5 -0.02 7.68 -33.42 129.79 -0.02 -7.61 33.04zm160.52 113.27l-48.66 -0.07c-1.05,-2.92 -4.61,-8.6 -6.34,-11.61l-38.53 -69.02c-2.2,-3.82 -3.7,-8.39 -5.72,-11.99 -1.51,1.66 -1.9,9.21 -2.33,11.54l-19.24 81.29 -37.73 -0.29 36.66 -146.96 36.88 0.3c0.81,0.33 12.56,21.25 13.94,23.7 4.65,8.28 9.28,15.86 13.84,24.04 2.9,5.2 26.67,47.09 28.04,48.14l22.89 -96.72 40.37 0.37c0.36,1.97 -21.35,95.69 -24.95,110.74l-6.31 27.5c-0.54,2.45 -0.84,7.77 -2.82,9.06zm-349.42 -0.34l-44.23 0.11 19.07 -89.02c-1.97,0.86 -5.19,7.83 -7.14,11.09 -2.34,3.93 -4.67,7.15 -7.16,10.76l-13.51 22.33c-6.58,10.92 -21.74,35.2 -26.85,44.85 -4.57,0.35 -40.65,0.5 -43.09,-0.22 -0.49,-12.24 -1.82,-84.69 -4.43,-89.89 -1.47,0.91 -1.71,3.15 -2.3,4.96 -0.64,1.97 -1.27,3.9 -1.86,5.82l-18.14 57.14c-2.37,7.52 -5.24,15.41 -7.2,22.8l-45.14 0c2.29,-9.28 11.29,-35.3 14.87,-46.95 4.84,-15.79 9.81,-31.35 14.95,-47.01 5.13,-15.65 9.79,-31.54 14.92,-47.05 2.76,-8.33 -2.1,-6.32 24.27,-6.32 10.37,0 20.75,0 31.12,0 1.17,5.59 4.44,41.6 5.38,50.53 0.68,6.44 4.33,47.81 5.49,50.14 1.88,-1.27 7.43,-13.28 11.43,-18.71 1.47,-2 2.61,-3.39 4.2,-6.03 3.54,-5.91 43.62,-73.44 45.72,-75.78l65.02 -0.77 -35.41 147.22zm-304.98 45.45l794.67 0.05 0 -237.63 -794.53 -0.03 -0.14 237.61z"/>
   <path class="fil2" d="M442.54 704.35l-65.02 0.77c-2.1,2.34 -42.18,69.87 -45.72,75.78 -1.59,2.64 -2.73,4.03 -4.2,6.03 -4,5.43 -9.55,17.44 -11.43,18.71 -1.16,-2.33 -4.81,-43.69 -5.49,-50.14 -0.94,-8.93 -4.2,-44.93 -5.38,-50.53 -10.37,0 -20.75,0 -31.12,0 -26.37,0 -21.51,-2.02 -24.27,6.32 -5.13,15.51 -9.78,31.4 -14.92,47.05 -5.14,15.67 -10.11,31.22 -14.95,47.01 -3.58,11.66 -12.58,37.67 -14.87,46.95l45.14 0c1.96,-7.39 4.82,-15.28 7.2,-22.8l18.14 -57.14c0.59,-1.93 1.22,-3.85 1.86,-5.82 0.59,-1.8 0.82,-4.04 2.3,-4.96 2.61,5.19 3.94,77.64 4.43,89.89 2.44,0.72 38.52,0.57 43.09,0.22 5.11,-9.65 20.27,-33.93 26.85,-44.85l13.51 -22.33c2.49,-3.61 4.82,-6.83 7.16,-10.76 1.94,-3.26 5.17,-10.22 7.14,-11.09l-19.07 89.02 44.23 -0.11 35.41 -147.22z"/>
   <path class="fil0" d="M324.33 433.84c5.33,3.22 6.24,9.28 26.17,7.42 9.96,-0.93 15.29,-8.89 19.48,-14.33 1.56,1.81 3.5,6.65 6.83,9.34 12.7,10.26 23.2,1.98 30.55,-9.37 2.51,2.79 12.37,23.42 29.73,9.18 4.31,-3.53 6.26,-7.12 8.11,-8.62 1.81,1.29 4.15,5.25 6.11,7.02 1.77,1.59 5.29,4.31 8.42,5.41 5.71,2.01 19.05,1.46 25.45,0.74 16.98,-1.9 27.22,-8.8 31.9,-22.88 6.5,-19.55 5.91,-50.24 -3.87,-70.28 -2.11,-4.32 -8.39,-14.7 -11.69,-15.78 -2.26,1.43 -14.62,19.96 -18.05,24.79 -8.67,12.2 -4.83,8.74 0.41,14.71 3.87,4.41 16.59,14.76 13.77,19.43 -2.47,3.18 -19.35,1.84 -24.81,1.83 -10.31,-0.02 -14.83,0.74 -17.49,-9.13 -1.69,-6.27 -2.7,-17.67 -12,-14.24 -8.91,3.28 -1.44,24.8 -16.6,23.53 -4.19,-0.35 -6.24,-2.69 -7.42,-6.04 -2.27,-6.48 -1.35,-17.26 -8.48,-18.25 -8.33,-1.15 -9.15,9.53 -10.71,15.95 -2.83,11.62 -12.6,9.47 -16.18,6.45 -5.21,-4.39 -3.84,-13.19 -7.26,-19.37 -2.79,-5.04 -10.97,-6.26 -14.05,5.7 -3.2,12.41 -4.44,18.42 -23.22,15.18 -4.11,-0.71 -6.16,-2.86 -7.21,-6.63 -1.42,-5.1 -0.54,-65.37 -0.54,-79.15 0,-8.37 0.57,-19.05 -0.17,-27.15 -2.09,0.41 -20.92,12.83 -24.06,14.89 -1.99,1.31 -10.91,6.75 -11.45,7.98 -1.66,3.76 10.04,116.83 7.39,127.26 -2.58,10.16 -12.12,14.17 -23.93,15.09 -10.61,0.83 -25.17,-0.46 -33.72,-4.7 -21.64,-10.74 -4.02,-33.78 -12.46,-43.34 -4.34,-4.91 -9.7,0.58 -11.61,3.96 -8.62,15.26 -14.27,45.83 -6.36,64.17 12.88,29.85 59.03,33.36 82.47,21.16 7.93,-4.13 14.78,-11.76 18.93,-20.01 5.19,-10.34 7.22,-18.8 7.58,-31.9z"/>
   <path class="fil2" d="M756.55 851.91c1.98,-1.3 2.28,-6.61 2.82,-9.06l6.31 -27.5c3.61,-15.04 25.31,-108.76 24.95,-110.74l-40.37 -0.37 -22.89 96.72c-1.36,-1.05 -25.13,-42.94 -28.04,-48.14 -4.56,-8.19 -9.19,-15.76 -13.84,-24.04 -1.38,-2.45 -13.13,-23.37 -13.94,-23.7l-36.88 -0.3 -36.66 146.96 37.73 0.29 19.24 -81.29c0.43,-2.33 0.81,-9.88 2.33,-11.54 2.02,3.6 3.52,8.17 5.72,11.99l38.53 69.02c1.73,3.01 5.29,8.69 6.34,11.61l48.66 0.07z"/>
   <path class="fil0" d="M693.57 393.78c-17.96,0 -30.19,2.26 -43.09,-10.98 -14.22,-14.6 -11.72,-13.92 -17.16,-2.44l-9.33 19.37c-1.45,3.07 -3.64,6.62 -4.58,9.73 5.96,6.59 17.27,15.22 22.7,24.74 1.76,3.07 2.24,5.09 0.26,8.47 -9.4,16.12 -63.07,44.96 -63.08,44.97 -2.19,1.96 -5.89,12.07 8.28,12.07l48.13 0c7.5,0 8.85,-2.95 12.91,-8.81 2.74,-3.95 5.56,-9.13 7.62,-13.87 2.16,-4.98 4.23,-10.17 5.46,-16.07 1.59,-7.6 0.74,-12.76 1.34,-20.16 4.66,2.63 6.6,2.38 12.1,2.38 40.99,0 49.43,-17.3 49.34,-57.36 -0.04,-15.65 -3.4,-30.54 -11.19,-43.28 -1.72,-2.82 -5.65,-9.25 -8.45,-10.22 -2.37,1.53 -22.82,31.69 -23.16,32.89 -0.85,2.98 7.2,7.93 12.75,14.63 3.15,3.8 14.54,13.94 -0.85,13.94z"/>
   <path class="fil2" d="M603.63 705.61l-129.79 0.02 -7.68 33.42 46.5 0.02 -20.55 90.46 36.77 -0.05 19.88 -85.63c0.92,-4.04 0.45,-4.42 1.93,-4.8 6.78,0 41.95,0.97 45.33,-0.4l7.61 -33.04z"/>
   <path class="fil0" d="M777.21 284.89c-3.25,0.52 -5.13,3.72 -6.85,5.66 -2.04,2.31 -4.24,4.19 -6.3,6.5 -1.77,1.98 -23.95,24.83 -24.12,26.24l10.41 65.65c2.39,13.85 4.61,29.92 8.21,43 6.52,23.67 16.13,5.8 19.77,-7.44 4.35,-15.84 6.04,-27.42 6.03,-44.83 -0.02,-16.62 0.22,-33.65 -0.72,-50.18 -0.63,-11.02 -2.79,-35.93 -6.43,-44.59z"/>
   <path class="fil0" d="M579.28 387.34c-0.01,-19.63 0.24,-44.77 -1.07,-62.26 -0.58,-7.72 -2.65,-34.56 -6.52,-38.73 -3.44,0.88 -15.39,15.46 -18.38,18.09l-18.05 18.84c-1.37,2.7 12.42,81.04 15.08,94.14 1.34,6.61 4.06,26.27 11.07,25.81 6.7,-0.44 11.77,-18.16 13.21,-23.79 2.5,-9.78 4.67,-21.48 4.66,-32.11z"/>
   <path class="fil0" d="M679.23 487.3c2.99,-1.07 10.46,-9.74 13.31,-12.22l13.17 12.35c1.87,-0.63 15.58,-13.5 15.5,-15.09 -0.07,-1.34 -14.52,-14.39 -14.84,-14.47 -2.99,0.11 -5.53,3.98 -7.2,5.74 -1.12,1.18 -1.88,1.97 -2.99,3.15 -1.65,1.75 -1.81,2.35 -3.64,3.25l-10.98 -10.26c-3.88,-3.74 -4.13,-1.76 -11.55,5.92 -7.07,7.32 -7.44,6.18 -1.78,11.52 2.93,2.77 8.11,9.14 11,10.1z"/>
   <path class="fil0" d="M489.76 327.69c1.32,-0.52 16.87,-15.17 16.99,-16.65 0.14,-1.75 -6.96,-7.51 -9.08,-9.45 -1.38,-1.26 -1.86,-2.02 -3.21,-3.43 -6.25,-6.55 -5.24,-5.42 -20.01,9.85 -3.85,3.98 -0.46,4.66 2,7.63 1.58,1.92 11.32,11.38 13.31,12.04z"/>
   <polygon class="fil2" points="527.48,835.87 490.41,835.97 486.96,852.07 523.81,851.97 "/>
  </g>
 </g>
</svg>
