<?xml version="1.0" encoding="UTF-8"?>
<!DOCTYPE svg PUBLIC "-//W3C//DTD SVG 1.1//EN" "http://www.w3.org/Graphics/SVG/1.1/DTD/svg11.dtd">
<!-- Creator: CorelDRAW 2020 (64-Bit) -->
<svg xmlns="http://www.w3.org/2000/svg" xml:space="preserve" width="1in" height="1in" version="1.1" style="shape-rendering:geometricPrecision; text-rendering:geometricPrecision; image-rendering:optimizeQuality; fill-rule:evenodd; clip-rule:evenodd"
viewBox="0 0 1000 1000"
 xmlns:xlink="http://www.w3.org/1999/xlink"
 xmlns:xodm="http://www.corel.com/coreldraw/odm/2003">
 <defs>
  <style type="text/css">
   <![CDATA[
    .fil0 {fill:#4D4D4D}
    .fil1 {fill:#5E6460}
    .fil2 {fill:#FDFDFD}
   ]]>
  </style>
 </defs>
 <g id="Layer_x0020_1">
  <metadata id="CorelCorpID_0Corel-Layer"/>
  <g id="_1856120574672">
   <path class="fil0" d="M872.33 361.98c2.03,2.72 0.92,0.73 2.92,5.07 0.66,1.43 0.92,2.36 1.59,4.18l22.55 63.4 -54.24 -0.33 27.18 -72.31zm-397.75 -15.09c39.15,0.04 83.51,-8.44 81.79,26.97 -0.9,18.63 -12.61,22.75 -30.7,23.7 -16.83,0.88 -33.62,0.46 -51.01,0.61l-0.08 -51.28zm-40.59 165.65l40.6 0.84 -0.06 -83.41c44.07,0.16 42.52,10.69 74.05,57.59 5.44,8.1 11.72,19.15 18.3,25.76l85.2 0.03 -0.06 -128.16c8.43,6.63 71.82,115.18 80.95,127.72l82.09 0.57c4.54,-5.92 6.86,-15.61 9.57,-23.2 1.85,-0.8 2.38,3.1 11.23,-1.61l0.37 18.68c0.9,6.5 -0.82,1.62 1.74,5.68 5.67,-1.81 3.11,0.44 4.54,-5.52l0.14 -29.48c-9.4,2.23 -5.22,4.6 -16.23,9.59l6.46 -19.19 79.18 -0.19c9.34,11.35 10.71,32.32 19.45,44.98l42.43 0.3 -79.84 -200.45 -42.4 0.05 -77.2 197.81 -1.24 -197.84 -36.69 0.03 -0.73 132.19c-11.77,-12.88 -74.87,-123.75 -83.06,-132.02l-37.8 -0.16 -0.4 198.8c-7.88,-5.78 -30.07,-50.47 -46.87,-68.26l-20.79 -18.93c63.1,-10.11 59.54,-71.7 34.69,-96.19 -15.06,-14.85 -40.2,-15.32 -66.28,-15.4 -20.07,-0.06 -63.65,-2.3 -81,0.7l-0.34 198.7z"/>
   <path class="fil0" d="M312.96 490.93c-5.89,-8.2 -4.14,-6.29 -12.24,-12.09 6.98,-7.03 6.27,-3.2 11.94,-13.3l13.87 13.82 -13.57 11.57zm-36.28 -0.24c-5.87,-7.74 -4,-6.08 -12.2,-11.86l12.2 -12.22c1.56,1.52 0.42,0.19 3.11,3.22l10.28 9.37c-2.18,1.13 -4.85,2.26 -6.93,4.09l-3.65 4.19c-0.26,0.31 -0.67,0.81 -0.9,1.09l-1.91 2.11zm23.53 -48.63c7.32,-4.69 8.59,-5.72 12.17,-13.06l6.56 7.63c3.23,3.11 4.62,3.48 7.36,5.98 -9.94,3.89 -6.66,5.48 -14.38,12.12 -3.08,-8.7 -4.05,-7.82 -11.7,-12.67zm-36.3 0.02c8.24,-5.27 6.8,-4.75 12.77,-12.29 4.23,5.04 7.98,8.44 13.15,12.65 -8.96,4.74 -7.83,5.87 -13.15,11.53 -6,-8.54 -4.16,-6.59 -12.77,-11.89zm12.77 61.17c0.33,0.34 0.8,0.44 0.94,1.07l5.53 6.28c2.9,2.61 5.91,4.22 10.83,4.46 11.36,0.57 14.3,-5.63 18.98,-12.06 2.91,2.91 15.76,22.1 31.43,7.28 3.98,-3.76 6.18,-10.36 4.79,-17.78 -1.56,-8.29 -6.13,-9.67 -12.06,-13.67l2.23 -1.91c15.17,-12.55 14.68,-23.51 -2.68,-35.01 8.69,-6.08 20.34,-15.76 8.69,-29.83 -6.72,-8.12 -19.04,-8.73 -26.46,-1.74 -2.3,2.17 -1.05,1.18 -2.61,3.12l-3.33 4.31c-4.01,-6.37 -8.23,-11.89 -17.19,-12.25 -12.34,-0.49 -13.97,6.32 -19.08,11.96 -6.09,-8.91 -10.19,-12.06 -22.83,-12.28 -46.14,-0.77 -152.03,2.57 -185.43,0.18 -16.79,-1.2 -26.19,-24.73 -41.57,-33.69 0.61,32.43 -2.05,70.08 -0.03,101.52 0.63,9.81 10.35,15.87 21.88,27.4 14.61,14.6 8.84,15.06 37.07,14.96 33.74,-0.11 67.51,0.45 101.19,0 16.48,-0.22 33.14,-0.03 49.64,-0 24.29,0.04 28.1,3.3 40.09,-12.34z"/>
   <path class="fil0" d="M300.21 348.53c7.35,-5.1 8.34,-5.47 12.2,-13.06l3.79 4.62c6.3,7.91 4.72,3.98 10.13,8.98 -9.78,3.43 -7.28,5.29 -13.37,11.58 -5.76,-8.92 -4.03,-7.01 -12.76,-12.12zm-36.36 0.08c7.8,-5.41 6.83,-4.85 12.84,-12.36 5.33,6.11 7.27,7.48 13.18,12.67 -8.64,4.1 -8.3,6.19 -13.18,11.44 -5.59,-8.18 -4.07,-7.22 -12.84,-11.76zm12.84 24.36l3.78 4.67c10.01,11.22 23.37,10.22 32.09,-5.73 7.76,8.63 17.68,20.36 31.23,7.98 13.22,-12.07 3.65,-24.44 -7.12,-31.5 10.85,-6.45 19.67,-18.82 7.81,-30.92 -3.83,-3.91 -9.78,-6.79 -16.8,-5.26 -7.02,1.52 -9.5,5.16 -12.26,8.74l-1.64 2.17c-0.17,0.22 -0.52,0.75 -0.83,1.07 -4.14,-6.68 -8.61,-12 -17.34,-12.38 -12.38,-0.54 -13.96,6.5 -18.94,12.08 -12.08,-18.22 -34.67,-12.42 -59.18,-12.42l-149.07 0.11c-16.23,-1.15 -24.87,-24.05 -41.6,-33.85 0.32,15.44 0.15,31.03 0.13,46.48 -0.02,24.52 -3.61,21.8 10.13,35.31 33.36,32.78 15.94,25.35 65.86,25.35l137.46 0c22.12,0.04 24.99,1.65 36.27,-11.89z"/>
   <polygon class="fil0" points="370.37,513.31 410.58,513.51 410.45,313.1 370.73,313.16 "/>
   <path class="fil1" d="M547.76 664.65c7.79,2.22 10.07,3.32 9.72,12.81 -9.54,0.3 -10.4,-0.9 -15.3,-5.81 2.86,-5.6 0.69,-3.48 5.58,-7zm-105.04 7.87c1.04,-12.78 10.3,-8.97 13.28,2.21l-13.28 -2.21zm168 -14.17c-9.48,-9.61 -9.28,-12 -28.5,-11.54l0.06 7.66c4.87,6.7 -2.78,1.54 8.66,4.86 7.45,2.16 13.8,8.47 17.84,15.81l-36.18 -1.19c-3.07,-1.38 -4.65,-12.61 -15.01,-17.97 -23.5,-12.16 -18.16,16.46 -36.68,19 -18.04,2.47 -10.49,4.13 -20.54,9.86 -1.85,-16.17 1.78,-29.92 -3.6,-32.95 -12.55,-7.08 -8.34,12.74 -10.84,21.71l-16.19 1.33c-4.23,-9.18 -4.34,-13.41 -11.67,-18.63 -6.71,-4.78 -16.27,-5.45 -22.09,0.91 -5.13,5.61 -6.09,15.26 -1.07,22.2 5.72,7.9 15.41,7.13 19.68,9.41 -7.29,13.91 -13.7,16.01 -28.86,22.47 1.86,5.58 2,7.1 6.08,10.98 16.28,-8.05 31.74,-15.22 37.05,-33.52l19.94 -2.01c4.82,16.8 11.69,21.07 27.4,28.48l4.14 -11.13c-7.15,-6.38 -10.08,-1.26 -11.05,-11.46 6.79,-5.89 6.02,-3.13 15.22,-4.5 5.12,-0.76 9.21,-3.67 11.98,-3.75 6.52,-0.19 11.15,9.41 24.12,3.87 10.34,-4.41 0.57,-4.17 13.19,-0.95 8.13,2.07 40.35,1.03 49.77,0.93l6.46 -8.97c-4.24,-8.24 -12.53,-14.07 -19.3,-20.94z"/>
   <path class="fil2" d="M474.66 398.17c17.39,-0.15 34.18,0.27 51.01,-0.61 18.09,-0.94 29.8,-5.07 30.7,-23.7 1.72,-35.42 -42.65,-26.93 -81.79,-26.97l0.08 51.28z"/>
   <path class="fil1" d="M200.91 624.02l-11.61 0.33c-0.48,12.97 3.43,34.37 -4.81,43.47l-22.31 -43.52 -9.66 5.69 21.28 44.96 -22.95 0.35c0.36,7.38 0.42,8.69 7.91,11.29 18.04,6.25 27.68,-3.25 35.86,-10.34 0.85,0.96 14.17,25.29 34.36,4.91 9.14,7.74 17.56,11.24 26.73,-0.11 38.81,22.15 36.04,-22.92 22.61,-31.75l-7.45 5.19c1.73,8.47 5.66,9.6 2.81,17.99 -7.46,2.73 -10.43,1.82 -12.8,-5.93 -3.91,-12.83 2.93,-13.93 -12.56,-13.7 -0.23,7.59 2.46,24.04 -9.01,20.35 -5.43,-1.74 -7.4,-14.44 -7.86,-19.2 -0.07,-0.73 -0.31,-0.94 -0.57,-1.34l-9.72 -0.11c-0.08,7 1.94,17.84 -3.51,21.29 -21.56,13.64 -16.07,-40.64 -16.73,-49.81z"/>
   <path class="fil1" d="M973.59 686.92c-3.44,-6.06 -14.98,-16.33 -20.25,-21.81 -9.32,-9.7 -7.81,-12.01 -26.96,-11.5l-0.37 12.09c10.67,0.26 16.89,0.52 26.47,15.93 -10.57,0.04 -28.38,2.63 -36.18,-2.17 -8.72,-6.04 -2.74,-12.09 -7.7,-19.94l-7.63 0.06c-0.26,0.47 -0.45,1.13 -0.55,1.52 -2.69,10.19 -0.01,14.74 -3.42,18.19 -18.55,10.8 -24.12,-10.85 -30.61,-21.06l-9.66 5.78c3.67,15.48 12.93,17.31 -1.43,30.65 -7.79,7.24 -17.34,10.3 -25.49,17.46l6.25 9.2c14.7,-6.26 32.43,-18.75 38.66,-32.01 13.34,7.28 21.99,10.07 33.89,-0.85 11.56,8.79 15.94,6.68 34.37,6.69 18.09,0.01 21.51,3.99 30.62,-8.23z"/>
   <path class="fil1" d="M123.9 664.65c7.6,1.98 10.37,3.37 9.53,12.52 -8.52,0.28 -9.78,-0.15 -14.89,-5.52 2.46,-5.87 0.18,-3.48 5.36,-7zm-11.39 18.52c41.17,20.43 41.03,-21.55 17.26,-28.92 -15.82,-4.9 -17.09,10.85 -24.67,17.61 -7.38,6.57 -30.4,1.99 -41.71,3.93l-2.15 9.78 22.38 7.09c-3.78,8.89 -18.86,12.8 -31.24,10.41 -15.76,-3.04 -12.94,-14.21 -12.37,-29.24l-10.13 -2.35c-16.17,67.04 64.83,50.12 67.27,16.97 7.53,-0.28 10.97,-2.83 15.39,-5.28z"/>
   <path class="fil1" d="M862.87 638.99l-4.48 -8.77c-10.91,2.25 -33.87,7.5 -40.48,13.74 -6.37,12.01 27.13,35 2.91,37.76 -5.98,0.68 -15.46,0.15 -19.93,-3.54 -2.85,-2.35 -4.46,-6.16 -6.61,-10.46l-4.18 -7.28c-0.16,-0.23 -0.75,-0.44 -0.87,-1.07 -0.12,-0.63 -0.58,-0.72 -0.91,-1.07l-9.5 5c4.26,13.85 12.67,19.89 -0.3,30.99 -8.18,7 -16.56,10.47 -25.65,17.52l4.38 10.02c9.18,-3.1 15.57,-8.39 23.5,-13.79 3.89,-2.65 6.98,-4.9 10.35,-8.81 3.86,-4.47 3.82,-5.96 6.94,-9.68 8.43,7.27 34.12,8.97 41.35,-1.28 9.96,-14.13 -7.14,-27.89 -8.97,-40.41l32.44 -8.89z"/>
   <path class="fil1" d="M377.8 659.5c2.35,-2.93 3.57,-5.47 5.4,-9.31 -9.46,-5.94 -18.29,-7 -28.04,0.67 -8.77,6.89 -13.13,14.39 -9.79,27.03 5.2,2.82 5.13,2.94 13.2,3.94 6.93,0.85 8.65,-0.43 13.2,3.07 -6.42,6.46 -17.79,11.81 -32.2,10.26 -15.76,-1.69 -13.29,-14.85 -12.61,-28.98l-10.32 -2.25c-19.86,73.39 82.75,41.9 65.27,11.72 -5.83,-9.51 -11.17,-3.44 -26.28,-8.38 4.33,-9.96 12.73,-11.7 22.17,-7.78z"/>
   <path class="fil1" d="M702.03 659.76c2.13,-3.37 3.76,-5.71 4.2,-10.82 -30.79,-12.1 -57.23,29.18 -23.57,32.84l10.89 2.48c0.25,-0.43 0.96,0.43 1.38,0.76 -6.68,7.82 -20.8,12.71 -34.33,9.65 -13.65,-3.1 -10.09,-15.15 -9.87,-28.42l-9.41 -1.79c-9.04,15.93 -3.19,54.52 40.92,42.35 12.09,-3.33 23.3,-11.33 25.24,-22.59 2.91,-16.83 -15.36,-14 -28.03,-16.3 3.52,-10.86 11.7,-12.61 22.57,-8.16z"/>
   <path class="fil2" d="M845.15 434.29l54.24 0.33 -22.55 -63.4c-0.67,-1.82 -0.94,-2.74 -1.59,-4.18 -2,-4.34 -0.89,-2.35 -2.92,-5.07l-27.18 72.31z"/>
   <path class="fil1" d="M385.51 709.69c9.93,-2.74 27.9,-16.83 33.52,-23.64 10.9,-13.2 6.41,-28.59 -3.19,-40.01l-9.58 6.52c8.46,14.18 9.2,19.97 -1.67,30.47 -6.63,6.4 -19.16,11.22 -24.85,17.39l5.78 9.27z"/>
   <path class="fil1" d="M729.46 654.66c12.43,26.12 10.37,23.68 -26,47.94l6.52 10.43c47.9,-30.59 44,-31.98 30.57,-65.07l-11.1 6.7z"/>
   <path class="fil1" d="M606.96 598.19c0.26,-0.5 0.56,-1.83 0.64,-1.57 0.07,0.26 0.47,-1.17 0.56,-1.61 0.54,-2.59 0.63,-2.41 0.83,-5.35 0.17,-2.41 -0.07,-7 -0.1,-9.64 -0.07,-6.33 -0.07,-12.61 0.19,-18.94l20.29 28.91c3.74,5.81 2.88,6.6 10.04,8.13 1.2,-2.42 0.46,2.07 1.56,-4.83l0.49 -34.51c-0.29,-10.48 1.24,-7.09 -3.96,-9.21 -3.33,5.2 -1.91,29.28 -1.87,36.96l-14.98 -20.19c-5.04,-7.5 -7.33,-16.3 -17.35,-16.69l0.08 43.72c1.64,5.63 -1.03,2.22 3.57,4.81z"/>
   <path class="fil1" d="M358.64 554.8c8.41,-0.07 22.88,-2.5 25.95,5.28 3.95,10 -8.05,11.12 -16.27,11.15l-1.91 0.02 -7.78 -0.11 0 -16.33zm-3.68 43.48c5.98,-3.64 2.67,6.14 3.91,-21.87 30.2,-0.5 15.04,19.46 35.43,21.89l-15.1 -22.76c17.43,-4.18 12.44,-17.77 8.06,-22.07 -6.63,-6.51 -24.77,-3.8 -34.33,-3.96l-0.12 42.03c1.23,8.59 -1.65,-5.42 0.8,3.51 0.15,0.56 0.5,1.19 0.65,1.63 0.14,0.44 0.43,1.09 0.72,1.59z"/>
   <path class="fil0" d="M908.47 489.86c-0,1.48 0.14,4.65 -0.14,6.07 -1.2,6.08 -0.51,2.21 -1.64,4.43l-5.85 0.18c2.51,-5.61 3.22,-7.55 7.63,-10.68zm-37.3 -2.24c10.66,0.02 0.13,-2.82 12.76,-3.3 -0.39,14.41 -1.37,0.86 -5.38,11.69 6.9,3.21 9.22,0.55 5.93,10.22l-5.69 0.83c-10.58,-2.13 4.7,-1.9 -8.68,-3.28 2.14,11.15 11.3,15.62 23.21,1.05l13.35 1.6c5.44,8.59 -2.21,3.67 5.74,6.63 0.26,-0.37 0.56,-1.44 0.66,-1.17 0.11,0.28 0.52,-0.94 0.68,-1.18l5.31 -7.07c-10.55,-14.69 -2.95,-3.52 -4.77,-19.09l-1.88 -6.42c-7.57,2.48 -1.22,-1.4 -6.16,4.12 -1.84,2.05 -2.57,3.89 -3.79,5.73 -1.35,2.04 -2.71,4.04 -3.82,5.63l-4.34 5.92c-0.22,0.29 -0.65,0.83 -0.98,1.24 -0.32,-0.42 -0.79,-1.61 -0.99,-1.25l-5.05 -3.71c1.46,-4.41 7.33,-11.48 -0.75,-16.02 -7.65,-4.3 -15.27,-0.23 -15.37,7.8z"/>
   <polygon class="fil1" points="757.17,688.03 768.78,687.94 768.72,624.11 756.77,624.93 "/>
   <polygon class="fil1" points="294.3,688.37 305.47,688.46 305.38,624.03 293.84,624.06 "/>
   <path class="fil1" d="M244.24 598.14c8.55,-5.81 -3.41,-28.15 10.16,-30.83 15.23,-3.02 3.94,23.13 10.84,30.83 7.13,-4.18 1.5,1.02 3.19,-20.17 0.86,-10.78 5.28,-11.76 14.02,-9.44 2.09,8.2 -1.56,23.78 3.8,29.61 4.84,-3.07 3.16,-1.58 3.24,-10.33 0.04,-4.25 0.24,-12.73 -0.39,-16.6 -1.79,-11.02 -14.18,-12.05 -19.08,-3.65 -5.55,-2.83 -7.85,-6.37 -15.89,-4.43 -4.33,1.04 -3.89,2.74 -6.89,2.16 -0.28,-0.05 -0.81,-0.32 -1.09,-0.41 -0.34,-0.11 -0.94,-0.47 -1.27,-0.6l-2.96 -1.44c-0.24,9.18 -3.33,29.24 2.33,35.31z"/>
   <path class="fil1" d="M832.57 569.79c6.78,21.41 -8,30.99 -15.52,19.7 -5.99,-8.98 -2.09,-28.3 15.52,-19.7zm1.74 25.11c-1.28,23.7 -14.63,8.89 -23.5,6.34 1.61,18.63 23.39,10.43 26.8,5.15 4.37,-6.78 2.38,-33.81 2.21,-43.48 -7.96,1.5 -3.11,2.19 -6.91,1.87 -3.71,-0.31 -2.47,-2.46 -10.09,-2.1 -7.57,0.36 -11.59,5.71 -12.97,12.23 -3.9,18.41 8.12,27.47 24.46,19.98z"/>
   <path class="fil1" d="M786.16 556.3c4.28,4.98 7.16,14.52 9.4,21.97l-16.42 -0.26 7.02 -21.71zm-18.83 41.73c7.58,-2.01 7.5,-7.09 9.31,-14.57l21.6 -0.05c5.22,17.99 3.41,13.11 9.18,14.84 0.68,-1.51 4.43,2.12 -1.96,-12.34 -1.78,-4.02 -3.32,-7.83 -5.03,-12.24 -1.74,-4.5 -3.25,-7.89 -4.96,-12.22 -2.54,-6.41 -2.89,-10.9 -7.53,-11.67 -5.91,-0.98 -5.47,2.81 -7.61,8.87 -2.3,6.5 -14.89,33.83 -12.99,39.38z"/>
   <path class="fil1" d="M690.96 598.21c3.56,-1.59 3.51,2.11 6.83,-11.42 1.2,-4.93 2.24,-10.05 4.38,-13.83 3.21,6.99 3.12,19.68 9.8,25.33 6.57,-3.89 1.49,3.45 8.54,-17.43 2.94,-8.69 6.09,-13.2 2.92,-18.04 -6.81,4.05 -3.85,9.81 -10.68,25.83 -3.35,-7.54 -3.36,-21.76 -10.32,-25.81 -7.68,4.34 -6.76,19.89 -11.18,26.54 -5.59,-23.81 -5.08,-26.48 -12.88,-25.81 1.73,5.1 3.22,10.9 4.96,16.46l7.65 18.17z"/>
   <path class="fil1" d="M440.98 593.12c-6.41,-10.15 -6.57,-18.28 1.83,-26.08 10.27,-0.51 13.94,3.98 13.29,14.77 -0.63,10.42 -4.35,12.83 -15.12,11.31zm-5.83 18.57c3.02,-4.41 1.82,-10.04 1.9,-16.43 30.25,14.38 31.38,-29.47 13.08,-32.45 -10.1,-1.65 -7.4,3.22 -13.51,1.93 -0.02,-0 -2.24,-1.33 -5.08,-1.71l-0.24 40.11c0.25,8.93 -1.5,6.65 3.85,8.55z"/>
   <path class="fil1" d="M653.55 577.06c-1.14,-9.39 3.31,-10.09 12.69,-9.97 5.22,4.68 5.82,2.51 4.91,9.98l-17.6 -0.01zm24.17 10.52c-11.93,0.63 -2.06,0.42 -9.17,4.51 -9.09,5.23 -14.59,0.18 -16.44,-10.34l26.01 0.06c-0.27,-11.06 -2.56,-17.53 -12.19,-19.02 -24.38,-3.78 -25.73,30.63 -8.38,35.43 11.55,3.19 17.81,-2.31 20.16,-10.63z"/>
   <path class="fil1" d="M213.25 591.89c-3.77,-8.77 2.35,-10.26 17.12,-10.24 -1.31,14.49 -9.98,14.67 -17.12,10.24zm-6.44 -20.1c6.3,2.54 4.65,0.25 10.15,-4.8 9.85,-0.19 10.91,-1.2 13.28,7.3 -7.46,6.65 -13.52,0.69 -23.92,9.65l-0.41 10.11c4.91,3.09 8.27,5.57 14.72,4.35 3.67,-0.69 5.53,-2.43 8.36,-2.43 4.24,0.01 2.64,1.32 6.86,2.18 1.44,-10.67 0.39,-25.59 -2.36,-33.69 -13.65,-3.81 -20.31,-3.85 -26.69,7.32z"/>
   <path class="fil1" d="M125.55 576.59l-7.31 0.74 -5.74 -0.13 -7.17 -0.65c4.17,-13.45 16.89,-13.33 20.21,0.03zm5.51 11.59c-13.08,-1.27 -2.06,7 -20.91,5.19 -2.67,-3.26 -4.34,-5.49 -5.11,-11.44l26.31 -0.21c-0.28,-32.68 -41.62,-20.57 -30.59,8.16 4.74,12.35 23.61,12.81 30.3,-1.7z"/>
   <path class="fil1" d="M849.67 576.69c3.68,-13.78 16.44,-13.27 20.15,0.19l-20.15 -0.19zm25.66 11.78c-9.19,-1.72 -21.91,17.82 -25.91,-6.63l26.36 -0.14c-0.68,-27.04 -28.92,-23.72 -31.82,-5.22 -3.54,22.56 20,31.84 31.37,12z"/>
   <path class="fil1" d="M420.65 576.85c-7.22,0.39 -24.83,2.95 -16.44,-6.5 5.93,-6.68 17.53,-3.86 16.44,6.5zm6.57 11.08c-7.83,-0.14 -21.95,17.75 -26.03,-5.77l26.21 -0.44c-0.27,-27.05 -23.66,-19.8 -28.57,-13.19 -16.42,22.11 19.43,45.21 28.39,19.4z"/>
   <path class="fil1" d="M509.52 593.24c-7.83,-12.01 -3.77,-32.61 9.74,-24.98 4.68,2.64 6.49,9.72 5.04,16.93 -1.67,8.37 -5.97,9.05 -14.78,8.05zm-9.53 4.83l6.04 -1.62c0.33,-0.01 0.9,-0.01 1.24,0.02 0.33,0.03 0.86,0.17 1.19,0.24 0.01,0 17.93,8.72 21.55,-11.57 3.22,-18.09 -10.34,-27.78 -23.81,-19.14 -2.64,-21.08 2.6,-13.5 -4.22,-16.43l-1.98 48.5z"/>
   <path class="fil1" d="M70.51 598.21c0.25,-0.5 0.61,-1.8 0.69,-1.55 0.08,0.26 0.52,-1.15 0.61,-1.59 2.25,-11.14 -3.3,-28.2 10.09,-27.98 11.33,0.19 7.18,14 7.64,22.68 0.65,12.49 -0.92,5.57 3.88,8.42 2.82,-5.64 2.02,-11.45 1.95,-18.26 -0.17,-17.98 -7.02,-21.26 -22.62,-13.69 -0.47,-6.81 0.83,-11.89 -2.24,-16.69 -6.08,2.69 -3.65,0.41 -3.63,22.81 0.01,14.74 -2.24,22.26 3.63,25.83z"/>
   <path class="fil1" d="M164.61 575.76c8.8,10.45 21.4,3.75 21.35,14.53 -3.71,3.72 -5.73,5.13 -11.77,2.94 -9.59,-3.47 1.5,-4.09 -10.58,-5.71 4.17,15.98 24.39,13.44 27.85,4.51 2.83,-7.33 -1.3,-11.27 -7,-13.36 -11.39,-4.19 -11.43,0.08 -14.47,-8.2 9.31,-10.08 10.28,1.18 20.67,1.8 -1.95,-7.89 -5.74,-10.36 -15.13,-9.75 -9.26,0.6 -11.33,4.11 -10.93,13.24z"/>
   <path class="fil1" d="M748.26 591.73c-3.5,1.64 -7.19,3.63 -12.78,1.28 -9.57,-4.01 4.24,-5.15 -9.91,-5.12 2.42,7.87 3.77,11.3 14.95,10.93 9.98,-0.33 14.12,-4.87 13.04,-14.99 -8.7,-8.39 -16.2,-4.95 -21.78,-11.64 5.58,-12.37 12.3,-1.15 21.12,0.3 -4.63,-16.59 -24.64,-10.7 -25.96,-1.8 -2.52,16.99 20.21,4.8 21.32,21.04z"/>
   <path class="fil0" d="M852.34 483.97c5.38,0.67 8.48,0.2 8.52,6.38 0.05,6.05 -2.83,5.47 -8.83,5.93l0.31 -12.31zm-5.49 14.96l10.96 2c3.51,0.43 1.1,-0.26 3.2,0.81l-1.8 6.02c-12.51,-0.11 -1.61,-2.59 -13.45,-2.2 3.15,8.44 4.87,8.24 15.47,7.39 9.12,-10.76 9.59,-22.82 0.31,-33.95 -16.09,-1.65 -18.09,6.42 -14.69,19.93z"/>
   <path class="fil1" d="M494.15 597.66c-0.11,-6.53 -0.17,-13.06 -0.07,-19.59 0.28,-19.97 0.64,-13.22 -3.56,-15.19 -6.59,9.85 6.12,34.62 -16.51,29.76 -2.13,-3.86 -2.87,-8.39 -2.81,-14.5 0.19,-20.41 1.04,-13.22 -3.58,-15.23 -1.88,2.96 -9.3,44.19 15.77,34.54 7.66,-2.95 1.73,-0.63 10.78,0.2z"/>
   <path class="fil1" d="M943.8 608.65c7.84,13.18 15.48,-8.66 18.07,-15.5 3.69,-9.74 7.34,-20.17 10.93,-29.62 -8.03,-0.48 -6.46,1.93 -9.24,10.37 -2.12,6.44 -3.84,9.69 -5.25,16.11 -0.32,-0.38 -0.81,-1.47 -0.93,-1.17l-2.86 -5.11c-1.1,-2.61 -1.98,-5.47 -2.95,-8.45 -3.07,-9.49 -0.85,-12.07 -10.13,-12.08 2.65,8.15 13.34,32.61 12.41,37.33 -1.56,7.94 -5.13,4.71 -10.04,8.12z"/>
   <path class="fil1" d="M881.87 598.22c5.38,-3.35 2.5,3.48 3.79,-6.55 0.94,-7.34 -4.11,-22.84 8.2,-24.43 7.06,-0.91 8.63,4.22 9,10.76 0.43,7.5 -1.65,13.35 1.92,20.24 5.33,-3.43 2.46,3.24 3.76,-6.57 0.99,-7.47 -0.48,-21.56 -3.02,-27.25 -13.03,-3.8 -16.2,0.91 -19.55,0.65 -0.01,0 -4.35,-1.81 -5.94,-2.13l0.09 30.46c1.56,8.46 -0.19,1.03 1.75,4.84z"/>
   <path class="fil2" d="M440.98 593.12c10.78,1.52 14.5,-0.89 15.12,-11.31 0.65,-10.79 -3.02,-15.28 -13.29,-14.77 -8.4,7.8 -8.24,15.93 -1.83,26.08z"/>
   <path class="fil2" d="M832.57 569.79c-17.61,-8.6 -21.5,10.72 -15.52,19.7 7.52,11.29 22.3,1.7 15.52,-19.7z"/>
   <path class="fil2" d="M509.52 593.24c8.81,1 13.11,0.31 14.78,-8.05 1.44,-7.2 -0.37,-14.29 -5.04,-16.93 -13.5,-7.63 -17.56,12.97 -9.74,24.98z"/>
   <path class="fil1" d="M942.44 586.26c-12.76,-0.15 -0.6,5.8 -12.95,7.5 -7.79,1.07 -11.08,-5.06 -11.47,-11.89 -0.45,-7.92 1.92,-13.56 8.41,-14.69 10.04,-1.74 5.04,5.13 13.91,6.21 2.63,-19.78 -38.49,-12.74 -26.52,16.74 5.27,12.97 25.5,11.75 28.61,-3.88z"/>
   <path class="fil1" d="M26.15 551.38c2.46,4.64 -0.29,3.47 15.91,3.58l-0.21 34.8c0.68,12.04 -0.98,5.42 3.83,8.54l2.5 -42.74c19.56,-2.56 13.39,2.54 16.26,-4.17 -4.34,-2.69 -21.07,-2.07 -28.42,-1.92l-9.87 1.92z"/>
   <path class="fil2" d="M358.64 571.13l7.78 0.11 1.91 -0.02c8.22,-0.03 20.22,-1.15 16.27,-11.15 -3.07,-7.77 -17.55,-5.34 -25.95,-5.28l0 16.33z"/>
   <path class="fil1" d="M308.1 565.56c-12.34,42.09 23.31,39.78 26.25,20.28 -12.66,2.18 -1.59,9.6 -19.61,7.4 -4.66,-6.78 -4.76,-10.32 -3.57,-21.34 17.02,-12.09 11.78,1.37 21.72,1.3 1.16,-12.21 -16.1,-12.38 -24.79,-7.64z"/>
   <path class="fil1" d="M585.36 586.34c-11.72,-0.4 -1.7,1.92 -9.88,6.37 -5.62,3.06 -11.21,0.11 -13.23,-4.22 -5.04,-10.81 2.2,-24.95 12.45,-21.48 7.42,5.83 0.39,5.46 8.62,6.39 2.3,-15.97 -29.11,-16.83 -27.98,8.51 0.91,20.44 25.75,23.28 30.03,4.43z"/>
   <path class="fil2" d="M326.54 479.35l-13.87 -13.82c-5.67,10.11 -4.96,6.28 -11.94,13.3 8.1,5.8 6.34,3.89 12.24,12.09l13.57 -11.57z"/>
   <path class="fil2" d="M278.6 488.57c0.24,-0.28 0.64,-0.78 0.9,-1.09l3.65 -4.19c2.08,-1.82 4.75,-2.96 6.93,-4.09l-10.28 -9.37c-2.7,-3.04 -1.56,-1.71 -3.11,-3.22l-12.2 12.22c8.2,5.78 6.33,4.12 12.2,11.86l1.91 -2.11z"/>
   <path class="fil1" d="M156.42 598.22c0.65,-1.24 1.35,-1.44 1.87,-4.78l0.18 -38.32c-1.19,-9.68 0.28,-2.06 -2.05,-5.56 -6.13,2.41 -3.87,-1.5 -3.85,22.82l-0.05 21.2c1.54,5.85 -0.59,2.23 3.9,4.63z"/>
   <path class="fil2" d="M300.22 442.06c7.65,4.85 8.62,3.96 11.7,12.67 7.72,-6.65 4.44,-8.23 14.38,-12.12 -2.74,-2.5 -4.13,-2.87 -7.36,-5.98l-6.56 -7.63c-3.57,7.33 -4.84,8.37 -12.17,13.06z"/>
   <path class="fil1" d="M198.42 598.14c5.65,-3.37 3.2,-2.2 3.2,-23.85 -0,-16.69 2.53,-21.46 -3.2,-24.8 -2.07,2.62 -1.26,-0.67 -2.21,3.93 -0.34,1.64 -1.77,40.33 2.21,44.72z"/>
   <path class="fil2" d="M263.92 442.08c8.61,5.31 6.78,3.35 12.77,11.89 5.31,-5.66 4.19,-6.79 13.15,-11.53 -5.17,-4.2 -8.92,-7.61 -13.15,-12.65 -5.97,7.54 -4.53,7.02 -12.77,12.29z"/>
   <path class="fil2" d="M263.85 348.61c8.77,4.54 7.25,3.57 12.84,11.76 4.88,-5.25 4.54,-7.34 13.18,-11.44 -5.91,-5.19 -7.85,-6.57 -13.18,-12.67 -6.02,7.5 -5.04,6.95 -12.84,12.36z"/>
   <path class="fil2" d="M300.21 348.53c8.73,5.11 7,3.2 12.76,12.12 6.09,-6.3 3.58,-8.15 13.37,-11.58 -5.41,-5 -3.83,-1.06 -10.13,-8.98l-3.79 -4.62c-3.87,7.59 -4.85,7.96 -12.2,13.06z"/>
   <path class="fil1" d="M536.33 598.31c5.02,-3.7 3.52,-0.86 3.53,-10.55l-0.07 -26.93c0.1,-8.99 1.91,-8.54 -3.46,-11.32 -1.61,2.27 -1.2,-0.29 -1.98,3.91l-0.23 32.34c-0.11,15.41 0.96,10.31 2.21,12.55z"/>
   <path class="fil1" d="M819.26 631.78c5.22,6.81 8.01,3.1 17.38,0.39 6.73,-1.95 13.7,-3.25 18.72,-6.33 -2.92,-8.33 -6.01,-4.16 -16.69,-1.23 -7.12,1.96 -15.09,3.03 -19.41,7.18z"/>
   <path class="fil1" d="M53.32 657.57c3.92,-5.83 0.03,-11.64 0.11,-19.57 10.28,-2.84 14.47,2.13 12.88,-11.8 -3.71,3.58 -1.87,1.33 -2.68,7.28 -8.07,-3.84 -1.02,0.2 -6.44,-7.23l-3.87 7.29c-5.48,-3.58 -2.82,-3.41 -7.56,-7.63 -1.57,4.51 7.13,31.08 7.56,31.67z"/>
   <path class="fil1" d="M99.14 657.56c3.85,-6.2 -0.06,-11.61 -0.02,-19.57 10.2,-3.08 14.4,2.05 12.94,-11.71 -3.93,3.13 -0.07,3.57 -5.28,6.87l-3.19 -7.05c-1.89,2.07 -0.21,2.54 -4.44,7.44 -5.96,-3.42 -2.53,-2.54 -7.63,-7.65 -1.61,4.52 6.75,30.59 7.63,31.67z"/>
   <path class="fil2" d="M779.14 578.01l16.42 0.26c-2.24,-7.45 -5.12,-16.99 -9.4,-21.97l-7.02 21.71z"/>
   <path class="fil2" d="M213.25 591.89c7.14,4.44 15.81,4.25 17.12,-10.24 -14.78,-0.02 -20.89,1.46 -17.12,10.24z"/>
   <path class="fil1" d="M547.78 598.21c4.96,-3.07 3.61,5.94 3.61,-18.2 0,-22.02 1.3,-14.93 -3.61,-17.1 -0.25,0.38 -0.67,0.48 -0.73,1.15l-1.2 15.95c0,7.67 -1.22,12 1.93,18.2z"/>
   <path class="fil2" d="M420.65 576.85c1.09,-10.36 -10.51,-13.18 -16.44,-6.5 -8.39,9.45 9.22,6.89 16.44,6.5z"/>
   <path class="fil2" d="M653.55 577.06l17.6 0.01c0.91,-7.48 0.3,-5.31 -4.91,-9.98 -9.37,-0.12 -13.83,0.58 -12.69,9.97z"/>
   <path class="fil1" d="M297.69 598.37l2.82 -28.05c-0.89,-11.38 -0.16,-4.41 -2.82,-7.49 -5.04,3.43 -2.91,9.67 -2.91,17.18 0,8.22 -2.05,13.56 2.91,18.36z"/>
   <path class="fil2" d="M125.55 576.59c-3.32,-13.37 -16.04,-13.48 -20.21,-0.03l7.17 0.65 5.74 0.13 7.31 -0.74z"/>
   <path class="fil2" d="M849.67 576.69l20.15 0.19c-3.7,-13.46 -16.47,-13.97 -20.15,-0.19z"/>
   <path class="fil2" d="M542.18 671.65c4.9,4.91 5.76,6.11 15.3,5.81 0.35,-9.49 -1.93,-10.58 -9.72,-12.81 -4.9,3.52 -2.72,1.39 -5.58,7z"/>
   <polygon class="fil1" points="775.19,652.41 787.37,652.8 787.28,640.96 775.21,641.24 "/>
   <polygon class="fil1" points="925.94,642.89 937.83,643.12 937.91,631.3 925.87,631.52 "/>
   <path class="fil2" d="M118.54 671.65c5.11,5.37 6.37,5.8 14.89,5.52 0.84,-9.15 -1.93,-10.54 -9.53,-12.52 -5.18,3.53 -2.9,1.13 -5.36,7z"/>
   <polygon class="fil1" points="588.25,709.82 600.46,709.11 600.57,698.52 588.22,698.6 "/>
   <path class="fil1" d="M36.14 657.54c4.36,-4.89 1.41,-17.46 -1.17,-24.75 -2.19,-6.19 -1.2,-4.02 -5.15,-6.82 -1.93,5.45 0.94,7.37 2.77,14.76 1.52,6.15 0.98,12.72 3.54,16.81z"/>
   <polygon class="fil1" points="899.94,716.67 910.81,716.97 910.81,705.2 899.58,705.11 "/>
   <path class="fil1" d="M81.96 657.59c5.73,-7.25 -0.79,-27 -5.73,-31.18 -3.25,5.35 0.49,6.91 2.26,14.37 1.45,6.12 0.54,12.43 3.47,16.8z"/>
   <path class="fil2" d="M442.72 672.52l13.28 2.21c-2.98,-11.18 -12.24,-14.98 -13.28,-2.21z"/>
   <path class="fil1" d="M297.69 556.26c6.58,-6.84 0.71,-5.93 0,-6.77 -5.23,3.48 -4.38,3.59 0,6.77z"/>
   <path class="fil1" d="M547.78 556.32c3.59,-2.28 2.91,2.83 3.19,-3.15 0.31,-6.77 0.49,-1.95 -3.19,-3.63l0 6.77z"/>
  </g>
 </g>
</svg>
