<?xml version="1.0" encoding="UTF-8"?>
<!DOCTYPE svg PUBLIC "-//W3C//DTD SVG 1.1//EN" "http://www.w3.org/Graphics/SVG/1.1/DTD/svg11.dtd">
<!-- Creator: CorelDRAW 2020 (64-Bit) -->
<svg xmlns="http://www.w3.org/2000/svg" xml:space="preserve" width="1in" height="1in" version="1.1" style="shape-rendering:geometricPrecision; text-rendering:geometricPrecision; image-rendering:optimizeQuality; fill-rule:evenodd; clip-rule:evenodd"
viewBox="0 0 1000 1000"
 xmlns:xlink="http://www.w3.org/1999/xlink"
 xmlns:xodm="http://www.corel.com/coreldraw/odm/2003"
 xmlns:dc="http://purl.org/dc/elements/1.1/"
 xmlns:cc="http://creativecommons.org/ns#"
 xmlns:rdf="http://www.w3.org/1999/02/22-rdf-syntax-ns#"
 xmlns:svg="http://www.w3.org/2000/svg"
 xmlns:sodipodi="http://sodipodi.sourceforge.net/DTD/sodipodi-0.dtd"
 xmlns:inkscape="http://www.inkscape.org/namespaces/inkscape"
 inkscape:version="0.48.4 r9939"
 sodipodi:docname="IRI.NAJA.FATA (New).svg">
 <defs>
  <style type="text/css">
   <![CDATA[
    .fil0 {fill:#4D4D4D}
   ]]>
  </style>
 </defs>
 <g id="Layer_x0020_1">
  <metadata id="CorelCorpID_0Corel-Layer"/>
  <sodipodi:namedview id="base" pagecolor="#ffffff" bordercolor="#666666" borderopacity="1.0" inkscape:pageopacity="0.0" inkscape:pageshadow="2" inkscape:zoom="0.175" inkscape:cx="-153.67852" inkscape:cy="901.82896" inkscape:document-units="px" inkscape:current-layer="layer1" showgrid="false" inkscape:window-width="1280" inkscape:window-height="962" inkscape:window-x="-8" inkscape:window-y="-8" inkscape:window-maximized="1"/>
  <g id="_2355661075008">
   <path class="fil0" d="M218.35 259.76l2.49 0.34 0.22 1.2c2.51,0.77 1.37,0.01 2.04,3.19 0.32,1.52 0.69,2.37 0.99,3.81 0.83,3.98 -0.78,3.67 -0.67,7.8 0.47,2.37 0.21,2.86 0.91,4.89 0.3,0.85 0.19,0.26 0.77,1.92 0.3,0.87 0.44,1.53 0.7,2.4 2.96,1.13 2.01,0.05 3.32,3.12 1.09,2.56 0.47,1.71 0.98,4.54l2.98 8.2c1.61,2.55 0.13,1.66 2.98,6 0.77,1.17 0.77,1.2 1.43,2.63 0.1,0.23 0.6,1.33 0.63,1.41 0.3,0.8 0.37,0.14 0.64,2.15l0.13 1.82c5.37,1.08 2.78,1.8 4.54,5.1 1.74,3.28 2.52,-1.1 2.41,7.3 2.24,2.35 1.95,3.8 3.56,7.58l2.84 5.27c3.48,2.08 4.37,1.49 5.61,5.88 2.1,7.44 3.6,1.83 3.01,8.37 3.78,2.22 3.07,1.17 4.92,5.43 0.57,1.32 0.74,1.91 1.52,3.22 1.18,2 1.31,1.36 1.88,3.61 3.04,2.37 0.04,2.17 4.57,2.82 0.62,4.47 2.38,7.38 5.88,8.95l-0.02 3.74 0.85 0.35c2.91,1.06 1.44,0.06 2.72,1.22 1.5,1.37 0.37,1.34 2.43,3.69 1.01,1.15 1.78,2.02 2.88,3.22 1.57,1.71 1.48,1.06 3.06,3.21 2.91,2.92 3.99,0.22 6.3,4.28 1.61,2.82 0.38,1.74 1.3,4.22 1,2.7 -0.04,0.61 2.26,2.44l2.12 1.43c1.68,1.13 1.28,0.51 1.55,3.72 1.82,2.63 2.16,5.08 4.59,6.96 1.3,1 1.12,0.66 1.7,1.03 2,1.28 1.56,-0.43 1.87,2.5 4.11,0.66 4.64,2.71 8.86,6.44l8.95 6.12 -0.76 5.41c0.11,0.11 0.29,0.11 0.34,0.3l10.39 11.35 0.61 0.61 2.46 0.24 0.11 2.02 0.44 1.49c7.89,-0.09 4.86,3.73 12.55,8.41l0.13 3.36c3.69,1.02 2.4,3.11 4.62,5.49 1.73,1.87 3.2,1.26 6.17,4.06 1.66,0.4 1.91,0.65 3.19,1.44 2.74,1.68 0.7,-0.24 2.63,2.82l2.99 4.86c2.17,-0.54 1.39,-0.67 4.37,-0.62 1.58,4.3 2.44,3.49 2.35,9.72 3.98,0 5.4,1.29 7.25,3.65 0.86,1.09 1.74,2.28 2.23,3.2 1.54,2.89 -0.38,2.53 2.78,3.28 4.31,2.57 0.55,1.24 6.63,2.88 3.15,0.85 2.26,2.22 4.54,4.94 4.66,5.54 4.27,1.5 7.47,6.85 0.53,0.9 0.04,0.13 0.75,1.23 2.02,3.13 -0.53,-1.49 0.75,1.07 1.61,0.95 2.57,1.19 3.71,2.57 0.97,1.19 1.48,2.37 2.56,3.53 2.11,2.27 4.8,3.61 6.78,6.24l3.14 0.34 2.28 0.45c1.51,2.02 2.56,2.38 3.8,5.13 3.26,0.02 6.8,4.87 6.85,8.84l12.2 10.35c0.13,0.14 0.5,0.57 0.62,0.71l0.61 0.67c0.06,0.07 0.2,0.23 0.3,0.33 2.83,1.86 2.38,1.11 5.93,2.35 3.07,1.06 1.75,2.49 4.4,3.83 1.27,0.64 2,0.39 2.87,1.14 1.72,1.48 0.56,1.14 1.48,2.58 2,3.11 2.13,-0.07 2.37,5.82 1.63,0.47 2.07,0.8 3.09,2.22 2.76,3.83 -1.88,-0.38 3.91,4.23 2.02,1.61 0.73,1.36 4.41,3.67 1.94,1.7 1.9,0.67 3.61,1.87 2.06,1.44 0.38,1.35 2.91,3.18 2.85,2.05 1.15,-2.07 4.46,7.69 5.97,0.59 3.94,-0.78 6.15,3.57 2.67,0.83 3.76,3.31 5.91,4.74 3.69,-3.5 2.71,-9.23 2.71,-14.23 0,-14.78 0.78,-95.57 -0.04,-101.59 -0.5,-3.65 -4.85,-7.3 -7.87,-9.06 -2.68,-1.57 -2.38,-1.74 -4.44,-3.69 -4.77,-4.53 -3.21,-0.84 -8.91,-8.02 -2.51,-3.16 -6.37,-4.85 -8.83,-8.11 -1.82,-2.42 -14.33,-11.81 -18.19,-15.69 -4.91,-4.93 -11.2,-9.25 -15.61,-14.2 -3.31,-3.72 -7.59,-6.17 -11.13,-9.88l-13.86 -11.89c-1.82,-1.21 -3.2,-1.91 -4.72,-3.41 -0.72,-0.71 -0.3,-0.36 -0.99,-1.04 -0.36,-0.36 -0.72,-0.69 -1.05,-0.98 -8.28,-7.6 -5.03,-4.25 -11.89,-9.8 -6.26,-5.07 -4.62,-6.29 -8.71,-8.23 -3.04,-1.44 -4.35,-3.35 -6.78,-5.42 -1.08,-0.92 -1.51,-1.25 -2.62,-2.12 -3.8,-2.96 -5.64,-4.64 -9,-7.93 -2.28,-2.23 -2.46,-1.73 -4.92,-3.21 -2.48,-1.5 -2.49,-2.44 -4.26,-4.54 -2.54,-3.01 -6.7,-5.01 -9.48,-7.45 -0.89,-0.78 -1.21,-1.27 -1.96,-2.11 -3.31,-3.7 -7.68,-6.38 -11.13,-9.87l-17.26 -16.63c-1.3,-1.64 -3.31,-2.32 -4.89,-3.92l-12.52 -12.54c-1.89,-1.67 -2.94,-2.07 -4.75,-4.06 -5.38,-5.89 -10.61,-11.89 -16.81,-17.06 -4.24,-3.54 -12.23,-14.6 -14.43,-19.45 -4.36,-9.62 -6.4,-13.39 -10.17,-23.71 -5.78,-15.78 -4.25,-20.16 -5.57,-23.56 -0.07,-0.19 -0.13,-0.03 -0.6,-1.43 -0.15,-0.44 -0.48,-1.98 -0.51,-2.2 -0.8,-5.37 -0.57,-10.54 -1.79,-15.19 -0.99,-3.78 0.7,-28.04 1.22,-30.44 2.43,-11 4.26,-22.08 9.96,-32.06l7.48 -13.52c0.61,-0.75 1.42,-2.02 1.94,-2.8 5.25,-8.01 8.38,-11.38 15.4,-18.48 5.48,-5.55 12.5,-10.62 18.18,-15.7 1.07,-0.96 3.77,-2.2 5.25,-2.88l8.65 -4.22c1.56,-0.7 1.54,-0.78 2.76,-1.3l15.63 -5.37c4.74,-1.33 12.89,-4.05 17.43,-4.26 2.79,-0.13 5.11,0.22 7.89,-0.24 16,-2.69 12.87,-0.5 23.33,0.22 3.07,0.22 5.21,0.18 7.55,0.58 4.93,0.84 3.19,1.66 6.25,2.56 3.17,0.93 4.3,-0.07 13.79,3.15 1.71,0.58 3.72,1.5 5.75,2.38 5.92,2.58 5.24,1.6 11.28,5.67 0.9,0.61 1.52,0.81 2.61,1.45 1.37,0.8 1.78,1.17 2.99,1.75 3,1.42 5.12,2.41 7.59,4.61 2.83,2.52 6.75,4.59 9.41,7.53l5.86 7.02c2.17,3.31 6.15,5.41 8.15,8.8l5.5 7.37c3.79,6 8.29,12.36 10.74,19.07 4.29,11.74 5.76,11.35 6.12,23.02 0.11,3.52 1.03,4.21 0.98,6.83 -0.04,2.57 0.05,1.05 0.29,3.36 1.52,14.48 -1.81,14.32 4.47,29.45 5.33,12.83 18.33,25.25 31.68,27.94l6.72 1.41c1.89,0.24 6.72,0.2 8.58,-0.09l10.06 -2.14c12.78,-4.87 23.26,-14 28.88,-26.68l2.17 -5.96c3.71,-9.78 1.82,-14.6 1.72,-22.62 -0.09,-7.73 0.69,-16.81 -0.94,-24.13 -0.64,-2.89 -0.03,-5.43 -0.71,-8.1l-3.04 -13.9c-0.65,-2.08 -1.44,-4.04 -1.98,-6.14l-5.59 -15.42c-3.84,-8.84 -8.4,-16.96 -13.24,-25.38l-7.09 -9.85c-5.85,-7.8 -12.73,-15.57 -20.48,-21.53l-9.08 -7.86c-5.71,-5.04 -19.41,-13.52 -25.9,-16.78 -1.77,-0.89 -3.65,-1.57 -5.53,-2.61l-5.75 -3.05c-1.21,-0.56 -1.53,-0.81 -2.78,-1.29 -1.22,-0.48 -1.84,-0.58 -2.96,-1.1 -2.06,-0.95 -4.05,-1.88 -6.11,-2.7 -1.24,-0.49 -1.63,-0.65 -2.94,-1.12 -0.52,-0.19 -0.95,-0.33 -1.5,-0.53 -1.59,-0.59 -0.22,-0.13 -1.46,-0.57 -2.43,-0.87 -4.33,-1.34 -6.87,-1.94 -0.98,-0.23 -0.72,-0.13 -1.63,-0.41 -0.24,-0.07 -1.27,-0.47 -1.5,-0.54 -5.62,-1.69 -10.93,-3.19 -17.16,-3.84 -3.11,-0.33 -4.25,-1.16 -7.5,-1.3 -6.56,-0.28 -21.49,-2.72 -22.33,-2.74 -5.26,-0.13 -11.5,-0.57 -16.6,0.4 -6.31,1.2 -12.79,0.43 -18.99,2.02l-16.07 2.9c-0.96,0.17 -1.55,0.08 -2.48,0.23l-6.6 2.2c-0.18,0.05 -0.35,0.11 -0.52,0.16l-5.96 1.5c-0.17,0.05 -0.33,0.13 -0.5,0.18l-3.05 1.02c-0.2,0.07 -0.79,0.29 -1,0.36l-6.11 2.01c-1.57,0.5 -0.75,0.21 -2.03,0.69 -0.16,0.06 -0.33,0.13 -0.49,0.19 -0.2,0.07 -0.78,0.3 -0.97,0.39 -0.15,0.06 -0.33,0.14 -0.47,0.2l-0.9 0.46c-1.3,0.69 0.02,0.07 -1.28,0.76l-2.84 1.22c-7.56,2.96 -14.18,6.8 -21.27,10.58l-14.12 8.92c-1.24,0.96 -0.6,0.51 -1.48,1.23l-9.67 7.28c-5.59,3.72 -9.99,9.55 -15.24,13.89 -3.56,2.95 -7.34,7.57 -10.44,11.24 -1.28,1.53 -2.46,3.11 -3.58,4.55l-7.4 9.54c-0.94,1.33 -0.72,1.15 -1.52,2.54 -3.61,6.21 -7.75,11.32 -11.3,18.52l-5.52 11.43c-1.74,4.35 -3.27,5.91 -5.19,11.74l-0.65 2.06c-0.07,0.21 -0.29,0.79 -0.36,0.99l-0.5 1.54c-0.22,0.73 -0.44,1.6 -0.59,2.11l-1.25 4.17c-1.66,5.02 -3.5,10.07 -4.29,15.36 -0.46,3.13 -1.25,3.87 -1.41,7.39l-1.13 7c-0.66,2.69 -0.04,5.76 -0.25,8.56 -0.52,6.83 -1.33,7.42 -1.32,15.61l0.52 16.09c-1,7.83 -0.54,5.26 0.65,13.9 0.47,3.44 0.48,3.95 1.15,6.98 0.65,2.93 0.15,5.24 0.55,8.26 0.64,4.93 3.11,8.39 3.23,13.63z"/>
   <path class="fil0" d="M538.15 522.73l0 447.86c0,6.61 7.01,-1.21 13.77,-3.17 5.76,-1.67 3.2,-1.35 10.41,-4.5 0.87,-0.38 1.53,-0.79 2.22,-1.17 0.91,-0.51 1.54,-0.82 2.62,-1.44 6.89,-3.98 8.03,-2.96 10.95,-4.63 2.2,-1.26 1.94,-2.44 4.28,-3.17 4.88,-1.52 1.87,1.14 7.27,-3.57 0.58,-0.51 1.57,-1.41 2.19,-1.88 4.12,-3.19 8.66,-2.43 16.3,-6.74 3.37,-1.9 6.99,-3.65 9.95,-5.63l0 -493.26c-2.73,0.23 -5.13,2.35 -7.22,4.3l-3.77 4.36c-3.61,3.65 -7.11,6.1 -10.52,9.8 -1.89,2.04 -2.61,3.32 -4.73,5.43l-3.83 3.63c-2.37,2.19 -1.72,2.22 -3.31,4.14l-12.48 12.58c-0.76,1.24 -0.9,1.79 -1.86,2.88 -5,5.69 -6.79,4.41 -8.64,6.95 -2.79,3.82 0.93,1.41 -4.91,5.25 -3.7,2.43 -0.98,2.4 -4.8,5.36 -4,3.1 -2.98,3.09 -4.86,5.31 -1.64,1.94 -9,3.81 -9,11.32z"/>
   <path class="fil0" d="M642.49 569.07c0,8.46 0.98,17.09 0.1,24.91l-0.13 81.24c0.06,3.79 0.82,4.22 0.31,7.71 -0.88,6.04 1.92,7.61 7.06,10.66 2.59,1.54 2.42,2.45 5.53,3.87 0.98,0.44 2.2,0.76 3.72,1.15 2.26,0.59 2.52,-0.03 3.06,1.56 5.17,2.81 3.84,0.91 7.9,5.05 3.43,3.49 4.39,0.6 6.19,6.56l8.46 8.62c0.61,0.64 0.77,0.79 1.25,1.46l1.27 2.09 5.47 6.06c4.34,4.3 0.54,3.88 5.56,5.86l0 4.38c0.8,1.65 4.14,3.55 5.9,10.78 0.78,0.46 0.98,-0.65 0.57,0.98l2.89 3.07c1.08,1.49 1.56,1.94 2.87,3.28 2.52,2.56 2.2,5.15 2.28,9.68 1.17,2.3 1.63,3.87 1.65,7.46 0.39,2.51 0.99,1.86 1.25,4.52 2.25,1.55 1.59,1.07 2.41,3.96l1.65 4.44c0.42,1.8 0.53,2.29 0.59,4.66l0.21 16.29c0.47,5.29 2.31,0.94 -0.24,14.84 -0.18,3.16 0.7,2.31 -1.23,3.61 -1.02,1.78 -0.5,0.25 -0.68,2.96l0.52 8.77c-0.48,2.15 -1.2,4.04 -2.02,6.3 -1.18,3.26 0.28,4.11 -2.13,5.48 -0.22,3.95 0.15,3.08 -1.78,5.29 -1.54,2.63 -1.61,4.64 -2.7,6.97l-0.83 3.27c-0.09,3.7 -1.87,5.93 -3.37,8.11 -1.2,1.74 -1.36,3.39 -3.01,3.04l-0.02 0.49c-1.74,2.55 -0.03,1.72 -2.09,4.25 -7.43,9.13 -3.91,10.25 -8.07,10.66 -0.42,4.11 -2.05,5.59 -3.5,6.91 -3.26,2.95 -0.6,2.21 -4.9,5.96 -0.51,2.11 -2.75,4.49 -4.41,6.1 -0.34,2.48 -2.05,2.22 -3.64,3.41 -2.55,1.91 -2.63,4.07 -5.85,5.63 -6.65,3.21 -0.17,0.83 -4.35,3.84 -1.29,0.93 -1.3,0.7 -2.96,0.82 0.83,1.06 1.45,-1.44 0.54,1.48 -1.14,1.46 -2.64,-0.16 -5.49,4.75 -0.61,1.06 -1.04,1.43 -1.65,2.27l-3.33 0.31c-3.74,3.63 -0.37,1.85 -5.73,4.28 -3.38,1.53 -3.01,3.81 -10.36,8.61 -0.12,0.08 -0.29,0.18 -0.41,0.26 -0.12,0.08 -0.29,0.19 -0.41,0.27 -0.01,0 -1.14,0.89 -1.14,0.89 -0.88,0.74 -0.97,0.92 -1.79,1.6 -2.71,2.28 -3.39,1.74 -4.82,2.63 -2.75,1.72 0.19,1.56 -8.72,6.18l-28.19 15.86c-1.76,0.71 -3.43,1.82 -5.02,2.44 -1.89,0.74 -3.87,1 -4.69,2.21 -1,1.26 0.24,0.37 -1.26,1.22 -0.14,0.07 -1.3,0.47 -1.52,0.56 -4.66,1.74 -6.13,1.71 -9.39,3.53 -4.54,2.54 -7.38,2.51 -12.66,4.19 0.43,0.4 -1.25,1.85 4.91,0.22 2.33,-0.61 3.76,-1.06 5.82,-1.57l3.39 0.68c0,-4.3 -0.45,-0.49 6.28,-3.12l4.66 -1.28c1.39,-0.48 1.11,-0.46 1.91,-0.99 2.32,-1.52 2.43,-2.04 5.48,-3.09 1.5,-0.52 1.96,-0.61 3.18,-1.19 1.3,-0.61 1.27,-2.02 1.05,-0.17 4.27,-0.17 11.39,-1.31 14.02,1.02 3.06,-0.44 -0.36,0 2.4,-0.94 1.52,-0.52 2.42,-0.61 3.72,-1.08 3.71,-1.35 1.97,-1.61 6.75,-2.06 3.1,-0.29 1.19,0.06 3.34,-0.72l14.72 -5.6c0.17,-0.05 0.35,-0.11 0.52,-0.17l19.5 -8.28c1.55,-0.83 1.3,-0.72 2.57,-1.5l4.35 -1.75c7.43,-2.41 5.9,-3.37 10.64,-5.62 3.13,-1.48 2.86,-1.78 5.24,-3.56 2.17,-1.63 3.63,-1.41 5.69,-3.12 7.27,-6 13.52,-6.65 25.41,-18.63 3.56,-3.59 6.17,-4.17 9.25,-8.36 2.07,-2.81 6.22,-4.39 9.32,-8.3l4.24 -4.57c2.17,-2.39 3.3,-5.05 5.75,-7.12 3.13,-2.65 3.13,-4.68 5.99,-7.56 5.2,-5.24 6.77,-9.8 10.47,-15.96l3.68 -5.13c3.86,-5.1 1.2,-7.45 7.72,-10.57 0,-4.41 1.01,-7.3 2.62,-10.93l1.46 -3.29c0.06,-0.16 0.13,-0.33 0.19,-0.49 0.06,-0.16 0.14,-0.33 0.2,-0.49l1.5 -5.45c1.07,-3.25 2.28,-3.53 2.88,-7.08 0.55,-3.26 0.06,-0.8 0.88,-3.18 0.25,-0.72 0.61,-1.82 0.85,-2.54 0.94,-2.72 0.26,0.39 0.79,-2.59 0.22,-1.22 0.09,-1.73 0.38,-3.01l1.37 -4.72c0.05,-0.17 0.11,-0.35 0.16,-0.52 0.05,-0.17 0.13,-0.33 0.18,-0.5l3.65 -21.43c0.08,-0.52 0.29,-2.05 0.49,-2.93 0.04,-0.2 0.08,-0.38 0.13,-0.57l0.66 -1.98c0.03,-0.12 0.1,-0.31 0.12,-0.43 0.34,-2.28 -0.72,-1.87 -0.93,-5.09 -0.54,-8.52 1.57,-19.66 -0.89,-27.58 -1.47,-4.74 -0.45,-8.62 -1.61,-12.62 -0.7,-2.43 -0.23,0.09 -0.75,-2.64l-1.38 -5.4c-0.48,-2.83 0.02,-5.28 -0.84,-7.96 -0.06,-0.17 -0.13,-0.33 -0.18,-0.5l-2.77 -6.04c-1.07,-2.69 -0.93,-6.35 -2.13,-9.39l-5.12 -15.2c-4.1,-10.18 -2.59,-4.74 -6.29,-12l-2.73 -7.44c-1.81,-3.31 -5.36,-6.54 -7.26,-10.35 -2.33,-4.65 -6.34,-8.07 -9.63,-12.05 -1.63,-1.96 -1.89,-1.41 -3.64,-3.13 -1.59,-1.57 -1.7,-2.55 -3.25,-4.21 -1.32,-1.41 -3.97,-2.31 -7.92,-6.31 -4.14,-4.19 -9.13,-6.83 -13.14,-11.25 -0.09,-0.1 -0.23,-0.25 -0.32,-0.35l-0.66 -0.7c-4.97,-5.47 -11.04,-9.21 -16.03,-14.46 -2.24,-2.35 -1.8,-1.1 -4.04,-2.74 -2.74,-2.01 -5.02,-5.06 -7.55,-7.35 -0.1,-0.09 -0.26,-0.22 -0.36,-0.31l-14.16 -12.94c-6.52,-4.83 -8.68,-9.13 -10.92,-10.76l-12.23 -9.46c-1.29,-1.02 -1.96,-2.91 -3.09,-3.22 -2.47,-1.46 -0.19,-0.59 -2.71,-1.09 -1.46,2.54 -0.06,4.02 -2.71,4.28z"/>
   <path class="fil0" d="M447.4 256.46c1.43,-2.12 0.74,-1.19 2.76,-2.71 -0.61,-0.56 -0.28,-0.59 -1.8,-1.08 -3.95,-1.28 -2.31,0.79 -4.21,-1.63 -1.83,-0.99 -0.17,-0.48 -2.87,-0.7l-10.37 0.52c-5.67,0.78 -9,-0.51 -14.02,-0.52 -9.94,-0.02 -19.89,0.02 -29.83,0.02 -4.55,0 -9.88,0.54 -13.18,0.26 -3.56,-0.3 -9.08,0.5 -13.95,0.44 -7.46,-0.09 -1.92,-1.44 -13.62,-0.13 -1.99,0.22 -5.31,0.19 -7.37,0.12 -3.41,-0.11 -3.49,-0.76 -6.76,-0.74 -2.72,0.01 -3.44,0.74 -5.91,0.54 -5.7,-0.48 -31.84,-1.04 -34.45,0.56 -2.24,1.37 -0.28,3.51 0.64,4.77 0.79,1.08 0.65,0.87 1.39,2.03 0.57,0.89 0.19,0.55 0.78,1.25l35.22 33.22c1.61,1.48 1.76,2.76 3.31,4.14l8.14 6.76c0.83,0.58 1.19,0.68 2,1.39 1.78,1.55 2.46,3.44 5.49,6.03l1.09 0.95c3.31,2.99 3.59,4.8 6.38,6.49 1.41,0.85 0.55,0.06 2.15,1.24 2.92,2.16 7.05,7.5 9.35,8.97l2.26 1.18c2.29,0.73 5.98,-1.12 7.4,-3.08 1.72,-2.37 0.41,-2.17 3.15,-4.3 8.24,-6.4 9.95,-10.35 14.93,-14.21 6.87,-5.33 4.33,-4.45 7.4,-7.51l7.73 -7.18c2.74,-2.86 6.22,-7.05 9.29,-9 3.51,-2.23 4.12,-4.2 5.57,-5.95l19.03 -18.24c4.37,-3.99 3.39,-1.41 2.91,-3.9z"/>
   <path class="fil0" d="M464.3 251.04c-0.74,2 -2.41,1.15 -4.95,1.85l1.57 2.44c0.06,-0.11 0.26,0.29 0.38,0.44 1.01,3.46 7.17,6.93 9.41,9.17 2.5,2.52 0.81,3.11 4,5.48 3.18,2.37 2.87,1.3 5.46,4.7l9.39 8.91c0.11,0.09 0.26,0.22 0.37,0.31 1.04,0.93 1.12,1.22 2.44,2.3l4.87 4.61c3.17,2.91 2.19,3.07 7.43,7.47 1.78,1.5 1.04,1.2 2.23,2.52l11.07 10.61c2.88,2.1 9.37,9.56 13.29,13.13 2.74,2.5 4.96,5.06 8.93,5.98 3.12,-4.66 4.89,-4.47 6.87,-6.68 6.04,-6.74 3.89,-3.28 6.94,-6.61 1.76,-1.92 2.85,-3.04 4.65,-4.84 3.2,-3.22 6.39,-5.55 9.42,-8.87 0.31,-0.33 0.62,-0.68 0.98,-1.05l6.01 -6.19c7.63,-5.8 3.89,-4.18 12.29,-10.75l8.55 -9.74c1.81,-1.98 2.86,-2.39 4.76,-4.06l4.64 -4.85c2.43,-2.35 8.69,-5.72 8.87,-9.55l0.89 -0.85c0.13,-0.11 0.31,-0.24 0.44,-0.36l2.74 -2.85 -2.26 -2.71c-4.56,-2.37 -19.69,-0.22 -23.01,-0.14 -3.49,0.09 -5.32,-0.76 -13.01,-0.07 -2.54,0.22 -1.81,-0.13 -3.66,-0.07 -9.93,0.35 -8.44,-0.41 -14.41,-0.42 -21.43,-0.03 -50.44,-0.6 -70.51,0 -3.65,0.11 -5.17,1.05 -9.42,0.67 -2.61,-0.23 -15.37,-1.07 -17.66,0.03z"/>
   <path class="fil0" d="M627.58 255.09l4.78 4.03c1.56,1.79 2.78,3.2 4.53,4.96 1.71,1.72 3.54,2.99 4.91,4.57 6.07,7 5.62,4.31 10.35,9.29 1.85,1.95 2.39,3.13 4.38,5.11l11.01 10.67c5.61,5.66 2.96,1.21 8.66,8.28 0.67,0.83 1.54,2.04 2.09,2.65 2.14,2.33 1.3,0.25 4.81,4.67 2.93,3.69 1.09,-0.72 7.57,7.33l16.17 13.65c2.35,0.04 6.72,-4.91 8.72,-6.87 2.57,-2.51 2.37,-1.44 3.94,-3.51 4.75,-6.27 4.13,-3.63 8.28,-7.98 2.72,-2.84 1.39,-2.44 4.67,-4.81 2.94,-2.13 3.13,-4.31 9.81,-9.17 2.19,-1.6 2.06,-2.29 3.47,-3.98l4.87 -4.61c2.44,-2.09 2.31,-3.08 4.53,-4.96 6.52,-5.5 4.05,-4.47 9.78,-9.19l7.13 -7.09c3.07,-2.69 10.74,-9.29 11.79,-11.68l1.8 -3.39c-0.16,-0.13 -0.39,-0.26 -0.51,-0.34 -0.11,-0.07 -0.37,-0.23 -0.5,-0.31 -0.33,-0.22 -0.6,-0.32 -0.85,-0.51 -1.2,-0.9 -0,0.91 -0.64,-0.87 -3.79,-1.75 -68.04,-0.68 -77.64,-0.68l-75.99 0.68c-1.71,3.69 0.02,-2.22 -1.93,4.06z"/>
   <path class="fil0" d="M504.46 602.68c-2.21,-4.35 -0.18,-2.98 -6.15,-3.57 -3.31,-9.76 -1.61,-5.64 -4.46,-7.69 -2.53,-1.83 -0.84,-1.74 -2.91,-3.18 -1.71,-1.2 -1.68,-0.16 -3.61,-1.87 -0.11,5.1 0.38,2.76 -14.23,2.76l-37.27 0c-3.22,-0.17 -4.71,-0.7 -8.8,-0.7 -3.3,0 -6.42,0.62 -8.52,0.41 -11.37,-1.11 -41.25,-0.39 -55.85,-0.39 -7.06,0 -11.7,0.7 -18.29,0.68l-72.5 -0c-10.47,0 -29.2,-1.37 -36.51,-0.56 -5.53,0.61 -21.89,-3.23 -20.37,6.5l2 7.61c2.79,1.34 4.28,0.2 7.45,-0 3.81,-0.24 6.35,0.61 8.81,0.61 2.25,0 9.92,-1.06 13.47,-0.53 2.14,0.32 1.94,0.76 3.68,1.13 5.04,1.07 5.67,-3.49 16.43,-0.24 3.07,0.93 33.04,0.69 36.35,-0.15 4.38,-1.1 3.44,-1.1 7.82,0 4.05,1.01 154.94,1.13 159.22,0.37 3.73,-0.66 2.52,-1.65 7.89,-0.82 18.67,2.89 22.65,-0.3 26.34,-0.37z"/>
   <path class="fil0" d="M500.33 740.22l0.37 -2.01c2.53,-0.33 2.2,0.07 4.18,-0.09 2.02,-0.17 1.45,-0.56 4.12,-0.63l0.48 2.04c5.26,-1.2 5.37,-12.77 -0.51,-13.52 -3.13,-0.41 -7.46,0.22 -10.78,-0.07 -9.87,-0.87 -2.81,-0.16 -9.5,0.06 -3.92,0.13 -7.66,-0.48 -10.25,-0.56 -2.38,-0.07 -6.24,0.76 -10.1,0.55 -3.49,-0.2 -5.62,-1.1 -10.06,-0.59 -13.66,1.59 -14.74,-0.8 -24.89,0.19 -3,0.3 -1.33,0.01 -4.36,-0.23 -14.39,-1.13 -11.54,0.55 -19.61,0.65 -6.93,0.08 -15.51,-0.65 -20.43,-0.15 -3.56,0.35 -7.17,0.16 -10.41,-0.3l-41.68 0.36c-3.08,-0.16 -1.42,-0.2 -4.17,-0.04 -1.81,0.11 -3.5,0.11 -5.32,0.11 -3.86,0 -7.46,-0.5 -10.13,-0.53 -15.62,-0.16 -33.69,1.27 -50.21,-0.12l-20.97 0.64c-33.72,0 -31.17,-2.37 -31.17,12.2 6.83,3.27 7.2,1.76 14.91,1.35 13.91,-0.75 39.44,0.68 54.2,0.68l143.72 -0.12c6.63,0.74 60.96,0.12 72.55,0.12z"/>
   <path class="fil0" d="M214.96 700.93c0,9.32 -0.74,6.28 2.04,11.52l295.41 0c0.63,-2.72 2.56,-14.23 -2.03,-14.23l-291.35 0c-2.08,0 -4.07,0.63 -4.07,2.71z"/>
   <path class="fil0" d="M216.31 757.16c0,10.81 -0.06,5.69 3.39,10.84 3.63,-0.3 6.55,-1.15 11.33,-0.49 9.8,1.35 247.65,0.49 278.66,0.49 2.54,0 7.17,-14.31 -2.3,-13.88 -2.69,0.12 -3.95,0.07 -6.59,0.21 -2.04,0.11 -4.94,-0.74 -11.22,-0.41 -2.31,0.12 -0.66,-0.01 -3.05,-0.07 -3.63,-0.09 -3.56,0.89 -7.21,0.53 -12.31,-1.22 -59.35,-1.06 -72.07,-0.01 -3,0.25 -3.7,-0.6 -7.33,-0.6 -3.06,0 0.28,0.31 -2.02,0.34l-3.41 -0.34c-5.22,0 -8.67,0.44 -12.87,0.69 -5.34,0.31 -7.78,-1.02 -12.87,-0.69 -4.25,0.28 -7.37,0.63 -11.12,0.29 -6.02,-0.56 -8.01,0.4 -13.28,0.4 -5.22,0 -7.69,-0.89 -12.89,-0.7 -5.25,0.19 -4.7,0.69 -13.54,0.7 -5.32,0.01 -8.28,-0.7 -12.85,-0.7l-82.01 0.02c-2.63,0 -6.78,0.9 -6.78,3.39z"/>
   <path class="fil0" d="M214.96 676.54c0,3.47 -0.51,2.28 1.65,5.8 0.73,1.2 1.54,2.33 3.09,2.33l42.69 0c3.56,0 5.09,-0.57 7.49,-0.65 2.47,-0.07 4.48,0.65 8.09,0.65l232.4 0c3.79,0 2.71,-5.27 2.71,-10.84 0,-3.43 -5.32,-2.68 -11.49,-2.72l-42.04 -0.66c-11.24,0 -86.33,-0.54 -92.05,0.1 -9.81,1.1 -19.66,-0.1 -30.59,-0.1l-32.34 0.19c-5.09,0.72 -5.33,-0.19 -10.34,-0.19 -3.1,0 -3.07,0.61 -5.36,0.54 -1.72,-0.05 -2.62,-0.54 -5.48,-0.54l-59.62 0c-1.72,0 -4.99,0.83 -6.02,1.44 -1.95,1.17 -2.8,3.52 -2.8,4.66z"/>
   <path class="fil0" d="M220.38 784.26c0,2.65 0.57,1.78 1.61,4.48 2.83,7.35 0.87,5.68 21.42,5.68l67.1 -0.02c3.77,0 4.37,0.57 7.45,0.73 3.9,0.2 4.59,-0.69 8.12,-0.76 3.72,-0.06 4.11,0.89 7.39,0.71 15.84,-0.84 26.61,-0.66 42.74,-0.66 3.16,0 1.07,0.54 3.67,1 1.81,0.32 2.19,-0.32 4.46,-0.32 2.85,0 3.89,0.54 5.51,0.57 3.78,0.06 1.02,-1.25 6.69,-1.25 4.97,0 9.94,0.01 14.91,-0 9.68,-0.02 24.97,1.43 36.19,0.29l13.28 0.39c4.1,0 3.1,-0.69 6.93,-0.21 2.81,0.35 5.78,0.22 8.65,0.21 3.31,-0.02 5.52,0.33 7.65,0.52 3.44,0.3 3.54,-1.19 7.25,-1.19 21.57,0 21,3.65 21,-9.49 0,-3.16 -1.58,-4.74 -4.74,-4.74l-94.18 0.68c-20.05,0 -36.63,-1.28 -57.11,-0.38 -2.05,0.09 -0.64,-0.3 -3.19,-0.3l-35.91 0c-2.67,0 -3.09,0.48 -4.74,0.48 -1.65,0 -2.07,-0.48 -4.74,-0.48l-78.6 0c-2.74,0 -8.81,2.17 -8.81,4.06z"/>
   <path class="fil0" d="M214.96 648.08c0,8.96 0.88,4.47 2.04,8.81 6.63,0 14.8,1.11 15,1.1 2.67,-0.04 1.7,-1.1 4.64,-1.1l32.49 0.04c2.57,0.21 2.89,0.71 6.14,0.69l8 0.36c1.13,0.02 6.09,-0.96 11.45,-0.22 1.79,0.24 4.66,0.88 7.57,0.41 4.05,-0.65 1.38,-1.57 6.24,-0.73 6.55,1.13 7.38,0.81 14.16,0.81 4.34,0 3.11,-2 14.91,-1.36 3.07,0.17 3.7,0.7 7.43,0.7 8.46,0.01 12.8,-0.65 20.3,0.04l22.24 0.18c10.87,0.65 8.45,-1.07 13.2,-0.46 3.54,0.46 7.13,0.07 10.71,0.2l26.4 0.69c3.04,0 1.99,-1.19 4.54,-1 3.82,0.3 1.36,1 13.08,1 7.66,0 13.36,-0.74 20.35,-0.7 5.72,0.03 7.5,1.2 15.38,0.51 5.46,-0.48 14.84,1.87 21.86,-1.84l0 -11.52c-1.52,-0.35 -1.56,-0.68 -3.39,-0.68l-287.96 0c-3.05,0 -6.78,1.28 -6.78,4.07z"/>
   <path class="fil0" d="M228.51 808.66c0,1.28 -0.1,2.89 -0.05,4.11 0.08,2.06 1.43,9.44 4.79,9.44l277.8 0c2.89,0 2.03,-2.6 2.03,-8.81 0,-4.11 -8.53,-5.1 -11.7,-5.31 -14.26,-0.9 -63.2,-0.11 -79.09,-0.11l-85.28 0.1c-5.28,0.62 -5.53,-0.1 -10.94,-0.1 -4.33,0 -1.04,2.43 -12.38,0.86 -2.37,-0.33 -4.79,-0.2 -7.19,-0.06 -5.23,0.31 -0.08,-0.8 -8.2,-0.8l-21.9 1.21c-4.37,0.49 -3.09,-1.21 -6.56,-1.21 -6.25,0 -37.71,-0.73 -41.33,0.68z"/>
   <path class="fil0" d="M214.96 620.98c0,14.13 1.41,7.81 10.66,9.67 2.67,0.53 0.78,1.17 5.6,1.17 2.9,0 0.44,-1.35 12.19,-1.35 3.32,0 0.06,1.35 11.52,1.35 5.22,0 -1.99,-2.62 18.79,-0.45l19.24 0.05c1.81,-0.04 1.38,0.4 3.98,0.4 26.57,0 77.24,0.92 101.11,-0.46 3.25,-0.19 0.58,0.46 3.91,0.46 3.33,0 0.67,-0.65 3.91,-0.46 17.07,0.98 36.61,0.46 53.76,0.06 1.81,-0.04 1.38,0.4 3.98,0.4l46.75 0c3.85,0 2.71,-5.56 2.71,-11.52 0,-1.56 -0.47,-2.04 -2.03,-2.04l-293.38 0c-1.59,0 -2.71,1.13 -2.71,2.71z"/>
   <path class="fil0" d="M240.03 839.82l3.75 7.09c2.48,2.98 3.28,3.15 8.43,3.09l61.03 -0.06c5.25,0.33 0.97,1.39 6.06,1.39 2.35,0 1.04,-1.35 3.39,-1.35l94.85 0c2.96,0 2.46,1.35 5.42,1.35 2.35,0 1.04,-1.35 3.39,-1.35l52.17 0c3.03,0 -0.16,0.89 2.81,1.06 2.41,0.13 0.14,-0.34 3.36,-0.94l26.35 -0.11c3.35,-5 3.93,-14.23 -4.74,-14.23l-8.89 0.4c-1.81,0.04 -1.38,-0.4 -3.98,-0.4 -29.17,0 -59.11,-0.28 -88.17,0.4 -1.81,0.04 -1.38,-0.4 -3.98,-0.4l-54.88 0c-3.66,0 -0.59,0.31 -3.09,0.77l-98.54 -0.77c-1.73,0 -1.99,0.12 -2.97,1.09 -0.01,0.01 -1.64,2.78 -1.77,2.97z"/>
   <path class="fil0" d="M256.96 866.25c0,5.11 5.65,6.69 6.78,11.52l191.75 0.68c4.7,0.02 7.04,-0.59 10.82,-0.7 3.1,-0.09 8.5,-0.2 11.46,0.14l33.28 -0.11c3.84,-16.48 1.78,-13.55 -25.75,-13.55 -9.46,0 -22.7,0.75 -31.68,-0.21 -5.72,-0.61 -19.74,0.25 -29.32,0.23 -3.24,-0 -4.62,-0.63 -6.76,-0.63 -2.14,0 -4.12,0.66 -7.46,0.64l-81.97 -0.71c-2.67,0 -3.09,0.48 -4.74,0.48 -1.65,0 -2.07,-0.48 -4.74,-0.48l-52.17 0c-2.64,0 -9.49,0.64 -9.49,2.71z"/>
   <path class="fil0" d="M474.7 576.26l-0.73 -3.46c-3.98,-1.18 0.29,0.47 -3.11,0.24l-3.93 -6.35c-2.42,-3.3 -1.24,-2.3 -4.67,-2.51 -2.61,-0.16 -2.86,0.16 -3.41,-2.13 -10.43,0.88 -13.92,0.72 -24.39,0.7 -3.93,-0 -4.63,-0.62 -8.1,-0.74 -3.14,-0.1 -5.35,0.6 -7.31,0.5l-47.59 -0.48c-9.02,-0.04 -1.73,1.2 -15.61,0.05 -5.65,-0.47 -12.61,0.46 -16.31,0.07 -2.6,-0.27 -32.57,1.59 -41.07,0.37 -5.09,-0.72 -9.37,0.8 -15.66,0.09 -7.02,-0.79 -26.45,-0.82 -33.5,-0.06 -3.01,0.32 -27.61,-2.38 -32.18,0.98 -4.62,3.4 -1.86,9.15 0.54,12.74l257.03 0z"/>
   <path class="fil0" d="M277.97 894.03c1.1,1.65 1.96,2.43 3.69,3.77 3.62,2.81 3.65,5.39 8.48,6.42 1.89,0.41 1.59,0.3 3.32,0.74 7.17,1.85 3.16,-0.77 10.93,-0.77 2.22,0 0.6,1.27 5.37,1.4 22.99,0.65 56.72,-0.04 80.67,-0.04l22.31 0.14c2.81,0.48 1.48,1.02 3.41,0.46 1.97,-0.57 -1.82,-0.59 1.39,-0.59l17.62 0c2.96,0 2.46,1.35 5.42,1.35l8.81 0c2.35,0 1.03,-1.35 3.39,-1.35l43.37 0c2.35,0 1.03,1.35 3.39,1.35 10.85,0 12.87,1.28 12.87,-10.84 0,-6.16 -6.28,-4.74 -12.2,-4.74 -5.87,0 -11.75,-0.03 -17.63,0.01 -8.86,0.05 -12.83,-0.82 -24.59,-0.37 -2.39,0.09 -3.74,-1 -7.24,-1 -15.56,0 -1.38,1.36 -16.94,1.36 -3.94,0 3.07,-1.36 -9.49,-1.36 -2.16,0 -4.66,-0.11 -6.78,0 -3,0.16 -3.3,0.69 -6.77,0.73 -3.42,0.04 -4.2,-0.48 -6.81,-0.69l-33.16 -0.04c-3.31,0 1.11,1.36 -6.1,1.36 -1.66,0 -2.62,-0.38 -3.47,-0.4l-4.66 0.4c-3.67,0 -0.43,-0.37 -3.56,-0.83 -5.51,-0.81 -5.99,0.83 -8.64,0.83l-12.87 0c-3.67,0 2.32,-0.55 -5.93,-0.92 -1.46,-0.06 -0.46,-0.44 -2.87,-0.44l-40.47 1.54c-2.79,0.7 -2.11,1.1 -4.25,2.53z"/>
   <path class="fil0" d="M445.13 548.48c-0.04,-3.98 -3.59,-8.82 -6.85,-8.84l-3.13 1.41c-2.07,-1.01 -3.05,-2.12 -4.02,-4.14 5.16,0.63 0.33,1.96 5.21,2.15 -0.96,-2.47 -0.16,-0.63 -0.98,-1.64 -0.08,-0.09 -0.22,-0.23 -0.31,-0.32l-2.87 -3.04 -3.14 -0.34c-0.35,1.18 -0.16,0.97 -0.68,1.89 -5.19,0 -7.55,-0.71 -12.87,-0.69 -10.57,0.06 -34.23,-0.74 -41.62,0.4l-95.28 -0.43c-3.24,0.17 -3.64,-0.54 -5.91,-0.42 -1.55,0.08 -4.04,0.65 -6.93,0.46 -8.62,-0.56 -17.65,-0 -26.42,-0 -10.39,0 -15.8,-1.97 -21.84,1.2 -2.85,1.49 0.55,0.39 -2.56,1.51 0,7.24 -0.59,5.37 2.04,10.84 76.05,0 152.09,0 228.14,0z"/>
   <path class="fil0" d="M416.01 521.38c-1.28,-2.56 1.27,2.06 -0.75,-1.07 -0.71,-1.1 -0.22,-0.33 -0.75,-1.23 -3.2,-5.35 -2.81,-1.32 -7.47,-6.85 -2.29,-2.72 -1.4,-4.09 -4.54,-4.94 -6.08,-1.65 -2.32,-0.31 -6.63,-2.88l0 2.07c-3.22,0.07 -4.07,0.69 -11.52,0.68l-88.76 0c-17.67,0 -31.06,-0.68 -48.78,-0.68 -6.73,0 -19.84,0.78 -23.91,0.17 -11.43,-1.69 -8.71,11.22 -5.9,15.41l61.1 -0.8c4.35,0.51 7.33,0.82 12.07,0.8 12.38,-0.05 116.23,0.87 120.82,-0.52 3.42,-1.04 1.31,-1.16 5.02,-0.16z"/>
   <path class="fil0" d="M440.77 933.33l0.23 -2.86 21.94 -0.07c0.6,1.13 0.78,0.09 0,2.24l42.73 0.73c3.63,0 4.75,-0.33 6.19,-2.62 2.56,-4.05 1.65,-10.95 -2.6,-12.58 -3.87,-1.49 -62.19,-0.67 -68.21,0.09l-120.39 -0.52c-5.83,-0.01 -12.31,-0.56 -13.55,4.07 2.11,2.89 3.39,1.85 5.9,3.58 3.76,2.58 6.05,7.45 11.29,6.9l28.88 -0.31c3.04,0.31 1.52,0.64 3.7,1.01 3.26,0.55 4.68,-2.58 13.06,-0.85 3.61,0.75 0.52,1.25 8.3,1.19 3.14,-0.02 6.43,0.11 9.54,0.03 4.77,-0.12 3.28,-1.31 8.06,-1.43 2.34,-0.06 8.04,-0.2 10.12,0.11 2.83,0.43 3.72,2.11 7.87,0.97 2.06,-0.57 1.26,-1.03 3.72,-1.03 2.46,-0 1.65,0.46 3.7,1.01 3.83,1.03 14.83,0.33 19.52,0.33z"/>
   <path class="fil0" d="M383.61 494.28c0.09,-6.23 -0.77,-5.42 -2.35,-9.72 -2.98,-0.06 -2.2,0.08 -4.37,0.62l-2.99 -4.86c-1.93,-3.06 0.1,-1.14 -2.63,-2.82 -1.28,-0.79 -1.53,-1.04 -3.19,-1.44 0.9,1.76 0.62,0.65 0.68,3.32 -6.92,1.61 -79.13,-1.61 -85.38,0.01 -6.07,1.57 -48.49,-2.75 -62.65,0.34 -5.38,1.18 -6.83,5.77 -5.28,9.98 1.6,4.35 3.11,3.67 7.07,3.48 2.56,-0.13 1.64,0.36 4.64,0.44 2.73,0.06 2.98,-0.49 4.72,-0.49 5.61,-0.02 17.58,1.72 27.13,1.18 5.1,-0.28 3.29,-2.5 8.79,-0.69 5.95,1.95 3.29,-1.75 8.76,-0.05 5.54,1.72 58.08,0.72 66.44,0.72 6.86,0 15.79,0.5 22.39,0.03 4.08,-0.3 1.98,-0.85 4.24,-1.15 3.3,-0.43 0.31,0.32 3.94,1.02 4.16,0.8 7.78,-1.02 10.02,0.11z"/>
   <path class="fil0" d="M349.11 948.23c0.31,3.79 4.19,4.72 9.87,7.74l4.25 1.85c10.37,4.72 6.67,3.28 21.12,3.28 11.07,0 56.52,-0.68 66.89,0.19l53.75 -0.14c4.59,-0.07 6.09,-1.59 6.76,-5.48 0.99,-5.79 0.46,-5.04 -2.06,-8.8 -9.17,0 -37.52,-1.48 -46.94,-0.19 -5.41,0.74 -9.72,-0.27 -14.04,-0.49l-19.5 -0.1c-16.01,-1.39 -33.75,0.09 -50.96,0.1 -10.91,0.01 -12.07,-1.35 -14.23,-1.35 -0.07,0 -14.79,3.33 -14.91,3.39z"/>
   <path class="fil0" d="M357.29 466.5l-0.13 -3.36c-7.69,-4.67 -4.66,-8.49 -12.55,-8.41l-0.44 -1.49 -2.46 -0.43 -0.11 -1.83 -0.61 -0.61c-3.92,2.85 -8.55,0.5 -14.89,0.54l-72.5 0.7c-5.64,-0.03 -13.84,-0.56 -18.02,-0.4 -4.89,0.19 -11.52,-0.82 -16.95,0.67 -2.93,0.81 -3.64,2.39 -3.74,5.79 -0.13,4.43 -0.33,5.31 2.32,7.29 4.24,3.16 4.33,0.21 15.38,0.2 3.55,-0 6.57,0.61 8.8,0.61 6.9,-0 1.16,-2.08 11.74,0.53 3.36,0.83 9.52,-0.23 12.06,-0.4 4.26,-0.28 4.99,0.53 8.7,0.64 23.95,0.72 57.43,-0.02 83.41,-0.02z"/>
   <path class="fil0" d="M605.59 427.58l-1.73 0.42c0.29,-3.77 -0.76,-1.28 1.36,-2.53 0.87,1.52 0.82,0.21 0.37,2.11zm0 0c1.16,-0.87 0.98,2.29 0.98,-2.42 -2.72,-0.63 -3.83,-3.14 -13.62,-2.16 -6.96,0.69 -89.39,0.16 -104.95,0.12 -9.34,-0.02 -7.61,0.18 -15.58,2.04 0.09,4.17 1.33,3.54 3.86,5.62 5.57,4.58 5.34,6.34 12.57,7.75l79.8 0.2c7.28,0.03 4.1,-1.35 8.8,-1.46 6.89,-0.16 0,2.73 9.68,0.3 6.66,-1.67 6.78,3.22 14.8,-5.54 2.03,-2.21 3,-2.26 3.65,-4.46z"/>
   <path class="fil0" d="M558.48 344.54c0,1.98 0.93,1.66 2.48,2.94 2.64,2.18 5.99,7.91 9.71,7.91l105.7 0c3.04,0 6.45,-4.63 7.06,-5.14 1.3,-1.11 2.02,-1.59 3.35,-2.75 1.9,-1.65 2.21,-1.18 2.47,-4.3l-8.81 -3.39c-10.4,0 -14.52,-0.23 -24.51,0.6 -3,0.25 -3.7,-0.6 -7.33,-0.6 -4.41,0 -5.25,0.48 -9.74,0.31 -3.45,-0.13 -0.38,0.4 -3.91,0.95 -2.65,0.41 -2.86,-0.33 -5.35,-0.55 -3.73,-0.33 -6.67,0.13 -10.43,-0.44l-26.12 -0.27c-3.81,0 -0.7,1.41 -8.1,1.38 -4.93,-0.02 -19.82,-0.75 -23.63,0.76 -1.72,0.68 -2.81,0.54 -2.81,2.6z"/>
   <path class="fil0" d="M414.16 341.15c-3.11,0 -4.26,-0.24 -6.31,-0.52l-12.01 0.45c-5.15,0.61 -1.65,1.1 -5.4,2.1 0.24,2.81 0.45,2.14 2.15,3.95 2.55,2.72 7.72,8.25 11.4,8.25l105.02 0c3.02,0 6.95,-4.62 9.67,-7.27 10.08,-9.83 -7.07,-6.39 -12.96,-7.06 -2.54,-0.29 -4.48,-0.91 -8.13,-0.48 -6.13,0.72 -17.11,-0.36 -25.2,-0.12 -3.46,0.1 -4.17,0.71 -8.08,0.72l-46.7 -1.34c-1.73,0.25 -3.17,1.31 -3.46,1.31z"/>
   <path class="fil0" d="M330.25 438.72l0.76 -5.41 -8.95 -6.12c-4.22,-3.74 -4.75,-5.79 -8.86,-6.44 -0.65,1.26 -0.55,1.22 -1.35,2.38l-96.21 0 -0.74 1.97c-0.06,0.14 -0.15,0.32 -0.22,0.47 -0.07,0.15 -0.16,0.31 -0.23,0.46 -0.78,1.79 -0.67,-0.93 -0.85,2.56l0.65 2.65c0.06,0.17 0.15,0.32 0.21,0.49l0.61 3.48c0.57,2.84 0.42,1.26 1.93,3.5l113.26 0z"/>
   <path class="fil0" d="M579.48 314.72c-4.49,0 -4.17,-5.04 -13.06,3.89 -5.52,5.55 -5.92,4.14 -5.92,9.67 4.3,0 5.66,-0.68 10.16,-0.68l16.26 0c2.86,0 0.14,1.74 5.2,1.22 10.85,-1.1 4.76,-1.27 19.22,-1.25 4.58,0 7.53,0.71 12.85,0.7 10.39,-0.02 15.66,-1.33 27.11,-0.67 6.6,0.38 27.04,2.16 31.2,0.72 2.59,-0.89 3.02,-0.99 4.7,-2.76 -0.75,-2.8 -4.69,-5.7 -7.85,-9.08 -1.89,-2.01 -3.73,-2.98 -7.02,-3.14 -20.04,-0.96 -55.7,1.09 -74.59,0.06 -3.96,-0.22 -3.08,-1.38 -6.07,-1.38 -3.19,0 1.2,1.13 -6.09,1.36 -4.12,0.13 -4.38,1.35 -6.1,1.35z"/>
   <path class="fil0" d="M392.48 327.6l123.99 0c4.22,0 0.9,-7.17 0.68,-8.13 -3.92,0 -3.65,-0.35 -5.55,-2.59 -1.09,-1.29 -2.57,-3.51 -4.62,-3.51l-98.24 0c-0.88,0 -4.78,1.23 -5.79,1.67l-4.39 3.06c-2.43,1.84 -6.01,6.16 -6.08,9.5z"/>
   <path class="fil0" d="M491.4 409.58c5.18,0 5.56,1.35 10.16,1.35l10.84 0c2.96,0 2.46,-1.35 5.42,-1.35l27.1 0c2.67,0 3.09,0.48 4.74,0.48l11.52 -0.48c3.72,0 0.52,0.27 3.16,0.84l16.49 -0.17c3.86,0 6.12,0.69 8.81,0.67 2.69,-0.02 2.17,-0.46 4.06,-0.48 1.87,-0.02 1.34,0.48 4.06,0.48 0.92,0 0.38,-0.73 2.71,-1.35 0,-4.72 -3.01,-7.54 -6.18,-10.09 -5.17,-4.16 -6.97,-3.46 -11.44,-3.46l-24.39 0c-3.56,0 -5.09,-0.58 -7.49,-0.65l-14.19 0.65c-8.13,0 -16.76,-1.13 -23.02,-0.62 -6.98,0.57 -2.34,-0.06 -7.46,-0.06 -3.13,0 -4.24,0.47 -6.2,0.58 -5.21,0.31 -2.47,-2.05 -10.06,0.77 -1.82,0.67 -2.47,1.15 -4.09,2.01 -1.63,0.87 -11.43,8.5 -6.08,10.83 2.76,1.2 3.32,1.17 5.27,0.72l6.26 -0.68z"/>
   <path class="fil0" d="M407.38 975.33c0.46,5.5 2.26,2.31 7.29,4.22 8.85,3.37 10.77,3.28 18.73,5.66 16.7,5.01 7.33,0.76 21.99,2.41 4.02,0.45 6.32,0.94 11.22,0.19 7.92,-1.21 17.23,2.14 33.04,0.47 2.09,-0.22 10.84,1.93 12.01,-4.21 0.52,-2.74 0.91,-6.29 0.06,-8.06 -2.03,-2.03 -27.01,-0.77 -28.16,-0.95l-66.03 -1.09c-9.36,-0.07 -4.95,1.25 -10.15,1.37z"/>
   <path class="fil0" d="M301.8 409.58l-0.42 -4.48c-2.3,-1.83 -1.26,0.26 -2.26,-2.44 -0.91,-2.48 0.31,-1.4 -1.3,-4.22 -2.31,-4.06 -3.39,-1.36 -6.3,-4.28 -0.8,2.59 -3.73,1.9 -8.13,1.87l-41.35 0.01c-4.33,0.02 -5.53,-0.67 -9.44,-0.72 -8.88,-0.11 -11.16,-0.93 -17.65,3.41 0,4.24 -0.56,8.53 2.05,10.15 2.87,1.79 79.57,0.69 84.79,0.69z"/>
   <path class="fil0" d="M498.85 452.94c0.33,3.99 3.93,5 6.28,7.27 2.13,2.06 2.87,3.43 5.31,4.86 0.18,0.1 0.69,0.38 0.88,0.47 0.14,0.07 1.39,0.61 1.42,0.61 4.19,1.27 21.35,-0.1 27.43,0.4 3.94,0.32 20.16,0.81 25.7,-0.12 3.39,-0.57 9.1,-6.26 11.3,-9.03 1.35,-1.7 2.45,-2.45 2.99,-4.46 -1.19,-0.57 -4.54,-2.04 -6.1,-2.04l-66.4 0c-2.37,0 -2.31,0.72 -4.28,1.14 -2.64,0.56 -2.27,-0.19 -4.53,0.89z"/>
   <path class="fil0" d="M584.9 370.96c0,2.8 2.31,1.85 6.37,7.18 2.36,3.1 4.13,2.99 7.77,4.43 1.65,0.65 -1.57,0.59 1.45,0.59l44.04 0c7.1,0 10.13,-4 13.71,-7.29 1.82,-1.67 11.37,-8.3 -4.23,-8.3l-16.26 0c-2.86,0 -3.77,0.49 -5.48,0.54 -2.07,0.06 -2.95,-0.54 -6.04,-0.54l-37.94 0c-1.58,0 -3.39,1.81 -3.39,3.39z"/>
   <path class="fil0" d="M421.61 367.57c-1.9,0 -3.91,2.83 -4.74,4.07 2.06,3.07 3.34,2.47 6.67,6.2 1.89,2.11 4.5,5.31 8.24,5.31l37.91 -0.04c2.19,-0.19 2.9,-0.7 5.46,-0.69 9.32,0.07 1.12,2.82 12.33,-3.21 2.34,-1.26 1.74,-0.81 3.27,-2.82 1.36,-1.8 4.11,-4.52 4.72,-6.8 -2.89,-1.39 -4.37,-0.96 -7.46,-1.31 -10.42,-1.15 -13.14,1.24 -17.8,0.19 -3.07,-0.69 -2.44,-1.06 -4.11,-1.4 -2.17,-0.45 -2.94,0.18 -4.6,0.38 -7.09,0.86 -29.89,0.11 -39.89,0.11z"/>
   <path class="fil0" d="M719.06 827.78c1.93,-1.3 1.05,-0.44 1.23,-3.61l-3.32 -2.46c0.06,-2.86 0.52,-3.28 0.77,-5.07 0.44,-3.05 -0.27,-2.5 -0.52,-5.67 2.11,-0.95 0.33,-0.29 1.84,-0.96 -7.87,0.01 -37.95,-0.8 -42.18,-0.2 -1.79,0.25 -27.94,-1.46 -32.92,0.32 -2.01,0.72 -1.52,0.84 -1.55,3.87 -0.13,11.87 0.2,8.44 8.89,8.88l15.23 0.43c2.92,0 2.26,-0.48 4.99,-0.31 2.35,0.14 1.35,0.74 4.64,0.4 1.52,-0.16 2.89,-0.63 5.63,-0.56 4.31,0.12 5.37,1.22 10.57,0.42 2.72,-0.42 15.39,0.86 21.95,0.24 3.8,-0.36 6.94,-0.87 4.74,4.29z"/>
   <path class="fil0" d="M717.24 794.43c-0.11,-3.04 -0.34,-2.26 0.42,-4.8 0.85,-2.86 0.37,-2.55 0.41,-5.69 -0.82,-2.89 -0.15,-2.41 -2.41,-3.96 -3.45,2.48 -4.03,1.71 -8,0.85 -2.45,-0.53 -5.55,0.52 -8.32,0.59 -2.14,0.06 -5.46,-0.41 -8.85,-0.34 -1.69,0.03 -6.37,-0.32 -9.41,-0.23 -6.31,0.19 -10.93,1.17 -19.63,0.7 -3.35,-0.18 -5.21,-0.68 -9.48,-0.69 -9.13,-0.01 -4.62,0.23 -9.48,1.37 0,13.14 -2.9,12.22 9.48,12.2l65.26 0z"/>
   <path class="fil0" d="M714.42 775.46c-0.03,-3.59 -0.48,-5.16 -1.65,-7.46l-1.79 -1.35 -0.28 -6.78c-3.72,-2.5 -3.5,-3.07 -6.15,-5.17l0.18 -2.72c0.41,-1.63 0.2,-0.52 -0.57,-0.98 -0.38,4.76 -5.84,3.45 -12.87,3.45 -5.41,0 -11.64,0.29 -16.94,0 -4.75,-0.26 -9.71,-1 -15.58,-0.69l-15.58 1.36c-1.03,2.14 -0.91,7.03 -0.76,10.25 0.19,4.39 2.59,3.82 7.36,3.11 3.84,-0.58 32.45,0.87 41.51,0.87l16.08 -0.18c2.38,-0.49 1.43,-1.09 4.93,-1.17 1.76,3.32 0.9,2.6 1.43,5.35 0.04,0.21 0.07,0.39 0.12,0.58l0.59 1.53z"/>
   <path class="fil0" d="M588.29 298.46c0,1.77 -0.06,2.71 2.03,2.71l67.08 0c1.56,0 2.03,-0.47 2.03,-2.03 0,-4.59 -5.07,-7.43 -7.6,-10.02 -5.07,-5.19 -16.2,-2.93 -20.18,-2.93l-8.81 -0.61c-2.67,0 -3.09,0.48 -4.74,0.48 -3.7,0 -11.31,-1.44 -17.48,0.33 -2.89,0.83 -2.62,1.59 -4.79,3.34 -1.5,1.21 -7.54,6.9 -7.54,8.72z"/>
   <path class="fil0" d="M712.96 856.57c1.93,-2.21 1.57,-1.34 1.78,-5.29 -0.4,-3.8 -0.22,0.24 -1.85,-3.32 1.49,-3.69 2.59,-3.46 3.1,-8.55l2.9 0.1 -0.52 -8.77c0,3.81 -0.61,4.79 -0.68,7.73 -6.2,-1.44 -12.36,-1.71 -20.31,-1.3 -12.62,0.65 -44.5,-0.6 -50.11,-0.01 -4.15,0.44 -4.81,1.26 -4.85,6.01 -0.08,8.28 -2.23,6.81 14.97,6.81l54.28 -0.07c5,0.56 2,4.01 1.28,6.65z"/>
   <path class="fil0" d="M421.61 301.17c10.52,0 19.87,0.4 29.94,-0.61 3.59,-0.36 3.72,0.61 7.33,0.61 4.63,0 4.83,-1.09 9.77,-0.29 4.86,0.79 6.13,-0.39 10.56,-0.39 4.43,0 6.58,0.68 11.52,0.68 1.32,-1.97 1.37,-0.91 2.03,-3.39l-8.65 -8.29c-9.12,-6.73 -20.3,-2.55 -34.04,-2.55 -1.58,0 -1.89,-0.96 -3.53,-1.15 -3.34,-0.4 -0.36,0.48 -3.93,0.48 -2.89,0 -2.23,-0.58 -4.15,-0.57 -1.84,0.01 -8.95,2.7 -10.94,4.45 -1.77,1.55 -11.51,11.02 -5.91,11.02z"/>
   <path class="fil0" d="M508.33 383.16l63.01 0c7.69,0 -6.88,-15.59 -10.84,-15.59l-27.1 0c-3.73,0 -0.78,1.36 -7.45,1.36 -2.82,0 -4.36,-3.5 -13.85,3.08 -2.17,1.5 -10.06,11.15 -3.76,11.15z"/>
   <path class="fil0" d="M279.58 382.48l0.02 -3.74c-3.5,-1.57 -5.26,-4.48 -5.88,-8.95 -4.52,-0.65 -1.53,-0.45 -4.57,-2.82l0 1.96c-2.98,0 -5.92,-0.39 -7.78,-0.25 -4.45,0.34 -4.07,0.42 -7.75,-0.55 -3.65,-0.96 -2.88,0.42 -6.84,0.78 -12,1.09 -36.93,-7.16 -31.56,9.89 1.9,6.02 6.92,4.43 12.7,3.77 5.96,-0.67 11.23,0.59 17.52,0.58 12.71,-0.03 20.68,-0.68 34.14,-0.68z"/>
   <path class="fil0" d="M703.03 878.44l0.02 -0.49c0.1,-2.8 0.31,-1.99 2.51,-4.26l-0.18 -6.86 4.04 -0.02 0.83 -3.27 -1.37 2.71c-6.92,-1.61 -55.24,-0.68 -66.4,-0.68l0 12.2c8.74,2.04 2.84,1.35 14.23,1.35l31.84 0c2.63,0 5.39,0.21 7.97,-0.17 2.6,-0.37 4.14,-1.41 6.49,-0.51z"/>
   <path class="fil0" d="M698.24 740.22l-0 -4.38c-5.02,-1.98 -1.22,-1.56 -5.56,-5.86l-5.47 -6.06c-0.32,3.92 -1.35,2.75 -10.16,2.74l-24.58 -0.39c-5.19,0.19 -5.08,-0.84 -9.97,1.75 0,14.87 -3.35,12.2 21.68,12.2 11.36,0 22.72,0 34.07,0z"/>
   <path class="fil0" d="M684.46 906.22c4.3,-3.75 1.64,-3.01 4.9,-5.96 1.45,-1.31 3.08,-2.8 3.5,-6.91 -6.43,-1.29 0.06,-1.37 -11.75,-1.35l-27.11 0c-6.86,-0.39 -4.87,-0.87 -11.51,0.68 0,18.41 -2.26,11.3 16.37,13.47 4.47,0.52 8.46,-1.04 14.09,-0.55 3.56,0.31 3.24,0.1 6.19,0.09 3.93,-0.02 2.4,1.93 5.31,0.54z"/>
   <path class="fil0" d="M260.84 354.7c0.59,-6.54 -0.91,-0.93 -3.01,-8.37 -1.24,-4.39 -2.13,-3.8 -5.61,-5.88 -2.35,1.54 -25.76,0.51 -29.83,0.69 -4.72,0.2 -4.73,0.91 -7.44,2.72l0 8.81c3.96,2.65 3.29,3.09 8.99,2.22l36.9 -0.19z"/>
   <path class="fil0" d="M245.83 327.6c0.11,-8.41 -0.67,-4.03 -2.41,-7.3 -1.76,-3.31 0.83,-4.02 -4.54,-5.1l-0.13 -1.82c-5.49,2.71 -3.93,-0.41 -10.91,-0.04l-12.2 2.07c-1.09,2.28 -0.68,6.76 -0.68,10.16 2.45,0.57 3.43,1.61 6.09,1.67l24.78 0.36z"/>
   <path class="fil0" d="M648.5 712.44l0.5 -2.18 3.66 0.18 0.66 2 15.37 0c0.59,-2.43 0.52,-1.5 1.91,-3.39 -2.15,-2.93 -4.52,-5.89 -8.46,-6.1l0 -2.79c-0.54,-1.59 -0.8,-0.97 -3.06,-1.56 -1.52,-0.39 -2.74,-0.71 -3.72,-1.15 -0.74,2.94 -1.5,3.09 -5.36,2.78 -3.24,-0.26 -3.66,-0.83 -6.83,0.69 -0.51,2.2 -1.06,4.99 -0.66,8.11 0.48,3.79 1.85,3.41 5.99,3.41z"/>
   <path class="fil0" d="M653.26 934l0.04 -2.04c1.37,-0.6 1.54,-0.32 2.59,-0.77 3.25,-1.4 -1.44,-0.04 5.06,-3.39 0.84,-0.43 1.24,-0.95 2.3,-1.79 1.66,-0.12 1.67,0.11 2.96,-0.82 4.17,-3.02 -2.3,-0.63 4.35,-3.84 3.22,-1.55 3.3,-3.72 5.85,-5.63 1.59,-1.19 3.3,-0.93 3.64,-3.41 -1.57,1.65 -3.1,1.92 -4.73,3.69 -6.96,7.58 -0.08,3.07 -18.6,3.08 -5.88,0 -10.11,-0.62 -14.23,1.35 0,3.84 -0.63,9.48 0.68,12.19 3.31,1.59 6.94,-0.26 10.09,1.36z"/>
   <path class="fil0" d="M531.97 480.69l1.75 0.04c-1.06,2.42 -0.19,1.9 -2.97,1.81 0.46,-1.01 0.63,-1.19 1.22,-1.84zm0 0c-3.29,-0.97 -3.95,-0.01 -5.34,2.07 0.87,3.28 0.93,1.14 5.59,5.93 6.07,6.26 8.35,5.05 17.58,-3.09 1.35,-1.19 1.72,-1.94 1.91,-4.19 -4.2,-2.22 -15.39,-3.63 -18.17,-2.59 -3.51,1.31 -1.07,-0.3 -1.56,1.88z"/>
   <path class="fil0" d="M233.07 301.17l-2.98 -8.2c-0.5,-2.83 0.11,-1.98 -0.98,-4.54 -1.31,-3.07 -0.36,-1.99 -3.32,-3.12 -1.96,1.85 -0.86,1.48 -4.06,1.66 -6.27,0.35 -5.71,0.17 -7.27,5 -1.06,3.28 -1.32,0.61 0,4.19 2.09,5.69 2.93,3.35 14.1,3.61 3.49,0.08 2.54,-0.19 4.5,1.41z"/>
   <path class="fil0" d="M612.68 398.74c0,1.65 7.69,9.63 10.34,9.87 2.43,0.22 4.56,-2.07 6.09,-3.61 1.44,-1.45 1.39,-1.25 2.96,-2.46 6.02,-4.62 -0.44,-7.2 -6.52,-7.2 -4.33,0 -12.87,-1.1 -12.87,3.39z"/>
   <path class="fil0" d="M444.65 398.74c0.66,2.48 1.81,2.97 4.37,5.11 4.12,3.45 6.4,8.29 14.84,-0.81 2.23,-2.41 -0.11,-1.34 2.47,-2.27l0 -3.39c-6.45,-1.5 2.64,-2.04 -12.87,-2.04 -3.32,0 -7.39,1.46 -8.81,3.39z"/>
   <path class="fil0" d="M614.71 272.72c3.15,1.52 18.29,3.24 18.29,-1.35 0,-3.43 -1.03,-3.5 -4.96,-7.23 -3.64,-3.45 -7.28,-1.4 -9.93,2.5l-1.89 2.85c-0.91,1.48 -1.1,1.7 -1.51,3.23z"/>
   <path class="fil0" d="M448.71 273.39c6.19,0 10.41,0.53 15.58,-0.68 0,-3.58 -4.59,-17.51 -14.76,-5.27 -0.89,1.07 -5.35,5.95 -0.82,5.95z"/>
   <path class="fil0" d="M571.35 988.89c5.85,0 4.1,-1.54 9.5,-1.65 2.57,-0.05 0.8,0.37 3.86,-0.52 1.81,-0.53 3.03,-0.78 4.75,-1.41l7.94 -3.57c3.26,-1.04 7.39,-0.7 10.53,-1.67 -2.63,-2.33 -9.75,-1.19 -14.02,-1.02 0.22,-1.85 0.24,-0.45 -1.05,0.17 -1.22,0.58 -1.68,0.66 -3.18,1.19 -3.05,1.06 -3.16,1.58 -5.48,3.09 -0.8,0.52 -0.52,0.51 -1.91,0.99l-4.66 1.28c-6.73,2.63 -6.28,-1.18 -6.28,3.12z"/>
   <path class="fil0" d="M532.73 355.38c2.58,0.6 3.72,1.35 7.45,1.35 1.65,0 -1.06,-0.24 2.75,-1.31 1.1,-0.31 2.25,-0.47 3.35,-0.72 0,-3.37 0.97,-3.45 -3.33,-6.84 -3.79,-2.98 -10.22,0.13 -10.22,7.52z"/>
   <path class="fil0" d="M717.24 794.43c1.15,-0.61 0.87,-1.59 1.95,1.13 0.47,1.18 0.56,2.91 0.57,4.94 0.01,3.27 0.34,7.34 -0.7,9.51 -1.51,0.68 0.27,0.01 -1.84,0.96 0.25,3.17 0.95,2.62 0.52,5.67 -0.25,1.79 -0.71,2.21 -0.77,5.07l3.32 2.46c2.56,-13.9 0.72,-9.56 0.24,-14.84l-0.21 -16.29c-0.06,-2.37 -0.17,-2.86 -0.59,-4.66l-1.65 -4.44c-0.04,3.14 0.44,2.83 -0.41,5.69 -0.76,2.54 -0.52,1.75 -0.42,4.8z"/>
   <path class="fil0" d="M216.39 261.2c-0.81,3.52 -2.07,4.95 -0.74,9.49 0.51,0.23 1.87,0.19 1.97,0.2 1.48,0.2 -0.86,-1.13 0.5,0.25l0.91 1.22c2.85,-0.29 2.57,-0.01 4.54,-1.67l-2.51 -9.38 -0.22 -1.2 -2.49 -0.34c-0.96,1.48 -0.07,0.96 -1.96,1.43z"/>
   <path class="fil0" d="M440.77 933.33l20.19 0.02c2.22,-0.21 1.68,0.24 1.99,-0.7 0.77,-2.15 0.6,-1.11 -0,-2.24l-21.94 0.07 -0.23 2.86z"/>
   <path class="fil0" d="M567.96 988.21c-2.07,0.52 -3.49,0.96 -5.82,1.57 -6.17,1.63 -4.48,0.19 -4.91,-0.22 5.28,-1.68 8.12,-1.65 12.66,-4.19 3.26,-1.82 4.73,-1.79 9.39,-3.53 0.23,-0.09 1.39,-0.48 1.52,-0.56 1.5,-0.85 0.26,0.05 1.26,-1.22 -10.88,1.83 -14.13,5.99 -18.9,6.71 -7.2,1.08 -3.06,0.8 -7.75,2.41 -3.29,1.14 -1.82,-0.85 -3.7,1.72 2,2.73 -0.07,1.05 8.14,0.69 3.11,-0.14 6.51,-0.97 8.12,-3.4z"/>
   <path class="fil0" d="M668.69 712.44c3.78,0 4.57,0.09 7.54,-0.68 -1.79,-5.95 -2.76,-3.07 -6.19,-6.56 -4.06,-4.14 -2.73,-2.24 -7.9,-5.05l0 2.79c3.94,0.2 6.32,3.17 8.46,6.1 -1.39,1.89 -1.33,0.96 -1.91,3.39z"/>
   <path class="fil0" d="M458.85 562.03c0.55,2.29 0.8,1.98 3.41,2.13 3.43,0.21 2.25,-0.79 4.67,2.51l3.93 6.35c3.4,0.24 -0.87,-1.42 3.11,-0.24l0.73 3.46 1.21 0c-0.24,-5.89 -0.37,-2.71 -2.37,-5.82 -0.92,-1.44 0.24,-1.11 -1.48,-2.58 -0.87,-0.74 -1.6,-0.5 -2.87,-1.14 -2.65,-1.33 -1.33,-2.76 -4.4,-3.83 -3.55,-1.23 -3.1,-0.49 -5.93,-2.35l-0.02 1.49z"/>
   <path class="fil0" d="M447.4 256.46c2.8,-0.95 3.39,-1.93 6.71,-2.08 1.04,-0.05 2.92,-0.03 3.89,0.21 2.03,0.49 0.3,0.57 3.3,1.19 -0.12,-0.15 -0.31,-0.55 -0.38,-0.44l-1.57 -2.44c2.54,-0.7 4.21,0.15 4.95,-1.85 -10.75,0 -2.26,3.1 -14.49,0.26 -1.8,-0.42 -3.74,-0.26 -5.66,-0.26 1.9,2.42 0.26,0.34 4.21,1.63 1.52,0.5 1.19,0.52 1.8,1.08 -2.01,1.52 -1.33,0.59 -2.76,2.71z"/>
   <path class="fil0" d="M614.16 257.81c3.52,0 2.66,-2.5 5.42,-3.26 2.41,-0.67 5.97,-0.24 8,0.55 1.95,-6.28 0.22,-0.37 1.93,-4.06 -3.3,0 -4.63,0.67 -6.67,0.67 -2.04,0 -3.56,-0.67 -6.87,-0.67l2.26 2.71 -2.74 2.85c-0.14,0.11 -0.31,0.25 -0.44,0.36l-0.89 0.85z"/>
   <path class="fil0" d="M223.42 276.1c-0.12,-4.13 1.49,-3.82 0.67,-7.8 -0.3,-1.44 -0.67,-2.29 -0.99,-3.81 -0.67,-3.17 0.47,-2.41 -2.04,-3.19l2.51 9.38c-1.97,1.66 -1.69,1.38 -4.54,1.67l-0.91 -1.22c-1.36,-1.38 0.98,-0.04 -0.5,-0.25 -0.1,-0.01 -1.46,0.03 -1.97,-0.2 -1.32,-4.54 -0.06,-5.97 0.74,-9.49 -1.15,1.21 -1.44,0.81 -1.46,4.71 -0.01,2.03 0.04,4.09 0.04,6.13 3.19,1.69 2.78,1.35 7.45,1.35 0.37,1.59 0.36,1.4 1.01,2.71z"/>
   <path class="fil0" d="M714.74 851.28c2.41,-1.36 0.95,-2.22 2.13,-5.48 0.81,-2.26 1.54,-4.15 2.02,-6.3l-2.9 -0.1c-0.52,5.09 -1.61,4.86 -3.1,8.55 1.63,3.56 1.45,-0.47 1.85,3.32z"/>
   <path class="fil0" d="M703.05 877.96c1.65,0.36 1.81,-1.3 3.01,-3.04 1.5,-2.18 3.28,-4.41 3.37,-8.11l-4.04 0.02 0.18 6.86c-2.2,2.27 -2.41,1.46 -2.51,4.26z"/>
   <path class="fil0" d="M712.76 768c-0.08,-4.52 0.24,-7.11 -2.28,-9.68 -1.31,-1.33 -1.79,-1.78 -2.87,-3.28l-2.89 -3.07 -0.18 2.72c2.65,2.1 2.43,2.67 6.15,5.17l0.28 6.78 1.79 1.35z"/>
   <path class="fil0" d="M653.26 934l0.07 0.82 3.33 -0.31c0.61,-0.84 1.03,-1.21 1.65,-2.27 2.85,-4.91 4.35,-3.28 5.49,-4.75 0.91,-2.92 0.29,-0.42 -0.54,-1.48 -1.06,0.84 -1.46,1.36 -2.3,1.79 -6.5,3.35 -1.81,1.98 -5.06,3.39 -1.06,0.45 -1.22,0.17 -2.59,0.77l-0.04 2.04z"/>
   <path class="fil0" d="M500.33 740.22c1.55,0 3.09,0 4.63,0.02 0.56,0 2.26,0.05 2.71,-0.01 2.49,-0.33 1.09,0.02 1.82,-0.69l-0.48 -2.04c-2.67,0.07 -2.1,0.46 -4.12,0.63 -1.98,0.16 -1.65,-0.25 -4.18,0.09l-0.37 2.01z"/>
   <path class="fil0" d="M438.29 539.63c-1.24,-2.74 -2.29,-3.1 -3.8,-5.13l-2.28 -0.45 2.87 3.04c0.08,0.09 0.23,0.22 0.31,0.32 0.81,1.02 0.01,-0.83 0.98,1.64 -4.88,-0.19 -0.05,-1.52 -5.21,-2.15 0.97,2.02 1.95,3.13 4.02,4.14l3.13 -1.41z"/>
   <path class="fil0" d="M301.8 409.58c2.63,0.06 1.5,-0.18 3.26,0.68 -0.27,-3.21 0.13,-2.59 -1.55,-3.72l-2.12 -1.43 0.42 4.48z"/>
   <path class="fil0" d="M783.85 256.46c1.3,-0.71 3.19,-1.72 3.43,-3.65 0.28,-2.24 -1.91,-1.77 -4.14,-1.77 0.64,1.78 -0.56,-0.03 0.64,0.87 0.25,0.19 0.53,0.29 0.85,0.51 0.13,0.09 0.38,0.24 0.5,0.31 0.12,0.08 0.35,0.21 0.51,0.34l-1.8 3.39z"/>
   <path class="fil0" d="M642.49 569.07c2.65,-0.27 1.25,-1.74 2.71,-4.28 2.52,0.5 0.24,-0.37 2.71,1.09 -0.62,-1.3 0.49,-0.74 -1.33,-1.91 -0.9,-0.57 -1.16,-0.58 -2.06,0.04 -1.45,1.01 -1.3,3.21 -2.03,5.06z"/>
   <polygon class="fil0" points="648.5,712.44 653.32,712.44 652.66,710.44 649,710.26 "/>
   <polygon class="fil0" points="344.17,453.24 344.05,451.22 341.59,450.98 341.7,452.81 "/>
   <path class="fil0" d="M701.44 980.07c-0.93,0.62 -3.22,1.85 -2.13,2.93 1.61,1.61 2.01,-1.5 2.13,-2.93z"/>
   <path class="fil0" d="M531.97 480.69c-0.59,0.65 -0.76,0.83 -1.22,1.84 2.78,0.09 1.92,0.61 2.97,-1.81l-1.75 -0.04z"/>
   <path class="fil0" d="M605.59 427.58c0.45,-1.9 0.5,-0.59 -0.37,-2.11 -2.12,1.25 -1.07,-1.24 -1.36,2.53l1.73 -0.42z"/>
  </g>
 </g>
</svg>
