<?xml version="1.0" encoding="UTF-8"?>
<!DOCTYPE svg PUBLIC "-//W3C//DTD SVG 1.1//EN" "http://www.w3.org/Graphics/SVG/1.1/DTD/svg11.dtd">
<!-- Creator: CorelDRAW 2020 (64-Bit) -->
<svg xmlns="http://www.w3.org/2000/svg" xml:space="preserve" width="1in" height="1in" version="1.1" style="shape-rendering:geometricPrecision; text-rendering:geometricPrecision; image-rendering:optimizeQuality; fill-rule:evenodd; clip-rule:evenodd"
viewBox="0 0 1000 1000"
 xmlns:xlink="http://www.w3.org/1999/xlink"
 xmlns:xodm="http://www.corel.com/coreldraw/odm/2003">
 <defs>
  <style type="text/css">
   <![CDATA[
    .fil2 {fill:#4B4B4D}
    .fil3 {fill:#4D4D4D}
    .fil1 {fill:#5D5D5F}
    .fil0 {fill:#E1E2E3}
   ]]>
  </style>
 </defs>
 <g id="Layer_x0020_1">
  <metadata id="CorelCorpID_0Corel-Layer"/>
  <polygon class="fil0" points="-9723.33,-3952.62 -7423.32,-3952.62 -7423.32,-4445.96 -9723.33,-4445.96 "/>
  <path class="fil1" d="M-9081.82 -4147.99c-33.91,22.13 -23.95,49.75 0.36,56.87 31.63,9.26 69.92,-12.89 86.16,11.83 -3.88,21.03 -20.51,22.36 -41.13,21.82 -27.49,-0.71 -31.09,-11.33 -47.84,-18.24l-23.57 34.08c25.54,10.97 40.46,23.4 77.95,21.52 87.27,-4.38 92.79,-80.46 50.23,-99.68 -30.91,-13.95 -69.34,5.35 -82.26,-6.18 10.29,-22.43 51.53,2.85 81.06,-27.54 19.37,-19.94 19.74,-57.3 7.67,-86.29 9.74,-4.56 9.4,-5.73 16.56,-12.84 -7.7,-9.98 -7.3,-4.59 -21.62,-24.75 -15.9,6.01 -15.55,13.86 -21.98,14.91 -7.39,1.21 -48.8,-19.27 -88.52,11.08 -22.83,17.45 -35.84,66.91 6.93,103.39z"/>
  <path class="fil2" d="M-8882.51 -4263.34c-42.01,12.83 -66.93,57.5 -53.8,113.8 10.41,44.61 49.49,75.19 106.38,60.27 94.95,-24.9 72.84,-212.35 -52.58,-174.07z"/>
  <path class="fil2" d="M-9239.07 -4263.28c-42.05,12.91 -66.93,57.46 -53.78,113.64 10.44,44.59 49.38,75.23 106.27,60.4 95.16,-24.81 73,-212.56 -52.49,-174.04z"/>
  <path class="fil2" d="M-8536.17 -4263.48c-88.42,27.74 -66.05,207.26 49.5,174.03 89,-25.6 69.52,-211.37 -49.5,-174.03z"/>
  <path class="fil1" d="M-7789.34 -4102.25l-9.95 -24.9c-21.93,8.98 -39.15,22.02 -69.61,9.95 -21.53,-8.53 -29.61,-27.32 -31.4,-56.56l124.96 -0.12c31.83,-93.84 -115.85,-134.11 -150.87,-41.38 -16.48,43.63 -3.79,88.61 21.93,110.36 35.87,30.33 75.85,19.34 114.94,2.65z"/>
  <polygon class="fil2" points="-9466.37,-4089.57 -9453.33,-4089.37 -9316.66,-4089.4 -9316.02,-4127.02 -9422.5,-4127.02 -9424.12,-4328.76 -9466.37,-4329.48 "/>
  <path class="fil2" d="M-8294.19 -4110.92c4.74,7.36 4.28,11.5 4.28,21.52l30.91 0 0 -175.25 -30.9 0c-0.01,22.35 5.71,120.59 -6.74,135.4 -7.42,8.83 -73.61,52.51 -73.39,-40 0.06,-25.77 2.69,-71.98 -1.28,-95.3l-27.91 0c-4.79,22.58 -3.93,127.86 4.31,146.83 17.3,39.8 80.22,42 100.72,6.81z"/>
  <path class="fil0" d="M-8521.59 -4241.5c-50.93,12.11 -52.8,144.68 21.13,128.93 52.29,-11.15 51.77,-146.26 -21.13,-128.93z"/>
  <path class="fil0" d="M-8872.06 -4229.38c-25.99,12.12 -28.36,44.39 -23.29,72.41 4.93,27.24 26.39,47.54 57.81,33.51 37.92,-16.93 33.38,-137.59 -34.52,-105.92z"/>
  <path class="fil0" d="M-9228.63 -4229.29c-13.23,6.32 -15.87,7.35 -21.67,26.51 -4.22,13.95 -4.32,30.8 -1.61,45.74 4.66,25.61 26.22,48.78 57.65,33.53 39.14,-18.99 32.41,-137.68 -34.38,-105.78z"/>
  <g id="_1856512700768">
   <path class="fil3" d="M572.06 399.29c11.33,0.94 42.76,21.37 50.71,27.83 14.89,12.09 26.94,24.36 38.65,39.89 23.2,30.76 40.37,75.07 40.37,116.71 0,23.06 -0.75,35.51 -7.26,57.96 -3.62,12.5 -8.35,23.74 -14.02,35.07 -11.75,23.5 -24.04,38.17 -42.02,56.16 -4.15,4.15 -8.06,7.44 -12.67,11.17 -4.8,3.89 -8.84,6.97 -14.09,10.46 -21.05,14.01 -42.5,24.08 -67.59,30.58 -30.85,8 -66.38,8.28 -97.23,-0.55 -13.8,-3.95 -23.92,-7.86 -35.46,-13.63 -10.71,-5.36 -20.61,-11.83 -30.44,-18.65 -5.98,-4.14 -22.06,-18.09 -25.95,-23.13l-11.54 -13.01c-9.66,-12.21 -16.32,-23.28 -24.34,-36.67 -1.53,-2.55 -3.04,-5.58 -4.21,-8.42 -8.35,-20.23 -13.63,-32.98 -18.01,-55.62 -10.04,-51.9 8.88,-107.04 38.65,-146.85 16.76,-22.41 37.37,-40.06 60.41,-55.3 4.28,-2.83 20.37,-12.19 25.25,-13.32 -2.74,-11.76 -13.15,-39.24 -17.43,-49.89 -6.62,-16.46 -13.3,-31.47 -22.13,-45.89 -3.99,-6.51 -22.4,-31.99 -29.69,-38.33 -22.49,-19.58 -60.8,-43.3 -72.28,3.11 -1.13,4.55 -1.65,12.22 -2.04,16.9 -0.54,6.43 2.94,23.5 4.3,28.98 3.37,13.63 9.25,26.3 15.63,36.96l15.93 24.04c2.01,2.91 3.74,4.99 5.33,8 -10.38,6.95 -18.63,17.24 -26.43,26.87 -2.74,3.39 -5.91,6.46 -7.93,10.3 -3.41,-2.28 -6.63,-4.19 -10.24,-6.59 -23.72,-15.83 -54.92,-36.19 -83.73,-36.19 -15.56,0 -32.52,1.33 -41.8,13.6 -11.05,14.61 0.63,37.45 8.83,48.82 14.28,19.78 43.16,38.76 65.22,49.78 2.88,1.44 13.07,6.76 16.13,7.01 0,7.99 -3.51,22.1 -3.51,34.36l0 16.83c-8.56,0 -21.07,1.18 -28.24,0.19 -6.42,-0.89 -53.03,1.76 -58.15,2.48 -31.61,4.48 -66.65,31.44 -44.06,61.15 4.43,5.83 10.48,9.54 16.56,13.6 12.78,8.54 53.46,16.54 74.62,16.54 13.81,0 25.31,-0.7 39.27,-0.7 0,13.83 2.5,25.52 6.39,37.79 0.97,3.06 3.35,8.43 3.43,12 -5.96,1.39 -11.24,4.81 -16.83,7.01 -16.66,6.57 -32.57,15.94 -45.05,28.58 -4.34,4.39 -8.13,7.64 -11.75,12.8 -12.41,17.7 -30.47,50.72 -2.78,65.18 12.25,6.39 28.53,5.21 41.76,2.55 6.95,-1.4 13.53,-3.13 19.32,-5.22 11.41,-4.11 21.88,-10.72 32.19,-16.89 5.19,-3.11 9.86,-6.46 14.69,-9.86 4.83,-3.39 9.07,-7.19 14.03,-10.51 2.6,1.74 2.48,2.4 4.42,4.7 0.91,1.09 1.47,1.44 2.39,2.52l11.6 12.24c4.33,4.37 15.17,13.99 20.87,17 -9.77,14.59 -21.93,27.09 -28.66,43.57l-9.52 26.94c-5.28,18.48 -11.33,68.33 19.24,68.33 13.88,0 25.69,-6.88 36.47,-14.02 7.51,-4.97 17.79,-15.86 23.74,-23.24 1.66,-2.06 3.36,-3.84 5.17,-6.05 1.87,-2.27 3.38,-4.31 5.15,-6.77 6.71,-9.28 12.85,-19.87 17.33,-30.36l7.51 -16.33c8.69,0.72 22.76,10.52 42.78,10.52l11.22 0c0,10.74 -1.4,24.78 -1.4,39.27 0,11.03 0.26,21.73 2.51,32.55 11.44,54.96 52.02,95.25 79.65,27.17 12.13,-29.89 12.77,-59.16 11.11,-91.28 -0.16,-3.17 -0.7,-3.31 -0.7,-7.01 9.14,0 19.33,-1.1 27.31,-2.85 5.81,-1.27 16.37,-5.87 21.08,-6.26 3.63,15.58 17.52,40.38 28.57,51.38 9.82,9.78 18.2,19.95 29.78,27.73 53.59,35.99 66.27,-9.78 58.48,-52.17 -2.87,-15.59 -10.29,-31.55 -19.94,-43.87 -5.72,-7.3 -20.5,-23.86 -24.65,-30.05 6.24,-4.18 12.28,-9.43 18.03,-14.23 2.29,-1.92 3.43,-3.58 5.81,-5.41 7.66,-5.84 16.65,-18.71 21.74,-22.44 1.93,0.52 3.35,2 5.19,3.23l15.72 10.23c25.9,15.61 74.57,34.79 103.93,19.52 23.21,-12.07 9.75,-39.02 -1.7,-53.72 -6.75,-8.67 -25.48,-25.39 -35.37,-32.65 -4.61,-3.39 -9.09,-6.16 -14.1,-9.04 -7.11,-4.09 -14.62,-8.14 -22.38,-11.28 -2.57,-1.05 -5.43,-3.15 -8.51,-3.41l3.81 -26.34c1.33,-9.3 1.1,-19.51 1.1,-29.76 2.12,1.02 38.31,1.44 44.2,1.43 4.46,-0 5.82,-0.78 10.49,-0.73 20.67,0.2 48.21,-5.88 63.93,-17.41 17.08,-12.54 26.92,-34.22 6.51,-49.51 -9.43,-7.07 -21.74,-13.44 -34,-15.09 -16.78,-2.26 -32.28,-4.23 -49.76,-4.23 -7.61,0 -13.52,0.75 -20.35,0.69 -6.45,-0.06 -14.09,1.42 -20.32,1.42 0,-9.03 -3.19,-21.13 -4.73,-28.93 -1.41,-7.15 -6.35,-21.09 -6.49,-27.17 9.73,-5.15 19.47,-9.63 28.89,-15.3l26.22 -17.96c15.28,-11.96 35.35,-33.43 35.35,-53.7 0,-7.71 -2.88,-15.82 -6.81,-19.83 -5.69,-5.81 -8.1,-7.8 -16.93,-10.42 -14.54,-4.31 -34.31,-0.09 -45.7,4.98 -12.33,5.49 -25.13,10.46 -36.93,17.07l-33.88 20.82c-3.19,-2.14 -13.96,-13.66 -22.57,-19.5 -3.08,-2.09 -6.02,-3.76 -8.98,-5.74 3.08,-13.24 16.91,-37.97 23.13,-51.9 10.72,-24.04 25.28,-59.06 10.51,-84.82 -4,-6.98 -11.42,-12.65 -20.32,-12.65 -17.59,0 -35.09,15.8 -44.35,25.07 -12.83,12.83 -21.58,24.02 -31.39,38.74 -4.6,6.91 -8.51,14.6 -12.16,22.2 -9.94,20.7 -16.01,42.54 -23.16,64.5 -1.49,4.57 -2.89,9.04 -3.94,13.59z"/>
   <path class="fil3" d="M471.78 773.06l60.31 0c0,-4.68 0,-9.36 -0.02,-14.04 -0.02,-5.15 0.73,-8.26 0.72,-14.01 -0.01,-4.67 0.02,-9.35 -0,-14.03 -0.03,-5.67 0.74,-8.35 0.71,-14.02 -0.02,-4.68 0.01,-9.36 -0,-14.03 -0.01,-5.76 0.74,-8.86 0.72,-14.01 -0.02,-4.92 -0,-9.83 -0.02,-14.74 -0.01,-5.76 0.74,-8.86 0.72,-14.01l-0.02 -21.06c0.17,-3.12 0.69,-3.37 0.74,-6.98 0.06,-4.65 -0.03,-9.39 -0.03,-14.06 0,-5.56 0.46,-9.54 0.7,-14.02 1.04,-19.11 -0.72,-38.89 1.3,-56.91 1.04,-9.27 -0.85,-19.28 0.51,-28.24 1.38,-9.14 -0.78,-19.04 0.49,-28.26 2.25,-16.42 -0.22,-39.18 1.25,-56.96 1.46,-17.68 1.13,-38.09 1.33,-56.87 0.1,-8.94 2.82,-11.3 9.04,-19.71l9.09 -12.65c1.18,-1.71 2.45,-2.94 2.94,-4.77l-129.73 0c4.79,9.06 11.7,18.41 16.91,27.27 2.4,4.09 1.85,14.52 2,19.74l0.7 14.03c0.04,3.62 0.56,3.86 0.73,6.98l2.5 56.4c0.98,6.47 1.36,46.23 2.5,56.41 1.02,9.07 0.53,19.11 1.34,28.82 0.75,9.06 1.05,18.33 1.34,28.11l0.7 14.03c0.05,4.34 0.7,5.6 0.7,14.02 0,4.86 0.74,8.3 0.71,14.02 -0.07,13.17 2.93,43 2.83,56.08l4.16 91.92c-0.05,2.98 -0.69,5.57 2.14,5.57z"/>
   <path class="fil3" d="M572.76 11.48c1.5,2.83 2.91,4.41 4.45,7.47 5.52,10.93 7.43,15.83 7.48,30.41 0.07,17.67 -9.54,29.48 -20.88,40.83 -7.63,7.64 -18.83,16.01 -27.81,21.98l-38.01 24.41c-9.81,6.54 -9.28,6.7 -9.44,1.19 -0.54,-18.24 -7.09,-38.44 -15.52,-52.53 -7.61,-12.72 -19.8,-23.47 -33.06,-30.05 -3.87,-1.92 -13.61,-6.88 -18,-7.24 1.89,2.82 4.46,5.6 6.28,8.45 7.12,11.14 10.5,21.12 7.2,35.18 -7.71,32.83 -45.7,57.16 -57.23,92.14 -2.57,7.82 -5.84,29.83 -0.88,39.3 1.88,3.58 4.39,5.08 9.54,5.19 27.91,0.57 62.08,-0.04 90.5,-0.04 39.97,0 79.94,0 119.92,0 -0.06,-2.64 -0.75,-3.91 -1.27,-5.74 -7.63,-26.79 15.61,-55.49 28.76,-74.76 1.97,-2.89 3.76,-5.24 5.88,-8.15 5.5,-7.56 12.41,-18.56 15.63,-27.15 5.65,-15.07 1.72,-29.86 -13.23,-37.77 0,6.95 1.21,12.69 -1.65,21.5 -5.32,16.41 -20.9,30.89 -34.82,40.22 1.5,-6.46 37.2,-59.29 1.81,-104.2 -4.66,-5.91 -18.37,-18.93 -25.66,-20.63z"/>
   <path class="fil3" d="M368.69 248.52c0,7.32 13.44,10.52 21.04,10.52l211.08 0c28.44,0 24.98,-21.74 4.21,-21.74l-220.9 0c-3,0 -8.06,1.87 -10.13,3.19 -2.68,1.71 -5.3,4.02 -5.3,8.03z"/>
   <path class="fil3" d="M386.92 278.67c0,4.17 -0.56,6.43 5.83,9.6 2.48,1.24 6.15,2.32 9.6,2.32l183.73 0c3.46,0 7.12,-1.08 9.61,-2.32 11.36,-5.64 6,-18.02 -10.31,-18.02l-182.33 0c-5.13,0 -10.36,1.52 -13.74,4.49 -0.86,0.76 -2.39,2.69 -2.39,3.92z"/>
   <path class="fil3" d="M406.56 314.43c0,2.73 2.32,5.74 4.01,7.21 2.04,1.79 5.06,3.31 8.61,3.31l154.28 0c15.73,0 16.18,-21.04 -0.7,-21.04l-152.17 0c-3.74,0 -7.04,1 -9.26,2.67 -1.95,1.46 -4.77,4.79 -4.77,7.85z"/>
   <polygon class="fil3" points="572.76,11.48 572.76,10.78 571.94,11.37 "/>
  </g>
 </g>
</svg>
