<?xml version="1.0" encoding="UTF-8"?>
<!DOCTYPE svg PUBLIC "-//W3C//DTD SVG 1.1//EN" "http://www.w3.org/Graphics/SVG/1.1/DTD/svg11.dtd">
<!-- Creator: CorelDRAW 2020 (64-Bit) -->
<svg xmlns="http://www.w3.org/2000/svg" xml:space="preserve" width="1in" height="1in" version="1.1" style="shape-rendering:geometricPrecision; text-rendering:geometricPrecision; image-rendering:optimizeQuality; fill-rule:evenodd; clip-rule:evenodd"
viewBox="0 0 1000 1000"
 xmlns:xlink="http://www.w3.org/1999/xlink"
 xmlns:xodm="http://www.corel.com/coreldraw/odm/2003">
 <defs>
  <style type="text/css">
   <![CDATA[
    .fil0 {fill:#4D4D4D}
   ]]>
  </style>
 </defs>
 <g id="Layer_x0020_1">
  <metadata id="CorelCorpID_0Corel-Layer"/>
  <path class="fil0" d="M429.61 131.94l6.79 27.04c2.15,9.74 4.06,18.83 5.62,29.11 1.57,10.27 2.94,19.44 4.12,29.7 1.54,13.39 6.17,50.61 6.33,62.24l2.35 32.38c1.31,8.73 1.06,16.52 1.27,24.33 0.12,4.38 0.73,4.17 0.94,8.19 0.56,10.31 -0.04,23.56 1.44,33.3 0.77,5.09 0.39,10.78 0.36,16.09 -0.02,6.5 0.98,9.47 0.94,16.43 -0.15,29.79 2.78,70.23 2.74,100.56 -0.04,30.77 -0.85,73.44 0,103.35l-0 32.85c0,46.46 0.92,90.22 0.92,136.2l0 145.6c0,16.54 -1.6,15.02 3.77,30.96l8.11 26.62c3.26,-2.39 12.8,-36.59 12.84,-42l-0.04 -931.78c-1.58,1.81 -1.12,1.07 -1.8,3.69 -0.43,1.64 -0.52,2.93 -0.93,4.56 -4.44,18.02 -17.62,45.39 -26.82,61.85l-20.11 34.74c-0.95,1.61 -8.85,14 -8.85,14zm180.08 430.55l0 380.53c0,5.5 6.28,26.41 8.57,33.48 2.09,6.43 1.24,8.21 4.23,10.4 0.39,-4.74 5.2,-16.99 6.97,-22.28 3.8,-11.39 5.9,-13.89 5.83,-24.33 -1.02,-159.87 -0,-124.42 -0,-284.55 0,-14.89 -0.52,-60.29 1.44,-73.52 1.72,-11.62 2.22,-25.25 4.56,-41.15 4.89,-33.24 12.67,-67.28 22.22,-98.44 2.3,-7.49 4.67,-15.82 7.43,-22.74 9.43,-23.65 12.92,-37.75 25.91,-64.59 1.79,-3.7 2.7,-6.39 4.56,-10.07 1.89,-3.75 3.43,-6.86 5.18,-10.36l10.06 -20.11 -53.93 -60.33c-4.32,8.17 -13.81,39.69 -16.77,49.96 -1.82,6.31 -2.98,11.64 -4.84,18.01 -10.45,35.75 -19.7,95.49 -24.17,133.97l-6.33 72.29c-0.2,3.81 0.27,8.06 -0.04,11.84 -0.58,6.98 -0.87,13.68 -0.87,21.98zm-326.34 -247.72c10.69,15.97 31.51,64.15 38.26,82.41 20.46,55.36 34.86,110.14 41.12,170.04 4.6,44.07 2.9,104 2.9,147.93l-0 224.22c-0.06,15 6.56,28.04 11.07,41.95 0.1,0.3 0.74,2.32 0.92,2.74 0.79,1.82 0.51,1.44 1.73,2.84l10.2 -35.5c2.05,-7.32 0.76,-125.56 0.76,-139.09 0,-16.04 0.91,-28.81 0.91,-44.79l0 -189.48c0,-44.69 -3.05,-71.53 -6.32,-110.69 -1.61,-19.25 -5.24,-44.51 -8.31,-63 -2.22,-13.33 -4.56,-26.95 -7.08,-39.54l-8.85 -38.69c-4.28,-15.02 -15.75,-57.69 -22.47,-71.69 -5.67,3.8 -27.7,30.45 -34.04,37.26l-20.81 23.07zm277.89 220.3l0 410.69c0,3.98 4.19,16.54 5.37,20.22l7.43 20.91c0.48,-5.83 11.88,-34.39 11.88,-40.22l0 -119.09c0,-15.5 1.69,-45.34 -0.39,-59.03 -1.72,-11.37 -0.53,-153.45 -0.53,-177.72 0,-16.16 -1.64,-45.49 0.53,-59.8l1.32 -27.93c-0.03,-6.17 0.76,-8.24 0.89,-13.73 0.87,-34.84 18.23,-131.85 28.44,-166.26 7.59,-25.55 14.04,-53.49 23.79,-79.5 0.91,-2.44 4.05,-9.05 3.77,-10.88l-37.56 -51.58c-1.97,-2.91 -11.28,-15.22 -12.06,-18.11l-7.14 19.37c-5.5,22.1 -10.94,63.93 -13,87.56 -0.63,7.16 -1.11,15.83 -2.19,23.41 -1.09,7.59 -0.84,15.17 -1.97,22.71l-5.74 94.81c-0.41,3.69 -0.15,8.84 -0.12,12.68l-2.76 85.91c0.01,8.53 0,17.07 0,25.6zm-204.76 -303.49l11.31 33.48c24.45,72.89 47.19,189.6 47.19,266.35l0 307.4c0,26.4 -2.66,84.9 -0.9,106.94 0.42,5.24 10.87,32.93 12.78,41.15 3.13,-2.3 0.93,0.24 2.27,-4.13 2.2,-7.13 10.53,-34.54 10.53,-37.92l-0.91 -456.4c0,-4.58 0.04,-9.17 0.03,-13.74 -0.01,-5.65 -0.97,-7.08 -0.98,-12.73 -0,-4.57 0.02,-9.17 0.04,-13.75 0.03,-5.81 -0.68,-8.24 -0.93,-12.78 -0.23,-4.34 0.04,-9.34 0.04,-13.75 -0.01,-5.65 -0.97,-7.08 -0.98,-12.74 -0.04,-37.69 -6.19,-91.94 -8.22,-128.89 -0.43,-7.7 -2.01,-16.83 -2.69,-24.74 -1.76,-20.34 -9.46,-75.78 -17.39,-92.3l-37.61 51.97c-3.32,4.43 -9.59,13.92 -13.58,16.59zm167.28 755.31l1.83 0c0.22,-9.63 11.99,-30.21 11.89,-47.53l-0 -61.51c0,-106.34 0,-212.69 0,-319.03 0,-27.04 1.06,-51.42 0.9,-78.63 -0.04,-7.11 0.96,-10.75 0.93,-18.27 -0.02,-6.39 -0.35,-13.85 -0.01,-20.11l5.52 -114.23c0.74,-26.96 5.63,-81.77 9.38,-110.37 2.8,-21.33 8,-55.33 14.02,-75.56 0.73,-2.47 2.18,-5.44 2.55,-7.54 0.59,-3.38 -4.44,-9.66 -6.42,-12.6l-14.67 -24.63c-2.5,-4.56 -4.57,-8.42 -7.24,-12.87 -10.86,-18.14 -22.43,-45.97 -28.15,-66.91l-1.48 884.52c0,25.47 -0.92,-150.25 -0.92,-124.98l-0.04 166.41c0.06,10.02 11.26,35.78 11.93,43.83z"/>
 </g>
</svg>
