<?xml version="1.0" encoding="UTF-8"?>
<!DOCTYPE svg PUBLIC "-//W3C//DTD SVG 1.1//EN" "http://www.w3.org/Graphics/SVG/1.1/DTD/svg11.dtd">
<!-- Creator: CorelDRAW 2020 (64-Bit) -->
<svg xmlns="http://www.w3.org/2000/svg" xml:space="preserve" width="1in" height="1in" version="1.1" style="shape-rendering:geometricPrecision; text-rendering:geometricPrecision; image-rendering:optimizeQuality; fill-rule:evenodd; clip-rule:evenodd"
viewBox="0 0 1000 1000"
 xmlns:xlink="http://www.w3.org/1999/xlink"
 xmlns:xodm="http://www.corel.com/coreldraw/odm/2003">
 <defs>
  <style type="text/css">
   <![CDATA[
    .fil0 {fill:#4D4D4D}
    .fil3 {fill:#FBFBFB}
    .fil6 {fill:#FCF4F3}
    .fil2 {fill:#FDFDFD}
    .fil5 {fill:#FEF9F8}
    .fil4 {fill:#FEFEFC}
    .fil1 {fill:#FEFEFE}
   ]]>
  </style>
 </defs>
 <g id="Layer_x0020_1">
  <metadata id="CorelCorpID_0Corel-Layer"/>
  <g id="_1856101028096">
   <path class="fil0" d="M338.61 644.31c1.37,-7.14 4.51,-11.77 7.67,-16.24 16.37,2.36 12.28,18.51 3.29,23.65l-10.96 -7.41zm162.14 116.51c-4.66,-10.97 -1.91,-96.57 27.81,-121.63 3.61,-3.04 12.2,-7.82 14.89,-10.55 4.33,-4.4 4.3,-9.82 9.69,-15.51 25.26,-3.06 21.24,19.06 4.56,26.76 -30.94,14.27 -41.69,2.52 -50.38,68 -1.37,10.35 -3.63,46.67 -6.57,52.93zm381.43 -141.96c2.41,-6.87 5.13,-14.02 9.24,-18.62 11.56,7.08 15.66,20.72 9.1,36.72 -3.1,7.57 -4.7,11.11 -10.57,14.87 -4.97,3.18 -11.33,6.57 -18.45,7.7 4.93,-9.43 13.02,-10.7 18.5,-18.22 7.33,-10.05 -3.57,-15.3 -7.81,-22.45zm-512.83 40.5c2.69,-5.36 7.35,-7.85 11.82,-11.93 7.14,-6.51 15.94,-17.45 20.13,-26.28 2.72,-5.72 3.43,-10.69 6.65,-15.87 1.65,2.56 1.41,4.51 0.43,9.18 -4.49,21.5 -12.38,42.51 -39.03,44.89zm308.28 -7.24c-6.12,11.83 -13.41,34.54 -29.93,32.39 0.13,-7.52 4.48,-9 8.46,-13.52 14.71,-16.66 19.54,-36.38 26.63,-39.36 9.14,-3.85 74.75,26.12 141.19,-20.35 10.25,-7.17 14.91,-14.48 22.96,-20.6 7.11,-5.41 7.83,-1.14 14.35,1.51 6.27,2.54 11.46,0.69 11.5,-5.67 -7.26,-6.66 -22.94,2.83 -11.92,-19.17 2.59,-5.18 3.92,-9.73 9.61,-9.75 7.26,-0.02 20.05,14.2 4.65,39.01 -11.31,18.22 -13.68,5.21 -27.13,5.47 -3.68,1.09 -43.1,57.3 -119.75,57.13 -32.49,-0.07 -37.28,-5.98 -50.63,-7.1zm-238.17 -70.69c0.6,-6.82 4.65,-11.82 6.85,-16.67 6.36,0.83 11.82,4.48 12.01,10.7 0.17,5.5 -5.15,10.67 -7.46,12.83 -4.18,-1.02 -8.23,-3.51 -11.4,-6.86zm-67.47 4.57c-0.58,-8.6 -2.1,-10.02 2.87,-18.24 3.53,-5.84 4.79,-10.2 6.93,-16.93 6.94,2.7 7.19,5.5 15.6,8.24 6.75,2.2 9.61,2.36 14.93,5.68 1.45,9.77 -2.24,17.77 -9.22,19.18 -10.04,2.03 -12.57,-2.55 -22.7,4.35 -6.52,4.44 -9.13,9.53 -13.91,13.13 -8.5,6.39 -10.74,-0.76 -19.89,-1.9 -6.04,2.89 -11.62,10.25 -15.65,14.18 -16.86,16.45 -29.36,24.76 -54.36,33.94 -15.49,5.69 -31.7,9.4 -49.73,9.49 -32.57,0.17 -38.78,-6.1 -52.64,-7.1 -4.49,11.93 -14.65,35.9 -28.55,32.24 -1.74,-5.78 3.33,-9.35 7.1,-13.28 14.36,-14.93 21.32,-37.05 25.86,-39.58 4.25,-2.37 34.94,6.57 60.24,5.94 34.7,-0.87 71.24,-13.48 94.48,-35.76 5.07,-4.87 9.79,-15.16 18.46,-12.99 10.72,2.68 5.83,9.71 20.2,-0.59zm378.73 -16.54c4.41,-4.34 4.25,-7.04 8.98,-9.79 14.35,6.24 8.58,14.98 2.06,23.43 -6.65,-1.04 -7.31,-3.74 -12.75,-6.32 -5.31,11.94 -11.83,12.47 -18.7,1.66 2.27,-5.52 6.04,-11.81 9.92,-15.19 5.6,1.72 6.54,4.06 10.48,6.21zm-111.93 0.55c1.23,-3.35 0.69,-2.78 3.11,-6.09 2.49,-3.4 0.89,-1.63 4.04,-4.19 14.62,4.44 11.67,18.71 0,23.38 -5.63,-2.86 -3.26,-3.84 -8.98,-5.9 -4.32,4.74 -2.81,5.21 -8.98,9.37 -5.49,-1.66 -5.72,-3.77 -10.74,-6.17 1.48,-6.26 5.17,-12.28 9.25,-16.8 6.63,0.8 7.24,2.98 12.31,6.4zm21.35 58.3c-11.1,2.37 -11.93,-4.09 -20.95,4.74l-30.96 24.41c-45.13,18.68 -25.07,-76.11 -13.5,-89.33 -1.32,12.31 -3.85,24.69 -5.01,37.56 -1.17,12.98 -4.02,31.72 9.82,33.15 6.56,-8.71 7.47,-26.96 22.45,-24.52 6.41,6.54 4.09,10.45 3.6,20.39 8.19,-1.2 22.91,-20.98 30.83,-29.42 8.84,6.7 9.69,12.56 3.72,23.02zm160.24 -55.85c1.16,-6.29 4.18,-12.46 8.17,-16.12 8.84,0.87 17.77,9.97 2.65,23.74l-10.82 -7.62zm-574.03 16.8c2.41,-6.21 12,-11.42 16.79,-16.42 4.06,-4.25 10.67,-14 17.26,-15.53 -1.6,6.17 -9.78,15 -13.96,18.84 -5.84,5.35 -10.28,11.07 -20.09,13.11zm214.93 -47.67c0.23,6.79 -1.31,8.8 -4.22,12.43 -5.09,0.13 -3.86,0.41 -7.04,-1.91 -3.1,2.71 -4.35,4.71 -11.32,4.11l0.98 -10.72c0.24,0.28 0.5,0.72 0.63,0.91 3.67,5.74 1.61,3.85 5.86,5.09l3.96 -7.24c6.36,5.75 -2.1,3.52 7.86,4.61l3.3 -7.28zm-302.62 69.13c-4.39,-3.14 -28.61,-5.31 -5.29,-39.9 7.02,-10.41 20.58,-27.13 36.34,-29.84 -1.09,23.76 -12.78,18.83 -18,21.13 -4.96,2.19 -18.24,12.61 -18.18,22.43 11.24,5.3 13.93,5.14 11.39,21.83 -10.3,67.87 -83.43,69.14 -66.78,7.99 4.34,-15.93 8.54,-21.36 14.38,-34.98 4.45,-10.39 3.59,-8.17 7.01,-10.34 -1.81,16.15 -26.24,48.35 -11.8,62.65 16.68,16.52 50.87,-3.07 50.93,-20.97zm306.21 -1.73c1.54,-6.35 4.51,-10.29 6.24,-16.75 5.5,-20.57 -4.49,-22.54 14.49,-51.82l-7.23 45.36c4.83,-3.87 11.98,-12.75 21.2,-6.18 4.72,7.04 -0.36,13.13 -2.69,20.61 8.37,-4.13 17.2,-4.95 15.59,-15.77 -2.87,-1.51 -1.93,-0.61 -4.33,-1.41l-4.33 -1.58c3.83,-8.78 19.06,-16.23 29.19,-8.29 1.69,6.19 -1.2,8.96 -2.54,14.11 10.01,-1.79 15.2,-10.52 25.85,-22.13 3.65,-3.97 2.88,-5.37 7.33,-7.66 4.69,4.32 8.97,8.59 6.14,16.57 -3.09,8.71 -7.11,6.17 -15.09,6.39 -15.04,0.42 -9.43,16.35 -31.46,17.72 -8.1,0.5 -10.57,4.12 -18.13,7.09l-36.19 11.69c-9.32,2.91 -8.78,3.73 -13.9,8.96 4.35,2.7 8.93,4.82 12.58,7.86 0.92,15.44 -11.48,21.23 -24.29,24.87 -14.52,4.13 -24.71,7.28 -30.89,18.53 -13.18,23.97 -8.26,72.48 -14.78,84.09 -2.1,-16.5 0.62,-47.54 3.34,-63.91 3.75,-22.55 11,-31.72 22.69,-43.35 7.13,-7.09 11.46,-6.35 17.44,-15.45 17.12,-26.01 13.94,-24.31 43.95,-38.35 6.62,-3.1 7.67,-2.21 8.18,-8.27 -14.69,-7.37 -18.57,12.4 -28.32,17.07zm190.05 -121.54c6.28,5.88 3.3,6.62 0.32,13.45 -3.58,-0.86 -1.22,0.44 -4.83,-1.69 -3.54,-2.1 -2.2,-2.04 -3.12,-3.08 1.04,-2.33 1.85,-4.8 2.95,-6.18 2.97,-3.71 0.29,-1.6 4.69,-2.5zm-1.31 -10.89c6.87,-13.02 16.04,-0.86 5.43,8.5 -4.76,-1.72 -1.81,0.61 -5.09,-3.83l-3.57 2.88c-1.53,1.38 -1.54,1.59 -3.17,3.32l-7.35 -4.79 6.38 -10.64 7.38 4.56zm-40.8 0.07c3.75,-2.98 3.35,-4.58 7.69,-6.03 8.61,5.86 4.7,8.86 -0.34,14.83l-7.32 -4.05c-1.96,3.45 -1.24,3.54 -6.12,6.3l-6.11 -5.26 6.34 -10.38 5.86 4.58zm-40.87 -58.8c20.95,2.41 8.2,35.41 -1.76,38.65 -13.73,4.46 -6.63,-13.15 -4.97,-18.41 1.55,-4.91 -0.35,-2.87 2.47,-9.63 1.63,-3.91 3.02,-7.07 4.26,-10.61zm-29.85 40.3c1.87,-18.04 1.74,-44.17 10.8,-56.63 -0.43,10.39 -0.09,21.75 -1.12,31.77 -0.56,5.42 -1.33,8.69 -3.06,13.47l-5.56 10.42c-0.16,-0.28 -0.7,0.65 -1.06,0.97zm-139.8 0.25c2.39,-6.38 4.5,-5.31 8.66,-8.72 11.82,-9.67 14.96,-18.93 19.07,-34.82 0.95,1.38 2.98,-1.04 1.24,8.5 -0.48,2.6 -1.2,5.14 -1.76,7.44 -3.78,15.48 -6.35,26.05 -27.2,27.59zm39.16 -35.61c2.66,-8.01 9.88,-20.51 21.58,-17.35l0.37 5.69c-5.96,0.86 -10.07,-3.33 -12.38,5.69 8.17,5.39 12.19,-0.2 19.74,-1.68 -2.51,6.44 -14.82,10.76 -25.58,23.96 -5.96,7.32 -17.89,22.54 -10.1,35.94 6.07,10.44 22.73,12.77 34.99,6.94 14.95,-7.12 21.34,-18.72 26.52,-22.27 -3.78,17.74 -33.69,52.26 -58.92,38.21 -11.99,-6.68 -14.19,-20.85 -9.53,-36.96 4.52,-15.63 14.56,-22.11 18.48,-32.17 -3.83,-3.56 -3.09,-2.03 -5.17,-5.99zm220.51 9.44c-0.64,27.47 -20.31,34.46 -20.53,8.59l5.41 -42.54 5.41 -10.19c-0.73,9.52 -2.65,18.82 -3.46,28.65 -0.9,10.89 -3.28,22.26 7.67,23.62 3.5,-3.37 2.54,-4.7 5.5,-8.12zm-247.96 -8.09c-0.15,8.19 -1.52,10.61 -6.36,14.81 -7.26,6.3 -3.95,4 -12.33,7.27 -6.6,2.57 -18.09,21.24 -25.36,7.04 -6.84,-13.37 2.17,-56.43 9.26,-65.06 -1.59,13.62 -7.54,37.17 -3.33,49.95 8.19,11.21 13.86,1.95 19.99,-0.38 6.12,-2.33 7.55,0.9 18.14,-13.64zm-82.23 33.88c-27.16,-0.96 -15.78,-39.81 -5.5,-54.27 1.41,-1.97 1.1,-1.48 2.41,-2.77 -2.58,10.07 -15.03,30.96 -4.72,39.92 6.28,5.46 30.77,4.31 32.48,-12.13 -4.04,-4.78 -9.69,-4.7 -8.59,-13.19 0.54,-4.08 4.7,-11.07 6.24,-15.28 5.75,-15.85 -8.91,-11.93 1.86,-30.81 12.91,12.43 1.8,25.84 -1.38,39.82 4.8,6.09 7.77,2.96 6.62,14.72 -1.41,14.4 -12.39,34.58 -29.43,33.98zm0.89 -78.31c1.58,-7.37 2.83,-8.55 6.44,-10.58 7.56,4.43 5.93,8.45 -0.05,13.66l-6.4 -3.07zm178.57 43.61c14.48,-10.75 3.62,-38.38 16.96,-55.6l-5.02 40.98 4.52 -3.92c10.79,-9.98 15.13,-0.98 14.14,5.15 -0.97,6.02 -7.6,16.61 -10.94,20.56 -7.26,8.61 -19.63,11 -31.63,6.13 -3.78,7.32 -6.34,16.48 -12.94,19.83 -4.13,2.1 -10.49,1.45 -12.89,-2.04 -3.02,-4.38 0.11,-5.86 2.03,-10.46 5.09,-12.24 -1.24,-41.43 9.85,-53.77 0.64,19.29 -0.52,43 -8.03,57.91 29.06,2.5 8.6,-52.03 25.09,-67.01 0.3,20.28 -6.54,39.28 8.85,42.24zm-5.87 -57.41c3.44,5.41 -0.89,2.42 4.88,4.5l2.03 -4.93c0.35,0.29 0.76,0.75 1.01,0.93 0.24,0.16 0.71,0.64 0.99,0.8 1.36,0.78 0.35,3.49 6.09,-1.46 -1.12,9.51 -0.75,5.19 -8.58,6.83l-5.96 1.69c-2.2,-5.49 -1.62,-2.29 -0.46,-8.36zm128.55 13.05c2.21,-4.61 15.07,-16.25 20.38,-18.38 -2.54,4.26 -2.23,2.43 -4.36,7.54 5.97,-4.06 3.63,-4.47 10.06,-7.11 -5.05,18.59 -41.41,43.76 -55.54,56.15 31.56,12.36 21.13,8.82 30.98,2.63 -3.01,12.67 -5.83,15.51 -18.04,11.76 -2.64,11.04 -9.33,32.2 -23.92,24.54 -10.01,-5.7 -5.21,-29.51 -3.55,-40.17 1.91,-12.25 3.28,-28.76 10.88,-36.09l-5.38 35.66 51.23 -42.99c3.17,-3.46 0.87,-0.19 2.92,-4.28 -6.4,3.88 -9.9,7.78 -15.65,10.75zm-591.57 412.44c21.49,2.44 56.75,0.35 79.73,0.35l800.79 0c14.92,0 34.09,2.84 35.24,-3.85 0,-0.02 1.32,-341.97 -0.39,-358.44l-189.02 -0.01c-4.59,-1.03 -2.51,-1.77 -7.32,-11.3 -17.07,-33.8 -41.02,-38.59 -75.46,-39.91 -5.95,-23.75 -17.75,-38.57 -33.84,-48.41 -25.63,-15.67 -36.65,-12.26 -66.71,-8.54 0.45,-29.97 -17.08,-37.62 -37.29,-49.1 -15.76,-8.95 -26.31,-13.58 -37.33,-27.02l-8.48 -12.48c-3.87,5.67 -3.96,7.98 -8.91,13.52 -30.61,34.31 -74.41,28.89 -73.57,75.06 -28.6,-4.03 -44.45,-6.16 -67.02,8.88 -7.38,4.92 -16.58,13.18 -21.43,20.48 -9.27,13.96 -9.35,22.21 -13.18,27.66 -24.29,1.11 -34.59,1.11 -52.11,13.34 -9.51,6.63 -23.33,22.45 -26.5,37.69l-197.54 0.54 0.34 361.53z"/>
   <path class="fil0" d="M24.74 413.78l185.85 0.02c3.3,-12.65 21.68,-36.72 29.06,-42.59 25.16,-20.01 52.79,-11.7 58.42,-14.96 5.22,-5.83 8.67,-22.02 15.13,-31.19 6.46,-9.17 13.69,-16.85 23.3,-23.08 27.08,-17.53 44.05,-12.75 76.28,-7.48 2.37,-32.21 4.67,-37.29 36.57,-54.83 48.43,-26.63 35.31,-26.16 51.39,-39.36 23.86,24.75 14.93,19.04 50.55,38.74 30.63,16.94 36.31,23.89 36.37,54.03 15.61,0.44 25.14,-5.47 43.2,-3.42 22.79,2.59 45.52,16.74 57.45,35.34 9.91,15.45 9.41,27.94 15.74,30.98 13.21,6.31 58.53,-12.8 87.39,57.48l183.81 0.34 -0.02 393.68 -950.5 -0.01 -0 -393.7zm377.22 -132.93c-30.05,-2.22 -49.63,-2.94 -72.06,13 -17.3,12.29 -30.26,26.51 -37.61,52.2 -34.89,1.34 -57.48,7.29 -75.49,35.27 -3.09,4.8 -10.43,19.76 -15.42,21.93l-187.09 0.01 -0 414.67 971.41 0.01 0.02 -414.69 -187.39 -0.01c-12.85,-35.07 -41.17,-57.46 -89.25,-57.07 -7.49,-25.52 -20.13,-40.29 -37.5,-52.31 -25.19,-17.42 -40.95,-14.94 -73.24,-12.8 -1.62,-29.62 -24.57,-41.52 -45.94,-53.57 -60.19,-33.97 -34.46,-38.22 -53.03,-45.42 -13.91,13.13 -1.04,18.33 -50.94,46.18 -18.68,10.43 -30.75,15.41 -40.3,33.09 -3.99,7.39 -3.49,12.95 -6.15,19.51z"/>
   <path class="fil1" d="M407.06 575.98c-2.59,1.35 -2.1,1.99 -6.58,1.75 -4.27,-0.23 -4.43,-1.5 -5.63,-1.93l0.89 -6.74c4.3,-1.87 12.82,0.16 11.32,6.92zm-29.04 -0.46c-5.54,-10.69 9.19,-14.47 13.34,-4.55 -2.26,5.91 -7.34,7.26 -13.34,4.55zm-6.03 10.5c-14.37,10.3 -9.48,3.26 -20.2,0.59 -8.67,-2.17 -13.38,8.12 -18.46,12.99 -23.23,22.28 -59.78,34.89 -94.48,35.76 -25.3,0.63 -55.99,-8.31 -60.24,-5.94 -4.54,2.53 -11.5,24.65 -25.86,39.58 -3.77,3.93 -8.84,7.5 -7.1,13.28 13.89,3.67 24.06,-20.3 28.55,-32.24 13.86,1 20.07,7.27 52.64,7.1 18.03,-0.09 34.24,-3.8 49.73,-9.49 25,-9.18 37.5,-17.5 54.36,-33.94 4.03,-3.93 9.61,-11.28 15.65,-14.18 9.15,1.14 11.39,8.29 19.89,1.9 4.78,-3.59 7.39,-8.69 13.91,-13.13 10.13,-6.9 12.67,-2.32 22.7,-4.35 6.98,-1.41 10.68,-9.41 9.22,-19.18 -5.31,-3.31 -8.17,-3.47 -14.93,-5.68 -8.41,-2.74 -8.66,-5.55 -15.6,-8.24 -2.14,6.73 -3.4,11.09 -6.93,16.93 -4.97,8.22 -3.45,9.63 -2.87,18.24z"/>
   <path class="fil1" d="M872.79 586.54c-0.04,6.36 -5.23,8.21 -11.5,5.67 -6.52,-2.65 -7.24,-6.91 -14.35,-1.51 -8.06,6.12 -12.71,13.43 -22.96,20.6 -66.44,46.47 -132.04,16.5 -141.19,20.35 -7.09,2.98 -11.93,22.7 -26.63,39.36 -3.99,4.52 -8.33,6 -8.46,13.52 16.51,2.16 23.8,-20.55 29.93,-32.39 13.35,1.12 18.14,7.03 50.63,7.1 76.65,0.17 116.07,-56.05 119.75,-57.13 13.44,-0.26 15.81,12.75 27.13,-5.47 15.39,-24.81 2.61,-39.04 -4.65,-39.01 -5.69,0.02 -7.02,4.57 -9.61,9.75 -11.02,22 4.65,12.51 11.92,19.17z"/>
   <path class="fil2" d="M464.87 608.99c9.76,-4.67 13.64,-24.43 28.32,-17.07 -0.5,6.06 -1.56,5.17 -8.18,8.27 -30.01,14.04 -26.83,12.34 -43.95,38.35 -5.98,9.09 -10.31,8.35 -17.44,15.45 -11.69,11.63 -18.94,20.8 -22.69,43.35 -2.72,16.37 -5.44,47.41 -3.34,63.91 6.52,-11.61 1.61,-60.11 14.78,-84.09 6.19,-11.25 16.37,-14.4 30.89,-18.53 12.81,-3.65 25.21,-9.43 24.29,-24.87 -3.65,-3.04 -8.23,-5.16 -12.58,-7.86 5.12,-5.23 4.58,-6.06 13.9,-8.96l36.19 -11.69c7.56,-2.98 10.03,-6.6 18.13,-7.09 22.04,-1.36 16.43,-17.3 31.46,-17.72 7.98,-0.22 12,2.31 15.09,-6.39 2.83,-7.98 -1.46,-12.25 -6.14,-16.57 -4.45,2.29 -3.69,3.69 -7.33,7.66 -10.65,11.61 -15.83,20.34 -25.85,22.13 1.34,-5.15 4.23,-7.92 2.54,-14.11 -10.13,-7.94 -25.36,-0.49 -29.19,8.29l4.33 1.58c2.4,0.8 1.46,-0.1 4.33,1.41 1.61,10.82 -7.22,11.65 -15.59,15.77 2.33,-7.48 7.41,-13.57 2.69,-20.61 -9.22,-6.57 -16.38,2.31 -21.2,6.18l7.23 -45.36c-18.98,29.28 -8.98,31.25 -14.49,51.82 -1.73,6.46 -4.7,10.4 -6.24,16.75z"/>
   <path class="fil2" d="M158.65 610.72c-0.07,17.91 -34.25,37.49 -50.93,20.97 -14.44,-14.3 9.99,-46.51 11.8,-62.65 -3.42,2.17 -2.56,-0.05 -7.01,10.34 -5.83,13.63 -10.04,19.06 -14.38,34.98 -16.65,61.15 56.48,59.88 66.78,-7.99 2.53,-16.69 -0.16,-16.53 -11.39,-21.83 -0.06,-9.81 13.22,-20.24 18.18,-22.43 5.22,-2.3 16.91,2.63 18,-21.13 -15.76,2.71 -29.33,19.44 -36.34,29.84 -23.32,34.59 0.91,36.76 5.29,39.9z"/>
   <path class="fil2" d="M607.97 634.36c0.65,-10.76 6.95,-11 13.75,-6.67 -0.24,9.63 -4.85,8.31 -13.75,6.67zm52.17 -6.04c5.97,-10.46 5.12,-16.32 -3.72,-23.02 -7.91,8.44 -22.64,28.22 -30.83,29.42 0.49,-9.94 2.8,-13.84 -3.6,-20.39 -14.98,-2.44 -15.89,15.81 -22.45,24.52 -13.85,-1.44 -11,-20.17 -9.82,-33.15 1.17,-12.87 3.69,-25.25 5.01,-37.56 -11.57,13.22 -31.63,108.01 13.5,89.33l30.96 -24.41c9.02,-8.83 9.85,-2.37 20.95,-4.74z"/>
   <path class="fil2" d="M521.08 417.62c1.25,-1.3 2.39,-2.76 3.55,-3.87 3.66,-3.47 6.48,-4.47 11.36,-0.78 -1.6,6.74 -10,9.6 -19.18,10.41l4.27 -5.77zm-9.86 5.7c-15.39,-2.96 -8.55,-21.96 -8.85,-42.24 -16.49,14.98 3.97,69.51 -25.09,67.01 7.5,-14.9 8.67,-38.62 8.03,-57.91 -11.09,12.35 -4.76,41.53 -9.85,53.77 -1.92,4.6 -5.05,6.08 -2.03,10.46 2.4,3.49 8.77,4.14 12.89,2.04 6.59,-3.35 9.16,-12.52 12.94,-19.83 12,4.87 24.37,2.48 31.63,-6.13 3.33,-3.94 9.97,-14.54 10.94,-20.56 0.99,-6.13 -3.35,-15.13 -14.14,-5.15l-4.52 3.92 5.02 -40.98c-13.33,17.22 -2.47,44.85 -16.96,55.6z"/>
   <path class="fil2" d="M596.08 439.83c-1.28,-3.9 -1.92,-7.29 -0.73,-12.32 5.94,-2.58 12.66,-1.18 17.53,1.13 0.56,11.24 -6.85,14.46 -16.8,11.2zm37.81 -60.87c5.76,-2.97 9.26,-6.87 15.65,-10.75 -2.05,4.1 0.24,0.83 -2.92,4.28l-51.23 42.99 5.38 -35.66c-7.6,7.33 -8.97,23.84 -10.88,36.09 -1.66,10.66 -6.46,34.47 3.55,40.17 14.59,7.67 21.28,-13.5 23.92,-24.54 12.21,3.75 15.04,0.91 18.04,-11.76 -9.85,6.19 0.59,9.74 -30.98,-2.63 14.13,-12.39 50.49,-37.57 55.54,-56.15 -6.43,2.64 -4.09,3.05 -10.06,7.11 2.13,-5.12 1.83,-3.29 4.36,-7.54 -5.3,2.13 -18.17,13.77 -20.38,18.38z"/>
   <path class="fil2" d="M441.43 422.78c2.07,3.96 1.33,2.43 5.17,5.99 -3.92,10.06 -13.96,16.54 -18.48,32.17 -4.66,16.11 -2.46,30.29 9.53,36.96 25.23,14.05 55.14,-20.47 58.92,-38.21 -5.17,3.55 -11.56,15.15 -26.52,22.27 -12.26,5.83 -28.92,3.5 -34.99,-6.94 -7.79,-13.4 4.14,-28.62 10.1,-35.94 10.76,-13.21 23.07,-17.53 25.58,-23.96 -7.55,1.48 -11.58,7.07 -19.74,1.68 2.31,-9.01 6.41,-4.83 12.38,-5.69l-0.37 -5.69c-11.7,-3.16 -18.93,9.35 -21.58,17.35z"/>
   <path class="fil2" d="M500.75 760.82c2.94,-6.26 5.2,-42.58 6.57,-52.93 8.69,-65.48 19.44,-53.73 50.38,-68 16.69,-7.7 20.7,-29.82 -4.56,-26.76 -5.39,5.69 -5.36,11.11 -9.69,15.51 -2.69,2.73 -11.28,7.51 -14.89,10.55 -29.72,25.06 -32.47,110.66 -27.81,121.63z"/>
   <path class="fil2" d="M356.44 428.77c-1.71,16.44 -26.2,17.58 -32.48,12.13 -10.31,-8.96 2.14,-29.85 4.72,-39.92 -1.31,1.28 -1.01,0.8 -2.41,2.77 -10.29,14.46 -21.66,53.3 5.5,54.27 17.04,0.61 28.02,-19.57 29.43,-33.98 1.15,-11.77 -1.83,-8.64 -6.62,-14.72 3.18,-13.98 14.3,-27.4 1.38,-39.82 -10.77,18.89 3.89,14.96 -1.86,30.81 -1.53,4.22 -5.7,11.2 -6.24,15.28 -1.11,8.48 4.55,8.4 8.59,13.19z"/>
   <path class="fil2" d="M413.99 424.13c-10.59,14.54 -12.02,11.31 -18.14,13.64 -6.13,2.33 -11.8,11.59 -19.99,0.38 -4.2,-12.78 1.75,-36.33 3.33,-49.95 -7.09,8.63 -16.1,51.69 -9.26,65.06 7.26,14.2 18.76,-4.47 25.36,-7.04 8.38,-3.27 5.07,-0.97 12.33,-7.27 4.84,-4.2 6.21,-6.63 6.36,-14.81z"/>
   <path class="fil2" d="M882.18 618.87c4.24,7.15 15.14,12.4 7.81,22.45 -5.48,7.52 -13.57,8.8 -18.5,18.22 7.12,-1.13 13.48,-4.52 18.45,-7.7 5.88,-3.76 7.48,-7.3 10.57,-14.87 6.56,-16 2.46,-29.65 -9.1,-36.72 -4.1,4.6 -6.83,11.75 -9.24,18.62z"/>
   <path class="fil2" d="M638.79 570.02c-5.07,-3.43 -5.68,-5.61 -12.31,-6.4 -4.07,4.52 -7.76,10.54 -9.25,16.8 5.02,2.4 5.25,4.51 10.74,6.17 6.17,-4.16 4.66,-4.63 8.98,-9.37 5.72,2.06 3.35,3.04 8.98,5.9 11.67,-4.67 14.62,-18.94 0,-23.38 -3.14,2.55 -1.54,0.79 -4.04,4.19 -2.43,3.31 -1.88,2.74 -3.11,6.09z"/>
   <path class="fil2" d="M750.72 569.47c-3.94,-2.15 -4.88,-4.5 -10.48,-6.21 -3.89,3.39 -7.65,9.67 -9.92,15.19 6.87,10.81 13.38,10.28 18.7,-1.66 5.44,2.59 6.09,5.29 12.75,6.32 6.52,-8.45 12.29,-17.2 -2.06,-23.43 -4.73,2.75 -4.57,5.44 -8.98,9.79z"/>
   <path class="fil2" d="M661.94 432.23c-2.97,3.42 -2,4.76 -5.5,8.12 -10.96,-1.36 -8.57,-12.73 -7.67,-23.62 0.81,-9.83 2.74,-19.13 3.46,-28.65l-5.41 10.19 -5.41 42.54c0.22,25.87 19.89,18.88 20.53,-8.59z"/>
   <path class="fil2" d="M565.58 446.36c0.32,-5.81 0.79,-5.45 4.02,-8.68 4.82,2.04 5.25,2.07 5.91,7.91 -3.93,1.96 -5.44,2.71 -9.93,0.78zm6.34 -28.52c-1.24,3.54 -2.63,6.7 -4.26,10.61 -2.82,6.77 -0.93,4.72 -2.47,9.63 -1.65,5.26 -8.76,22.86 4.97,18.41 9.96,-3.24 22.71,-36.24 1.76,-38.65z"/>
   <path class="fil2" d="M369.35 659.37c26.65,-2.38 34.54,-23.39 39.03,-44.89 0.97,-4.67 1.22,-6.62 -0.43,-9.18 -3.22,5.18 -3.93,10.15 -6.65,15.87 -4.19,8.82 -12.99,19.76 -20.13,26.28 -4.46,4.07 -9.13,6.57 -11.82,11.93z"/>
   <path class="fil2" d="M439.46 581.44c3.17,3.35 7.22,5.83 11.4,6.86 2.31,-2.16 7.64,-7.32 7.46,-12.83 -0.19,-6.22 -5.65,-9.87 -12.01,-10.7 -2.2,4.85 -6.25,9.85 -6.85,16.67z"/>
   <path class="fil3" d="M542.08 458.15c0.36,-0.31 0.9,-1.25 1.06,-0.97l5.56 -10.42c1.74,-4.79 2.51,-8.05 3.06,-13.47 1.03,-10.02 0.69,-21.38 1.12,-31.77 -9.07,12.46 -8.94,38.59 -10.8,56.63z"/>
   <path class="fil1" d="M338.61 644.31l10.96 7.41c8.99,-5.14 13.08,-21.29 -3.29,-23.65 -3.16,4.46 -6.3,9.1 -7.67,16.24z"/>
   <path class="fil2" d="M820.37 572.46l10.82 7.62c15.12,-13.78 6.19,-22.87 -2.65,-23.74 -3.99,3.66 -7.02,9.83 -8.17,16.12z"/>
   <path class="fil2" d="M402.28 458.4c20.85,-1.54 23.42,-12.11 27.2,-27.59 0.56,-2.3 1.29,-4.84 1.76,-7.44 1.74,-9.54 -0.29,-7.12 -1.24,-8.5 -4.11,15.89 -7.25,25.15 -19.07,34.82 -4.16,3.41 -6.28,2.33 -8.66,8.72z"/>
   <path class="fil2" d="M612.8 476.64l-5.86 -4.58 -6.34 10.38 6.11 5.26c4.88,-2.77 4.15,-2.85 6.12,-6.3l7.32 4.05c5.04,-5.97 8.95,-8.97 0.34,-14.83 -4.34,1.45 -3.94,3.04 -7.69,6.03z"/>
   <path class="fil4" d="M653.6 476.57l-7.38 -4.56 -6.38 10.64 7.35 4.79c1.63,-1.74 1.64,-1.94 3.17,-3.32l3.57 -2.88c3.28,4.44 0.34,2.11 5.09,3.83 10.61,-9.36 1.44,-21.52 -5.43,-8.5z"/>
   <path class="fil0" d="M596.08 439.83c9.95,3.26 17.36,0.04 16.8,-11.2 -4.87,-2.3 -11.59,-3.71 -17.53,-1.13 -1.19,5.04 -0.56,8.43 0.73,12.32z"/>
   <path class="fil2" d="M246.35 589.26c9.8,-2.04 14.25,-7.76 20.09,-13.11 4.18,-3.83 12.36,-12.67 13.96,-18.84 -6.59,1.53 -13.2,11.28 -17.26,15.53 -4.78,5 -14.37,10.2 -16.79,16.42z"/>
   <path class="fil5" d="M457.98 548.88c-9.96,-1.09 -1.5,1.14 -7.86,-4.61l-3.96 7.24c-4.25,-1.24 -2.19,0.65 -5.86,-5.09 -0.12,-0.19 -0.39,-0.63 -0.63,-0.91l-0.98 10.72c6.98,0.6 8.22,-1.4 11.32,-4.11 3.18,2.32 1.95,2.04 7.04,1.91 2.91,-3.63 4.45,-5.65 4.22,-12.43l-3.3 7.28z"/>
   <path class="fil0" d="M378.01 575.52c6,2.71 11.09,1.36 13.34,-4.55 -4.15,-9.92 -18.88,-6.15 -13.34,4.55z"/>
   <path class="fil0" d="M516.81 423.39c9.18,-0.81 17.58,-3.67 19.18,-10.41 -4.88,-3.69 -7.7,-2.7 -11.36,0.78 -1.16,1.11 -2.3,2.57 -3.55,3.87l-4.27 5.77z"/>
   <path class="fil0" d="M607.97 634.36c8.9,1.64 13.52,2.96 13.75,-6.67 -6.8,-4.33 -13.11,-4.09 -13.75,6.67z"/>
   <path class="fil2" d="M647.28 496.13c0.92,1.04 -0.41,0.98 3.12,3.08 3.61,2.13 1.25,0.83 4.83,1.69 2.98,-6.83 5.96,-7.57 -0.32,-13.45 -4.4,0.9 -1.72,-1.21 -4.69,2.5 -1.1,1.38 -1.91,3.84 -2.95,6.18z"/>
   <path class="fil2" d="M332.65 379.7l6.4 3.07c5.98,-5.21 7.61,-9.23 0.05,-13.66 -3.61,2.03 -4.87,3.21 -6.44,10.58z"/>
   <path class="fil0" d="M395.73 569.06l-0.89 6.74c1.21,0.43 1.36,1.7 5.63,1.93 4.48,0.24 4,-0.4 6.58,-1.75 1.5,-6.76 -7.02,-8.79 -11.32,-6.92z"/>
   <path class="fil6" d="M505.81 374.26l5.96 -1.69c7.83,-1.63 7.46,2.69 8.58,-6.83 -5.74,4.95 -4.72,2.24 -6.09,1.46 -0.28,-0.17 -0.76,-0.64 -0.99,-0.8 -0.25,-0.17 -0.65,-0.64 -1.01,-0.93l-2.03 4.93c-5.76,-2.08 -1.43,0.91 -4.88,-4.5 -1.16,6.07 -1.75,2.87 0.46,8.36z"/>
   <path class="fil0" d="M565.58 446.36c4.49,1.94 6,1.19 9.93,-0.78 -0.66,-5.84 -1.08,-5.86 -5.91,-7.91 -3.23,3.23 -3.7,2.87 -4.02,8.68z"/>
  </g>
 </g>
</svg>
