<?xml version="1.0" encoding="UTF-8"?>
<!DOCTYPE svg PUBLIC "-//W3C//DTD SVG 1.1//EN" "http://www.w3.org/Graphics/SVG/1.1/DTD/svg11.dtd">
<!-- Creator: CorelDRAW 2020 (64-Bit) -->
<svg xmlns="http://www.w3.org/2000/svg" xml:space="preserve" width="1in" height="1in" version="1.1" style="shape-rendering:geometricPrecision; text-rendering:geometricPrecision; image-rendering:optimizeQuality; fill-rule:evenodd; clip-rule:evenodd"
viewBox="0 0 1000 1000"
 xmlns:xlink="http://www.w3.org/1999/xlink"
 xmlns:xodm="http://www.corel.com/coreldraw/odm/2003">
 <defs>
  <style type="text/css">
   <![CDATA[
    .fil0 {fill:#4D4D4D}
   ]]>
  </style>
 </defs>
 <g id="Layer_x0020_1">
  <metadata id="CorelCorpID_0Corel-Layer"/>
  <g id="_1855998202592">
   <path class="fil0" d="M209.02 461.57c-3.44,6.95 -6.39,9.26 -10.06,14.8 -14.11,26.74 -52.13,88.78 2.91,104.9 38.81,11.37 98.11,-8.63 132.67,-20.06 38.32,-12.69 74.7,-30.68 110.34,-48.19 3.69,-1.81 7.59,-3.28 10.1,-4.7 6.69,-3.79 5.89,-1.06 6.11,-10.8 -7.28,1.69 -12.82,5.5 -19.32,8.16 -50.18,20.46 -94.73,44.68 -156.2,44.76 -88.72,0.13 -11.04,-102.54 12.45,-131.44l100.19 -98.5c31.87,-29.64 110.91,-85.39 147.85,-110.03 56.02,-37.35 231.44,-142.92 322.76,-133.37 64.22,6.71 15.64,80.63 -1.47,105.89 -14.1,20.83 -35.04,43.7 -52.74,61.4 -9.79,9.79 -18.47,19.28 -28.51,28.56 -10.17,9.41 -56.31,46.64 -60.8,53.35l9.1 0 9.93 -8.45 42.28 -35.94c6.12,-4.68 8.52,-7.74 14.22,-13.25 5.48,-5.3 8.33,-6.25 13.83,-11.54l89.83 -96.17c23.96,-29.16 85.48,-115.07 28,-139.06 -23.69,-9.89 -71.19,-1.75 -92.82,4.48 -154.36,44.44 -316.83,149.2 -442.91,248.29 -50.97,40.06 -94.09,80.34 -139.17,127.17l-36.58 43.74c-4.68,5.98 -7.32,10.39 -11.98,16.02z"/>
   <path class="fil0" d="M744.32 317.84l-9.93 8.45c161.23,0 160.86,58.6 42.56,129.87 -68.14,41.04 -164.78,77.23 -242.78,99.64 -22.85,6.57 -43.97,12.3 -66.72,17.83 -64.41,15.67 -155.89,31.69 -224.09,31.68 -33.22,0 -127.25,2.48 -129.15,-42.29 -1.61,-37.93 72.86,-83.87 84.76,-86.65 3.67,-5.54 6.62,-7.85 10.06,-14.8 -14.74,3.89 -58,28.95 -71.76,37.64l-33 21.95c-5.78,3.93 -10.11,7.57 -15.52,11.96 -14.26,11.59 -30.26,27.2 -38.83,43.61 -27.08,51.8 40.65,68.24 83.35,73.15 66,7.59 150.61,-1.21 207.34,-10.74 119.72,-20.13 237.78,-50.99 348.79,-95.11 44.75,-17.78 290.97,-122.16 239.26,-192.8 -23.25,-31.77 -114.07,-38.31 -155.04,-33.7 -8.59,0.96 -20.34,0.3 -29.28,0.31z"/>
   <path class="fil0" d="M742.2 826.32c0.28,-12.63 4.06,-13.76 11.07,-20.63 5.77,-5.63 10.01,-11.02 16.41,-15.3 0,25.65 7.56,44.1 -27.48,35.93zm42.28 -8.45l0 -40.16c12.19,1.02 47.44,10.84 18.52,31.2 -5.87,4.13 -11.04,7.22 -18.52,8.96zm-14.8 33.82l0 19.02 -40.84 18.35c-7.41,3.71 -13.68,5.75 -20.49,9.1l-105.66 48.65 0 35.93c9.98,-2.33 91.7,-41.19 109.22,-49.31l140.2 -64.83 0 -35.93c-10.15,0.85 -24.9,10.77 -34.12,14.5 -10.79,4.37 -23.62,12.79 -33.52,15.09l0 -16.91 48.66 -25.32c15.36,-8.01 12.64,-8.2 12.64,-31.75 0,-17.85 -38.14,-44.5 -52.85,-54.95 -7.22,-5.12 -15.26,-10.57 -23.24,-14.8 0,58.99 -6.2,23.65 -41.44,81.16 -7.37,12.03 -12.94,32.9 -4.35,47.05 10.01,16.48 29.56,8.73 45.78,4.95z"/>
   <path class="fil0" d="M330.02 726.98l0 162.76c-18.68,8.96 -109.87,52.84 -118.37,52.84 -21.89,0 -25.19,-24.07 2.12,-35.93l84.55 -40.17 0 -33.82c-8.36,0.7 -62.4,26.94 -73.28,32.41 -40.59,20.44 -53.55,20.3 -53.55,64.82 0,24.53 13.62,44.39 38.05,44.39 25.25,0 78.44,-30.54 109.02,-43.17 53.77,-22.19 43.17,-19.04 43.17,-113.25 0,-34.52 0,-69.05 0,-103.57l-31.7 12.68z"/>
   <path class="fil0" d="M395.55 849.57c0,-11.52 -2.73,-23.25 23.25,-23.25 8.6,0 11.37,3.34 14.8,8.46l-38.05 14.8zm-21.14 -6.34c0,25.38 -3.05,35.93 23.25,35.93 21.22,0 48.57,-15.4 63.41,-23.25l0 12.68 -99.35 44.39 0 35.94 103.52 -46.56c32.91,-18.28 18.22,-62.88 -4.36,-86.42l-3.2 -3.14c-33.1,-30.91 -83.27,-23.01 -83.27,30.43z"/>
   <path class="fil0" d="M558.31 919.33c-29.52,0 19.41,-40.26 26.26,-45.61 5.9,-4.62 10.31,-7.64 16.02,-11.46 8.62,4.56 24.51,17.23 25.37,27.48 -5.55,1.48 -10.29,5.05 -15.19,8.06 -11.35,6.99 -39.84,21.53 -52.46,21.53zm-31.7 -4.23c0,58.15 51,27.34 80.32,12.69 43.1,-21.55 46.5,-18.1 46.5,-44.39 0,-20.95 -37.31,-46.34 -53.74,-58.3 -4.49,-3.27 -6.94,-4.72 -11.31,-7.72 -4.86,-3.34 -5.99,-5.26 -13.17,-5.86 0,54.06 0.65,17.85 -38.08,76.06 -4.79,7.2 -10.53,15.48 -10.53,27.52z"/>
   <polygon class="fil0" points="666.11,726.98 666.11,902.42 697.81,887.63 697.81,712.18 "/>
   <path class="fil0" d="M492.78 726.98l0 173.33c6.06,-0.5 26.49,-9.93 31.71,-12.68l0 -173.33c-11.84,2.76 -21.24,10.24 -31.71,12.68z"/>
  </g>
 </g>
</svg>
