<?xml version="1.0" encoding="UTF-8"?>
<!DOCTYPE svg PUBLIC "-//W3C//DTD SVG 1.1//EN" "http://www.w3.org/Graphics/SVG/1.1/DTD/svg11.dtd">
<!-- Creator: CorelDRAW 2020 (64-Bit) -->
<svg xmlns="http://www.w3.org/2000/svg" xml:space="preserve" width="1in" height="1in" version="1.1" style="shape-rendering:geometricPrecision; text-rendering:geometricPrecision; image-rendering:optimizeQuality; fill-rule:evenodd; clip-rule:evenodd"
viewBox="0 0 1000 1000"
 xmlns:xlink="http://www.w3.org/1999/xlink"
 xmlns:xodm="http://www.corel.com/coreldraw/odm/2003"
 xmlns:dc="http://purl.org/dc/elements/1.1/"
 xmlns:cc="http://creativecommons.org/ns#"
 xmlns:rdf="http://www.w3.org/1999/02/22-rdf-syntax-ns#"
 xmlns:svg="http://www.w3.org/2000/svg"
 xmlns:sodipodi="http://sodipodi.sourceforge.net/DTD/sodipodi-0.dtd"
 xmlns:inkscape="http://www.inkscape.org/namespaces/inkscape"
 inkscape:version="0.48.4 r9939"
 sodipodi:docname="IRI.NAJA.FATA (New).svg">
 <defs>
  <style type="text/css">
   <![CDATA[
    .fil0 {fill:#4D4D4D}
   ]]>
  </style>
 </defs>
 <g id="Layer_x0020_1">
  <metadata id="CorelCorpID_0Corel-Layer"/>
  <sodipodi:namedview id="base" pagecolor="#ffffff" bordercolor="#666666" borderopacity="1.0" inkscape:pageopacity="0.0" inkscape:pageshadow="2" inkscape:zoom="0.175" inkscape:cx="-153.67852" inkscape:cy="901.82896" inkscape:document-units="px" inkscape:current-layer="layer1" showgrid="false" inkscape:window-width="1280" inkscape:window-height="962" inkscape:window-x="-8" inkscape:window-y="-8" inkscape:window-maximized="1"/>
  <path class="fil0" d="M419.8 803.24c9.43,-4.83 131.02,-156.03 144.58,-173.78l115.36 -140.05c28.06,-33.59 53.57,-75.3 114.17,-79.98 64.4,-4.97 143.81,37.07 140.81,120 -1.4,8.52 -2.46,11.09 -4.03,17.82 -0.41,-0.6 -0.92,-2.33 -1.07,-1.9 -0.01,0.04 -9.61,-20.44 -20.91,-35.53 -9.46,-12.63 -19.03,-18.94 -32.02,-27.39 -23.8,-15.46 -59.7,-23.58 -96.84,-14.73 -27.53,6.56 -55.36,26.65 -70.27,48.54 -21.25,31.2 -22.46,47.71 -22.46,97.66l4.87 11.79c11.21,31.04 23.87,50.12 52.56,69.04 61.56,40.6 140.31,16.47 186.41,-49.2 10.22,-14.56 17.21,-27.89 24.05,-44.2 6.47,-15.44 9.11,-37.47 17.27,-51.7 2.54,-3.49 0.98,1.26 2.38,-6.06 0.3,-1.53 0.48,-3.05 0.59,-4.58l0 -20.49 -0.74 -47.74c-23.21,-178.29 -209.69,-259.48 -328.08,-118.67l-220.48 263.67c-5.42,7.33 -5.63,4.91 -6.35,17.42 -3,52.44 0.21,116.31 0.21,170.06zm-354.42 -315.39c-0.27,-15.57 -0.76,-20.77 5.17,-34.5 13.76,30.16 23.43,44.15 45.07,59.54 64.57,45.91 147.48,21.8 181.22,-38.05 7.17,-12.72 10.19,-29.18 16.03,-39.11 0,-36.69 1.94,-50.16 -10.82,-76.66 -10.12,-21 -20.91,-34.23 -38.75,-47.39 -35.9,-26.49 -86.24,-34.28 -132.46,-11.8 -37.48,18.24 -65.59,53.33 -81.53,90.75 -22.18,52.06 -24.56,74.05 -24.56,146.43 7.53,14.29 15.62,111.76 107.66,161.02 31.3,16.75 66.31,26.3 108.98,18.26 35.11,-6.62 71.46,-25.24 89.32,-44.37 43.67,-46.76 80.67,-95.87 122.95,-144.28 20.22,-23.15 40.49,-49.79 60.94,-72.76l44.91 -53.13c8.02,-8.97 8.39,-13.1 17.72,-19.29 9.15,-14 2.97,-155.83 2.97,-185.75 -11.32,7.58 -71.5,86.21 -85.37,101.75 -10.62,11.91 -19,23.32 -29.55,35.8l-169.5 207.72c-83.33,94.56 -218.43,41.69 -230.39,-54.19z"/>
 </g>
</svg>
