<?xml version="1.0" encoding="UTF-8"?>
<!DOCTYPE svg PUBLIC "-//W3C//DTD SVG 1.1//EN" "http://www.w3.org/Graphics/SVG/1.1/DTD/svg11.dtd">
<!-- Creator: CorelDRAW 2021.5 -->
<svg xmlns="http://www.w3.org/2000/svg" xml:space="preserve" width="1in" height="1in" version="1.1" style="shape-rendering:geometricPrecision; text-rendering:geometricPrecision; image-rendering:optimizeQuality; fill-rule:evenodd; clip-rule:evenodd"
viewBox="0 0 1000 1000"
 xmlns:xlink="http://www.w3.org/1999/xlink"
 xmlns:xodm="http://www.corel.com/coreldraw/odm/2003">
 <defs>
  <style type="text/css">
   <![CDATA[
    .fil0 {fill:black}
   ]]>
  </style>
 </defs>
 <g id="Layer_x0020_1">
  <metadata id="CorelCorpID_0Corel-Layer"/>
  <g id="_2670707075472">
   <path class="fil0" d="M458.09 113.82c-5.48,46.6 -3.15,169.73 2.26,215.76 1.87,15.93 -0.54,37.35 0.13,53.96 0.51,12.77 2.67,12.12 3.53,23.52l-0.04 57.51c0.86,11.39 3.02,10.74 3.53,23.52 0.73,18.36 -0.13,38.97 -0.13,57.6 -49.74,-24.99 -110.46,-124.5 -123.69,-190.72 -28.21,-141.22 37.38,-216.83 45.93,-252.16 -59.02,39.01 -87.37,114.89 -98.04,182.56 -8.17,51.84 -5.72,40.99 -3.38,84.52 3.4,63.31 50.32,144.29 98.92,185.06 9.01,7.56 49.65,36.38 52.32,40.81 -25.28,17.04 -109.67,16.35 -116.93,19.9 36.53,25.54 139.25,10.8 151,11.68 7.04,10.39 16.69,26.19 26.98,32.85l24.87 -32.87c9.73,-0.98 114.58,13.9 151.12,-11.65 -7.06,-3.44 -92.33,-3.11 -116.88,-19.95 3.67,-6.15 40.63,-31.61 50.39,-39.25 47.29,-37.07 90.53,-119.88 100.08,-183.89 6.76,-45.31 -6,-120.09 -22.94,-161.57 -12.38,-30.31 -49.46,-99.65 -81.15,-108.17 39.81,79.25 71.48,157.54 48.05,254.28 -10.85,44.81 -22.44,70.98 -48.7,110.19 -17.73,26.48 -50.87,64.43 -77.11,81.78l6.03 -102.15c2.2,-14.06 -0.43,-40.73 3.85,-77.28 0.99,-8.47 0.26,-21.25 0.26,-30.17 -0.07,-74.37 0,-148.75 0,-223.13l-38.35 -36.61c-7.07,5.61 -11.7,11.28 -18.22,17.22 -7.25,6.61 -15.86,10.72 -23.7,16.87z"/>
   <path class="fil0" d="M294.94 555.83c-7.27,-29.99 -83.15,-116.52 -55.49,-254.95 8.15,-40.75 22.06,-78.93 46.7,-115.57 28.23,-41.99 67.98,-81.62 73.03,-89.25 -98.94,27.61 -162.73,97.34 -183.42,198.6 -11.21,54.85 3.26,113.63 26.78,160.89 13.56,27.24 22.35,34.44 38.32,56.34 8.67,11.89 40.51,40.23 54.09,43.95z"/>
   <path class="fil0" d="M700.63 559.21c89.12,-58.29 134.61,-151.11 121.81,-260.43 -6.46,-55.27 -28.94,-90.74 -62.2,-130.49 -21.14,-25.26 -90.08,-69.23 -123.85,-72.24 6.9,10.59 12.04,10.13 21.25,19.32 47.12,47.08 87.92,119.96 101.32,186.04 27.8,137.02 -53.06,236.05 -58.33,257.8z"/>
   <path class="fil0" d="M382.84 806c2.07,-2.07 11.78,2 5.33,4.29 -4.43,1.57 -5.72,-3.9 -5.33,-4.29zm62.97 -27.17l0.31 13.15 -8.47 -3.79 8.16 -9.37zm-118.22 -2.68c8.07,10.88 6.43,4.14 1.16,13.52 -3.25,-5.97 -6.48,-3.62 -1.16,-13.52zm59.71 13.09c-6.48,-8.8 -7.81,-2.45 0.08,-13.09l-0.08 13.09zm-112.64 20.14l0.17 16.33c23.96,-0.28 28.25,-11.47 31.13,-32.94 8.47,11.43 8.5,8.69 22.5,14.1l-17.16 4.09 0.8 14.76c40.41,2.12 24.07,-18.56 50.74,-20.01 11.98,15.42 8.57,34.69 41.44,18.35l2.78 -17.48c54.98,-4.25 67.85,-0.57 117.76,-0.57 0,-50.69 -16.09,-43.09 -45.15,-43.24l-1.24 13.97c15.16,3.5 19.49,-6.65 29.2,11.49 -50.81,1.45 -35.68,2.43 -43.73,-12.58 -20.79,-38.73 -42.44,11.17 -46.1,16.25l-10.67 -3.6c-1.98,-25.34 -1.34,-28.77 -30.19,-25.38 -18.63,18.44 0.84,25.13 -24.82,26.47 -6.61,-12.07 0.76,-11.94 -10.72,-26.47l-25.31 -0.74 -8.99 16.23c-4.82,-9.47 -5.38,-15.65 -20.08,-10.76l-2.58 41.16 -9.78 0.57z"/>
   <path class="fil0" d="M508.51 940.65c0.49,-12.87 -3.89,-8.5 8.98,-8.98 -2.1,10.67 0.39,6.63 -8.98,8.98zm43.37 -16.32l-0.2 12.95 -12.26 3.02c-7.42,-9.92 -5.27,-28.46 -28.1,-26.26 -17.17,4.79 -14.61,13.77 -24.54,26.32 -12.06,-1.53 -30.16,-3.26 -42.5,-5.31l-0.86 13.24 16.96 7.82c-10.21,8.41 -4.57,6.44 -31.47,4.15l-3.41 -23.67 -16.76 -1.31c-10.41,48.74 32.59,47.38 57.45,38.59 12.15,-4.3 10.68,-7.33 12.19,-18.81 7.62,3.65 52.83,2.21 65.68,1.5 19.35,-1.07 3.19,-3.82 34.72,-1.91 13.85,0.84 30,0.11 44.1,0.11l-0.35 -12.67c-13.45,-9.37 -10.08,0.14 -23.6,-7.32 7.38,-16.55 3.2,-0.4 20.86,-10.14l-1.78 -11.73c-10.48,-3.12 -18.8,-4.08 -27.98,2.24 -18.81,12.95 3.66,14.79 -14.77,23.01 -5.84,-22.11 -3.44,-27.87 -3.09,-54.38l-20.28 0 0 40.57z"/>
   <path class="fil0" d="M457.22 85.91c33.04,0 23.33,-7.47 44.24,-13.81 55.01,41.75 103.8,-19.67 79.69,-49.84 -9.28,7.17 -19.13,27.78 -33.89,32.16 -20.17,5.99 -35.07,-8.68 -49.46,-19.8 -33.39,25.78 -40.86,38.03 -80.85,-13.23 -20.87,30.66 11.1,64.52 40.28,64.52z"/>
   <path class="fil0" d="M605.76 788.52l-46.54 0.53c-1.03,-13.57 2.07,-9.87 -4.83,-19.37l-16.03 -1 0.21 26.31c22.85,22.25 60.46,5.91 85.57,9.56 11.59,1.69 9.34,1.95 21.14,-0l40.39 -0.67c11.78,1.67 9.24,4.44 22.89,-0.11l2.51 -41.72 -16.61 0.17c-1.01,13.46 1.83,17.37 -3.95,27.45 -6.41,-11.16 -1.25,-8.99 -5.6,-22.02l-15.84 -1.42c-4.35,14.45 0.8,12.28 -5.6,23.44 -5.7,-9.93 -2.96,-10.84 -3.96,-23.66l-15.74 -0.48 -1.66 21.43 -16.98 1.33 -2.7 -25.67 -15.85 -0.33 -0.78 26.23z"/>
   <path class="fil0" d="M926.56 931.67c-0.48,12.87 3.89,8.5 -8.98,8.98 2.27,-10.5 -1.04,-7.17 8.98,-8.98zm-67.03 -7.34c2.07,-2.07 11.78,2 5.33,4.29 -4.42,1.56 -5.72,-3.91 -5.33,-4.29zm-43.95 10.14c0,14.32 -0.18,9.75 6.76,20.28 30.86,0 76.31,-4.05 105.09,3.67l17.59 -12.54c-0.95,-16.39 -0.04,-14.25 -4.94,-27.74 -13.18,-4.78 -10.61,-4.88 -25.6,-3.09l-19.9 27.6c-16.92,-11.99 -8.87,0.91 -10.15,-15.52 -2.15,-27.65 -52.33,-18.54 -38.72,9.85l-12.64 0.81 -0.69 -53.46 -16.8 -0.66 -0 50.79z"/>
   <path class="fil0" d="M292.14 928.28c10.24,2.06 6.93,-1.26 8.98,8.98 -12.15,-0.54 -8.55,4.24 -8.98,-8.98zm-78.33 9.56l0.2 12.95c12.19,4.56 15.26,4.88 30.34,3.87l74.26 0.07c0,-16.86 2.4,-42.8 -20.48,-44.01 -20.17,-1.06 -20.11,15.75 -26.56,27.4 -15.38,-4.64 -9.72,-6.2 -11.01,-23.38l-15.69 -0.48c-0.99,12.59 1.46,14.46 -3.72,23.86l-7.34 -0.1c-7.09,-12.76 -2.41,-37.45 -3.67,-53.7l-16.32 -0.66 0 54.17z"/>
   <path class="fil0" d="M710.54 937.28l-49.9 0.54c-1.03,-13.57 2.07,-9.87 -4.83,-19.38l-8.41 -0.58c-6.67,9.76 -6.91,23.71 0.29,32.36 11.43,9.51 40.7,4.94 56.48,4.63 11.72,-0.23 14.48,-1.63 24.2,-0.84 11.31,0.93 21.69,0.75 33.09,0.75l0 -40.57 -16.33 0.17 -0.77 22.92 -16.13 0.48 -0.77 -22.99 -16.14 -0.33 -0.8 22.85z"/>
   <path class="fil0" d="M92.97 921.81c-1.25,18.66 -1.97,18.21 16.61,32.94 -13.09,10.34 -18.17,8.48 -33.81,2.8l-0.78 -22.51 -17.95 0.49c-15.97,49.02 65.75,58.7 71.37,13.33 -10.17,-17.75 -15.11,-7.73 -18.55,-20.28l19.98 -6.11c-3.8,-25.42 -25,-12.7 -36.88,-0.65z"/>
   <path class="fil0" d="M274.66 809.38l-0.35 -12.67 -19.72 -16.13c12.79,-9.67 7.63,-1.13 20.36,-8.1l-0.76 -9.6c-18.54,-12.63 -35.9,1.57 -37.01,23.12l18.13 19.65c-14.8,9.35 -16.78,9.33 -32.52,1.5l-2.74 -20.87 -16.39 -0.66c0,21.96 -3.5,38.89 23.56,40.79 26.21,1.84 32.44,-0.23 47.44,-17.04z"/>
   <path class="fil0" d="M717.53 782.33c0,13.07 -0.07,8.59 3.96,19.7 16.82,6.1 28.52,4.36 48.02,2.7l2.11 -42.69 -16.33 0.17 -0.74 26.3 -19.53 0.49 -0.67 -56.81 -16.81 -0.66 -0 50.8z"/>
   <path class="fil0" d="M785.15 927.13c9.85,8.17 8.65,5.3 3.38,14.68 -7.14,-6.04 -10.47,-6.32 -3.38,-14.68zm-19.41 16.61c14.09,14.28 8.47,6.54 22.5,13.52 -17.63,1.95 -20.57,-2.53 -19.41,17.19 33.92,2.63 48.8,-15.39 38.89,-49.04 -6.89,-23.43 -46.8,-22 -41.98,18.32z"/>
   <path class="fil0" d="M183.09 941.52c-5.55,-10.04 -4.45,-6.14 0.29,-14.39 12.63,16 1.2,11.13 -0.29,14.39zm3.38 15.74c-17.63,1.95 -20.57,-2.53 -19.42,17.19 60.28,4.68 37.14,-55.06 32.16,-59.23 -11.56,-9.67 -30.9,-3.91 -35.12,10.28 -8.14,27.37 10.33,25.76 22.38,31.76z"/>
   <path class="fil0" d="M363.72 928.28c10.62,8.26 5.94,6.89 2.22,13.52 -8.3,-7 -9.67,-4.33 -2.22,-13.52zm1.93 27.33c-12.22,6.08 -17.17,-0.53 -16.04,18.83 20.97,1.67 22.07,0.05 35.74,-13.81 2.31,-19.62 3.73,-59.48 -28.28,-48.85 -15.33,5.09 -26.66,39.19 8.57,43.83z"/>
   <path class="fil0" d="M784.28 805.13c-20.13,15.91 -27.59,1.16 -43.08,11.01 -2.39,6.15 -4.64,8.74 4.51,12.15 8.2,3.06 26.53,-2.55 33.1,-3.05 8.19,-0.62 11.8,-1.35 19,-6.59 6.25,-14.63 7.61,-38.59 0.87,-53.22 -21.88,2.31 -11.79,17.56 -14.39,39.7z"/>
   <path class="fil0" d="M139.43 944.61c0,24.97 -9.6,2.14 -10.14,30.43l23.24 -3.08c6.25,-19.35 3.8,-29.16 3.8,-54.39l-16.9 0 0 27.04z"/>
   <path class="fil0" d="M565.66 757.8c5.23,3.35 22.21,7.61 32.68,-0l0.58 -8.4c-7.69,-5.25 -16.27,-4.58 -32.94,-3.67l-0.32 12.08z"/>
   <path class="fil0" d="M667.69 906.55c9.52,6.92 20.11,4.62 32.36,3.67l-0.62 -14.2c-11.48,-2.99 -29.76,-3.58 -31.74,10.54z"/>
   <path class="fil0" d="M740.62 897.28c9.77,12.75 8.88,13.22 21.15,3.67 -2.48,-17.3 -11.69,-15.71 -21.15,-3.67z"/>
   <path class="fil0" d="M284.22 897.28c9.77,12.75 8.88,13.22 21.15,3.67 -2.48,-17.3 -11.68,-15.71 -21.15,-3.67z"/>
   <path class="fil0" d="M489.87 827.44c11.1,3.52 10.34,3.48 17.48,-6.76 -10.2,-15.8 -22.67,-8.47 -17.48,6.76z"/>
   <path class="fil0" d="M244.23 897.28c3.5,9.23 2.37,7.99 12.65,9.28 6.81,-9.37 6.48,-7.22 0.87,-16.04 -7.92,-3.07 -11.15,-2.09 -13.52,6.76z"/>
  </g>
 </g>
</svg>
