<?xml version="1.0" encoding="UTF-8"?>
<!DOCTYPE svg PUBLIC "-//W3C//DTD SVG 1.1//EN" "http://www.w3.org/Graphics/SVG/1.1/DTD/svg11.dtd">
<!-- Creator: CorelDRAW 2020 (64-Bit) -->
<svg xmlns="http://www.w3.org/2000/svg" xml:space="preserve" width="1in" height="1in" version="1.1" style="shape-rendering:geometricPrecision; text-rendering:geometricPrecision; image-rendering:optimizeQuality; fill-rule:evenodd; clip-rule:evenodd"
viewBox="0 0 1000 1000"
 xmlns:xlink="http://www.w3.org/1999/xlink"
 xmlns:xodm="http://www.corel.com/coreldraw/odm/2003">
 <defs>
  <style type="text/css">
   <![CDATA[
    .fil0 {fill:#F35E2D}
   ]]>
  </style>
 </defs>
 <g id="Layer_x0020_1">
  <metadata id="CorelCorpID_0Corel-Layer"/>
  <path class="fil0" d="M453.84 203.77c2.67,-11.55 4,-16.79 6.7,-29.69 2.04,-7.79 3.1,-9 11.79,-5.6 25.12,9.81 42.57,25.31 57.81,45.74 24.36,32.67 36.27,73.76 26.96,125.44 -4.72,26.26 -14.69,49.42 -32.19,70.28 -56.23,72.61 -167.87,87.07 -247.81,46.28 -11.02,-6.15 -18.87,-14.45 -22.24,-17.96 -12.81,-13.37 -19.5,-22.72 -27.5,-40.71 -7.79,-17.52 -11.35,-33.36 -11.35,-55.09 0.59,-27.08 -0.02,-32.46 10.15,-65.73 7.4,-16.06 6.9,-15.37 16.97,-31.16 7.41,-9.23 16.99,-20.6 23.44,-26.52 6.83,-6.26 20.65,-16.5 33.07,-24.61 15.07,-8.8 30.45,-16.22 36.08,-14.47 4.17,1.3 -5.29,23.62 -8.96,32.34 -1.03,2.44 -15.66,11.05 -23.94,18.91 -25.22,23.14 -44.69,52.37 -44.69,94.66 0,34.54 11.78,52.82 36.09,72.91 22.9,16.08 47.35,21.83 73.78,21.83 39.19,-3.1 57.07,-6.68 86.12,-28.3 34.04,-25.33 47.01,-60.36 47.01,-104.73 0,-24.53 -12.67,-52.54 -30.3,-66.57 -11.04,-9.53 -18.46,-10.9 -17,-17.26zm-114.87 77.99c0,-34.22 27,-92.47 39.87,-127.19 2.97,-8.01 7.6,-9.21 16.78,-10.91 13.39,-2.49 31.18,-5.16 32.71,-2.48 2.63,4.61 -12.78,63.3 -14.93,73.4 -2.08,9.8 -13.92,66.84 -16.18,71.48 -11.44,0.81 -41.29,0.26 -54.57,0.26 -3.83,0 -3.69,-0.47 -3.69,-4.56zm232.16 -175.23c12.54,9.05 24.9,17.2 36.02,27.45 2.54,2.34 3.47,3.06 5.67,4.94 11.14,9.54 26.27,26 36.09,37.09 6.87,8.38 17.6,24.26 35.43,63.63 9.37,30.43 15.34,47.84 18.37,82.84 1.07,47.44 -1.54,79.25 -20.33,118.77 -11.69,25.89 -17.67,32.96 -32.78,52.46 -18.81,23.07 -36.99,40.02 -58.65,57.65 -14.96,12.17 -30.15,23.19 -48.58,33.97 -8.8,5.15 -47.47,24.39 -57.89,24.15 -5.08,0.07 -8.52,-10.24 -14.96,-25.52 -4.23,-10.05 -9.2,-22.6 -13.58,-32.72 -10.15,-21.74 -8.19,-14.87 31.92,-33.84 16.85,-7.89 25.48,-13.85 35.85,-20.4 15.77,-10.02 34.31,-26.8 44.47,-38.11 24.6,-27.41 60.73,-73.68 64.91,-139.43 3.45,-54.29 -11.73,-101 -37.03,-135.88 -20.41,-28.12 -56.57,-56.39 -106.06,-63.01 -73.55,-9.84 -147.28,12.93 -204.54,50.91 -20.65,13.7 -35.26,24.91 -53.22,40.89 -13.07,11.63 -24.57,26.47 -35.38,40.32 -11.69,14.98 -23.46,32.38 -32.22,52.64 -8.67,25.01 -13.48,42.03 -13.52,71.21 -0.07,50.16 13.65,85.63 47.68,121.59 36.94,36.77 72.54,43.29 119.38,55.57 4.16,1.09 3.06,28.33 3.06,37.6 -0,6.55 0.9,38.37 -2.78,39.88 -4.76,1.81 -31.66,-4.78 -38.74,-6.54 -24.8,-6.16 -53.59,-19.6 -74.31,-33.07 -10.15,-6.6 -18.16,-12.21 -27.06,-20.11 -6.56,-5.83 -11.96,-12.24 -19.7,-21.08 -25.2,-34.81 -26.56,-40.58 -30.77,-50.09 -3.13,-7.08 -5.76,-13.26 -9.51,-24.31l-5.56 -15.76c-7.3,34.31 -1.26,80.22 4.31,114.59 6.1,-4.71 7.98,-6.26 11.31,-9.06 2.11,-1.85 4.56,-4.15 6.68,-5.48 2.24,2.15 11.09,13.07 12.83,15.23 20.46,23.44 52.93,46.37 65.04,53.96 16.57,10.38 28.31,14.46 45.72,23.03 43.57,21.46 167.78,48.06 272.18,0.25 33.91,-15.53 64.26,-36.75 88.39,-56.48 9.67,-7.75 18.54,-17.99 21.9,-13.2l21.15 24.46c3.03,3.5 9.93,10.23 11.02,14.13 0.89,3.51 -6.46,9.44 -10.02,12.34l-13.27 11.46c-11.53,9.7 -23.07,18.35 -33.54,25.26 -19.74,13.05 -44.53,25.62 -69.02,35.99 -49.63,21.01 -107.04,31.21 -167.75,28.35 -62.65,-2.95 -102.06,-13.52 -148.96,-39.36 -24.77,-13.65 -55.57,-37.04 -75.94,-55.64l-12 -11.59c-8.87,-9.49 -7.94,-8.56 -17.33,-20.11 1.6,7.87 6.61,20.13 12.41,29.56 9.3,14.39 23.1,33.09 33.56,43.87 37.51,38.64 78.5,67.79 140.17,82.92l19.54 4.79c2.83,0.69 2.78,0.03 5.65,14.62 0.69,3.31 5.96,30.09 2.08,31.17 -14.96,2.83 -70.98,-21.59 -80.55,-25.55 -12.22,-5.05 -23.73,-11.31 -34.52,-17.3l-30.94 -19.47c3.58,5.82 24.76,23.43 31.49,28.3 10.72,7.77 31.07,20.34 44.1,26.93 27.87,14.09 59.67,23.46 94.13,30.37 68.71,13.78 144.24,4.82 209.52,-13.63 15.53,-4.39 28.47,-8.78 43.05,-14.52 25.41,-10.02 20.34,-15.09 31.52,2.5 13.56,21.35 17.89,21.3 -5.72,31.47 -45.42,19.58 -91.4,29.83 -141.94,34.39 -27.96,2.53 -10.84,2.07 -55.71,3.22 -12.77,0.02 -33.59,-0.62 -41.02,-0.69 11.65,2.98 30.52,6.57 41.7,8.31 112.57,15.17 215.07,-14.67 300.21,-77.81 76.99,-68.07 112.77,-123.56 136.93,-218.17 5.13,-21.14 7.84,-39.05 9.39,-57.54 -0.87,3.07 -4.78,16.72 -10.03,33.23 -6.95,22.94 -8.86,26.63 -15.98,45.33 -14.23,37.33 -26.62,60.52 -49.07,91.46 -5.67,7.82 -13.21,21.3 -20.91,11.98 -20.61,-26.98 -20,-21.12 -12.9,-29.2 7.7,-8.56 21.76,-27.2 30.27,-40.43 39.85,-73.26 49.53,-92.65 62.25,-171.45 6.28,-35.26 0.27,-77.46 -2.15,-88.17 -2.05,-12.54 -15.84,-57.47 -20.61,-62.33 5.01,25.63 5.38,59.09 5.88,76.55 -2.55,55.27 -6.2,79.48 -24.81,135.86 -18.54,47.85 -41.44,83.06 -71.74,121.34l-10.35 12.31c-10.44,12.07 -22.31,22.59 -33.92,33.27 -13.01,11.98 -27.59,23.11 -46.61,35.13 -52.54,32.78 -104.06,53.8 -164.49,65.67 -11.12,2.19 -38.81,7.19 -48.64,7.45 -4.76,-0.54 -6.09,-4.52 -7.54,-8.63 -2.15,-6.08 -14.34,-34.18 -11.78,-36.04 1.99,-1.44 18.63,-3.61 26.46,-4.94 29.64,-6.2 54.41,-11.21 84.14,-20.72 39.06,-14.99 69.11,-28.06 104.12,-53.48 18.11,-13.34 37.62,-28.95 49.41,-40.74 14.69,-14.69 32.53,-33.81 45.72,-49.97 13.01,-15.93 19.34,-23.56 29.64,-41.63 38.19,-67.04 51.3,-154.72 32.14,-240.59 -15.4,-51.91 -15.88,-47.77 -26.94,-70.35 -16.56,-26.37 -36.64,-49.22 -47.37,-59.64l-7.88 -8.26c-10.29,-8.05 -22.67,-21.68 -34.93,-26.15 1.98,3.89 7.13,8.55 10.13,12.06 9.96,11.65 18.29,23.32 27.06,36.56 10.54,15.9 21.48,36.42 29.63,55.98 43.92,105.55 40.86,210.9 -27.47,301.82 -30.47,40.74 -29.06,34.33 -44.11,18.76 -4.83,-5.51 -3.48,-3.85 -8.72,-9.81 -17.56,-19.1 -14.72,-14.78 -5.28,-25.66 24.28,-25.48 38.46,-53.96 51.6,-91.04 14.61,-46.14 18.46,-106.08 7.57,-155.52 -8.5,-38.59 -16.69,-62.94 -41.28,-103.09 -16.36,-23.4 -19.29,-27.82 -37.87,-44.35 -10.83,-9.86 -38.93,-27.28 -50.01,-31.88 -8.23,-3.42 -23.03,-8.84 -32.04,-10.21z"/>
 </g>
</svg>
