<?xml version="1.0" encoding="UTF-8"?>
<!DOCTYPE svg PUBLIC "-//W3C//DTD SVG 1.1//EN" "http://www.w3.org/Graphics/SVG/1.1/DTD/svg11.dtd">
<!-- Creator: CorelDRAW 2020 (64-Bit) -->
<svg xmlns="http://www.w3.org/2000/svg" xml:space="preserve" width="1in" height="1in" version="1.1" style="shape-rendering:geometricPrecision; text-rendering:geometricPrecision; image-rendering:optimizeQuality; fill-rule:evenodd; clip-rule:evenodd"
viewBox="0 0 1000 1000"
 xmlns:xlink="http://www.w3.org/1999/xlink"
 xmlns:xodm="http://www.corel.com/coreldraw/odm/2003"
 xmlns:dc="http://purl.org/dc/elements/1.1/"
 xmlns:cc="http://creativecommons.org/ns#"
 xmlns:rdf="http://www.w3.org/1999/02/22-rdf-syntax-ns#"
 xmlns:svg="http://www.w3.org/2000/svg"
 xmlns:sodipodi="http://sodipodi.sourceforge.net/DTD/sodipodi-0.dtd"
 xmlns:inkscape="http://www.inkscape.org/namespaces/inkscape"
 inkscape:version="0.48.4 r9939"
 sodipodi:docname="IRI.NAJA.FATA (New).svg">
 <defs>
  <style type="text/css">
   <![CDATA[
    .fil0 {fill:#4D4D4D}
   ]]>
  </style>
 </defs>
 <g id="Layer_x0020_1">
  <metadata id="CorelCorpID_0Corel-Layer"/>
  <sodipodi:namedview id="base" pagecolor="#ffffff" bordercolor="#666666" borderopacity="1.0" inkscape:pageopacity="0.0" inkscape:pageshadow="2" inkscape:zoom="0.175" inkscape:cx="-153.67852" inkscape:cy="901.82896" inkscape:document-units="px" inkscape:current-layer="layer1" showgrid="false" inkscape:window-width="1280" inkscape:window-height="962" inkscape:window-x="-8" inkscape:window-y="-8" inkscape:window-maximized="1"/>
  <g id="_2355681647776">
   <path class="fil0" d="M34.38 462.86c20.33,-9.76 52.37,-10.46 78.46,-10.46 226.31,0 282.9,397.56 517.87,397.56 43.39,0 80.16,14.17 9.29,-61.6 -16.57,-17.72 -18.19,-8.97 -41.47,-16.07 -14.72,-4.49 -28.73,-13.88 -39.61,-23.16 -99.09,-84.61 -161.25,-243.64 -293.55,-313.25 -76.56,-40.28 -214.91,-33.29 -231,27z"/>
   <path class="fil0" d="M452.86 473.32c2.35,28.2 25.06,37.7 41.85,62.77 24.64,-13.04 41.09,-23.7 65.8,-38.83 68.52,-41.97 357.03,-225.54 385.56,-257.85 22.36,-25.32 19.44,-46.36 19.44,-90.42 -20.49,1.7 -40.73,20.73 -67.76,36.86 -20.89,12.47 -42.5,27.92 -63.02,41.6l-381.87 245.86z"/>
   <path class="fil0" d="M484.24 839.49l-184.71 -223.31c-86.25,-105.9 -108.31,-148.09 -259.93,-148.09 4.35,12.01 0.3,4.29 8.57,12.36 6.34,6.2 8.31,6.25 15.39,10.77 14.83,9.47 17.27,11.94 30.02,22.29 140.15,113.78 215.58,325.98 390.67,325.98z"/>
   <path class="fil0" d="M526.09 567.48c5.55,23.81 28.52,42.87 41.85,62.78l271.03 -173.61c12.01,-8.13 31.95,-21.53 40.87,-32.37 31,-37.67 22.24,-59.92 16.76,-97.28 -13.42,3.67 -32.25,18.06 -45.94,26.25l-230.39 151.47c-31.43,20.83 -62.84,41.77 -94.18,62.75z"/>
   <path class="fil0" d="M594.09 656.41c4.67,17.48 36.58,52.24 52.31,62.77 20.07,-10.62 34.58,-21.28 54.41,-34.52 20.08,-13.41 34.57,-21.82 54.45,-34.48 51.02,-32.51 100.52,-74.56 69,-140.24 -35.17,23.56 -201.54,139.8 -230.17,146.47z"/>
   <path class="fil0" d="M672.56 750.56c4,14.99 19.04,30.85 29.09,44.14 13.52,17.87 21.69,26.87 33.68,44.79 37.88,0 88.93,-10.46 125.54,-10.46l-104.62 -130.78c-19.13,5.11 -65.6,40.19 -83.7,52.31z"/>
  </g>
 </g>
</svg>
