<?xml version="1.0" encoding="UTF-8"?>
<!DOCTYPE svg PUBLIC "-//W3C//DTD SVG 1.1//EN" "http://www.w3.org/Graphics/SVG/1.1/DTD/svg11.dtd">
<!-- Creator: CorelDRAW 2020 (64-Bit) -->
<svg xmlns="http://www.w3.org/2000/svg" xml:space="preserve" width="1in" height="1in" version="1.1" style="shape-rendering:geometricPrecision; text-rendering:geometricPrecision; image-rendering:optimizeQuality; fill-rule:evenodd; clip-rule:evenodd"
viewBox="0 0 1000 1000"
 xmlns:xlink="http://www.w3.org/1999/xlink"
 xmlns:xodm="http://www.corel.com/coreldraw/odm/2003"
 xmlns:dc="http://purl.org/dc/elements/1.1/"
 xmlns:cc="http://creativecommons.org/ns#"
 xmlns:rdf="http://www.w3.org/1999/02/22-rdf-syntax-ns#"
 xmlns:svg="http://www.w3.org/2000/svg"
 xmlns:sodipodi="http://sodipodi.sourceforge.net/DTD/sodipodi-0.dtd"
 xmlns:inkscape="http://www.inkscape.org/namespaces/inkscape"
 inkscape:version="0.48.4 r9939"
 sodipodi:docname="IRI.NAJA.FATA (New).svg">
 <defs>
  <style type="text/css">
   <![CDATA[
    .fil0 {fill:#4D4D4D;fill-rule:nonzero}
   ]]>
  </style>
 </defs>
 <g id="Layer_x0020_1">
  <metadata id="CorelCorpID_0Corel-Layer"/>
  <sodipodi:namedview id="base" pagecolor="#ffffff" bordercolor="#666666" borderopacity="1.0" inkscape:pageopacity="0.0" inkscape:pageshadow="2" inkscape:zoom="0.175" inkscape:cx="-153.67852" inkscape:cy="901.82896" inkscape:document-units="px" inkscape:current-layer="layer1" showgrid="false" inkscape:window-width="1280" inkscape:window-height="962" inkscape:window-x="-8" inkscape:window-y="-8" inkscape:window-maximized="1"/>
  <g id="_2355689321504">
   <g>
    <path class="fil0" d="M789.19 150.74c-1.11,2.43 -1.77,23.22 -1.55,46.65 0.22,39.35 2.43,67.21 7.74,94.63 1.11,5.97 2.65,15.92 3.32,22.11 0.66,5.97 3.31,17.46 5.75,25.43 10.39,32.72 18.13,54.39 22.99,65.66 2.87,6.41 5.53,12.38 5.75,13.49 0.22,0.88 4.42,8.4 9.29,17.02 5.08,8.4 10.39,18.13 12.16,21.44 3.54,6.85 28.3,40.02 36.26,48.64 5.09,5.53 6.19,5.97 13.05,3.54 13.26,-4.64 31.39,-17.02 46.43,-31.39 14.15,-13.49 34.93,-40.68 34.93,-45.32 0,-3.54 -7.74,-6.85 -15.92,-6.85 -20.34,0 -68.31,-17.69 -85.12,-31.39 -15.04,-12.38 -40.46,-43.56 -40.46,-49.75 0,-0.66 -1.55,-3.31 -3.76,-5.53 -1.99,-2.43 -2.43,-3.98 -1.1,-3.98 1.55,0 2.65,0.88 2.65,1.77 0,4.64 24.1,27.86 38.91,38.03 9.29,5.97 17.46,11.06 18.57,11.06 1.77,0 3.76,-5.53 13.27,-37.59 11.28,-38.03 33.61,-98.17 45.32,-122.26 1.99,-4.2 2.43,-7.96 1.11,-11.28 -2.21,-5.97 -33.83,-38.91 -37.15,-38.91 -1.33,0 -3.76,-1.33 -5.31,-2.87 -4.42,-4.42 -28.96,-14.37 -47.76,-19.45 -11.72,-3.32 -26.53,-5.09 -47.31,-5.75 -28.3,-1.11 -30.51,-0.89 -32.06,2.87l0 -0z"/>
    <path class="fil0" d="M700.75 252.67c-17.46,20.12 -25.65,34.05 -33.61,57.48 -6.85,21 -11.94,52.62 -9.06,58.15 1.11,1.99 5.53,4.64 10.39,6.41 12.38,4.42 59.25,32.72 73.4,44.44 6.85,5.53 13.49,10.83 15.04,11.72 3.09,1.99 9.07,-10.17 11.94,-23.88 1.33,-7.07 1.55,-5.97 0.88,5.53 -1.33,18.79 -3.76,29.85 -10.17,45.76 -4.87,11.94 -20.78,37.37 -27.64,44.44 -4.42,4.42 -3.76,8.18 1.99,10.83 22.11,9.95 27.85,12.16 37.81,14.59 6.19,1.33 20.12,2.43 31.17,2.65l19.9 0 1.55 -11.05c2.65,-17.69 -1.99,-74.51 -8.18,-99.94 -10.17,-42.67 -23.88,-79.15 -39.35,-105.02 -12.6,-21.22 -24.98,-40.24 -28.52,-44 -1.55,-1.77 -8.62,-9.95 -15.7,-18.13 -7.07,-8.18 -14.37,-14.81 -15.92,-14.81 -1.55,0 -8.85,6.63 -15.92,14.81l0 0z"/>
    <path class="fil0" d="M175.22 425.12c-1.77,1.77 -1.77,216.45 0.22,223.52 1.1,4.87 1.99,5.09 24.76,4.42l23.44 -0.66 0.66 -114.52 0.44 -114.31 -23.88 0c-13.27,0 -24.76,0.67 -25.65,1.55z"/>
    <path class="fil0" d="M19.57 466.02c0.66,1.55 4.42,11.5 8.4,22.11l7.3 19.46 29.41 0 29.63 0 0 46.43c0,43.78 -0.22,46.43 -4.42,48.64 -4.87,2.65 -40.46,6.41 -60.14,6.63l-12.38 0 -1.55 13.71c-0.88,7.74 -1.11,17.91 -0.66,22.77l0.66 8.84 36.26 0.67c20.34,0.22 36.92,-0.44 37.59,-1.55 0.66,-1.11 7.07,-2.43 13.93,-3.32 21.44,-1.99 35.15,-12.6 39.13,-30.07 3.1,-13.04 3.1,-117.62 0,-130.44 -2.65,-11.5 -8.84,-19.24 -19.01,-23.43 -9.95,-4.2 -105.46,-4.43 -104.13,-0.44l0 0z"/>
    <path class="fil0" d="M255.7 464.48c0,0.66 3.09,10.61 6.85,22.11l6.85 21 30.29 0 30.07 0 -0.66 46.21c-0.44,38.91 -1.11,46.65 -4.2,49.08 -2.43,2.21 -14.15,3.31 -39.8,3.76l-36.26 0.88 0.66 23.66 0.67 23.44 36.48 0.66c36.48,0.67 57.48,-1.55 68.54,-7.3 8.4,-4.42 17.91,-14.59 21.89,-23.66l3.76 -7.96 5.09 18.35c2.87,10.17 6.41,19.01 8.18,19.67 3.98,1.55 44.22,-2.21 60.58,-5.52 14.37,-3.1 26.09,-11.28 30.51,-21.89l3.09 -7.74 3.54 8.84c1.99,4.86 4.2,9.29 4.87,9.95 0.88,0.66 2.43,3.54 3.31,6.63 2.21,7.52 3.31,7.96 18.57,7.52 9.73,-0.22 15.48,-1.77 23.22,-6.19 10.17,-5.97 21,-18.13 21.44,-23.65 0,-1.77 2.43,4.42 5.53,13.48 3.09,9.07 6.41,17.47 7.52,18.57 0.89,0.89 8.84,0.67 17.46,-0.88 18.13,-3.1 32.94,-11.72 40.46,-23.88 5.09,-8.18 5.09,-8.62 5.09,-86.67l0 -78.49 -25.43 0 -25.2 0 0.66 64.78c0.67,74.51 0.44,75.61 -15.26,75.61l-8.84 0 0 -70.75 0 -70.75 -25.43 0 -25.65 0 0.66 70.75 0.67 70.75 -13.71 0 -13.93 0 0 -70.75 0 -70.75 -24.32 0 -24.32 0 0 70.53 0 70.75 -29.18 0.66 -29.41 0.67 0 -57.48 0 -57.48 -5.97 -10.17c-9.5,-16.14 -14.81,-17.46 -71.41,-17.46 -26.09,0 -47.54,0.44 -47.54,1.1l0 0z"/>
    <path class="fil0" d="M38.58 705.24c-21.44,11.28 -23.88,16.14 -23.88,49.08 0,37.36 -1.33,36.26 47.09,36.26l36.92 0 0 13.05c0,8.18 -1.11,13.93 -2.65,15.03 -1.55,0.89 -18.79,2.21 -38.25,2.87l-35.37 1.11 -0.66 13.71 -0.67 13.93 40.46 0c43.33,0 45.32,-0.44 55.49,-12.16 10.61,-12.16 13.05,-20.78 12.16,-42.45 -0.66,-16.36 -1.77,-21.67 -5.31,-26.53 -7.74,-10.39 -12.6,-11.72 -48.42,-11.72l-33.17 0 0.44 -9.95c0.22,-5.53 1.1,-10.83 1.77,-12.16 0.88,-1.33 13.93,-2.21 32.28,-2.21l30.95 0 3.31 -8.18c1.99,-4.42 3.98,-11.5 4.65,-15.48l1.33 -7.3 -36.26 0c-27.2,0 -37.81,0.88 -42.23,3.09l-0 0z"/>
    <path class="fil0" d="M171.68 707.23c0,1.77 -5.53,22.33 -12.6,45.99 -16.36,56.6 -24.76,88.21 -24.98,94.19 0,4.86 0.89,5.08 15.48,5.08 18.13,0 17.69,0.44 23.22,-25.87 2.21,-10.17 4.64,-18.35 5.75,-18.35 0.88,0 2.87,3.54 4.2,7.74l2.65 7.74 15.03 0 15.04 0 2.65 14.37 2.65 14.37 17.46 0c12.6,0 17.46,-0.66 17.46,-2.87 0,-1.55 -2.43,-10.17 -5.3,-19.23 -2.87,-9.07 -7.52,-24.54 -10.17,-34.27 -2.65,-9.73 -9.5,-34.05 -15.25,-54.17l-10.61 -36.48 -21.44 -0.67c-16.8,-0.44 -21.22,0 -21.22,2.43l0 0zm35.37 86c0,1.11 -5.97,1.77 -13.48,1.77 -11.72,0 -13.27,-0.44 -12.16,-3.98 0.66,-1.99 2.65,-10.17 4.64,-18.13 1.99,-7.96 4.64,-18.35 5.97,-23.22l2.43 -8.84 6.19 25.43c3.54,13.93 6.41,26.09 6.41,26.97l0 0z"/>
    <path class="fil0" d="M431.24 708.12c-1.55,1.55 -3.76,7.96 -5.31,14.37 -1.33,6.41 -3.76,13.71 -5.31,16.14 -1.55,2.43 -4.42,10.83 -6.63,18.8 -2.21,7.96 -8.4,28.74 -13.48,46.43 -5.31,17.69 -10.39,35.81 -11.28,40.46l-1.33 8.41 17.02 -0.67 17.24 -0.66 5.75 -24.1 5.75 -24.1 3.54 9.73 3.54 9.73 15.04 1.11 15.26 1.11 3.09 13.7 2.87 13.93 17.69 0c9.51,0 17.47,-0.66 17.47,-1.33 0,-0.88 -4.87,-17.46 -10.83,-37.14 -6.19,-19.46 -13.04,-44 -15.48,-54.17 -2.65,-10.39 -5.97,-20.34 -7.74,-22.11 -1.55,-1.99 -4.2,-8.63 -5.53,-14.59 -1.55,-6.19 -3.32,-12.38 -4.42,-13.93 -2.43,-3.98 -33.17,-4.86 -36.93,-1.1l0 0zm24.76 58.37c2.87,11.06 5.75,22.11 6.41,24.32 1.33,3.76 0.22,4.2 -12.82,4.2l-14.15 0 6.85 -25.43c3.54,-13.93 7.07,-24.76 7.74,-24.32 0.44,0.67 3.31,10.17 5.97,21.22l0 0z"/>
    <path class="fil0" d="M532.94 707.01c-0.89,1.55 -2.21,34.71 -2.65,74.07l-1.11 71.41 39.35 0c38.25,0 39.8,-0.22 49.08,-5.75 5.31,-3.09 12.16,-9.5 15.04,-14.15 5.53,-8.62 5.53,-9.28 5.53,-60.36 0,-70.53 2.43,-67.87 -61.69,-67.87 -30.29,0 -42.45,0.66 -43.56,2.65zm74.29 68.54l-1.11 42.67 -7.74 2.65c-4.2,1.55 -14.37,2.65 -22.55,2.65l-15.03 0.22 0 -45.32 0 -45.33 23.88 0 23.65 0 -1.1 42.45z"/>
    <path class="fil0" d="M274.71 715.85c-0.88,7.3 -2.21,119.39 -1.55,133.76 0.22,2.21 9.73,2.87 39.57,2.87 38.69,0 39.57,0 48.42,-5.75 4.86,-3.31 11.5,-9.95 14.81,-14.81 5.75,-8.85 5.75,-9.73 5.75,-47.98 0,-49.75 -1.99,-63.23 -11.06,-71.41l-6.63 -5.97 -44 0 -44 0 -1.33 9.28 0 0zm78.71 53.06c-0.22,21 -1.77,40.9 -3.09,44.22 -2.87,7.52 -12.38,10.61 -32.06,10.61l-13.93 0 0 -45.1 0 -45.32 10.61 -0.89c5.75,-0.44 16.8,-0.89 24.76,-1.11l14.37 -0.44 -0.67 38.03z"/>
   </g>
  </g>
 </g>
</svg>
