<?xml version="1.0" encoding="UTF-8"?>
<!DOCTYPE svg PUBLIC "-//W3C//DTD SVG 1.1//EN" "http://www.w3.org/Graphics/SVG/1.1/DTD/svg11.dtd">
<!-- Creator: CorelDRAW 2021.5 -->
<svg xmlns="http://www.w3.org/2000/svg" xml:space="preserve" width="1in" height="1in" version="1.1" style="shape-rendering:geometricPrecision; text-rendering:geometricPrecision; image-rendering:optimizeQuality; fill-rule:evenodd; clip-rule:evenodd"
viewBox="0 0 1000 1000"
 xmlns:xlink="http://www.w3.org/1999/xlink"
 xmlns:xodm="http://www.corel.com/coreldraw/odm/2003">
 <defs>
  <style type="text/css">
   <![CDATA[
    .fil0 {fill:black}
   ]]>
  </style>
   <clipPath id="id0">
    <rect x="5936.29" y="-5099.06" width="12500" height="12500"/>
   </clipPath>
 </defs>
 <g id="Layer_x0020_1">
  <metadata id="CorelCorpID_0Corel-Layer"/>
  <g style="clip-path:url(#id0)">
   <image x="5936.29" y="-5099.06" width="12500" height="12500" xlink:href="sandogh_Images\sandogh_ImgID1.png"/>
  </g>
  <g id="_2670716491776">
   <path class="fil0" d="M395.54 302.84c9.63,-7.45 38.76,-4.76 51.28,-2.11 30.75,6.52 48.88,23.2 66.72,48.11 4.57,6.39 19.45,29.63 20.39,37.15 -3.24,-1.81 -21.95,-24.39 -26.08,-28.52 -37.56,-37.6 -46.72,-44.79 -99.2,-52.52 -2.26,-0.33 -3.78,-0.44 -6.07,-0.64 -0.62,-0.06 -3.4,-0.33 -3.88,-0.42l-2.43 -0.74c-0.18,-0.06 -0.5,-0.17 -0.73,-0.31zm-81.05 -110.06c5.7,11.84 11.02,22.62 10.51,39.47 -0.42,13.82 -6.72,30.07 -14.54,36.04 -0.13,-9.57 3.76,-24.87 4.56,-36.17 0.99,-14 -1.36,-24.19 -1.61,-34.52 -0.04,-1.58 -0.2,-0.84 0.15,-2.5 0.46,-2.18 0.07,-1.07 0.93,-2.32zm-91.53 9.02c6,17.39 2.38,15.49 14.26,34.9 6.05,9.87 14.8,20.59 22.67,28.35 4.18,4.11 8.19,8.59 12.94,12.57 15.15,12.69 22.5,14.11 16.62,29.82 -2.63,7.04 -4.33,11.44 -6.07,19.39 -11.94,54.49 -20.61,125.64 -3.36,179.97 27.89,87.83 82.72,156.71 167.63,187.56 13.18,4.78 32.42,9.25 38.32,11.5 18.23,2.3 33.63,6.06 53.67,7.34 18.84,1.2 38.51,0.17 56.85,-2.67 52.82,-8.19 86.33,-28.82 123.46,-58.91 12.56,-10.18 21.51,-17.31 32.35,-28.48 13.12,-13.52 46.05,-54.8 50.76,-71.43 -2.11,1.33 -0.16,-0.35 -2.43,2.03l-26.75 31.05c-1.41,1.11 -0.35,0.48 -1.58,1.01 -3.28,6.91 -34.02,32.61 -45.18,40.61 -104.59,75.04 -214.41,65.94 -316.31,-11.03 -15.09,-11.41 -31.59,-27.84 -43.35,-42.98 -5.98,-7.69 -12.87,-16.63 -18.04,-25.11 -4.27,-7 -13.22,-20.48 -15.5,-28.25 -8.71,-7.98 -24.74,-64.55 -27.89,-80.32 -7.75,-38.77 -5.06,-60.61 -1.4,-99.75 19.07,0.21 64.59,32.57 84.01,43.5l5.3 4.1c3.63,0.41 9.8,4.99 13.11,6.98 14.79,8.89 27.37,16.97 45.52,17.31 14.08,0.26 27.98,-1.55 42.05,0.19 7.99,0.99 27.24,6.87 28.62,12.25 13.1,5.7 33.93,37.58 41.77,50.65 2.92,4.87 7.93,15.23 11.19,18.97 6.41,-8.3 2.79,-56.82 1.05,-69.7 -7.39,-54.5 -33.93,-121.84 -69.2,-157.16 -27.33,-27.37 -74.34,-33.51 -112.71,-10.69 -30.42,18.09 -43.4,41.85 -59.52,53.28 -5.04,3.57 -18.53,12.31 -25.67,13.17 2.98,-17.11 16.65,-29.12 24.98,-37.39 5.91,-5.86 10.23,-10.28 15.53,-15.85 11.31,-11.86 10.78,-13.82 14.1,-17.41 -1.79,-17.67 1.81,-23.89 -9.22,-46.47 -16.87,-34.5 -56.19,-58.39 -90.99,-74.77 -12.47,-5.87 -24.95,-12 -38.43,-16.51 -9.18,-3.07 -45.02,-13.31 -34.81,8.38 5.6,11.9 19.43,19.65 22.87,32.05 2.06,7.4 3,15.3 4.27,23.32 1.29,8.13 3.28,16.47 4.5,24.63z"/>
   <path class="fil0" d="M345.3 473.75c1.88,2.36 7.76,25.35 9.73,30.69 18.89,51.1 45.15,83.69 89.28,114.7 15.34,10.78 34.21,20.49 54.67,27.78 62.05,22.11 142.84,15.23 197.78,-22.43 29.27,-20.06 28.59,-25.91 41.73,-37.86 1.47,-1.34 -0.07,-0.31 1.9,-1.48 0.68,-2.9 6.56,-9.5 8.59,-12.44 16.51,-23.96 27.27,-45.89 36.56,-74.29 1.69,-5.17 8.39,-33.45 9.89,-35.26l0.76 -7.63 0.19 -4.15c-0.77,7.36 -17.97,42.72 -22.5,51.1 -50.04,92.61 -130.4,142.46 -242.44,116.83 -30.67,-7.01 -74.75,-25.89 -97.15,-48.02 -2.15,-2.13 -0.85,-0.19 -2.41,-3.07 -1.48,-0.41 0.17,1.37 -2.77,-1.52 -1.24,-1.22 -0.77,-0.56 -1.03,-1.89 -9.52,-5.99 -23.01,-24.24 -30.28,-34.53 -28.97,-41 -42.45,-91.98 -47.1,-144.31l-3.51 9.56c-0.84,3.45 -1.44,6.36 -2.06,9.56 -1.34,7.01 -2.3,14.7 -2.67,22.31 -1.09,21.89 3.19,41.72 2.82,46.34z"/>
   <path class="fil0" d="M487.34 838.24c-1.21,2.6 -2.78,3.15 -4.83,5.02 -8.55,8.97 -18.17,19.92 -23.63,32.88 -13,30.86 3.78,28.66 13.61,33.57 0.96,32.53 -67.82,48.06 -66.58,11.2l3.75 -14.33c-0.66,-5.08 6.88,-22.33 9.1,-24.67 2,-7.19 7,-13.7 6.48,-20.96 -4.06,1.26 -4.67,4.83 -7.54,11.24 -6.18,13.81 -11.22,23.48 -16.43,38.56l-0.35 0.26c-3.67,18.99 -8.12,38.38 6.09,50.49 12.54,10.69 33.64,5.95 44.94,-3.08 17.12,-13.68 29.51,-41.74 28.61,-64.14 -0.54,-13.59 -7.72,-9.22 -14.74,-15.97 -0.49,-8.39 14.36,-23.25 20.49,-23.9 0.93,-1.77 -0.47,-0.7 2.41,-2.49 5.13,-3.18 9.25,-0.68 12.07,-0.67 2.92,-5.4 9.06,-15.04 8.03,-23.79 -9.13,0.65 -14.67,7.94 -21.48,10.78z"/>
   <path class="fil0" d="M183.35 922.34l15.15 8.32c1.46,24.54 -43.67,39.89 -60.36,24.05 -19.98,-18.95 11.17,-55.69 11.7,-73.43 -6.78,3.09 -6.12,13.33 -11.57,17.7 -0.35,4.35 -3.79,10 -5.66,14.69 -6.46,16.23 -13.03,35.51 -7.23,52.88 6.14,18.4 24.3,23.73 41.04,17.32 5.48,-2.1 10.45,-6.74 13.75,-7.55 1.98,-3.52 7.74,-7.86 13.12,-16.69 7.85,-12.87 14.32,-29.44 13.8,-44.76 -0.31,-9.21 -6.41,-12.07 -12.38,-15.57 0.03,-4.39 6.63,-21.79 9.3,-24.18l3.39 -11.21c1.36,-8.42 2.94,-13.2 0.63,-22.15 -1.67,-6.46 -4.46,-12.53 -9.45,-14.47l-5.18 11.9c-1.25,3.7 -3.71,8.35 -2.49,12.61 2.39,8.33 9.97,11.7 6.12,24.22 -7.22,23.5 -16.72,27.21 -13.67,46.31z"/>
   <path class="fil0" d="M843.26 910.7c0.98,-3.01 7.59,-11.52 10.46,-14.48 4.63,-4.78 11.69,-7.37 16.76,-0.91 -1.88,8.66 -16.64,15.79 -27.22,15.4zm-84.55 4.22c-3.25,10.31 -11.24,22.44 -17.33,28.84 -4.28,4.48 -17.98,15.22 -26.41,18.41 -2.14,3.13 -4.56,2.2 -6.17,6.58 5.49,0.47 22.78,-3.87 27.19,-5.88 10.43,-4.74 10.93,-13.65 17.04,-16.95 6.78,24.67 25.06,22.88 34.91,7.11 17.35,-27.78 20.09,-7.6 28.58,-19.48 2.43,-3.41 3.77,-6.06 6.85,-8.8 6.03,2.12 3.66,5.8 15.7,5.46 35.21,-1.02 49.87,-58.91 26.29,-51.79 -11.44,3.45 -24.2,29.86 -29,31.76 -6.57,2.61 -6.37,-5.81 -12.89,3.83 -11.79,17.44 -11.98,-1.86 -25.62,13.63 -2.96,3.36 -5.63,8.03 -10.51,10.08 -6.3,2.64 -13.09,0.94 -16.92,-2.21 -12.17,-10.02 -3.86,-18.49 -3.24,-29.26 -6.26,0.09 -5.18,6.3 -8.48,8.68z"/>
   <path class="fil0" d="M684.05 946.78c2.11,-4.81 5.58,-7.91 8.56,-12.55 6.99,-10.87 12.07,-22.41 14.84,-35.31l2.06 -6.98c0.06,-0.39 0.24,-0.48 0.39,-0.7 -1.85,-10.08 4.81,-30.17 -8.08,-35.28 -6.66,-2.65 -9.52,4.22 -11.87,8.83 -13.87,27.11 4.65,18.03 8.48,20.2 9.07,11.4 -5.52,34.64 -11.24,40.85 -24.17,26.28 -71.51,24.35 -66.14,-10.31 1.74,-11.24 6.68,-21.07 11.75,-30.37 2,-3.67 4.06,-6.54 2.26,-9.79 -4.66,3.75 -16.43,26.96 -18.94,34.35 -18.73,55.28 22.23,72.62 54.32,49.41 3.38,-2.44 4.11,-3.19 7.27,-6.47 1.22,-1.27 1.87,-1.96 3.43,-3.5 0.15,-0.15 1.41,-1.34 1.43,-1.36 1.39,-1.19 0.32,-0.49 1.48,-1.04z"/>
   <path class="fil0" d="M306.57 893.76c-0.91,5.12 -1.83,7.43 -5.27,9.6 -5.78,-16.14 -14.04,-13.94 -21.8,1.27 -7.72,15.17 -9.31,23.48 10.26,21.09 -1.42,7.7 -7.53,14.76 -13.16,16.9l-0.7 0.87c-4.99,4.8 -17.34,9.81 -19.44,15.67 7.8,-0.3 18.19,-5.64 25.8,-7.42 2.81,-2.87 5.29,-4.24 8.4,-9.46 1.95,-3.29 3.75,-9.64 5.98,-12 3,-15.94 9.5,-14.46 14.27,-24.63 4.13,5.44 8.72,11.96 19.06,7.27 5.84,-2.65 9.27,-9.18 13.72,-13.73 8.38,-8.57 8.44,2.89 18.33,-9.15 3.34,-4.06 4.72,-2.5 8.06,-5.67 2.65,-2.53 3.26,-5.45 6.27,-8.05l0.67 -2.97c0.49,-3.87 1.87,-7.4 0.07,-10.17 -2.72,2.9 -2.19,5.51 -4.27,8.24 -2.61,3.42 -4.01,1.6 -8.59,1.29 -1.67,3.83 -3.37,7.37 -4.92,9.54 -7.98,1.06 -6.71,-1.21 -12.18,3.7 -2.08,1.87 -5.02,4.77 -8.83,5.85 -32.76,9.32 -16.18,-48.94 -15.15,-63.2 -1.07,-0.89 1.44,-1.3 -2.17,-0.41 0.19,3.46 -4.34,9.72 -6.05,13.73 -2.26,5.31 -2.62,11.41 -3.32,17.37 -0.92,7.85 -1.9,30.15 -5.04,34.45z"/>
   <path class="fil0" d="M222.92 939.11c6.69,3.24 9.14,7.59 20.19,4.58 9.64,-2.63 10.26,-9.06 15.31,-11.49 2.68,-6.9 7.13,-10.14 10.9,-24.96 2.99,-11.75 1.79,-21.06 -5.88,-26.8 -10.06,-7.54 -15.13,5.91 -18.63,14.07 -2.09,4.86 -3.61,9.6 1.13,12.33 7.29,4.19 7.72,-2.9 14.67,-0.08 2.69,9.22 -8.81,14.39 -18.93,13.44 -27.9,-2.65 -3.51,-55.61 -7.3,-82.36 -2.58,1.43 -7.69,16.81 -8.73,20.72 -3.2,12.02 -6.3,40.72 -7.17,53.55 -1.04,15.14 0.4,15.61 4.44,27z"/>
   <path class="fil0" d="M548.21 967.43c5.81,0.74 25.86,-6.56 29.44,-9.84 6.4,-5.89 10.07,-17.44 13.3,-27 1.49,-4.42 6.4,-8.54 8.73,-11.86 9.97,-14.24 12.44,-41.4 8.91,-48.57 -4.13,2.73 -7.11,13.83 -9.18,18.96 -4.08,10.11 2.96,14.66 -5.54,21.54 -3.96,-3.46 -4.28,-11.07 -12.56,-9.42 -5.09,1.02 -30.84,38.19 0.33,33.11 -3.14,18.1 -28.97,23.57 -33.43,33.09z"/>
   <path class="fil0" d="M424.17 730.5c-0.63,3.03 -36.13,33.24 -38.9,35.67 -5.1,4.47 -36.88,32.46 -41.44,33.61 -1.46,2.7 -8.75,8.89 -11.41,11.65 -3.63,3.76 -6.89,9.13 -8.4,15.26 10.35,-3.68 83.01,-67.5 95.61,-79.13 5.93,-5.48 23.83,-22.09 24.93,-33.63 -3.78,0.91 -15.56,13.75 -20.39,16.57z"/>
   <path class="fil0" d="M376.17 933.28c-2.39,12.92 -15.44,19.87 -26.21,27.09 -4.03,2.69 -7.81,4.21 -9.7,9.03 6.52,-0.61 14.32,-3.61 20.01,-5.59 8.38,-2.92 10.88,-3.52 15.22,-10.27 26.28,-40.88 6.44,-74.1 -9.22,-45.45 -9.26,16.93 -12.38,28.16 9.9,25.19z"/>
   <path class="fil0" d="M530.11 824.54c7.82,-3.5 6.21,-10.11 20.57,-10.16 12.58,-0.04 16.7,1.77 27.89,-3.03 10.84,-4.65 28.57,-20.59 28.97,-32.8 -4.99,1.07 -7.63,7.44 -18.8,12.51 -20.71,9.39 -28.4,-5.94 -48.47,14.36 -2.67,2.69 -12.37,14.31 -10.16,19.12z"/>
   <path class="fil0" d="M516.69 899.89l-2.21 3.27c-1.95,5.23 -7.22,13.53 -8.02,18.81 -1.74,11.51 8.67,9.1 15.54,8.8 -2.89,12.15 -14.57,18.32 -24.53,25.07 -1.77,1.2 -3.06,2.11 -4.6,3.28 -3.06,2.31 -3.04,1.54 -4.39,5.19l6.3 -1.01c21.52,-9.71 23.39,-2.35 33.36,-27.8 7.31,-18.65 8.3,-45.44 -11.46,-35.62z"/>
   <path class="fil0" d="M745.31 901.65c0.85,-11.89 -0.58,-10.24 -1.87,-18.2 -9.67,-4.59 -11.82,-7.26 -20.79,11.21 -7.51,15.46 -4.69,20.51 11.54,18.37 -2.68,17.91 -28.98,23.51 -33.27,33.26 4.92,0.14 12.66,-2.89 17.02,-4.35 6.99,-2.34 10.85,-3.28 14.49,-8.1 6.83,-9.06 9.97,-20.7 12.88,-32.18z"/>
   <path class="fil0" d="M695.88 823.23c-3.75,-3.5 -5.69,-8.24 -11.77,-8.67 -3.55,3.43 -9.59,14.03 -10.71,19.93 1.96,3.11 7.82,8.31 11.69,9.52 4.63,-1.63 7.69,-8.06 9.68,-12.44 5.68,2.05 6.23,6.63 11.9,8.04 5.91,-3.17 14.08,-15.05 7.47,-23.36 -11.09,-13.93 -11.51,0.83 -18.26,6.99z"/>
   <path class="fil0" d="M206.94 962.5c-4.52,0.03 -5.8,4.84 -7.56,8.15 -2.51,4.72 -4.65,6.7 -4.77,12.55 1.81,0.82 3.78,1.7 4.57,4.64 4.57,0.83 6.04,5.04 10.4,-0.05 2.22,-2.59 3.65,-6.03 5.65,-8.89 2.78,1.04 8.33,6.55 8.83,7.48 5.12,-0.28 5.52,-2.19 7.92,-5.69 11.61,-17 -6.62,-22.11 -6.94,-22.04 -3.71,2.56 -5.85,8.38 -8.83,12 -2.66,-1.83 -5.02,-5.4 -9.28,-8.16z"/>
   <path class="fil0" d="M361.34 843.3c-4.4,-3.25 -4.39,-6.39 -10.74,-8.53 -2.68,2.44 -9.67,13.58 -10.06,19.33 1.86,2.53 7.04,7.25 11.04,8.26 5.65,-3.38 4.89,-7.16 8.83,-11.37 5.04,2.66 4,5.11 9.81,7.5 10.79,-5.49 14.44,-25.41 -0.98,-27.33 -3.3,2.92 -6.09,8.28 -7.89,12.14z"/>
   <path class="fil0" d="M542.3 935.02c3.32,-1.18 2.91,0.11 6.5,-7.23 1.65,-3.37 2.74,-6.19 3.7,-9.15 4.87,-15.06 5.96,-67.22 5.07,-69.22 -6.53,2.75 -12.06,27.36 -12.23,38.05 -0.13,8.18 0.24,16.39 0.01,24.57 -0.23,8.33 -2.51,15.03 -3.06,23z"/>
   <path class="fil0" d="M499.11 905.75c-2.64,9.33 -11.35,28.24 -17.22,35.53 -8.98,11.16 -26.81,15.47 -28.4,23.79 8.68,0.82 15.4,-2.87 23.19,-4.22l4.15 -1.48 1.04 -1.22c0.94,-0.98 0.62,-0.63 1.6,-1.59 1.46,-1.44 0.91,-0.61 2.4,-2.51 6.7,-8.53 18.65,-41.68 17.09,-50.65 -2.63,0.63 -3.64,2.19 -3.85,2.35z"/>
   <path class="fil0" d="M780.16 875.91c3.46,2.39 8.45,7.5 13.81,7.87 16.05,-14.34 7.33,-30.84 -4.04,-31.56 -3.13,4.01 -10.5,16.34 -9.76,23.69z"/>
   <path class="fil0" d="M598.77 850.88c13.04,-9 10.34,-26.42 -1.96,-28.83 -3.05,2.2 -8.07,11.61 -9.34,16.07 -1.86,6.48 6.41,11.02 11.3,12.76z"/>
   <path class="fil0" d="M266.24 837.29l3.09 -2.11c0.08,-0.06 0.3,-0.24 0.47,-0.33 1.85,-5.69 6.89,-10.61 4.95,-16.57 -1.46,-4.5 -6.98,-9.28 -11.45,-9.24 -3.43,4.03 -9.04,14.46 -8.85,20.77 4.06,3.08 6.84,5.7 11.79,7.49z"/>
   <path class="fil0" d="M361.39 835.58c7.57,-4.97 14.1,-24.52 -1.96,-28.44 -3.02,2.9 -6.9,10.53 -8.39,15.13 -1.71,5.31 0.11,5.73 2.81,8 2.83,2.37 3.85,4.1 7.55,5.31z"/>
  </g>
 </g>
</svg>
