<?xml version="1.0" encoding="UTF-8"?>
<!DOCTYPE svg PUBLIC "-//W3C//DTD SVG 1.1//EN" "http://www.w3.org/Graphics/SVG/1.1/DTD/svg11.dtd">
<!-- Creator: CorelDRAW 2020 (64-Bit) -->
<svg xmlns="http://www.w3.org/2000/svg" xml:space="preserve" width="1in" height="1in" version="1.1" style="shape-rendering:geometricPrecision; text-rendering:geometricPrecision; image-rendering:optimizeQuality; fill-rule:evenodd; clip-rule:evenodd"
viewBox="0 0 1000 1000"
 xmlns:xlink="http://www.w3.org/1999/xlink"
 xmlns:xodm="http://www.corel.com/coreldraw/odm/2003"
 xmlns:dc="http://purl.org/dc/elements/1.1/"
 xmlns:cc="http://creativecommons.org/ns#"
 xmlns:rdf="http://www.w3.org/1999/02/22-rdf-syntax-ns#"
 xmlns:svg="http://www.w3.org/2000/svg"
 xmlns:sodipodi="http://sodipodi.sourceforge.net/DTD/sodipodi-0.dtd"
 xmlns:inkscape="http://www.inkscape.org/namespaces/inkscape"
 inkscape:version="0.48.4 r9939"
 sodipodi:docname="IRI.NAJA.FATA (New).svg"
 enable-background="new 0 0 1190.55 841.89">
 <defs>
  <style type="text/css">
   <![CDATA[
    .fil0 {fill:#4D4D4D;fill-rule:nonzero}
   ]]>
  </style>
 </defs>
 <g id="Layer_x0020_1">
  <metadata id="CorelCorpID_0Corel-Layer"/>
  <sodipodi:namedview id="base" pagecolor="#ffffff" bordercolor="#666666" borderopacity="1.0" inkscape:pageopacity="0.0" inkscape:pageshadow="2" inkscape:zoom="0.175" inkscape:cx="-153.67852" inkscape:cy="901.82896" inkscape:document-units="px" inkscape:current-layer="layer1" showgrid="false" inkscape:window-width="1280" inkscape:window-height="962" inkscape:window-x="-8" inkscape:window-y="-8" inkscape:window-maximized="1"/>
  <g id="_2355682154624">
   <g>
    <g>
     <path class="fil0" d="M513.37 265.37l0 0 -6.24 0c-5.31,0 -10.6,-0.61 -15.77,-1.83 -9.79,-2.3 -19.81,-3.47 -29.86,-3.47l-155.72 0c-10.04,0 -20.05,1.17 -29.83,3.47l-0.05 0.01c-5.16,1.22 -10.45,1.83 -15.75,1.83l-6.22 0 -109.3 0 -6.24 0c-5.31,0 -10.59,-0.61 -15.76,-1.83 -4.9,-1.15 -9.84,-2.03 -14.82,-2.6 -5,-0.59 -10.01,-0.88 -15.04,-0.88l-67.39 0c-5.81,0 -10.52,4.71 -10.52,10.52 0,5.8 4.71,10.51 10.52,10.51l67.39 0c10.13,0 20.22,-1.19 30.08,-3.53 5.09,-1.21 10.32,-1.78 15.55,-1.78l6.24 0 0 -0 115.52 0c5.3,0 10.59,0.61 15.75,1.83l0.05 0.01c9.78,2.31 19.79,3.47 29.83,3.47l155.71 0c10.06,0 20.08,-1.17 29.87,-3.48 5.17,-1.22 10.46,-1.83 15.76,-1.83l486.2 0 0 -10.41 -479.96 0 0 0z"/>
     <rect class="fil0" x="6.66" y="174.22" width="986.59" height="10.4"/>
     <path class="fil0" d="M356.02 215c5.3,0 10.59,0.61 15.75,1.83l0.05 0.01c9.78,2.3 19.79,3.46 29.83,3.46l69.96 0c10.06,0 20.08,-1.17 29.87,-3.48 5.17,-1.22 10.46,-1.83 15.77,-1.83l6.24 0 469.77 0 0 -10.41 -469.77 0 -6.24 0c-5.31,0 -10.6,-0.61 -15.77,-1.83 -9.79,-2.31 -19.81,-3.48 -29.86,-3.48l-69.96 0c-10.04,0 -20.05,1.16 -29.83,3.47l-0.05 0.01c-5.16,1.22 -10.45,1.83 -15.75,1.83l-6.22 0 -343.14 0 0 10.41 343.14 0 6.22 0 0 0z"/>
     <path class="fil0" d="M288.04 245.39c5.3,0 10.59,0.61 15.75,1.83l0.05 0.01c9.78,2.3 19.79,3.46 29.83,3.46l127.84 0c10.05,0 20.07,-1.17 29.86,-3.47 5.17,-1.22 10.46,-1.83 15.76,-1.83l6.24 0 479.88 0 0 -10.4 -479.88 0 -6.24 0c-5.31,0 -10.6,-0.61 -15.76,-1.83 -9.79,-2.31 -19.81,-3.47 -29.86,-3.47l-127.84 0c-10.04,0 -20.05,1.16 -29.83,3.47l-0.05 0.01c-5.16,1.22 -10.45,1.83 -15.75,1.83l-6.22 0 -275.16 0 0 10.41 275.16 0 6.22 0 0 -0z"/>
     <path class="fil0" d="M465.35 326.13c-5.31,0 -10.6,-0.62 -15.76,-1.83 -9.79,-2.31 -19.81,-3.47 -29.87,-3.47l-150 0c-10.04,0 -20.05,1.16 -29.83,3.46l-0.05 0.01c-5.16,1.22 -10.45,1.83 -15.75,1.83l-2.7 0 0 -0 -6.24 0c-5.31,0 -10.59,-0.61 -15.76,-1.83 -4.9,-1.15 -9.85,-2.03 -14.83,-2.6 -4.99,-0.59 -10.01,-0.88 -15.04,-0.88l-128.24 0c-5.8,0 -10.51,4.71 -10.51,10.51 0,5.81 4.7,10.52 10.51,10.52l128.24 0c10.13,0 20.23,-1.19 30.08,-3.54 5.09,-1.21 10.31,-1.78 15.55,-1.78l6.24 0 2.7 0c5.31,0 10.59,0.62 15.75,1.83l0.05 0.01c9.78,2.3 19.78,3.46 29.83,3.46l150 0c10.06,0 20.07,-1.17 29.86,-3.48 5.17,-1.21 10.46,-1.83 15.77,-1.83l6.24 0 521.75 0 0 -10.4 -521.75 0 -6.24 0z"/>
     <path class="fil0" d="M439.38 356.52c-5.31,0 -10.6,-0.61 -15.77,-1.83 -9.78,-2.31 -19.81,-3.48 -29.86,-3.48l-124.04 0c-10.04,0 -20.05,1.17 -29.83,3.46l-0.05 0.01c-3.74,0.88 -7.54,1.44 -11.37,1.68 -3.83,-0.24 -7.65,-0.8 -11.39,-1.68 -4.9,-1.15 -9.84,-2.03 -14.83,-2.6 -4.99,-0.59 -10.01,-0.88 -15.04,-0.88l-128.24 0c-5.8,0 -10.51,4.71 -10.51,10.51 0,5.81 4.71,10.52 10.51,10.52l128.24 0c10.13,0 20.22,-1.19 30.08,-3.53 3.67,-0.87 7.4,-1.4 11.16,-1.63 3.83,0.25 7.65,0.8 11.39,1.69l0.05 0.01c9.78,2.31 19.78,3.47 29.83,3.47l124.03 0c10.05,0 20.07,-1.17 29.86,-3.48 5.17,-1.21 10.46,-1.83 15.77,-1.83l6.24 0 547.72 0 0 -10.4 -547.72 0 -6.24 0 0 -0z"/>
     <path class="fil0" d="M405.15 386.9l-6.24 0c-5.31,0 -10.6,-0.61 -15.77,-1.83 -9.79,-2.3 -19.81,-3.47 -29.87,-3.47l-76.93 0c-10.04,0 -20.05,1.16 -29.83,3.46l-0.05 0.01c-3.83,0.9 -7.74,1.47 -11.67,1.7 -3.94,-0.23 -7.85,-0.8 -11.7,-1.7 -4.9,-1.15 -9.85,-2.03 -14.83,-2.6 -4.99,-0.59 -10.01,-0.88 -15.04,-0.88l-113.03 0c-5.8,0 -10.51,4.71 -10.51,10.52 0,5.8 4.7,10.51 10.51,10.51l113.03 0c10.13,0 20.22,-1.19 30.07,-3.53 3.77,-0.9 7.61,-1.44 11.47,-1.65 3.93,0.23 7.85,0.8 11.69,1.7l0.05 0.01c9.78,2.3 19.78,3.47 29.83,3.47l76.94 0c10.06,0 20.08,-1.17 29.86,-3.48 5.17,-1.22 10.46,-1.83 15.77,-1.83l594.42 0 0 -10.41 -588.18 0z"/>
     <path class="fil0" d="M478.66 478.05c-5.31,0 -10.6,-0.61 -15.76,-1.83 -9.79,-2.31 -19.81,-3.47 -29.86,-3.47l-95.58 0c-10.04,0 -20.05,1.16 -29.83,3.46l-0.05 0.01c-4.36,1.03 -8.81,1.6 -13.28,1.76 -4.5,-0.16 -8.96,-0.73 -13.35,-1.76 -4.9,-1.15 -9.85,-2.03 -14.83,-2.61 -5,-0.59 -10.01,-0.87 -15.04,-0.87l-40.8 0c-5.81,0 -10.52,4.71 -10.52,10.51 0,5.81 4.71,10.52 10.52,10.52l40.8 0c10.13,0 20.22,-1.19 30.08,-3.53 4.29,-1.02 8.68,-1.56 13.08,-1.71 4.49,0.16 8.96,0.73 13.33,1.76l0.05 0.01c9.78,2.3 19.78,3.47 29.83,3.47l95.58 0c10.05,0 20.07,-1.17 29.86,-3.48 5.17,-1.22 10.46,-1.83 15.77,-1.83l6.24 0 508.44 0 0 -10.41 -508.44 0 -6.24 0 0 0z"/>
     <path class="fil0" d="M497.24 508.44l-6.24 0c-5.31,0 -10.6,-0.62 -15.77,-1.83 -9.79,-2.31 -19.8,-3.47 -29.86,-3.47l-85.78 0c-10.04,0 -20.06,1.16 -29.83,3.46l-0.05 0.01c-5.14,1.21 -10.4,1.82 -15.67,1.83l-1.02 0c-5.31,0 -10.6,-0.61 -15.76,-1.83 -4.9,-1.15 -9.85,-2.03 -14.83,-2.6 -4.99,-0.59 -10.01,-0.87 -15.04,-0.87l-64.2 0c-5.81,0 -10.51,4.7 -10.51,10.51 0,5.81 4.7,10.52 10.51,10.52l64.2 0c10.13,0 20.23,-1.19 30.08,-3.53 5.09,-1.21 10.31,-1.78 15.55,-1.78l1.03 0c5.28,0.01 10.54,0.62 15.67,1.83l0.05 0.01c9.78,2.3 19.79,3.46 29.83,3.46l85.78 0c10.06,0 20.07,-1.17 29.86,-3.48 5.17,-1.22 10.46,-1.83 15.76,-1.83l502.33 0 0 -10.4 -496.09 0 0 0z"/>
     <path class="fil0" d="M435.52 447.67l-6.23 0c-5.31,0 -10.6,-0.61 -15.77,-1.83 -4.9,-1.15 -9.85,-2.03 -14.83,-2.6 -4.99,-0.59 -10.01,-0.88 -15.04,-0.88l-215.03 0c-5.8,0 -10.51,4.71 -10.51,10.51 0,5.81 4.71,10.52 10.51,10.52l215.02 0c10.13,0 20.22,-1.19 30.08,-3.53 5.09,-1.21 10.31,-1.78 15.55,-1.78l6.24 0 557.81 0 0 -10.41 -557.81 0 0 0z"/>
     <path class="fil0" d="M347.09 417.28l-6.23 0c-5.31,0 -10.6,-0.61 -15.77,-1.83 -4.9,-1.15 -9.85,-2.03 -14.83,-2.6 -4.99,-0.59 -10.01,-0.88 -15.04,-0.88l-183.38 0c-5.81,0 -10.52,4.7 -10.52,10.51 0,5.81 4.71,10.52 10.52,10.52l183.38 0c10.13,0 20.22,-1.19 30.08,-3.54 5.09,-1.21 10.31,-1.78 15.55,-1.78l6.23 0 0 -0 646.24 0 0 -10.4 -646.24 0z"/>
     <path class="fil0" d="M513.37 538.81l-6.24 0c-5.31,0 -10.6,-0.61 -15.77,-1.83 -9.79,-2.3 -19.81,-3.47 -29.86,-3.47l-69.44 0c-10.04,0 -20.05,1.16 -29.83,3.46l-0.05 0.02c-5.16,1.21 -10.45,1.83 -15.75,1.83l-6.22 0 -5.68 0 -6.24 0c-5.31,0 -10.6,-0.61 -15.76,-1.83 -4.9,-1.15 -9.85,-2.03 -14.83,-2.61 -4.99,-0.59 -10.01,-0.88 -15.04,-0.88l-72.41 0c-5.81,0 -10.52,4.71 -10.52,10.51 0,5.81 4.71,10.52 10.52,10.52l72.41 0c10.13,0 20.22,-1.19 30.08,-3.53 5.09,-1.21 10.31,-1.78 15.55,-1.78l6.24 0 0 -0 11.9 0c5.3,0 10.59,0.62 15.75,1.83l0.05 0.02c9.78,2.3 19.78,3.46 29.83,3.46l69.43 0c10.06,0 20.07,-1.17 29.87,-3.48 5.17,-1.21 10.46,-1.83 15.76,-1.83l486.2 0 0 -10.41 -479.96 0z"/>
     <path class="fil0" d="M500.56 569.2c-5.31,0 -10.6,-0.61 -15.77,-1.83 -9.79,-2.31 -19.81,-3.47 -29.86,-3.47l-2.2 0c-10.04,0 -20.06,1.17 -29.83,3.46l-0.05 0.01c-5.16,1.22 -10.44,1.83 -15.75,1.83l-6.22 0 -73.36 0 -6.23 0c-5.31,0 -10.6,-0.61 -15.77,-1.83 -4.9,-1.15 -9.84,-2.03 -14.82,-2.6 -5,-0.59 -10.01,-0.88 -15.04,-0.88l-43.1 0c-5.81,0 -10.52,4.7 -10.52,10.51 0,5.81 4.71,10.52 10.52,10.52l43.1 0c10.13,0 20.22,-1.19 30.08,-3.54 5.09,-1.21 10.32,-1.78 15.55,-1.78l6.23 0 0 -0 73.36 0 6.22 0c5.31,0 10.59,0.62 15.75,1.83l0.05 0.01c9.78,2.3 19.79,3.47 29.83,3.47l2.21 0c10.06,0 20.07,-1.17 29.86,-3.48 5.17,-1.21 10.46,-1.83 15.77,-1.83l6.24 0 486.54 0 0 -10.41 -486.54 0 -6.24 0 0 0z"/>
     <path class="fil0" d="M493.46 295.75l-6.24 0c-5.31,0 -10.6,-0.62 -15.77,-1.83 -9.79,-2.31 -19.81,-3.47 -29.86,-3.47l-161.72 0c-10.05,0 -20.06,1.16 -29.83,3.46l-0.05 0.01c-5.16,1.22 -10.44,1.83 -15.75,1.83l-6.22 0 -37.73 0 0 -0 -6.24 0c-5.31,0 -10.59,-0.61 -15.76,-1.83 -4.9,-1.15 -9.85,-2.03 -14.83,-2.6 -5,-0.59 -10.01,-0.88 -15.04,-0.88l-102.74 0c-5.81,0 -10.52,4.7 -10.52,10.51 0,5.81 4.71,10.52 10.52,10.52l102.74 0c10.13,0 20.23,-1.19 30.08,-3.54 5.09,-1.21 10.31,-1.78 15.55,-1.78l6.24 0 43.96 0c5.3,0 10.58,0.61 15.75,1.83l0.05 0.01c9.78,2.3 19.78,3.46 29.83,3.46l161.72 0c10.06,0 20.07,-1.17 29.87,-3.47 5.17,-1.22 10.46,-1.83 15.76,-1.83l506.12 0 0 -10.4 -499.88 0 0 0z"/>
     <path class="fil0" d="M324.64 599.27l-29.67 0c-4.07,0 -8.09,-0.85 -11.77,-2.5 -3.68,-1.64 -7.7,-2.5 -11.77,-2.5l-1.3 0c-5.81,0 -10.51,4.43 -10.51,9.89 0,5.46 4.7,9.89 10.51,9.89l1.3 0c4.07,0 8.09,-0.85 11.77,-2.5 1.45,-0.65 2.96,-1.17 4.51,-1.57l704.45 0 0 -10.4 -667.52 0 0 -0.31z"/>
     <path class="fil0" d="M992.13 247.5c0.18,-0.14 0.36,-0.28 0.54,-0.42l0 0.56c-0.18,-0.05 -0.36,-0.09 -0.54,-0.14z"/>
     <path class="fil0" d="M951.61 674.06c-7.5,5.9 -15.07,11.72 -22.13,18.17 -3.69,3.36 -6.42,7.27 -7.91,12.15 1.36,0.13 1.97,-0.81 2.72,-1.39 4.84,-3.74 9.59,-7.6 14.49,-11.26 11.96,-8.94 23.45,-18.45 34.52,-28.48 7.93,-7.19 14.67,-15.3 19.37,-24.99l0 -1.67c-13.32,12.89 -26.45,25.98 -41.06,37.47z"/>
     <path class="fil0" d="M512.15 810.16c-1.28,-0.93 -2.33,-1 -3.2,0.48 -1.21,2.07 -2.34,4.19 -3.65,6.2 -1.32,2.03 -1.28,3.6 0.8,5.16 1.37,1.03 2.67,2.23 3.55,3.78l1.67 0c0.93,-2.19 2.69,-3.87 3.55,-6.13 1.44,-3.81 0.54,-7.13 -2.72,-9.5z"/>
     <path class="fil0" d="M17.77 677.65c3.5,0.95 7.1,1.33 10.75,1.26 16.33,-0.11 28.98,-6.8 37.99,-20.62 8.13,-12.48 11.38,-26.44 12.95,-40.89 1.83,-16.76 0.73,-33.73 3.17,-50.46 0.09,-0.64 0.26,-1.45 -0.54,-1.66 -0.79,-0.21 -1.06,0.6 -1.33,1.17 -1.99,4.28 -3.87,8.61 -5.97,12.83 -2.24,4.5 -3.11,9.21 -3.2,14.21 -0.23,11.95 -0.59,23.91 -1.03,35.85 -0.5,13.69 -6.58,22.25 -18.94,26.44 -9.63,3.26 -19.47,3.44 -29.3,0.91 -6.52,-1.68 -9.08,-5.47 -8.69,-12.25 0.06,-0.98 0.51,-2.39 -0.72,-2.65 -1.5,-0.32 -1.55,1.29 -1.83,2.28 -1.87,6.72 -2.78,13.61 -3.09,20.56 -0.3,6.74 3.22,11.26 9.76,13.04z"/>
     <path class="fil0" d="M609.5 742.56c3.09,-1.5 6.76,-9.9 5.73,-13.74 -1.06,1.52 -2.09,2.81 -2.91,4.22 -0.84,1.45 -2.11,2 -3.5,1.44 -3.16,-1.3 -5.11,0.38 -6.96,2.48 -1.04,1.19 -1.95,2.48 -3.01,3.64 -4.71,5.16 -12.71,3.58 -15.08,-2.98 -0.86,-2.39 -0.99,-4.89 -0.81,-7.41 0.5,-7.11 1.82,-14.11 3,-21.42 -1.65,0.37 -1.83,1.51 -2.28,2.33 -4.58,8.51 -6.24,17.79 -6.59,27.29 -0.19,5.05 -1.23,9.63 -3.78,14 -2.09,3.58 -4.13,7.23 -5.43,11.23 -1.93,6 -1.07,8.11 4.55,10.91 5.22,2.61 5.77,4.46 2.65,9.42 -0.73,1.17 -1.64,2.25 -2.62,3.23 -5.23,5.27 -11.7,7.69 -19.01,7.9 -12.78,0.37 -18.86,-7.24 -15.78,-19.67 0.96,-3.88 2.5,-7.55 4.05,-11.21 1.98,-4.69 3.91,-9.39 5.79,-14.12 0.28,-0.69 0.98,-1.8 0.04,-2.26 -1.13,-0.53 -1.48,0.8 -1.84,1.53 -4.42,8.85 -8.94,17.67 -11.65,27.26 -1.47,5.2 -2.54,10.41 -2.15,15.87 0.84,11.83 8.68,18.75 20.32,17.64 5.04,-0.48 9.41,-2.67 13.18,-6.01 8.81,-7.82 13.56,-17.92 15.98,-29.21 1.39,-6.47 1.52,-12.69 -5.92,-16.04 -0.73,-0.33 -1.3,-1.11 -0.88,-2.09 0.92,-2.16 1.78,-4.38 3.62,-6.1 4.11,8.81 12.8,8.75 17.73,0.64 1.1,-1.81 2.31,-3.58 3.63,-5.25 1.81,-2.31 4.07,-3.75 7.22,-3.21 0.9,0.16 1.83,0.1 2.72,-0.33z"/>
     <path class="fil0" d="M434 734.87c-0.35,-0.11 -0.7,-0.24 -1.06,-0.33 -1.79,-0.5 -3.49,-0.63 -5.04,-0.43 -4.65,0.62 -8,4.24 -8.65,9.93l0 0 0 0c0.63,0.09 0.91,-0.28 1.16,-0.69 0.09,-0.13 0.17,-0.27 0.26,-0.39 2.93,-3.89 4.57,-4.4 9.28,-2.82 1.23,0.42 2.44,0.88 3.63,1.4 2.82,1.24 2.89,1.38 0.71,3.43 -3.72,3.49 -7.44,6.98 -11.57,9.98 -4.4,3.2 -9.28,5.36 -14.64,6.35 -1.05,0.2 -2.01,0.46 -2.08,-1.22 -0.08,-1.91 -0.98,-1.5 -2.09,-0.61 -4.92,3.89 -10.39,6.7 -16.4,8.54 -14.22,4.36 -28.77,4.95 -43.47,4.07 -4.62,-0.28 -9.22,-0.63 -13.74,-1.82 -4.18,-1.1 -6.53,-3.65 -7.03,-7.91 -0.11,-0.89 -0.14,-1.79 -1.02,-2.36 -1.04,0.79 -1.1,1.83 -1.28,2.81 -0.68,3.74 -1.11,7.51 -1.1,11.32 0.03,7.7 3.12,11.26 10.77,12.11 14.02,1.56 27.95,0.83 41.71,-2.25 10.06,-2.26 19.82,-5.69 26.94,-13.42 3.44,-3.73 6.23,-4.96 10.65,-2.67 3.52,1.82 6.11,0.38 8.84,-2.19 8.37,-7.86 16.45,-16.07 25.7,-22.96 2.52,-1.88 3.12,-4.59 3.52,-7.55 -6.74,2.07 -6.74,2.07 -14.02,-0.33z"/>
     <path class="fil0" d="M896.04 768.79c0.57,-1.04 1.48,-1.89 2.25,-2.81 2.15,-2.56 5,-3.65 8.19,-3.2 2.39,0.33 3.89,-0.56 5.28,-2.23 4.12,-4.98 6.78,-10.6 7.46,-17.06 1.26,-11.99 1.1,-24.07 1.96,-36.08 0.05,-0.74 0.26,-1.65 -0.67,-2.22 -0.2,0.23 -0.46,0.4 -0.54,0.63 -3,8.91 -6.82,17.64 -5.66,27.44 0.29,2.47 0.13,5 0.11,7.5 -0.02,3.52 -0.15,7.04 -1.1,10.47 -0.62,2.2 -1.75,3.46 -4.22,2.67 -2.13,-0.69 -4,-0 -5.8,1.07 -1.8,1.07 -3.13,2.63 -4.24,4.34 -2.5,3.81 -6.09,6.14 -10.21,7.8 -3.78,1.53 -7.7,2.7 -11.67,3.56 -14.09,3.03 -28.36,2.77 -42.63,2.08 -2.58,-0.12 -5.1,-0.84 -7.51,-1.9 -2.67,-1.17 -4.31,-3.04 -4.8,-5.98 -0.2,-1.22 -0.09,-2.62 -1.14,-3.57 -0.57,0.16 -0.78,0.57 -0.88,1.02 -1.07,4.91 -1.88,9.87 -1.43,14.88 0.57,6.39 3.59,9.41 10.05,10.21 15.25,1.89 30.35,0.91 45.2,-3.01 9.23,-2.44 17.22,-6.78 22,-15.6z"/>
     <path class="fil0" d="M714.99 694.52c-0.89,0.45 -1.18,1.37 -1.65,2.15 -3.81,6.24 -5.72,12.98 -5.65,20.33 0.04,4.16 0.35,8.36 -0.36,12.49 -0.56,3.24 -3.19,5.2 -6.34,4.99 -2.82,-0.19 -4,-1.72 -4.39,-5.39 -0.62,-5.9 0.38,-11.65 1.41,-17.4 0.84,-4.7 1.78,-9.39 2.67,-14.09 -0.33,-0.09 -0.67,-0.18 -1.01,-0.28 -3.05,5.75 -6.15,11.54 -7.46,17.98 -1.63,8.01 -2,16.18 -2.23,24.34 -0.15,5.28 -2.18,7.48 -7.31,7.04 -11.98,-1.04 -21.14,4.15 -28.99,12.5 -4.65,4.96 -8.36,10.63 -12.14,16.24 -4.2,6.23 -8.41,12.42 -13.81,17.73 -4.59,4.52 -9.9,8.08 -14.93,12.02 -1.03,0.81 -3.06,1.75 -2.32,3 0.76,1.27 2.51,-0.14 3.69,-0.65 11.5,-4.94 20.19,-13.28 27.69,-23.02 3.5,-4.55 6.65,-9.39 10.32,-13.8 5.44,-6.52 12.28,-10.36 21.13,-9.46 4.11,0.41 7.42,-0.95 10.1,-4.1 2.7,-3.17 5.5,-6.27 8.29,-9.37 0.72,-0.8 1.3,-1.63 2.69,-0.5 2.87,2.35 5.11,2.13 7.93,-0.3 1.49,-1.29 2.68,-2.84 3.63,-4.54 4.32,-7.78 7.04,-16.09 7.95,-24.96 0.74,-7.19 0.11,-14.48 1.56,-21.61 0.09,-0.44 0.37,-1.14 -0.49,-1.34z"/>
     <path class="fil0" d="M178.51 652.39c4.22,-3.21 6.13,-8.25 6.78,-13.58 0.19,-1.48 0.74,-3.05 -0.52,-4.77 -1.6,1.92 -1.85,4.21 -2.85,6.11 -0.98,1.86 -2.03,3.83 -4.64,2.74 -2.57,-1.08 -3.78,0 -4.52,2.33 -0.33,1.05 -0.9,2.03 -1.32,3.05 -0.83,2.02 -2.35,2.88 -4.43,2.4 -2.56,-0.59 -4.52,0.37 -6.31,2.01 -1.23,1.12 -2.45,2.27 -3.75,3.31 -4.31,3.46 -9.24,3.91 -14.17,2.07 -4.7,-1.76 -6.34,-5.94 -6.61,-10.69 -0.13,-2.22 -0.25,-4.45 -0.15,-6.67 0.48,-10.65 2.06,-21.2 3.31,-31.78 0.75,-6.34 1.67,-12.67 1.95,-19.07 0.03,-0.57 0.33,-1.46 -0.61,-1.56 -0.59,-0.06 -0.84,0.64 -1.04,1.15 -2.05,5.55 -4.78,10.96 -5.99,16.69 -3.33,15.78 -5.33,31.79 -6.09,47.91 -0.26,5.56 0.34,11.12 2.66,16.32 2.14,4.81 6.57,7.39 11.63,6.74 3.26,-0.42 5.97,-2.01 8.14,-4.41 2.17,-2.4 4.22,-4.93 6.24,-7.46 2.27,-2.85 5.09,-4.23 8.76,-3.57 1.56,0.28 3.11,0.06 4.1,-1.15 2.67,-3.29 6.07,-5.61 9.41,-8.16z"/>
     <path class="fil0" d="M255.3 758.14c0.23,-0.8 0.7,-1.78 -0.25,-2.69 -0.27,0.24 -0.61,0.41 -0.76,0.7 -2.88,5.46 -7.89,8.1 -13.34,10.23 -10.77,4.21 -22.05,5.5 -33.47,5.89 -8.44,0.29 -16.86,0.02 -25.11,-2.1 -4.78,-1.23 -8.78,-3.18 -8.55,-9.16 0.03,-0.69 0.11,-1.94 -1.05,-1.95 -1.04,-0.01 -1.13,1.13 -1.3,1.89 -0.96,4.34 -1.83,8.7 -2.25,13.12 -0.44,4.67 1.54,8.07 5.65,10.24 1.89,1 3.92,1.65 6.04,1.99 11,1.79 21.98,1.19 32.93,-0.38 9.56,-1.38 18.79,-3.82 27.45,-8.38 8.01,-4.21 11.67,-11.28 14,-19.42z"/>
     <path class="fil0" d="M112.69 541.63c17.26,-13.43 34.53,-26.85 49.84,-42.56 7.25,-7.44 14.24,-15.13 18.07,-25.06 0.52,-1.34 1.34,-2.65 1.07,-4.19 -0.89,-0.21 -1.19,0.5 -1.6,0.94 -18.97,20.69 -40.29,38.78 -62.17,56.26 -9.19,7.34 -18.69,14.31 -27,22.7 -3.98,4.02 -6.69,8.76 -7.85,14.69 1.25,-0.88 2.54,-1.72 3.75,-2.66 8.64,-6.7 17.26,-13.41 25.89,-20.12z"/>
     <path class="fil0" d="M809.44 742.76c-2.33,-0.87 -2.3,0.98 -2.93,2.17 -0.67,1.26 -1.17,3.24 -3,2.57 -2.13,-0.77 -2.87,0.31 -3.65,1.76 -1.07,2 -2.56,3.11 -4.96,2.53 -2.13,-0.51 -3.82,0.37 -5.22,1.89 -1.13,1.22 -2.22,2.48 -3.26,3.79 -2.55,3.24 -5.86,4.57 -9.83,3.54 -4.06,-1.05 -5.88,-4.15 -6.6,-8.1 -0.93,-5.11 0.04,-10.17 0.39,-15.23 0.3,-4.19 0.88,-8.35 1.33,-12.53 -0.22,-0.06 -0.44,-0.13 -0.66,-0.19 -0.21,0.28 -0.5,0.52 -0.61,0.83 -2.89,7.58 -6.59,14.93 -6.32,23.38 0.06,1.85 -0.07,3.71 -0.24,5.55 -0.41,4.61 -0.37,9.25 -1.07,13.85 -0.69,4.5 -4.48,8.38 -9.43,6.73 -1.98,-0.66 -4.11,-1.17 -6.28,-0.46 -6.68,2.19 -10.87,7.12 -14.21,12.97 -0.29,0.5 -0.67,1.22 -0.13,1.82 0.64,0.71 1.2,-0 1.7,-0.27 3.93,-2.11 8.04,-2.57 12.38,-1.54 3.05,0.73 5.85,0.04 8.5,-1.59 3.6,-2.2 6.13,-5.32 8.02,-9.02 0.8,-1.57 1.58,-3.14 2.39,-4.7 0.5,-0.95 0.94,-1.01 1.89,-0.26 5.44,4.28 9.98,3.64 14.2,-1.95 1.61,-2.14 2.98,-4.46 4.63,-6.57 1.26,-1.61 2.86,-3.31 5.03,-3.07 2.93,0.32 4.67,-1.29 6.55,-2.95 0.96,-0.86 1.83,-2.07 2.96,-2.44 3.46,-1.11 5.85,-3.6 8.14,-6.1 2.97,-3.25 4.37,-7.26 4.46,-12.29 -1.56,1.51 -1.72,3.07 -2.48,4.27 -0.44,0.69 -0.88,1.91 -1.69,1.61z"/>
     <path class="fil0" d="M978.16 729.81c-0.81,-0.26 -1.29,0.69 -1.56,1.31 -0.98,2.33 -2.82,3.17 -5.18,3.37 -2.17,0.2 -3.78,1.47 -5.09,3.09 -1.69,2.09 -3.39,4.19 -4.88,6.41 -1.37,2.04 -3,3.02 -5.54,2.83 -5.34,-0.38 -10.22,1.16 -14.79,3.93 -4.16,2.52 -7.86,5.55 -11.1,9.17 -4.21,4.72 -7.83,9.88 -11.2,15.2 -7.13,11.25 -15.65,21.11 -26.92,28.43 -1.81,1.17 -3.7,2.44 -4.85,4.7 1.57,0.69 2.65,-0.06 3.72,-0.52 11.8,-4.98 20.69,-13.5 28.35,-23.48 3.39,-4.41 6.44,-9.07 9.97,-13.36 5.32,-6.47 12.01,-10.37 20.74,-9.74 3.04,0.22 5.45,-0.91 7.12,-3.46 2.13,-3.25 4.26,-6.51 6.28,-9.83 2.03,-3.35 4.64,-5.78 8.75,-6.02 1.24,-0.08 2.1,-0.69 2.77,-1.62 1.81,-2.51 3.02,-5.3 3.85,-8.26 0.2,-0.73 0.6,-1.83 -0.45,-2.17z"/>
     <path class="fil0" d="M125.8 614.52c-1.21,-0.55 -1.94,1.42 -2.43,2.5 -2,4.37 -5.33,7.22 -9.7,9.02 -1.19,0.5 -2.3,1.18 -3.44,1.79 -4.36,2.32 -7.91,5.45 -10.07,9.99 -1.7,3.59 -3.74,7.06 -5.04,10.79 -2.21,6.32 -6.62,10.53 -11.95,14.12 -5.21,3.51 -10.69,6.66 -15.59,10.62 -0.87,0.7 -2.42,1.28 -1.85,2.74 0.51,1.33 2,1.05 3.49,1.07 3.58,-0.29 7.38,-1.11 11.18,-1.9 6.91,-1.44 11.5,-5.61 14.13,-12.06 1.37,-3.33 2.81,-6.64 4.06,-10.02 2.25,-6.1 5.81,-11.01 12.18,-13.16 6.84,-2.3 10.24,-7.56 12.54,-13.86 0.95,-2.6 1.77,-5.26 2.57,-7.91 0.39,-1.27 1.18,-3.17 -0.09,-3.73z"/>
     <path class="fil0" d="M118.44 699.44c1.27,-1.7 2.42,-3.51 3.46,-5.35 3.58,-6.31 2.11,-10.82 -4.48,-15.56 -1.67,-1.2 -3.02,-0.99 -4.09,0.91 -1.73,3.04 -3.57,6.01 -5.56,9.35 -1.92,-2.97 -4.09,-5.07 -6.61,-6.87 -1.76,-1.25 -3,-1.02 -4,0.93 -1.09,2.14 -2.39,4.19 -3.41,6.35 -4.71,10.04 -5.6,7.03 3.37,14.76 1.96,1.69 3.43,1.28 4.89,-0.57 1.79,-2.27 3.18,-4.78 4.38,-7.39 0.52,-1.13 1.09,-1.36 2.01,-0.43 1.43,1.44 2.89,2.87 4.33,4.3 2.59,2.54 3.48,2.52 5.69,-0.44z"/>
     <path class="fil0" d="M773 723.41c16.54,-12.99 33.61,-25.32 49.09,-39.62 5.26,-4.85 10.29,-9.91 14.35,-15.82 1.14,-1.66 2.32,-3.32 3.3,-5.09 0.97,-1.75 1.74,-3.61 2.09,-5.66 0.02,0 0.04,-0.01 0.06,-0 0.02,-0.03 0.04,-0.06 0.06,-0.09 0.03,-0.01 0.06,-0.02 0.09,-0.04 0.03,-0.02 0.02,-0.09 0.02,-0.14 -0.04,0.06 -0.08,0.11 -0.11,0.17 -0.04,0.01 -0.07,0.03 -0.1,0.04 -0,0.02 -0.01,0.03 -0.02,0.05 -0.97,-0.04 -1.33,0.83 -1.86,1.37 -15.59,15.65 -31.97,30.39 -49.54,43.81 -4.71,3.59 -9.29,7.39 -13.43,11.65 -2.77,2.86 -4.54,6.28 -5.96,10.52 1.02,-0.59 1.53,-0.83 1.96,-1.16z"/>
     <path class="fil0" d="M174.89 561.5c-1.68,2.96 -3.52,5.83 -5.39,8.91 -1.76,-2.81 -4,-4.84 -6.46,-6.65 -1.62,-1.19 -2.82,-0.96 -3.85,0.79 -2.3,3.91 -4.42,7.89 -6.35,12 -0.83,1.76 -0.52,2.94 0.96,4.07 1.83,1.41 3.61,2.89 5.35,4.41 1.81,1.59 3.28,1.2 4.7,-0.54 1.6,-1.94 3,-4.05 3.91,-6.35 0.99,-2.48 1.96,-2 3.36,-0.47 1.12,1.23 2.3,2.41 3.5,3.57 2.24,2.16 3.15,2.11 5.21,-0.28 1.51,-1.76 2.81,-3.67 3.83,-5.76 2.98,-6.1 1.44,-11.15 -4.42,-14.61 -1.82,-1.07 -3.18,-1.13 -4.35,0.93z"/>
     <path class="fil0" d="M633.82 670.61c8.2,-7.41 16.19,-15 21.26,-25.05 0.09,-0.18 0.19,-0.35 0.29,-0.53 0.69,-1.22 1.53,-2.44 1.14,-4 0.01,-0 0.01,-0.01 0.02,-0.02 0.03,-0.03 0.06,-0.05 0.08,-0.08 0.09,-0.02 0.17,-0.04 0.26,-0.06 -0.02,-0.01 -0.05,-0.02 -0.08,-0.03 -0.02,-0.02 -0.05,-0.02 -0.06,-0.02 -0.04,0.03 -0.08,0.07 -0.11,0.11 -0.04,0.01 -0.08,0.02 -0.12,0.03l0 -0c0.01,0.02 0.01,0.05 0.02,0.07 -0.54,0.48 -1.11,0.94 -1.62,1.45 -14.05,13.87 -28.33,27.48 -44.01,39.53 -6.54,5.02 -13.04,10.11 -18.9,15.94 -3.17,3.16 -5.44,7.46 -5.57,10.46 0.62,-0.42 1.17,-0.75 1.67,-1.14 15.33,-12.11 31.22,-23.54 45.74,-36.65z"/>
     <path class="fil0" d="M764.37 644.18c3.7,-3.63 6.13,-8.07 8.54,-12.56 0.26,-0.49 0.82,-1.1 0.07,-1.72 -0.87,-0.04 -1.28,0.68 -1.79,1.16 -20.23,19.07 -41.43,37.02 -62.92,54.64 -3.42,2.8 -5.16,6.61 -6.33,10.96 0.54,-0.33 1.11,-0.63 1.62,-1.01 21.26,-15.98 41.78,-32.84 60.81,-51.47z"/>
     <path class="fil0" d="M625.18 779.82c4.97,-7.25 7.85,-15.24 8.2,-24.07 0.09,-2.28 -0.46,-4.41 -1.98,-6.2 -2.56,-3.02 -5.76,-3 -8.09,0.19 -2.52,3.45 -4.13,7.38 -5.77,11.32 -1.86,4.5 2.89,7.46 6.28,6.78 0.85,-0.17 1.64,-0.94 2.76,-0.24 -1.24,3.8 -3.47,6.88 -6.72,9.19 -3.47,2.46 -7.02,4.82 -10.5,7.26 -1.09,0.77 -2.3,1.48 -3.24,3.64 6.22,-1.83 11.76,-3.19 16.87,-5.81 0.86,-0.44 1.63,-1.25 2.19,-2.07z"/>
     <path class="fil0" d="M481.3 746.92c-1.37,-0.9 -2.25,-0.84 -2.98,0.84 -1.4,3.22 -2.94,6.37 -4.49,9.52 -0.9,1.81 -0.45,3.15 1.08,4.34 2.05,1.59 3.95,3.35 5.51,5.45 2.33,3.14 2.3,4.41 -0.32,7.27 -3.32,3.63 -6.91,6.95 -10.93,9.8 -1.09,0.77 -2.34,1.44 -2.99,3.05 1.35,0.33 2.32,0.14 3.33,-0.13 11.85,-3.16 19.45,-12.61 20.11,-24.9 0.37,-6.83 -2.8,-11.65 -8.31,-15.24z"/>
     <path class="fil0" d="M528.85 743.33c-1.84,4.33 -5.48,6.56 -9.53,8.41 -3.58,1.63 -6.26,4.25 -7.93,7.85 -1.02,2.18 -2.25,4.28 -3.03,6.54 -1.72,5 -5.11,8.46 -9.45,11.24 -3.66,2.35 -7.21,4.87 -10.78,7.36 -0.58,0.4 -1.43,0.86 -1.15,1.72 0.31,0.95 1.3,0.91 2.13,0.87 2.88,-0.15 5.67,-0.84 8.48,-1.4 4.87,-0.98 8.07,-3.9 9.96,-8.39 1,-2.39 2.1,-4.75 2.94,-7.19 1.61,-4.63 4.43,-8.01 9.09,-9.83 8.22,-3.22 9,-10.91 11.17,-18.16 -1.43,-0.04 -1.71,0.54 -1.9,0.99z"/>
     <path class="fil0" d="M978.07 689.52c-1.15,-0.23 -1.73,0.36 -2.27,1.17 -1.43,2.15 -2.86,4.3 -4.46,6.7 -1.5,-1.76 -2.96,-3.17 -4.58,-4.42 -1.79,-1.38 -3.18,-1.56 -4.39,0.76 -1.27,2.46 -2.67,4.87 -4.19,7.19 -1.39,2.13 -0.97,3.46 1.05,5.01 5.87,4.52 6.6,4.55 10.22,-1.94 1.24,-2.24 2.02,-2.15 3.72,-0.53 4.75,4.53 5.65,4.34 9.19,-1.35 0.44,-0.7 0.85,-1.44 1.18,-2.2 1.78,-4.11 -1.09,-9.49 -5.47,-10.39z"/>
     <path class="fil0" d="M111.81 756.81c-1.08,-0.47 -2.45,-1.34 -3.37,-0.36 -1.44,1.53 -2.99,3.69 -2.54,5.58 0.42,1.75 -0.23,2.3 -1.12,3.14 -2.47,2.3 -4.57,4.88 -5.63,8.13 -1.09,3.33 -0.59,4.74 2.52,6.28 1.92,0.96 2.04,2.04 1.1,3.74 -2.24,4.06 -5.8,5.83 -10.24,6.13 -4.51,0.3 -7.37,-2.39 -7.54,-6.94 -0.11,-2.97 1.03,-5.6 2.06,-8.28 0.9,-2.34 2.31,-4.55 2.21,-7.22 -2.86,5.56 -5.81,11.09 -6.54,17.45 -0.6,5.24 1.24,9.85 4.5,11.44 3.45,1.67 8.76,0.25 12.35,-3.46 3.54,-3.64 5.3,-8.18 6.33,-13.06 0.62,-2.93 0.63,-5.55 -2.8,-6.87 -1.5,-0.58 -1.56,-1.54 -0.54,-2.8 1.79,-2.23 4.15,-3.67 6.59,-5 1.66,-0.91 3.16,-1.93 4.08,-3.64 1.05,-1.94 0.58,-3.4 -1.44,-4.27z"/>
     <path class="fil0" d="M822.66 720.22c1.55,-2.74 1.55,-2.74 3.88,-0.47 4.06,3.96 4.55,3.91 7.72,-0.91 0.35,-0.54 0.68,-1.11 0.98,-1.68 2.37,-4.56 1.1,-8.48 -3.43,-10.97 -1.41,-0.77 -2.39,-0.66 -3.23,0.76 -1.27,2.13 -2.61,4.23 -4.08,6.59 -1.35,-1.98 -2.77,-3.28 -4.31,-4.5 -1.64,-1.29 -2.87,-1.37 -3.92,0.7 -1.21,2.39 -2.48,4.77 -3.91,7.03 -1.32,2.11 -1.04,3.5 0.96,5.1 5.41,4.35 5.95,4.33 9.35,-1.66z"/>
     <path class="fil0" d="M594.69 790.81c-1.45,-0.9 -2.54,-0.86 -3.47,0.7 -1.23,2.05 -2.53,4.05 -4.04,6.44 -1.56,-1.69 -2.87,-3.24 -4.33,-4.65 -1.35,-1.3 -2.6,-1.15 -3.55,0.6 -1.28,2.36 -2.52,4.74 -3.94,7.03 -1.42,2.3 -1.05,3.8 1.17,5.5 5.05,3.85 5.68,3.93 8.69,-1.72 1.29,-2.41 2.12,-2.48 4,-0.65 4.06,3.96 4.39,3.85 7.61,-0.77 0.21,-0.31 0.42,-0.61 0.61,-0.93 2.89,-4.63 1.89,-8.67 -2.77,-11.56z"/>
     <path class="fil0" d="M348.89 746.38c4.99,3.84 5.71,3.88 8.68,-1.76 1.26,-2.4 2.05,-2.59 3.96,-0.67 4.05,4.05 4.5,3.92 7.76,-0.87 0.15,-0.23 0.31,-0.46 0.45,-0.7 2.93,-4.65 2.02,-8.55 -2.61,-11.57 -1.54,-1.01 -2.69,-0.95 -3.67,0.71 -1.17,1.99 -2.41,3.94 -3.71,6.07 -1.54,-1.51 -2.83,-2.81 -4.17,-4.08 -1.61,-1.52 -3,-1.6 -4.13,0.61 -1.19,2.3 -2.37,4.61 -3.77,6.78 -1.54,2.37 -0.93,3.86 1.21,5.5z"/>
     <path class="fil0" d="M847.44 750.76c3.06,2.64 3.81,2.5 6.07,-0.73 0.99,-1.42 1.74,-3.88 2.91,-4.09 1.64,-0.29 2.8,2.04 4.2,3.2 0.87,0.72 1.83,1.68 2.9,0.68 2.52,-2.36 4.57,-5.08 5.13,-8.06 0.13,-2.19 -0.26,-3.28 -1.5,-4.9 -3.42,-4.49 -5.04,-4.43 -7.92,0.32 -2.27,3.75 -2.27,3.75 -5.26,0.81 -0.46,-0.46 -0.94,-0.9 -1.43,-1.32 -1.47,-1.28 -2.74,-1.37 -3.77,0.56 -0.95,1.8 -2.05,3.52 -2.98,5.32 -3.09,6.01 -2.61,4.53 1.65,8.2z"/>
     <path class="fil0" d="M659.44 703.77c5.04,3.93 5.55,3.95 8.78,-1.62 1.67,-2.86 1.67,-2.86 4.09,-0.56 3.97,3.78 4.22,3.75 7.39,-0.77 0.16,-0.23 0.31,-0.46 0.46,-0.69 3.21,-4.88 2.59,-8.23 -2.09,-11.67 -1.65,-1.22 -2.94,-1.32 -4.07,0.66 -1.14,2 -2.4,3.92 -3.73,6.07 -1.49,-1.53 -2.79,-2.94 -4.18,-4.28 -1.53,-1.48 -2.89,-1.43 -3.98,0.58 -1.24,2.27 -2.44,4.56 -3.8,6.76 -1.37,2.25 -1.1,3.8 1.11,5.52z"/>
     <path class="fil0" d="M200.31 751.83c3.15,2.68 3.82,2.5 6.24,-0.85 1,-1.39 1.3,-3.92 2.91,-4.03 1.54,-0.11 2.63,2.09 3.97,3.22 0.85,0.71 1.83,1.78 2.89,0.81 2.7,-2.46 4.85,-5.33 5.26,-8.62 -0.03,-2.95 -3.14,-6.99 -5.45,-7.72 -1.14,-0.36 -1.77,0.2 -2.3,1.02 -1.09,1.72 -2.19,3.43 -3.2,5.2 -0.65,1.14 -1.16,1.13 -2,0.15 -1.02,-1.19 -2.16,-2.29 -3.33,-3.33 -1.37,-1.22 -2.61,-1.19 -3.57,0.59 -0.96,1.78 -2.07,3.5 -3,5.31 -3.01,5.83 -2.69,4.63 1.58,8.26z"/>
     <path class="fil0" d="M516.84 792.86c-1.26,-0.56 -1.91,-0.09 -2.5,0.87 -1.28,2.11 -2.55,4.24 -3.99,6.63 -1.21,-1.63 -2.46,-2.97 -3.83,-4.18 -1.74,-1.53 -3.13,-1.81 -4.23,0.69 -0.63,1.43 -1.51,2.75 -2.18,4.17 -3,6.43 -3.81,4.9 2.47,10.2 1.49,1.26 2.67,1.1 3.68,-0.41 1.31,-1.96 2.49,-4 4.13,-6.66 1.42,1.67 2.64,3.17 3.94,4.6 1.11,1.23 2.22,1.11 3.25,-0.17 1.4,-1.74 2.64,-3.57 3.5,-5.63 1.62,-3.88 -0.35,-8.41 -4.24,-10.12z"/>
     <path class="fil0" d="M460.82 725.02c-3.93,7.52 -5.93,15.46 -5.62,24.01 0.28,7.76 0.37,15.54 -1.59,23.17 -0.16,0.62 -0.65,1.59 0.3,1.92 0.84,0.3 1.25,-0.61 1.67,-1.19 2.24,-3.13 3.47,-6.72 4.53,-10.36 1.97,-6.76 1.57,-13.74 1.92,-20.65 0.32,-6.26 0.18,-12.54 1.1,-19.01 -1.77,0.3 -1.91,1.35 -2.31,2.11z"/>
     <path class="fil0" d="M724.2 732.28c-0.65,-0.13 -0.96,0.46 -1.19,0.95 -2.85,5.83 -5.54,11.71 -5.84,18.35 -0.45,10.13 0.82,20.39 -1.95,29.98 -0.06,0.91 -0.41,1.59 0.35,1.8 0.77,0.21 1.15,-0.5 1.51,-1 3.17,-4.47 4.89,-9.54 5.65,-14.89 1.61,-11.29 0.61,-22.74 1.94,-34.06 0.06,-0.49 0.06,-1.02 -0.48,-1.13z"/>
     <path class="fil0" d="M171.07 563c2.88,-3.91 5.15,-8.11 5.8,-12.33 -0.03,-4.33 -3.49,-9.07 -6.95,-10.38 -1.52,-0.58 -2.44,-0.13 -3.19,1.2 -2.33,4.12 -4.25,8.43 -6,12.81 -0.43,1.06 -0.42,2 0.48,2.77 2.39,2.06 4.8,4.09 7.22,6.11 0.91,0.76 1.89,0.87 2.66,-0.17z"/>
     <path class="fil0" d="M276.65 750.28c-0.75,-0.17 -1.15,0.5 -1.42,1.1 -1.24,2.78 -2.6,5.52 -3.63,8.38 -3.44,9.52 -9.32,16.89 -18.35,21.68 -1.7,0.9 -3.21,2.17 -4.73,3.37 -0.54,0.43 -1.2,1.07 -0.82,1.89 0.41,0.87 1.26,0.57 1.97,0.47 3.39,-0.48 6.67,-1.46 9.97,-2.34 4.64,-1.23 7.73,-4.07 9.74,-8.34 2.33,-4.94 4.23,-10.04 5.83,-15.25 0.92,-3 1.61,-6.07 2.24,-8.54 0.06,-1.35 0.11,-2.2 -0.8,-2.41z"/>
     <path class="fil0" d="M109 701.52c-1.2,-0.53 -1.94,-0.19 -2.6,0.75 -2.61,3.72 -4.75,7.71 -6.74,11.79 -0.6,1.24 -0.31,2.29 0.69,3.24 2,1.92 3.98,3.88 5.93,5.85 0.93,0.94 1.88,1.25 2.85,0.16 3.17,-3.59 5.63,-7.56 6.05,-11.66 -0,-4.07 -3.25,-8.83 -6.18,-10.13z"/>
     <path class="fil0" d="M139.53 767.31c-3.63,0.25 -4.98,2.8 -6.83,5 -3.28,-2.81 -3.92,-2.8 -6.91,0.09 -0.2,0.19 -0.4,0.39 -0.59,0.59 -1.39,1.48 -3.15,1.51 -4.9,1 -1.77,-0.51 -2.3,-2.14 -2.35,-3.74 -0.08,-2.12 0.11,-4.25 0.22,-6.37 0.06,-1.02 0.18,-2.02 0.32,-3.04 0.44,-3 1.12,-5.98 1.05,-9.04 0.01,-0.01 0.02,-0.01 0.03,-0.02l-0.03 -0.02 0 0.05c-0.7,0.39 -0.78,1.17 -1.09,1.81 -2.69,5.58 -2.37,11.73 -3.24,17.65 -0.26,1.8 -0.21,3.72 0.06,5.53 0.26,1.75 1.01,3.45 3,3.97 2.11,0.56 3.82,-0.2 5.15,-1.88 0.69,-0.87 1.31,-1.8 2.01,-2.66 0.83,-1.01 1.72,-2.1 3.25,-1.37 1.42,0.67 1.52,1.98 1.36,3.34 -0.14,1.25 -0.64,2.51 -0.11,4.5 1.13,-2.79 1.91,-4.96 2.87,-7.04 0.82,-1.75 1.76,-4.06 3.69,-4.21 2.36,-0.18 3.63,-1.73 5.25,-2.79 1.66,-1.09 2.69,-2.86 2.22,-5.91 -0.98,2.76 -3.06,4.46 -4.43,4.56z"/>
     <path class="fil0" d="M964.76 687.67c1.76,1.35 3.49,2.72 5.24,4.08 0.88,0.67 1.82,1.09 2.68,0.04 2.32,-2.81 4.08,-5.9 4.64,-9.2 0.06,-3.01 -2.41,-6.32 -5.25,-7.64 -1.45,-0.67 -2.49,-0.44 -3.21,0.97 -1.56,3.03 -3.08,6.08 -4.65,9.1 -0.56,1.08 -0.41,1.91 0.55,2.65z"/>
     <path class="fil0" d="M822.1 692.53c-1.58,2.93 -3.02,5.92 -4.3,9 -0.43,1.05 -0.19,1.78 0.61,2.43 1.64,1.35 3.28,2.7 4.93,4.04 0.8,0.65 1.66,0.95 2.41,-0.03 2.16,-2.82 3.8,-5.89 4.41,-9.43 -0.39,-3.12 -2.06,-5.31 -4.65,-6.89 -1.45,-0.89 -2.57,-0.7 -3.42,0.88z"/>
     <path class="fil0" d="M611.91 698.49c-1.4,2.5 -2.77,5 -3.78,7.67 -0.46,1.19 -1.19,2.53 -0.01,3.61 1.95,1.79 3.98,3.56 6.6,4.34 0.24,0.07 0.7,-0.26 0.91,-0.53 2.22,-2.77 3.87,-5.82 4.63,-9.42 -0.56,-2.74 -2.55,-4.56 -4.56,-6.32 -1.46,-1.28 -2.75,-1.23 -3.8,0.65z"/>
     <path class="fil0" d="M775.46 807.44c-1.12,-0.28 -1.74,0.28 -2.24,1.14 -1.7,2.86 -3.26,5.79 -4.35,8.94 -0.36,1.06 -0.49,2.06 0.45,2.78 1.83,1.4 3.74,2.69 5.62,4.02 0.66,0.46 1.25,0.27 1.71,-0.29 2.24,-2.75 3.89,-5.8 4.62,-8.85 0.03,-2.47 -3.8,-7.24 -5.8,-7.75z"/>
     <path class="fil0" d="M428.57 710.11c2.07,1.46 3.78,3.52 6.47,3.96 0.2,0.04 0.52,-0.22 0.68,-0.41 2.24,-2.75 3.88,-5.8 4.61,-8.99 0.08,-2.43 -4.01,-7.36 -6.04,-7.67 -1.03,-0.15 -1.53,0.45 -1.97,1.18 -1.68,2.76 -3.15,5.63 -4.28,8.65 -0.43,1.14 -0.67,2.44 0.54,3.28z"/>
     <path class="fil0" d="M17.98 788.83c-7.37,-8.89 -7.37,-23.98 -0,-33.01 0.43,-0.52 1.5,-1.03 0.83,-1.78 -0.8,-0.9 -1.47,0.2 -2.02,0.65 -5.56,4.59 -7.62,10.72 -7.66,18.04 0.11,6.54 2.09,12.61 7.58,17.14 0.57,0.47 1.3,1.52 2.09,0.7 0.73,-0.76 -0.41,-1.24 -0.82,-1.74z"/>
     <path class="fil0" d="M149.04 754.64c-0.51,-0.41 -1.08,-1.41 -1.83,-0.72 -1,0.92 0.28,1.41 0.72,1.94 7.41,8.96 7.39,23.92 -0.04,33 -0.41,0.5 -1.52,0.94 -0.75,1.74 0.71,0.74 1.33,-0.2 1.86,-0.62 5.68,-4.52 7.62,-10.69 7.81,-17.54 -0.19,-7.07 -2.11,-13.26 -7.77,-17.8z"/>
     <path class="fil0" d="M37.02 632.66c0.89,0.61 1.91,0.67 2.94,0.62 2.65,-0.03 4.91,-1.08 6.17,-2.66 0.05,-0.06 0.09,-0.12 0.13,-0.18 0.2,-0.28 0.38,-0.57 0.52,-0.87 0.33,-0.72 0.47,-1.5 0.39,-2.32 -0.17,-1.7 -1.9,-3.22 -0.81,-5.01 1.07,-1.76 3.18,-1.18 4.8,-1.72 1.11,-0.37 1.69,-1.13 1.61,-2.3 -0.09,-1.31 -1.02,-1.6 -2.13,-1.68 -4.2,-0.28 -7.45,3.44 -6.56,7.53 0.77,3.56 0.13,4.51 -3.44,5 -0.91,0.13 -1.85,0.09 -2.77,0.15 -0.81,0.05 -1.86,-0.18 -2.12,0.87 -0.27,1.09 0.37,1.94 1.27,2.56z"/>
     <path class="fil0" d="M78.28 748.63c-0.85,1.63 -1.79,3.21 -2.48,4.9 -0.39,0.96 2.7,3.8 3.63,3.31 1.86,-0.97 2.69,-2.83 2.77,-4.78 0.08,-1.97 -1.64,-2.92 -2.94,-3.84 -0.59,-0.21 -0.81,0.08 -0.98,0.41z"/>
     <g>
      <path class="fil0" d="M61.38 757.07c-1.44,-0.87 -2.76,-0.19 -3.73,0.88 -1.61,1.78 -3.06,3.71 -4.59,5.57 -0.57,0.68 -0.93,1.74 -2.09,1.54 -3.39,-0.57 -3.65,1.72 -3.67,4.07 -0.03,3.17 -0.23,6.29 -1.11,9.34 -2.03,7 -9.14,11.6 -16.27,10.48 -3.99,-0.63 -5.93,-3.11 -5.56,-7.2 0.23,-2.52 1.14,-4.84 2.16,-7.13 0.66,-1.48 1.72,-2.86 1.54,-5.45 -2.96,4.9 -5.16,9.2 -5.99,14.12 -0.39,2.32 -0.53,4.58 0.03,6.89 1.13,4.62 4.82,7.08 9.56,6.34 5.58,-0.86 9.22,-4.41 12.25,-8.8 3.17,-4.61 4.53,-9.88 5.67,-15.24 0.21,-1 0.4,-1.74 1.84,-1.88 5.56,-0.58 9.72,-4.54 10.77,-10 0.24,-1.25 0.56,-2.7 -0.82,-3.53l0 0zm-2.48 5.75c-1.4,1 -2.81,2.1 -5,1.82 0.97,-1.64 1.89,-3.07 3.36,-4.08 1,-0.7 2.2,-0.44 2.79,0.28 0.88,1.09 -0.52,1.53 -1.15,1.98z"/>
     </g>
     <g>
      <path class="fil0" d="M81.93 766.08c-5.11,-0.98 -5.65,-0.76 -8.43,3.72 -0.54,0.87 -1.14,1.7 -1.57,2.61 -1.1,2.35 -2.48,1.68 -3.89,0.4 -1.01,-0.92 -1.45,-2.14 -1.4,-3.5 0.08,-1.93 0.14,-3.88 0.35,-5.8 0.43,-3.77 0.97,-7.53 1.46,-11.29 -0.74,0.35 -0.97,0.82 -1.19,1.3 -2.87,6.3 -2.67,13.14 -3.42,19.82 -0.31,2.8 0.24,5.49 3.05,6.87 2.91,1.43 5.84,0.98 8.33,-1.01 4.21,-3.35 6.13,-8.39 9.72,-12.87 -1.59,-0.13 -2.33,-0.12 -3.04,-0.26l0 0zm-2.43 4.44c-1.79,1.91 -3.72,3.54 -6.79,3.51 0.72,-1.98 1.78,-3.46 2.95,-4.85 0.77,-0.91 1.81,-1.16 3.02,-0.86 1.43,0.35 2.02,0.91 0.82,2.2z"/>
     </g>
     <g>
      <path class="fil0" d="M301.43 749.15c-0.67,-0.06 -1.43,0.23 -2.23,-0.5 2.06,-1.91 4.01,-3.72 5.95,-5.56 12.14,-11.45 24.51,-22.67 35.91,-34.89 3.02,-3.23 4.44,-7.21 5.83,-11.24 0.21,-0.61 0.54,-1.4 -0.07,-1.8 -0.72,-0.47 -1.09,0.34 -1.52,0.81 -16.41,18.08 -34.39,34.57 -51.84,51.61 -0.73,0.71 -1.35,1.71 -2.7,1.85 0.52,-8.68 2.45,-17.09 2.58,-25.65 -0.22,-0.04 -0.45,-0.06 -0.67,-0.1 -0.19,0.31 -0.41,0.61 -0.56,0.94 -6.65,15.26 -7.68,31.54 -8.5,47.83 -0.19,3.61 0.24,7.23 2.06,10.52 1.99,3.57 5.45,5.04 9.42,4.06 3.56,-0.89 6.08,-3.26 7.95,-6.17 4.34,-6.73 6.91,-14.13 7.18,-22.19 0.2,-5.99 -2.75,-9.05 -8.79,-9.54l0 0zm0.24 22.96c-1.44,0.7 -2.98,0.97 -4.27,0.91 -3.17,0.17 -5.72,-0.5 -7.19,-3.18 -1.16,-2.1 -0.87,-4.09 1.06,-5.72 2.96,-2.5 7.21,-2.96 10.66,-1.13 1.93,1.02 3.21,2.44 3.12,4.8 -0.09,2.28 -1.55,3.44 -3.38,4.33z"/>
     </g>
    </g>
   </g>
  </g>
 </g>
</svg>
