<?xml version="1.0" encoding="UTF-8"?>
<!DOCTYPE svg PUBLIC "-//W3C//DTD SVG 1.1//EN" "http://www.w3.org/Graphics/SVG/1.1/DTD/svg11.dtd">
<!-- Creator: CorelDRAW 2020 (64-Bit) -->
<svg xmlns="http://www.w3.org/2000/svg" xml:space="preserve" width="1in" height="1in" version="1.1" style="shape-rendering:geometricPrecision; text-rendering:geometricPrecision; image-rendering:optimizeQuality; fill-rule:evenodd; clip-rule:evenodd"
viewBox="0 0 1000 1000"
 xmlns:xlink="http://www.w3.org/1999/xlink"
 xmlns:xodm="http://www.corel.com/coreldraw/odm/2003">
 <defs>
  <style type="text/css">
   <![CDATA[
    .fil0 {fill:#4D4D4D}
   ]]>
  </style>
 </defs>
 <g id="Layer_x0020_1">
  <metadata id="CorelCorpID_0Corel-Layer"/>
  <g id="_1856113725632">
   <path class="fil0" d="M281.35 169.57c13.53,-9.06 28.42,-17.75 42.78,-25.35 6.8,10.15 23.63,39.88 28.52,49.12 4.13,-0.35 22.17,-8.1 28.02,-10.01 19.63,-6.41 39.32,-11.74 59.6,-16.45 10.82,-2.51 23.1,-2.78 33.59,-5.23l0 -56.25c6.77,0 12.09,-1.58 19.8,-1.58l13.47 0c7.53,0 12,1.58 19.01,1.58l0 56.25c28.48,2.37 65.35,12.74 92.39,21.69 10.02,3.31 17.56,7.56 28.03,10 2.22,-4.2 4.93,-7.78 7.13,-11.88l17.87 -30.45c1.5,-2.46 2.89,-4.09 3.52,-6.78 5.48,1.28 30.98,17.74 38.29,21.92 7.84,4.48 4.5,8.19 -1.02,17.73 -2.36,4.08 -4.19,8.07 -6.71,12.31 -3.04,5.11 -11.82,18.46 -13.13,24.1l17.77 13.92c12.1,9.51 22.89,20.13 33.93,31.04 8.61,8.51 17.26,19.44 24.97,28.9 2.68,3.29 8.66,8.65 9.69,12.49 11.83,-2.76 27.06,-13.32 38.04,-19 3.89,-2.02 8.04,-5.27 12.67,-6.35 2.25,1.51 25.57,37.53 26.14,44.37 -2.33,0.62 -9.66,5.09 -12.34,6.67 -4.26,2.52 -7.92,4.45 -12.07,6.94 -5.35,3.21 -20.62,13.02 -24.71,14.11 0.52,6.28 4.66,13.46 7.12,19.03 7.36,16.67 16.47,52.34 20.15,70.95 0.76,3.81 1.88,7.71 2.06,11.41 0.93,19.56 0.65,18.83 19,19.82 13.09,0.7 26.5,-0 39.61,-0 1.76,21.17 2.51,16.79 1.58,38.81 -0.19,4.41 -1.25,8.69 -1.58,12.68 -71.07,0 -53.52,-4.88 -60.54,30.57 -3.48,17.59 -8.67,35.19 -13.65,52.11l-10.36 28.46c-1.34,3.09 -3.08,6.31 -3.39,10.07 2.83,0.66 3.96,1.9 6.19,3.32 2.01,1.28 3.8,2.35 5.97,3.54 7.2,3.93 31.44,19.4 36.96,20.87 -0.57,6.87 -23.92,42.87 -26.14,44.36 -4.54,-1.06 -8.84,-4.36 -12.67,-6.34 -7.45,-3.85 -31.64,-19.29 -37.24,-20.59 -1.91,7.15 -37.78,44.51 -40.6,47.33l-40.77 36.07c-2.5,1.89 -3.86,3.1 -6.56,4.53l20.35 35.9c10.46,18.83 6.8,14.63 -14.65,27.62 -5.08,3.07 -17.17,11.33 -22.33,12.53 -0.66,-2.81 -4.95,-9.45 -6.68,-12.33l-17.62 -29.91c-1.38,-2.3 -2.74,-3.54 -3.43,-6.08 -8.97,0 -20.01,6.3 -28.82,9.21 -27.3,9.02 -63.12,19.25 -92.39,21.69l0 56.25c-8.52,0 -16.58,2.38 -25.35,2.38 -5.32,0 -8.25,-0.56 -13.45,-0.81 -4.08,-0.2 -9.52,-1.48 -13.48,-1.57l0 -56.25c-21.9,-1.82 -42.87,-7.24 -63.38,-12.67 -10.01,-2.65 -19.63,-5.63 -29.2,-8.82 -4.76,-1.58 -9.14,-3.03 -14.02,-4.99 -3.74,-1.5 -10.85,-4.89 -14.6,-5.2 -4.87,9.21 -21.71,38.94 -28.52,49.11 -7.35,-3.89 -14.35,-8.07 -21.64,-12.43l-21.14 -12.93c1.87,-3.91 2.65,-7.93 5.54,-13.48 6.34,-12.17 14.24,-24.39 20.61,-36.43 -3.5,-5.23 -18.8,-15.13 -23.94,-19.63 -17.25,-15.08 -34,-31.13 -48.15,-49.29 -1.56,-1.99 -3.16,-4.13 -4.95,-6.14l-10.09 -12.09c-2.21,1.06 -4.37,1.46 -6.87,2.63 -2.39,1.12 -3.93,1.98 -6.33,3.18l-24.57 13.46c-4.05,2 -8.76,5.97 -13.72,6.08 -0.79,-2.96 -4.67,-7.61 -6.3,-10.33l-19.05 -33.24c15.79,-10.57 34.19,-18.78 49.91,-29.31 -1.69,-7.22 -5.64,-13.74 -8.49,-20.82 -11.19,-27.78 -18.59,-63.89 -22.82,-94.43 -0.96,-6.94 -0.99,-5.25 -9.09,-5.17 -14.61,0.14 -29.97,0.74 -44.47,0.11 -5.44,-0.24 -4.04,-3.9 -4.59,-10.47 -1.21,-14.69 -0.24,-22.21 0.64,-36.46 0.23,-3.77 -0.67,-4.33 3.17,-4.75 12.66,-1.35 39.81,1.37 50.86,0.16 3.82,-0.41 2.86,-0.93 3.3,-4.63 3.3,-28.3 12.74,-68.86 23.22,-94.82 1.7,-4.23 7.98,-18.42 8.26,-21.84l-49.91 -28.52c6.09,-9.1 12.79,-22.7 18.76,-32.74 1.82,-3.07 5.81,-7.91 6.59,-10.83 5.05,0.11 9.22,3.82 13.19,5.82l38.3 19.53c1.17,-1.74 3.09,-3.74 4.64,-5.65 1.6,-1.98 3.33,-4.07 5.07,-6.02 1.75,-1.96 3.06,-3.64 4.65,-5.65 1.86,-2.35 3.07,-3.65 4.98,-6.11 17.19,-21.99 38.91,-40.01 60.48,-57.56 2.28,-1.86 4.16,-3.02 5.73,-5.37 -3.1,-13.29 -16.19,-30.2 -22.19,-43.57 -1.05,-2.33 -1.38,-5.06 -2.37,-7.13zm148.94 -103.78l0 57.04c0,3.13 -10.49,4.41 -13.79,5.23 -8.19,2.04 -40.05,11.8 -44.84,12.2 -9.45,-14.12 -16.26,-30.34 -26.47,-44.04 -1.81,-2.43 -2.79,-5.08 -6.01,-5.08 -10.72,0 -70.93,36.89 -89.06,47.99 -6.15,3.76 -23.39,14.55 -26.6,19.35 1.49,5.58 24.06,43.24 28.52,49.91l-43.37 43.77c-6.49,-1.78 -19.25,-10.76 -25.59,-14.41 -5.15,-2.97 -20.52,-13 -26.1,-14.3l-36 55.9c-4.78,7.89 -30.55,54.04 -30.55,61.35 0,3.88 32.33,21.35 36.89,24.11 4.5,2.72 8.94,4.85 13.02,7.58 -5.94,12.39 -8.8,28.83 -12.2,42.46 -1.12,4.48 -3.3,11.23 -3.64,15.37 -15.6,0 -40.45,-0.81 -55.56,-0.1 -3.86,0.18 -3.46,0.25 -4.15,3.77 -3.59,18.37 -2.77,66.83 -2.88,89.02 -0.04,6.56 0.82,9.91 0.8,16.63 -0.05,13.64 0.65,20.1 3.17,30.9l58.63 0c0.54,6.43 13.07,52.07 15.84,57.83 -7.55,5.05 -49.91,26.85 -49.91,31.69 0,7.19 25.81,53.52 30.55,61.34l17.61 28.33c6.24,9.35 12.22,18.36 18.38,27.57 5.57,-1.3 20.25,-11.04 25.59,-14.02 5.5,-3.06 20.24,-13.19 25.9,-14.5l43.77 43.38c-5.3,7.81 -9.74,16.47 -14.61,24.59 -2.56,4.26 -4.77,8.21 -7.22,12.59 -1.72,3.08 -6.23,10.11 -6.89,12.92 4.92,7.34 30.68,21.98 40.36,27.77 4.68,2.8 9.62,5.93 14.34,8.63l44.59 24.34c2.67,1.35 13.75,6.6 16.37,6.6 6.33,0 27.72,-42.01 32.48,-49.12 5.87,0.49 22.91,6.2 29.82,8.2l22.63 5.89c2.9,0.67 6.17,0.48 6.17,3.33l0 57.04c3.81,0 7.56,1.05 11.13,1.54 3.57,0.49 7.91,1.17 11.17,1.51 16.69,1.79 33.43,0.07 49.79,0.11 8.32,0.02 17.98,0.44 26.15,0 6.94,-0.37 30.69,-0.92 35.72,-2.3 4.94,-1.35 4.27,-2.94 5.04,-8.43 1.8,-12.74 0.42,-36.93 0.42,-51.07 14.65,-3.41 29.26,-8.17 43.73,-11.73 4.59,-1.13 10.8,-2.15 14.89,-4.12 7.78,14.7 18.14,33.77 28.46,46.8 1.2,1.52 1.66,2.32 4.02,2.32 11.53,0 90.09,-47.48 112.09,-63.78 5.5,-4.08 2.06,-7.24 -3.1,-15.89l-14.47 -25.14c-2.46,-4.43 -5.09,-8.13 -7.37,-12.43l43.37 -43.77c8.05,2.2 43.41,26.79 51.69,28.72 6.17,-9.2 12.14,-18.21 18.38,-27.57 12.96,-19.43 43.87,-71.25 48.17,-89.68 -8.22,-9.46 -37.16,-24.57 -49.12,-30.9 0.22,-9.71 14.07,-46.84 15.05,-58.62l58.63 0c5.43,-23.33 5.41,-117.01 0,-140.22l-58.63 0c-0.53,-6.34 -10.75,-42.09 -13.37,-50.8 -0.78,-2.58 -1.61,-4.69 -1.68,-7.83 13.7,-7.25 31.1,-16.61 43.59,-26.13 2.2,-1.67 3.34,-3.3 5.53,-4.77 -4.31,-18.52 -35.2,-70.23 -48.17,-89.68 -6.24,-9.36 -12.22,-18.37 -18.38,-27.57 -9.86,2.3 -43.28,26.61 -51.49,28.52l-43.77 -43.37 22.04 -37.76c1.76,-2.96 4.92,-7.44 5.84,-10.72 1.24,-4.43 -8.78,-9.44 -11.96,-11.8 -4.53,-3.35 -8.94,-5.96 -13.81,-9.16 -17.77,-11.65 -78.81,-48 -89.84,-48 -2.51,0 -3.47,2.72 -4.87,4.64 -10.07,13.74 -18.85,29.43 -26.81,44.48 -2.41,-1.15 -11.09,-3.18 -14.26,-3.96 -14.85,-3.64 -29.24,-8.36 -44.37,-11.88l0 -58.63c-3.12,-0.07 -6.44,-1.05 -9.42,-1.67 -3.62,-0.75 -5.8,-0.72 -10.4,-0.69l-109.56 0.53c-3.84,0.65 -6.62,1.76 -10.05,1.83z"/>
   <path class="fil0" d="M45.27 501.51c0,-37.82 3,-72.62 10.77,-103.31l12.5 -43.75c6.82,-20.46 15.2,-40 24.79,-59.19l14.87 -27.12c15.51,-25.79 33.29,-50.95 53.72,-73.04l58.43 -54.07c16.19,-12.38 33.06,-23.73 50.55,-34.21 24.43,-14.65 50.39,-25.71 76.89,-35.61 28.49,-10.65 59.71,-17.16 90.19,-22.31 15.52,-2.63 34.84,-2.87 53.34,-2.9 5.11,-0.01 7.12,-1.17 12.18,-0.37 11.47,1.8 27.59,-0.56 41.33,1.47 17.07,2.53 31.35,3.31 48.81,7.43 15.74,3.71 30.11,7.21 44.31,11.94 40.37,13.45 78.57,31.11 113.98,54.76 15.28,10.2 30.08,20.9 43.76,33.09l11.37 10.03c2.74,2.11 4.83,4.56 7.26,6.99 6.96,6.96 14.48,13.61 20.99,21l6.7 7.56c12.87,15.37 25.19,30.86 36.36,47.61 11.57,17.37 21.59,35.11 30.95,53.82 22.57,45.15 44.63,113.14 44.63,180.36 0,79.49 -1.98,102.14 -26.43,174.79 -8.78,26.07 -21.4,51.06 -35.52,74.6 -0.9,1.5 -1.43,2.67 -2.25,4.09l-19.54 29.57c-8.66,11.49 -17.23,23.56 -26.97,34.04 -1.6,1.72 -1.68,2.26 -3.18,3.95 -8.59,9.76 -18.12,18.84 -27.32,28.13 -6.79,6.85 -14.5,13.02 -21.81,19.39 -14.54,12.68 -31.05,24.52 -47.56,34.84 -40.14,25.1 -89.34,47.91 -135.55,57.75 -45.94,9.78 -71.18,12.6 -118.91,12.6 -50.77,0 -97.55,-10.37 -141.7,-26.24 -6.76,-2.43 -13.37,-4.68 -20.13,-7.6 -13.03,-5.63 -26.04,-10.95 -38.34,-17.9l-17.95 -9.78c-17.6,-9.56 -34.32,-21.56 -50.09,-33.88 -11.54,-9.01 -27.86,-22.76 -37.78,-32.73 -2.57,-2.58 -4.54,-4.57 -7.12,-7.14 -11.65,-11.58 -28.57,-31.71 -38.39,-44.79 -10.16,-13.54 -19.81,-27.45 -28.41,-42.09 -1.97,-3.36 -3.31,-5.8 -5.25,-9.01 -1.81,-3 -2.91,-5.71 -4.74,-8.72 -5.47,-8.98 -9.82,-19.08 -14.12,-28.66 -16.73,-37.25 -33.58,-87.93 -37.15,-131.59 -1.43,-17.43 -2.44,-35.02 -2.44,-53.8zm930.05 -10.59l0 15.56c-0.58,36.04 -5.22,71.83 -13.3,106.1 -3.73,15.83 -8.43,29.74 -13.33,44.5 -9.25,27.79 -19.13,45.67 -31.2,70.2 -8.96,18.21 -27.1,45.93 -39.85,61.55 -4.48,5.49 -8.11,10.41 -12.68,15.85 -17.71,21.04 -30.98,33.22 -49.45,51.16 -10.97,10.65 -27.32,22.65 -40.16,31.94l-13.17 9c-1.61,1.02 -2.62,1.54 -4.4,2.73 -11.82,7.9 -23.68,14.93 -36.5,21.33 -3.54,1.76 -5.56,3.2 -9.23,5.03 -3.61,1.79 -6.06,2.76 -9.78,4.48 -13.28,6.16 -26.6,12.37 -40.76,17.07 -7.47,2.48 -13.9,5.17 -21.92,7.39 -66.06,18.31 -85.51,20.43 -157.02,20.43 -66.5,0 -136.84,-20.93 -195.69,-49.9l-27.72 -15.06c-21.41,-11.58 -40.67,-26.65 -59.75,-41.65l-37.5 -33.8c-2.86,-2.83 -4.2,-5.05 -7.12,-7.93l-17.02 -18.63c-22.54,-25.29 -45.39,-60.43 -60.55,-90.76 -13.34,-26.69 -24.93,-53.66 -33.2,-82.46 -15.34,-53.4 -19.35,-87.76 -19.35,-147.02 0,-17.43 1.73,-37.48 4.4,-54.23 5.1,-32.06 12.19,-63.71 23.21,-93.24 2.79,-7.46 5.22,-14.18 8.04,-21.28l13.48 -30.09c1.46,-3.31 3.23,-5.65 5.02,-9.24 17.96,-36.28 50.56,-81.32 79.13,-110.2l22.23 -21.34c5.59,-4.68 10.15,-8.92 15.8,-13.52 5.65,-4.61 10.5,-8.59 16.34,-12.97 2.86,-2.15 5.3,-3.96 8.15,-6.11 15.9,-12 36.09,-24.99 54.02,-33.92 3.64,-1.81 6.04,-3.35 9.24,-5.02 6.16,-3.21 12.69,-6.18 19.28,-9.24 112.64,-52.24 248.14,-57.41 364.71,-11.91 3.8,1.49 6.6,2.35 10.26,4 28.77,12.9 49.48,22.2 76.96,39.5 29.15,18.34 56.44,39.89 80.76,64.21l14.26 15.06c9.83,9.68 18.31,20.95 26.8,31.82 2.28,2.91 4,5.24 6.04,8.22 2.07,3.04 3.98,5.2 6.03,8.23 15.13,22.3 31.84,49.43 42.37,74.09 19.87,46.55 32.67,83.3 39.84,134.44 2.59,18.45 3.99,37.05 4.3,55.62z"/>
   <path class="fil0" d="M557.04 470.61l0 41.99c0,12.61 0.79,22.35 0.79,34.85 0,41.85 -5.13,50.57 25.35,10.3 4.26,-5.62 4.01,-3.85 3.96,-13.46 -0.03,-5.81 0.02,-11.63 -0.01,-17.44 -0.04,-6.39 0.81,-10.42 0.8,-17.42l1.63 -51.44c1.07,-15.74 11.63,-12.2 13.58,-5.76 2.18,7.2 2.08,27.02 2.18,35.05 0.06,4.57 0.86,5.97 0.84,11.04 -0.02,5.99 -0.58,32.5 5.53,32.5 5.24,0 7.58,-2.22 12.33,-5.1 7.08,-4.29 23.18,-11.57 25.58,-14.03 2.4,-2.45 1.49,-2.46 2.07,-6.64l2 -45.53c-0,-19.46 0.91,-60.61 2.35,-78.46 1.29,-16 10.3,-16.52 8.28,-22.41 -3.34,-9.67 -38.49,-6.93 -48.04,-4.69 -20.28,4.76 -44.54,28.73 -52.1,47.72 -5.51,13.85 -6.1,28.26 -6.3,44.4 -0.06,4.65 -0.87,6.51 -0.83,11.84 0.02,4.23 0.01,8.46 0.01,12.69z"/>
   <path class="fil0" d="M341.56 358.12c0,9.79 7.95,12.37 9.47,31.72 0.97,12.39 -1.39,29.17 0.37,40.82 1.29,8.52 0.46,68.95 0.46,82.72 7.21,3.81 36.98,19.8 41.19,19.8 7.99,0 3.96,-50.05 3.96,-55.45 0.02,-16.85 -1.44,-30.1 11.09,-30.1 7.07,0 5.57,9.3 5.54,15.85 -0.03,7.54 0.8,12.58 0.8,20.59 -0,14.52 0,29.05 0,43.57 -0,13.9 0.64,28.92 7.73,35.84 11.67,11.4 6.31,6.71 14.55,17.93 1.78,2.43 2.58,4.54 6.24,4.85 2.59,-4.88 3.17,-13.94 3.17,-21.39l0 -95.86c0.03,-5.56 -0.77,-7.91 -0.83,-12.64 -0.19,-15.51 -0.95,-34.86 -4.71,-49.16 -0.96,-3.64 -1.94,-6.62 -3.71,-9.76 -17.46,-30.87 -44.25,-48.65 -87.37,-44.08 -4.58,0.49 -7.95,3.26 -7.95,4.73z"/>
   <path class="fil0" d="M229.86 572.8c6.14,4.11 19.09,3.38 28.49,3.99 19.82,1.29 44.24,11.14 59.9,22.49 8.28,6 11.38,9.42 17.88,14.6 4.66,3.71 19.47,21.24 23.02,26.89 2.44,3.88 3.71,6.4 6.51,10.13 2.76,3.67 3.89,6.25 9.46,7.18 5.67,0.94 17.56,1.04 21.75,-0.64 11.11,-4.46 -4.28,-26.61 -7.31,-31.23l-20.07 -27.46c-1.8,-1.98 -3.08,-2.37 -5.16,-4.35 -10.63,-10.13 -30.7,-17.88 -30.7,-27.13 0,-6.32 4.95,-5.55 9.5,-5.55 6.63,0 18.27,8.21 23.15,12.5 6.33,5.56 12.54,10.95 18.24,17.41 11.37,12.9 21.12,26.96 28.86,42.43 6.14,12.27 6.53,25.09 24.02,25.09 21.39,0 12.77,-16.37 5.77,-32.71 -7.28,-17.01 -18.61,-34.46 -30.56,-48.65l-7.48 -8.37c-1.44,-1.49 -2.47,-2.52 -3.96,-3.96 -19.09,-18.37 -53.93,-40.19 -81.02,-40.19 -20.89,0 -47.19,10.04 -64.17,21.39 -10.92,7.3 -19.9,14.35 -26.14,26.14z"/>
   <path class="fil0" d="M554.66 645.69c0,6.81 -1.72,11.88 14.26,11.88 14.18,0 17.45,-13.01 22.7,-24.83 7.71,-17.35 24.34,-42.46 40,-55.07 2.43,-1.96 3.65,-3.35 6.44,-5.44 8.17,-6.08 17.5,-12.9 27.5,-12.9 1.85,0 3.96,2.11 3.96,3.96 0,4.32 -7.78,11.21 -12.11,16.4 -1.49,1.78 -3.05,3.12 -4.72,4.79 -5.66,5.66 -14.26,13.24 -18.93,19.09 -2.87,3.61 -5.69,6.72 -8.77,10.24 -8.43,9.64 -21.21,25.49 -21.21,39 0,4.57 10.67,5.54 15.84,5.54 23.42,0 21.67,-28.6 60.65,-58.18 17.78,-13.5 39.09,-23.42 61.89,-26.84 7.89,-1.18 20.87,0.51 28.77,-1.33 3.96,-8.26 -3.82,-12.99 -10.52,-18 -17.34,-12.95 -43.97,-29.54 -67.91,-29.54 -31.41,0 -44.06,5.73 -67.39,19.76 -12.02,7.22 -24.1,18.69 -32.78,29.8l-16.14 22.68c-6.76,10.75 -21.54,35.08 -21.54,48.96z"/>
   <path class="fil0" d="M534.06 690.84c0,14.33 4.55,13.75 19.85,15.01 15.62,1.29 45,-2.02 58.1,2.11 6.67,2.1 14.76,7.02 17.91,12.99 -9.27,4.44 -72.35,-0.85 -86.47,2.26 -9.6,2.12 -10.97,7.89 -10.97,19.13l0.98 25.95c0.64,5.32 0.25,6.79 5.5,7.96 7.84,1.76 18.09,1.76 26,1.73 5.49,-0.02 8.22,0.69 12.65,0.82l41.11 0.09c4.57,0.52 6.71,1.07 12.33,0.22 9.87,-1.5 42.53,2.57 48.13,-6.53 2.51,-4.08 2.03,-18.75 1.14,-24.4 -3.24,-20.56 -17.37,-43.44 -32.63,-55.3 -1.77,-1.37 -2.15,-2.03 -3.74,-3.39 -11.02,-9.44 -25.9,-13.63 -40.94,-13.72 -5.74,-0.04 -8.03,-0.81 -13.47,-0.79 -18.72,0.08 -34.96,-0.77 -53.89,-0.77 -0.12,5.49 -1.59,9.91 -1.59,16.63z"/>
   <path class="fil0" d="M321.75 766.89c0,8.35 5.76,10.67 15.04,11.1 19.15,0.89 107.94,1.98 125,-0.19 8.44,-1.08 9.69,-3.45 9.69,-17.24 0,-9.15 0.45,-20.21 -1.21,-28.89 -1.07,-5.59 -3.19,-5.77 -9.09,-5.96l-29.31 -0.79c-8.28,0 -22.32,0.82 -29.89,-0.22 -5.34,-0.73 -25.41,1.31 -26.06,-3.74 -0.72,-5.52 12.05,-10.94 17.59,-12.22 7.41,-1.7 19.27,-2.05 28.06,-2.05 10.04,0 20.08,-0.02 30.12,0.02 21.81,0.09 19.79,-6.89 19.79,-20.61 0,-12.33 -15.56,-11.88 -29.31,-11.88 -29.78,0 -63.61,2.2 -85.74,20.41 -10.83,8.91 -17.15,16.4 -23.59,29.48 -4.16,8.45 -11.08,30.44 -11.08,42.79z"/>
   <path class="fil0" d="M584.77 292.36c0,-8.9 -23.93,7.95 -28.33,12.07 -9.51,8.91 -19.32,17.99 -26.08,29.37 -6.95,11.69 -16.2,37.27 -16.88,52.04 -2.34,51.09 -2.38,111.36 -2.38,163.2 0,15.17 -1.85,69.92 -0.22,81.81 1.04,7.61 -1.35,20.82 2.78,24.96 3.76,3.78 16.57,3.74 21.24,1.01 2.82,-1.65 3.44,-5.87 3.83,-9.64 0.24,-2.34 -0.02,-4.71 0.09,-7.04 0.17,-3.43 0.61,-2.89 0.8,-6.33 0.48,-8.95 -0.3,-18.7 -0.03,-27.76l0.82 -26.91c0,-18.22 0,-36.44 0,-54.66 0,-19.18 0.79,-35.98 0.79,-54.66 0,-17.63 -0.83,-37.3 -0.01,-54.68 0.37,-7.92 14.11,-55.16 18,-65.19 5.26,-13.54 25.59,-51.68 25.59,-57.59z"/>
   <path class="fil0" d="M416.82 291.57c0,5.18 19.67,38.28 25.12,50.93 8.43,19.57 13.3,39.3 16.87,60.77 1.24,7.46 3.93,26.49 3.99,34.04 0.05,5.44 0.66,8.3 0.79,12.68 1,33.22 0.58,67.23 0.78,101.44 0.03,5.33 -0.78,7.19 -0.83,11.84l0.03 90.34c5.91,1.38 11.27,7.79 22.13,3.91 7.67,-2.74 4.42,-12.91 5.71,-24.39 0.67,-5.91 0.68,-12.09 0.68,-19.13l0.01 -198.06 -2.57 -37.83c-3.03,-12.54 -10.1,-28.37 -15.65,-39.02 -10.34,-19.87 -21.58,-30.93 -38.98,-42.61 -1.44,-0.97 -18.06,-11.89 -18.06,-4.91z"/>
   <path class="fil0" d="M649.73 663.91c0,6.41 4.66,7.67 8.52,11.28 15.3,14.31 11.99,10.49 29.69,-11.1 2.09,-2.55 3.65,-4.33 5.7,-6.98 19.89,-25.61 52.31,-40.02 86.02,-39.94 8.56,0.02 18.74,-1.47 23.76,-1.59 0,-7.7 -4.94,-14.43 -9.38,-19.93 -7,-8.66 -10.49,-10.17 -23.1,-10.17 -21.02,0 -45.33,8.35 -62.86,17.94 -16.85,9.23 -58.35,48.23 -58.35,60.48z"/>
   <path class="fil0" d="M202.13 616.37c0,4.29 1.94,4.7 9.48,4.79 13.8,0.16 15.59,-2.87 35.35,1.09 12.91,2.59 27.07,8.27 36.63,14.07 11.67,7.08 22.54,15.72 30.93,26.11 1.13,1.41 1.73,1.83 2.95,3.39 6.95,8.82 10.24,18.67 16.17,22.65 3.72,-1 8.91,-6.93 11.69,-9.7 15.91,-15.9 9.68,-20.82 -12.28,-42.78 -8.37,-8.37 -10.48,-10.79 -19.76,-18.28 -24.06,-19.42 -45.49,-27.48 -85.81,-27.48 -13.78,0 -25.35,18.72 -25.35,26.14z"/>
   <path class="fil0" d="M559.42 228.19c3.84,0 6.29,1.63 7.13,4.76 -6.86,3.29 -12.69,-0.99 -19.8,-1.59 2.87,-1.99 9.31,-3.17 12.68,-3.17zm-90.31 -14.26c1.04,3.89 4.46,4.83 5.55,9.5 -3.99,2.11 -3.84,1.59 -9.51,1.59 -8.5,0 -11.09,-13.47 -20.59,-13.47 -4.97,0 -12.67,4.06 -15.63,6.56 -7.12,6.02 -11.9,17.43 -4.33,22.11 2.76,1.71 9.43,1.23 7.02,5.22 -2.73,4.51 -14.39,8.11 -20.34,8.11 -15.82,0 -7.06,-15.52 -12.67,-26.15 -2.79,1.48 -3.19,2.02 -3.9,5.61 -1.68,8.54 -2.34,22.72 4.08,29.07 5.06,5.01 5.58,6.52 12.5,6.52 10.84,0 22.03,-7.95 28.74,-14.84 9.44,-9.7 8.27,-21.13 -7.35,-24.77 0.44,-5.35 7.99,-10.21 17.44,2.36 11.1,14.76 14.12,4.77 26.92,4.77 37.42,0 68.45,11.09 82.39,11.09 11.67,0 19.01,-5.34 19.01,-17.43 0,-14.27 -17.8,-17.99 -32.46,-9.48 -2.17,1.26 -8.63,6.31 -11.11,6.31 -2.86,0 -5.41,-4.75 -8.72,-4.75 -5.02,0 -3.32,3.17 -9.5,3.17 -3.44,0 -5.45,-2.64 -9.61,-3.13 -6.92,-0.8 -6.94,2.01 -15.74,-0.04 0.13,-6.03 2.37,-3.64 2.37,-7.92 0,-9.09 -17.96,-9.85 -24.56,0z"/>
   <path class="fil0" d="M446.92 282.86c1.35,16.23 32.03,23.35 49.02,74.56 1.56,4.72 2.74,9.31 6.44,11.79 10.19,-19.26 3.44,-32.36 37.43,-66.35 8.1,-8.1 31.25,-26.91 -0.79,-22.19 -7.69,1.13 -18.01,9.4 -23.06,15.76l-14.38 13.35c-16.58,-8.78 -36.12,-39.35 -54.66,-26.93z"/>
   <path class="fil0" d="M669.53 463.48c0,7.28 -0.42,32.54 1.22,38.39 2.39,8.49 21.13,8.13 25.54,2.63 2.12,-2.65 3.08,-18.59 3.35,-23.59 0.43,-7.93 -0.63,-19.63 0.04,-27.69 1.15,-13.94 0.75,-35.91 0.75,-51.54 -9.32,0 -13.48,-2.02 -20.82,5.32 -11.73,11.74 -10.08,36.36 -10.08,56.47z"/>
   <path class="fil0" d="M303.53 406.44l-0.79 80.81c0,4.87 0.53,14.5 2.09,17.71 1.41,2.91 2.94,3.53 5.88,4.43 6.03,1.83 10.16,2.01 16.31,0.56 5.87,-1.39 4.85,-9.81 5.95,-20.2 1.95,-18.54 5.24,-62.02 -9.42,-77.19 -9.81,-10.16 -11.99,-6.12 -20.02,-6.12z"/>
   <path class="fil0" d="M614.87 270.18c0,5.62 6.43,10.98 10.67,13.09 3.72,1.85 5.38,1.37 9.45,2.44 5.18,1.37 10.6,6.97 14.61,9.95 9.09,6.78 1.62,-2.96 20.93,16.31 14.42,14.4 22.78,39.26 40.02,22.2 21.84,-21.61 -3.23,-30.8 -4.52,-11.65 -0.09,1.32 0.61,5.83 -2.83,4.79 -2.9,-0.89 -6.93,-9.33 -12.04,-14.58 -3.96,-4.07 -2.26,-1.66 -6.57,-3.73 -1.3,-1.3 0.78,-5.02 -7.22,-8.63 -5.98,-2.7 -4.39,-4.64 -8.95,-7.69 -9.62,-6.43 -12.71,-2.79 -14.69,-17.79 -2.65,-20 -7.8,-17.4 8.68,-17.39 9.61,0 26.7,2.06 28.52,-4.76 -2.02,-2.75 -6.14,-2.77 -10.37,-3.1 -11.81,-0.93 -44.3,-7.11 -44.3,0.73 0,6.19 0.41,7.49 2.83,13.81 1.33,3.48 2.72,7.19 2.72,11.54 -6.26,-0.14 -13.46,-7.32 -13.46,-13.47 0,-14.07 25.89,-41.19 15.84,-41.19 -6.11,0 -14.69,15.5 -17.96,21.65 -3.19,6 -11.35,19.67 -11.35,27.46z"/>
   <path class="fil0" d="M468.31 796.21c0,2.99 5.6,4.9 8.41,5.85 4.35,1.48 7,2.25 10.3,4.75 7.8,5.92 8.94,12.45 15.36,13.95 9.82,-6.57 12.9,-16.24 26.86,-19.09 2.08,-0.42 4.35,-0.82 6.34,-1.58 2.89,-1.1 2.57,-1.59 4.82,-3.09 -6.48,-12.26 -26.78,-41.59 -38.02,-49.12 -4.4,2.33 -6.42,5.6 -10.07,10.53 -4.98,6.7 -24,32.08 -24,37.8z"/>
   <path class="fil0" d="M287.69 314.55c1.01,2.1 0.72,0.85 0.79,3.96 -3.11,-0.07 -1.86,0.22 -3.96,-0.8 0.73,-2.74 0.43,-2.44 3.17,-3.17zm6.34 -26.15c0,5.97 8.93,7.06 11.88,11.09 -1.52,6.54 -5.52,9.51 -11.88,9.51 -5.04,0 -3.86,-7.92 -11.89,-7.92 -7.1,0 -6.33,7.67 -6.33,11.88 0,15.69 13.65,5.01 -5.38,33.44 -4.94,7.37 -13.05,18.27 -21,22.57 -8.52,4.61 -21.8,-0.65 -10.67,10.35 4.74,4.69 5.17,5.73 11.7,5.73 15.89,0 34.56,-36.35 43.44,-48.45 3.31,-4.51 6.41,-8.65 10.22,-12.75 7.79,-8.37 17.03,-18.17 10.48,-30.68 -5.7,-10.9 -20.58,-10.41 -20.58,-4.77z"/>
   <path class="fil0" d="M477.82 694.8c0,7.85 1.39,13.72 6.12,18.44 21.82,21.73 49.97,-0.9 40.54,-27.87 -1.27,-3.62 -2.28,-4.44 -4.86,-7.02 -15.45,-15.45 -41.8,-5.17 -41.8,16.45z"/>
   <path class="fil0" d="M373.25 244.83c0,5.36 1.94,6.5 3.96,9.51 -2.97,0 -9.07,-0.46 -11.6,0.28 -3.63,1.07 -3.44,4.99 -4.24,8.43 -4.01,0.93 -6.12,0.79 -11.09,0.79 -4.91,7.33 -3.39,12.17 -10.28,12.69 -7.21,0.54 -16.65,-1.31 -16.65,6.32 0,13.47 27.73,1.28 7.92,30.89 -2.15,3.22 -7.57,10.06 -7.92,14.26 5.78,0 6.56,1.18 11.08,-1.59 14.86,-9.1 11.1,-21.26 11.1,-32.48 0,-7.59 11.37,-14.8 19.46,-20.94 2.24,-1.7 3.61,-2.81 6.13,-4.17 1.95,-1.05 16.4,-4.22 16.4,-14.5 0,-9.04 -14.26,-17.33 -14.26,-9.51z"/>
   <path class="fil0" d="M474.65 276.52c0,3.68 8.28,9.76 10.91,12.06 2.07,1.81 4.47,3.81 6.5,5.39 12.9,10.01 15.88,-0.78 30.6,-10.63 9.83,-6.57 4.22,-11.78 -4.43,-17.91 -11.42,-8.09 -20.82,-6.7 -32.46,0.03 -2.95,1.71 -11.11,6.99 -11.11,11.07z"/>
   <path class="fil0" d="M739.25 373.17c-3.05,-0.26 -2.69,-0.69 -4.8,-2.34 -4.94,-3.87 -12.41,-15.03 -17.93,-8.5 -8.15,9.64 14.53,33.46 31.27,15.43 7.8,-8.4 5.93,-30.73 -3,-30.73 -10.83,0 -3.35,16.72 -5.54,26.14z"/>
   <path class="fil0" d="M595.06 249.58c2.77,0.74 4.48,2.26 4.76,5.55 -3.83,-0.89 -4.22,-1.39 -4.76,-5.55zm-11.88 8.72c0,7.53 10.79,16.85 21.53,3.31 9.06,-11.43 5.89,-26.29 -5.69,-26.29 -5.02,0 -15.85,16.33 -15.85,22.98z"/>
   <path class="fil0" d="M708.35 355.74c0,12.85 35.73,-25.51 36.44,-34.06 -2.13,-0.51 -1.49,-0.8 -3.17,-0.8 -5.36,0 -33.27,28.26 -33.27,34.86z"/>
   <path class="fil0" d="M337.6 236.12l0.79 14.26c3.01,0.25 4.95,1.61 6.83,-1.06 2.16,-3.07 -0.37,-6.07 3.47,-6.07 4.08,0 6.34,2.77 6.34,-2.38 0,-8.32 -4.76,-7.32 -7.44,-8.41 -3.55,-1.44 0.45,-1.89 -6.03,-1.89 -2.56,0 -3.96,2.88 -3.96,5.55z"/>
   <path class="fil0" d="M682.21 282.86c0,2.85 2.34,2.78 4.85,3.11 9.33,1.24 -2.72,3.82 7.04,10.35 6.79,-3.59 9.2,-17.33 4.78,-19.88 -1.84,-1.06 -3.58,0.06 -5.56,0.84 -3.93,1.57 -11.11,1.01 -11.11,5.57z"/>
   <path class="fil0" d="M443.75 198.09c13.17,0 13.08,-2.24 12.68,-7.13 -16.91,-3.94 -22.05,7.13 -12.68,7.13z"/>
   <path class="fil0" d="M296.4 353.36c0,3.23 1.25,3.94 4.76,4.76 3.09,-2.69 2.16,-2.76 3.93,-6.37 1.83,-3.71 0.46,-1 2.65,-2.89 4.05,-3.48 1.61,-3.57 0.54,-8.17 -5,0.11 -4.55,1.94 -6.32,5.56 -3.19,6.5 -5.56,3.48 -5.56,7.11z"/>
   <path class="fil0" d="M248.08 324.05c0,8.29 9.51,8.86 9.51,0 0,-7.52 -9.51,-6.15 -9.51,0z"/>
   <path class="fil0" d="M505.55 191.75c0,8.36 7.67,7.88 11.88,1.59 -6.18,-9.22 -11.88,-2.74 -11.88,-1.59z"/>
   <path class="fil0" d="M724.19 299.49c0,3.44 1.1,6.34 4.76,6.34 6.43,0 6.15,-9.51 -1.59,-9.51 -1.85,0 -3.17,1.31 -3.17,3.17z"/>
   <path class="fil0" d="M660.82 241.66c0.96,2.39 2.34,2.54 8.78,3.11 4.42,0.39 7.01,0.85 11.82,0.85l0 -2.37c-1.98,-0.46 -18.07,-4.66 -20.59,-1.59z"/>
  </g>
 </g>
</svg>
