<?xml version="1.0" encoding="UTF-8"?>
<!DOCTYPE svg PUBLIC "-//W3C//DTD SVG 1.1//EN" "http://www.w3.org/Graphics/SVG/1.1/DTD/svg11.dtd">
<!-- Creator: CorelDRAW 2020 (64-Bit) -->
<svg xmlns="http://www.w3.org/2000/svg" xml:space="preserve" width="1in" height="1in" version="1.1" style="shape-rendering:geometricPrecision; text-rendering:geometricPrecision; image-rendering:optimizeQuality; fill-rule:evenodd; clip-rule:evenodd"
viewBox="0 0 1000 1000"
 xmlns:xlink="http://www.w3.org/1999/xlink"
 xmlns:xodm="http://www.corel.com/coreldraw/odm/2003">
 <defs>
  <style type="text/css">
   <![CDATA[
    .fil3 {fill:#02013A}
    .fil2 {fill:#4B4B4D}
    .fil4 {fill:#4D4D4D}
    .fil1 {fill:#5D5D5F}
    .fil0 {fill:#E1E2E3}
   ]]>
  </style>
   <clipPath id="id0">
    <rect x="15843.17" y="-3414.79" width="8888.89" height="8888.89"/>
   </clipPath>
 </defs>
 <g id="Layer_x0020_1">
  <metadata id="CorelCorpID_0Corel-Layer"/>
  <polygon class="fil0" points="-9723.33,-3952.62 -7423.32,-3952.62 -7423.32,-4445.96 -9723.33,-4445.96 "/>
  <path class="fil1" d="M-9081.82 -4147.99c-33.91,22.13 -23.95,49.75 0.36,56.87 31.63,9.26 69.92,-12.89 86.16,11.83 -3.88,21.03 -20.51,22.36 -41.13,21.82 -27.49,-0.71 -31.09,-11.33 -47.84,-18.24l-23.57 34.08c25.54,10.97 40.46,23.4 77.95,21.52 87.27,-4.38 92.79,-80.46 50.23,-99.68 -30.91,-13.95 -69.34,5.35 -82.26,-6.18 10.29,-22.43 51.53,2.85 81.06,-27.54 19.37,-19.94 19.74,-57.3 7.67,-86.29 9.74,-4.56 9.4,-5.73 16.56,-12.84 -7.7,-9.98 -7.3,-4.59 -21.62,-24.75 -15.9,6.01 -15.55,13.86 -21.98,14.91 -7.39,1.21 -48.8,-19.27 -88.52,11.08 -22.83,17.45 -35.84,66.91 6.93,103.39z"/>
  <path class="fil2" d="M-8882.51 -4263.34c-42.01,12.83 -66.93,57.5 -53.8,113.8 10.41,44.61 49.49,75.19 106.38,60.27 94.95,-24.9 72.84,-212.35 -52.58,-174.07z"/>
  <path class="fil2" d="M-9239.07 -4263.28c-42.05,12.91 -66.93,57.46 -53.78,113.64 10.44,44.59 49.38,75.23 106.27,60.4 95.16,-24.81 73,-212.56 -52.49,-174.04z"/>
  <path class="fil2" d="M-8536.17 -4263.48c-88.42,27.74 -66.05,207.26 49.5,174.03 89,-25.6 69.52,-211.37 -49.5,-174.03z"/>
  <path class="fil1" d="M-7789.34 -4102.25l-9.95 -24.9c-21.93,8.98 -39.15,22.02 -69.61,9.95 -21.53,-8.53 -29.61,-27.32 -31.4,-56.56l124.96 -0.12c31.83,-93.84 -115.85,-134.11 -150.87,-41.38 -16.48,43.63 -3.79,88.61 21.93,110.36 35.87,30.33 75.85,19.34 114.94,2.65z"/>
  <polygon class="fil2" points="-9466.37,-4089.57 -9453.33,-4089.37 -9316.66,-4089.4 -9316.02,-4127.02 -9422.5,-4127.02 -9424.12,-4328.76 -9466.37,-4329.48 "/>
  <path class="fil2" d="M-8294.19 -4110.92c4.74,7.36 4.28,11.5 4.28,21.52l30.91 0 0 -175.25 -30.9 0c-0.01,22.35 5.71,120.59 -6.74,135.4 -7.42,8.83 -73.61,52.51 -73.39,-40 0.06,-25.77 2.69,-71.98 -1.28,-95.3l-27.91 0c-4.79,22.58 -3.93,127.86 4.31,146.83 17.3,39.8 80.22,42 100.72,6.81z"/>
  <path class="fil0" d="M-8521.59 -4241.5c-50.93,12.11 -52.8,144.68 21.13,128.93 52.29,-11.15 51.77,-146.26 -21.13,-128.93z"/>
  <path class="fil0" d="M-8872.06 -4229.38c-25.99,12.12 -28.36,44.39 -23.29,72.41 4.93,27.24 26.39,47.54 57.81,33.51 37.92,-16.93 33.38,-137.59 -34.52,-105.92z"/>
  <path class="fil0" d="M-9228.63 -4229.29c-13.23,6.32 -15.87,7.35 -21.67,26.51 -4.22,13.95 -4.32,30.8 -1.61,45.74 4.66,25.61 26.22,48.78 57.65,33.53 39.14,-18.99 32.41,-137.68 -34.38,-105.78z"/>
  <g style="clip-path:url(#id0)">
   <image x="15843.17" y="-3414.79" width="8888.89" height="8888.89" xlink:href="snn_Images\snn_ImgID1.png"/>
  </g>
  <path class="fil3" d="M18182.54 2571.32c13.57,-23.11 181.52,-228.01 202.3,-244.7 181.19,109.06 258.35,178.37 138.22,299.75 -38.96,39.37 -90.87,116.21 -184.85,75.59 -58.86,-25.44 -130.21,-80.53 -155.67,-130.63zm4933.02 132.32c-187.49,14.46 -440.79,5.59 -633.5,3.21 -189.44,-2.33 -451.74,41.06 -562.07,-73.54 -130.1,-135.14 -93.42,-300.31 -92.98,-548.1 1.39,-788.12 -96.5,-654.84 321.72,-655.4 106.61,-0.15 212.73,-1.78 319.44,-0.91 106.48,0.87 212.97,0.64 319.47,0.54 234.08,-0.21 321.23,64 335.58,308.7 5.58,95.11 3.81,223.07 1.47,319.3 -3.6,148.29 17.88,529.4 -9.14,646.2zm-1829.27 -729.54c8.42,-54.36 108.09,-277.99 140.22,-329.67 223.64,-4.58 291.06,325.82 177.61,618.87 -57.59,148.75 -211.3,368.44 -369.53,423.82 -175.61,61.46 -61.1,-209.74 -16.43,-240.24 53.36,-36.42 364.55,-157.63 248.54,-332.03 -50.24,-75.53 -117.64,-81.23 -180.41,-140.76zm-2012.56 -202.96c80.13,42.38 168.99,166.34 254.59,126.42 52.96,-24.7 142.06,-156.65 203.75,-185.97 69.69,26.43 147.2,88.33 182.53,151.39 1.96,92.51 -122.52,205.26 -182.53,236.87 -104.15,-2.2 -129.7,-103.12 -236.11,-123.62 -72.29,30.15 -129.22,145.37 -216.08,172.54 -83.89,26.24 -219.66,-122.32 -232.88,-146.91 27.23,-45.39 176.07,-197.72 226.73,-230.73zm914.41 -116.49c33.23,-60.43 138.86,-171.69 196.7,-247.22 44.2,14.16 127.42,82.37 169.24,119.92 113.06,101.52 -98.31,303.76 -210.24,252.42 -57.67,-26.46 -128.49,-83.39 -155.7,-125.12zm-915.18 0c49.26,-84.76 136.04,-137.37 186.71,-243.77 51.44,16.52 145.29,88.26 182.85,125.48 91.81,90.95 -90.81,313.78 -219.9,247.05 -46.07,-23.81 -125.66,-76.02 -149.67,-128.76zm-1610.35 376.72c-27.73,-81.46 153.31,-369.87 193.72,-418.93 278.84,-338.49 489.19,-11.59 680.35,-27.89 60.31,-5.14 160.42,-64.59 232.63,-87.98 125.64,-40.71 166.02,-32.24 126.76,114.03 -22.46,83.67 -68.65,158.48 -107.93,209.16 -222,16.34 -226.12,6.26 -409.74,231.24 -85.93,105.28 -53.06,75.71 -106.19,213.17 -79.88,206.68 -262.41,412.14 -518.63,438.27 -216.49,22.08 -347.42,-89.01 -243.74,-308.52 59.44,3.08 88.04,30.37 165.77,39.6 71.02,8.43 136.76,6.15 200.51,-9.08 115.28,-27.53 228.04,-78.54 251.31,-179.87 -371.97,13.06 -346.28,-17.12 -210.53,-308.05 40.32,-86.42 60.41,-173.62 163.06,-188.81 86.39,-12.78 133.04,18.22 179.98,73.08l41.58 45.82c37.01,-25.95 99.58,-86.96 110.76,-142.52 -41.55,-31.31 -164.35,-84.51 -225.24,-108.19 -301.34,-117.15 -394.33,237.43 -478.07,375.98 -35.7,59.05 0.48,25.59 -46.34,39.49zm988.8 -175.73c-10.13,178.84 -3.43,287.44 102.6,374.3 273.36,223.92 924.41,152.13 1226.14,77.02 232.92,-57.99 511.71,-159.95 678.05,-281.61 147.46,-107.85 119.54,-142.72 134.84,-356.22 7.58,-105.8 179.99,-266.44 199.59,-274.15 14.71,111.22 -36.61,391.22 -74.47,488.08 -150.16,384.15 -624.32,625.22 -1023.09,728.69 -482.55,125.2 -1432.17,222.11 -1326.81,-536.59 5.97,-43.02 12.93,-73.47 22.07,-115.29 1.58,-7.24 13.62,-56.38 14.12,-57.5 28.76,-65.36 -1.96,-25.56 46.96,-46.72zm1912.22 683.44c204.21,-120.03 471.74,-142.03 482.16,-438.39 10.52,-299.32 -33.29,-403.04 102.04,-571.93 67.96,-84.81 64.35,-108.73 114.13,-129.97 -11.71,386.13 -15.67,1040.8 -360.79,1244.52 -180.24,106.4 -342.91,16.9 -337.54,-104.24zm-3097.05 -2662.22c-0.67,-280.51 -24.18,-410.12 223.33,-610.14 2.22,-1.79 5.24,-4.7 7.46,-6.47 43.62,-34.67 74.38,-37.96 145.12,-41.6 288.96,-14.84 1142.21,-2.33 1472.89,-2.89 120.01,-0.2 188.11,-24.97 200.83,51.48l0.18 1234.61c0.05,198.09 18.9,278.72 -46.02,448.12 -41.85,109.2 -32.25,80.51 -101.98,146.43 -65.8,62.2 -48.2,61.52 -147.44,100.31 -125.86,49.2 -1407.99,26.93 -1558.34,27.06 -141.37,0.13 -182.37,16.12 -196.21,-55.88l0.19 -1291.04zm4054.15 -501.58l516.88 4.98 565.56 888.73c8.76,14.1 10.22,18.29 23.48,33.63 16.41,19 5.17,8.31 25.98,22.28l1.85 -948.5 396.48 1.73 -4.63 1689.48 -410.08 -0.36c-89.31,-126.98 -685.18,-1124.52 -720.89,-1143.87l0.3 1141.94 -398.33 -0.68 3.4 -1689.37zm-1774.17 0.35l513.27 2.97c74.89,76.2 571.91,924.8 621.16,951.28l2.56 -954.43 396.01 1.58 -1.28 1688.63 -426.34 -2.11c-25.82,-59.18 -677.27,-1125.54 -710.23,-1139.61l-0.17 1142.15 -398.47 -2.81 3.48 -1687.67zm-3903.39 1377.32l0 578.31c33.87,70.06 45.93,350.03 63.81,453.28 162.62,938.84 604.99,1749.19 1236.99,2388.75 307,310.68 728.35,624.06 1210.82,860.3 219.13,107.29 484.98,208.44 747.23,280.68 132.8,36.58 274.56,69.04 419.88,94.38 107.28,18.7 393.42,32.97 463.6,65.45l616.57 0c39.74,-18.98 59.39,-15.03 115.87,-19.99 41.46,-3.64 63.64,-8.27 100.49,-12.69 487.24,-58.5 970.91,-194.71 1402.84,-408.3 1304.33,-644.97 2174.58,-1791.65 2444.93,-3234.06 21.78,-116.21 28.61,-388.74 65.86,-466.98l0 -580.03c-24.8,-56.39 -44.63,-365.74 -61.56,-465.57 -69.65,-410.55 -199.05,-817.41 -374.83,-1180.73 -634.19,-1310.86 -1822.62,-2199.42 -3252.63,-2456.63 -107.35,-19.31 -380.62,-29.1 -454.3,-63.9l-527.71 0c-131.98,47.7 -741.94,-9.56 -1669.09,423.24 -474.93,221.7 -919.05,550.25 -1233.91,863.71 -317.36,315.94 -627.37,718.86 -873.72,1224.39 -175.92,360.98 -314.25,791.64 -381.13,1201.26 -16.7,102.26 -30.43,389.73 -60.01,455.15z"/>
  <g id="_1856123345728">
   <path class="fil4" d="M81.97 501.24l-0.46 -67.38c16.08,-0.22 30.09,21.65 70.76,31.47 91.33,22.04 115.03,-25.93 78.62,-43.92 -10.89,-5.38 -28.85,-8.92 -41.47,-11.39 -54.72,-10.72 -117.82,-31.83 -105.3,-103.45 18.22,-104.2 212.72,-74.24 224.07,-54.44 4.71,14.48 1.75,44.06 1.33,61.54 -17.21,0.55 -29.25,-19.7 -76.37,-28.54 -24.17,-4.54 -76.76,-3.5 -75.06,27.84 2.06,38 100.7,19.37 144.69,66.43 34.48,36.89 20.94,107.05 -42.13,131.35 -55.14,21.24 -128.95,11.55 -178.69,-9.51zm-51.72 -181.37l-0.03 214.22c2.3,11.94 9.1,9.29 32.56,9.27 24.95,-0.02 237.69,3.67 258.58,-4.49 16.46,-6.44 13.54,-6.32 24.46,-16.65 11.57,-10.94 9.98,-6.18 16.92,-24.3 10.77,-28.11 7.65,-41.49 7.64,-74.36l-0.03 -204.86c-2.11,-12.69 -13.41,-8.57 -33.32,-8.54 -54.87,0.09 -196.45,-1.98 -244.4,0.48 -11.74,0.61 -16.84,1.15 -24.08,6.91 -0.37,0.29 -0.87,0.78 -1.24,1.07 -41.07,33.19 -37.17,54.7 -37.06,101.24z"/>
   <path class="fil4" d="M407.99 516.74l66.12 0.46 0.03 -189.52c5.47,2.33 113.56,179.28 117.85,189.09l70.74 0.35 0.21 -280.2 -65.71 -0.26 -0.43 158.37c-8.17,-4.39 -90.65,-145.2 -103.07,-157.85l-85.17 -0.5 -0.58 280.04z"/>
   <path class="fil4" d="M702.4 516.96l66.09 0.11 -0.05 -189.48c5.93,3.21 104.8,168.73 119.62,189.8l68.05 0.06 0.77 -280.34 -65.79 -0.29 -0.3 157.39c-3.45,-2.32 -1.59,-0.54 -4.31,-3.7 -2.2,-2.55 -2.44,-3.24 -3.9,-5.58l-93.84 -147.47 -85.77 -0.82 -0.56 280.32z"/>
   <path class="fil4" d="M959.07 610.54c-3.93,18.64 -19.39,25.11 -35.23,33.35 -13.89,7.22 -32.69,17.18 -43.3,26.29 2.9,4.43 -0.39,-0.42 3.28,4.02 0.3,0.37 0.79,0.87 1.1,1.26l4.56 7.11c5.09,15.19 -4.17,32.06 -20.32,40.37 -25.57,13.17 -5.17,35.29 -46.64,35.56 8.78,-13.65 21.73,-12.46 32.52,-31.31 5.19,-9.09 5.7,-11.91 13.13,-16.82 4.6,-3.05 34.36,-14.23 0.43,-27.72 3.96,-26.14 20.64,-24.48 29.91,-40.83 5.08,-8.96 -1.37,-4.01 8.35,-10.22 7.73,-4.94 22.65,-10.69 31.71,-18.64 7.47,1.65 2.3,4.14 7.96,5.01l12.56 -7.4zm-125.16 61.94c-8.06,-8.35 -29.44,-4.46 -4.13,-44.29 7.04,-11.08 20.87,-30.06 38.89,-30.96 -0.03,32.08 -36.69,12.56 -39.57,45.3 8.44,8.85 16,2.86 14.38,22.86 -5.08,62.86 -93.44,85.33 -78.53,13.37 4.72,-22.78 14.33,-32.91 21.48,-50.38 1.85,8.3 -28.65,48.98 -9.19,67.13 17.14,15.98 56.36,-2.43 56.67,-23.01zm133.69 116.44c4.48,-19.38 0.92,-82.62 1.52,-107.22 0.39,-15.96 0.68,-37.2 -0.24,-52.98 -2.38,-40.6 -16.84,-51.26 -55.68,-51.22 -17.67,0.02 -35.34,0.06 -53.01,-0.09 -17.71,-0.14 -35.31,0.13 -53.01,0.15 -69.39,0.09 -53.15,-22.02 -53.38,108.75 -0.07,41.11 -6.16,68.52 15.43,90.94 18.31,19.02 61.83,11.81 93.26,12.2 31.98,0.39 74.01,1.87 105.12,-0.54z"/>
   <path class="fil4" d="M226.85 648.21c-8.12,3.51 -3.02,-3.09 -7.79,7.75 -0.08,0.19 -2.08,8.34 -2.34,9.54 -1.52,6.94 -2.67,11.99 -3.66,19.13 -17.48,125.89 140.09,109.81 220.16,89.04 66.17,-17.17 144.85,-57.17 169.76,-120.91 6.28,-16.07 14.8,-62.53 12.36,-80.99 -3.25,1.28 -31.86,27.94 -33.12,45.49 -2.54,35.43 2.09,41.21 -22.37,59.11 -27.6,20.19 -73.86,37.11 -112.51,46.73 -50.06,12.46 -158.09,24.37 -203.45,-12.78 -17.59,-14.41 -18.71,-32.43 -17.03,-62.11z"/>
   <path class="fil4" d="M62.78 677.37c7.77,-2.31 1.76,3.24 7.69,-6.55 13.9,-22.99 29.33,-81.83 79.33,-62.39 10.11,3.93 30.48,12.76 37.37,17.95 -1.85,9.22 -12.24,19.34 -18.38,23.65l-6.9 -7.6c-7.79,-9.11 -15.53,-14.25 -29.86,-12.13 -17.03,2.52 -20.37,16.99 -27.06,31.33 -22.53,48.28 -26.79,53.28 34.93,51.12 -3.86,16.81 -22.57,25.28 -41.7,29.84 -10.58,2.53 -21.49,2.91 -33.27,1.51 -12.9,-1.53 -17.64,-6.06 -27.5,-6.57 -17.2,36.43 4.52,54.86 40.44,51.19 42.52,-4.33 72.8,-38.43 86.06,-72.72 8.81,-22.81 3.36,-17.91 17.62,-35.37 30.47,-37.33 31.15,-35.66 67.99,-38.37 6.52,-8.41 14.18,-20.82 17.91,-34.7 6.52,-24.27 -0.19,-25.68 -21.04,-18.92 -11.98,3.88 -28.59,13.74 -38.6,14.6 -31.72,2.7 -66.62,-51.54 -112.89,4.63 -6.71,8.14 -36.75,56 -32.15,69.51z"/>
   <path class="fil4" d="M544.15 761.62c-0.89,20.1 26.1,34.95 56.01,17.3 57.26,-33.81 57.92,-142.44 59.87,-206.51 -8.26,3.53 -7.66,7.5 -18.94,21.57 -22.45,28.02 -15.19,45.24 -16.93,94.9 -1.73,49.17 -46.12,52.82 -80.01,72.74z"/>
   <path class="fil4" d="M664.06 667.87c10.41,9.88 21.6,10.82 29.93,23.35 19.25,28.94 -32.39,49.05 -41.24,55.09 -7.41,5.06 -26.41,50.06 2.73,39.86 26.25,-9.19 51.76,-45.64 61.31,-70.32 18.83,-48.63 7.64,-103.45 -29.47,-102.69 -5.33,8.57 -21.87,45.68 -23.26,54.7z"/>
   <path class="fil4" d="M330.11 634.19c-8.41,5.48 -33.1,30.75 -37.62,38.28 2.19,4.08 24.72,28.73 38.64,24.38 14.41,-4.51 23.86,-23.63 35.85,-28.63 17.65,3.4 21.89,20.15 39.18,20.51 9.96,-5.24 30.61,-23.95 30.29,-39.3 -5.86,-10.46 -18.72,-20.74 -30.29,-25.12 -10.24,4.87 -25.02,26.76 -33.81,30.86 -14.2,6.62 -28.95,-13.94 -42.24,-20.98z"/>
   <path class="fil4" d="M149.05 766.97c4.22,8.31 16.06,17.45 25.83,21.67 15.59,6.74 24.21,-6.01 30.67,-12.54 19.93,-20.14 7.13,-31.64 -22.94,-49.74 -3.44,2.77 -31.31,36.77 -33.57,40.61z"/>
   <path class="fil4" d="M329.99 614.86c3.98,8.75 17.19,17.41 24.83,21.37 21.42,11.07 51.72,-25.9 36.49,-40.99 -6.24,-6.18 -21.81,-18.08 -30.34,-20.82 -8.41,17.65 -22.81,26.39 -30.98,40.45z"/>
   <path class="fil4" d="M481.84 614.86c4.52,6.93 16.27,16.37 25.84,20.76 18.57,8.52 53.65,-25.04 34.88,-41.89 -6.94,-6.23 -20.75,-17.55 -28.08,-19.9 -9.59,12.53 -27.12,30.99 -32.64,41.02z"/>
  </g>
 </g>
</svg>
