<?xml version="1.0" encoding="UTF-8"?>
<!DOCTYPE svg PUBLIC "-//W3C//DTD SVG 1.1//EN" "http://www.w3.org/Graphics/SVG/1.1/DTD/svg11.dtd">
<!-- Creator: CorelDRAW 2020 (64-Bit) -->
<svg xmlns="http://www.w3.org/2000/svg" xml:space="preserve" width="1in" height="1in" version="1.1" style="shape-rendering:geometricPrecision; text-rendering:geometricPrecision; image-rendering:optimizeQuality; fill-rule:evenodd; clip-rule:evenodd"
viewBox="0 0 1000 1000"
 xmlns:xlink="http://www.w3.org/1999/xlink"
 xmlns:xodm="http://www.corel.com/coreldraw/odm/2003"
 xmlns:dc="http://purl.org/dc/elements/1.1/"
 xmlns:cc="http://creativecommons.org/ns#"
 xmlns:rdf="http://www.w3.org/1999/02/22-rdf-syntax-ns#"
 xmlns:svg="http://www.w3.org/2000/svg"
 xmlns:sodipodi="http://sodipodi.sourceforge.net/DTD/sodipodi-0.dtd"
 xmlns:inkscape="http://www.inkscape.org/namespaces/inkscape"
 inkscape:version="0.48.4 r9939"
 sodipodi:docname="IRI.NAJA.FATA (New).svg">
 <defs>
  <style type="text/css">
   <![CDATA[
    .fil0 {fill:#4D4D4D}
   ]]>
  </style>
 </defs>
 <g id="Layer_x0020_1">
  <metadata id="CorelCorpID_0Corel-Layer"/>
  <sodipodi:namedview id="base" pagecolor="#ffffff" bordercolor="#666666" borderopacity="1.0" inkscape:pageopacity="0.0" inkscape:pageshadow="2" inkscape:zoom="0.175" inkscape:cx="-153.67852" inkscape:cy="901.82896" inkscape:document-units="px" inkscape:current-layer="layer1" showgrid="false" inkscape:window-width="1280" inkscape:window-height="962" inkscape:window-x="-8" inkscape:window-y="-8" inkscape:window-maximized="1"/>
  <path class="fil0" d="M14.72 633.69c-7.45,12.7 -2.81,34.02 4.11,46.08 23.51,41.03 83.02,45.67 130.39,46.44 75.47,1.22 145.69,-2.17 216.84,-17.08 49.62,-10.4 121.12,-40.41 160.63,-72.8 47.28,-38.76 53.16,-118.73 54.78,-181.18 -12.88,0.13 -10.17,0.43 -14.5,11.48 -14.32,36.5 -10.44,18.68 -11.46,64.31 -0.83,36.7 0.82,46.58 -32.93,67.7 -84.11,52.65 -236.57,71.78 -338.07,68.94 -30.74,-0.86 -63.89,-4.01 -94.65,-6.78 -68.32,-6.17 -59.09,-24.02 -75.12,-27.11zm678.67 -91.39c9.94,-3.52 24.19,-28.11 29.59,-39.88 -2.46,-3.35 -3.46,-3.18 -6.28,-6.49 -5.3,-6.19 -12.25,-17.85 -23.31,-20.53 -1.83,1.52 -28.23,37.16 -23.83,45.74 2.03,3.95 12.28,12.04 15.65,14.65 3.28,2.53 4.69,4.63 8.18,6.52zm97.06 190.17c4.75,-9.62 -1.25,-15.34 -6.22,-20.35 -19.59,-19.76 -19.4,-22.43 -41.42,19.49 -5.22,9.95 -3.57,12.69 3.34,18.59 16.85,14.36 23.17,25.08 44.3,-17.72zm148.15 -209.16c8.7,4.09 17.39,17.98 24.98,17.13 5.53,-0.62 15.05,-16.61 18.28,-21.63 7.01,-10.91 11.05,-14.21 2.03,-24.71 -6.29,-7.31 -10.52,-16.3 -21.77,-18.94 -9.65,7.98 -9.34,14.78 -16.8,22.58 -21.73,-10.44 -22.38,-47.85 -49.59,15.63 -3.78,8.83 1.31,12.68 6.48,17.01 15.38,12.87 16.81,16.67 27.16,3.05l9.23 -10.12zm-91.71 -286.16l-70.39 42.69c-32.76,20.78 -150.1,92.07 -172.02,111.74 -2.74,2.46 -29.35,24.03 -21.7,31.64 5.85,5.81 63.15,-31.4 71.95,-36.78 42.66,-26.1 136.81,-81.06 171.29,-112.48 9.15,-8.33 21.06,-17.33 20.87,-36.81zm74.13 359.64c-4.81,0.91 -0.36,-2.29 -4.69,4.13 -8.84,13.11 -24.16,30.85 -42.16,17.93 -8.13,-5.84 -11.41,-13.63 -12.56,-25.83 -4.64,-49.29 13.24,-169.1 10.8,-180.65 -11.44,8.02 -21.64,77.65 -25.08,98.02 -5.63,33.33 -20.57,135.33 0.21,165.36 9.22,13.31 21.72,20.41 38.33,7.41 21.07,-16.49 29,-51.72 35.13,-86.36zm-145.07 -35.98l-5.22 8.87c-7.57,13.3 -12.24,17.67 -25.81,15.71 -24.96,-3.6 -26.43,7.46 -37.7,18.18 -10.19,9.69 -15.46,19.52 -33.2,23.96 -76.47,19.13 -47.94,-112.6 -41.98,-162.43 4.13,-34.48 10.02,-43.47 -4.72,-45.63 -12.69,55.64 -17.33,62.62 -26.19,126.57 -5.39,38.94 -18.53,140.85 35.26,143.51 15.68,0.78 25.76,-1.95 34.9,-11.07 19.18,-19.15 29.57,-52.7 50.9,-54.74 16.05,-1.53 20.33,2.93 30.44,-8.43 14.03,-15.76 19.61,-27.44 23.34,-54.51z"/>
 </g>
</svg>
