<?xml version="1.0" encoding="UTF-8"?>
<!DOCTYPE svg PUBLIC "-//W3C//DTD SVG 1.1//EN" "http://www.w3.org/Graphics/SVG/1.1/DTD/svg11.dtd">
<!-- Creator: CorelDRAW 2020 (64-Bit) -->
<svg xmlns="http://www.w3.org/2000/svg" xml:space="preserve" width="1in" height="1in" version="1.1" style="shape-rendering:geometricPrecision; text-rendering:geometricPrecision; image-rendering:optimizeQuality; fill-rule:evenodd; clip-rule:evenodd"
viewBox="0 0 1000 1000"
 xmlns:xlink="http://www.w3.org/1999/xlink"
 xmlns:xodm="http://www.corel.com/coreldraw/odm/2003"
 xmlns:dc="http://purl.org/dc/elements/1.1/"
 xmlns:cc="http://creativecommons.org/ns#"
 xmlns:rdf="http://www.w3.org/1999/02/22-rdf-syntax-ns#"
 xmlns:svg="http://www.w3.org/2000/svg"
 xmlns:sodipodi="http://sodipodi.sourceforge.net/DTD/sodipodi-0.dtd"
 xmlns:inkscape="http://www.inkscape.org/namespaces/inkscape"
 inkscape:version="0.48.4 r9939"
 sodipodi:docname="IRI.NAJA.FATA (New).svg">
 <defs>
  <style type="text/css">
   <![CDATA[
    .fil0 {fill:#4D4D4D}
   ]]>
  </style>
 </defs>
 <g id="Layer_x0020_1">
  <metadata id="CorelCorpID_0Corel-Layer"/>
  <sodipodi:namedview id="base" pagecolor="#ffffff" bordercolor="#666666" borderopacity="1.0" inkscape:pageopacity="0.0" inkscape:pageshadow="2" inkscape:zoom="0.175" inkscape:cx="-153.67852" inkscape:cy="901.82896" inkscape:document-units="px" inkscape:current-layer="layer1" showgrid="false" inkscape:window-width="1280" inkscape:window-height="962" inkscape:window-x="-8" inkscape:window-y="-8" inkscape:window-maximized="1"/>
  <path class="fil0" d="M441.87 588.01c0.74,-32.41 55.01,-108.48 55.11,-140.3l-125.5 -0.8c-18.51,30.07 -50.58,116.15 -71.31,141.43l-263.27 1.41c37.16,208.43 252.38,368.93 485.7,361.7 -11.34,-69.14 -38.46,-48.24 -86.46,-69.64 -36.94,-16.47 -56.84,-52.91 -58.28,-98.15l220.59 0.53c17.54,65 28.85,96.22 69.92,139.77 18.07,-1.82 30.13,-11.83 41.43,-23.38 -11.91,-21.69 -26.75,-39.27 -39.33,-65.74 -77.84,-163.81 37.31,-373.31 297.81,-337.67l-4.63 -46.73 -239.35 -3.01 -65.45 140.85 -216.97 -0.28zm-306.87 -371.22c39.28,67.73 18.65,100.15 -62.76,98.13l-20.45 41.61c25.58,16.19 55.3,17.37 85.05,6.79 26.08,-9.28 45.84,-23.44 57.28,-42.49 28.96,-48.24 17.72,-112.5 -22.52,-142.25 -9.06,6.32 -8.22,6.34 -17.06,15.03l-19.53 23.19zm790.3 472.57c8.24,-15.97 18.36,-30.45 18.41,-51.78 -103.49,-47.4 -220.81,86.81 -117.55,184.07 15.37,-6.58 25.08,-18.96 36.98,-32.11 -4.71,-17.04 -64.37,-116.87 62.15,-100.17zm38.84 -148.96c-220.35,-69.67 -367.39,187.09 -218.26,342.7l46.08 -35.12c-18.17,-34.86 -79.68,-101.83 -19.19,-193.67 56.63,-85.98 147.83,-59.91 186.93,-59.57l4.44 -54.34zm-928.77 -103.72c-0.55,7.5 -0.91,5.72 0.06,13.11 5.87,45.01 128.79,15.3 156.01,3.37 150.79,-66.03 150.28,-268.61 55.13,-339.68l-41.91 33.17 12.39 24.53c32.96,53.97 44.92,117.52 5.85,172.84 -63.33,89.69 -149.56,58.85 -183.43,60.92 -0.78,10.31 -3.55,24.13 -4.11,31.73zm587.83 -218.93l-206.15 1.01c-16.43,-7.25 -5.52,0.54 -13.55,-13.57 -8.44,-14.82 -7.33,-70.84 -68.27,-130.01l-42.33 17.28c8.9,35.08 112.56,156.01 23.11,303.54 -22.29,36.76 -60.08,71.62 -107,92.3 -66.7,29.41 -105.17,21.56 -177.06,14.8l-0.24 46.58 239.22 1.25 73.86 -140.69 217.34 5.54c-8.65,44.39 -46.63,92.27 -56.88,133.67l127.47 -0.1c21.95,-46.11 43.93,-95.29 65.67,-138.51l258.8 2.39c-37.04,-202.3 -231.2,-373.2 -476.31,-364.63 12.05,71.15 27.07,44.9 82.66,68.32 38.09,16.05 61.18,44.13 59.66,100.83z"/>
 </g>
</svg>
