<?xml version="1.0" encoding="UTF-8"?>
<!DOCTYPE svg PUBLIC "-//W3C//DTD SVG 1.1//EN" "http://www.w3.org/Graphics/SVG/1.1/DTD/svg11.dtd">
<!-- Creator: CorelDRAW 2020 (64-Bit) -->
<svg xmlns="http://www.w3.org/2000/svg" xml:space="preserve" width="1in" height="1in" version="1.1" style="shape-rendering:geometricPrecision; text-rendering:geometricPrecision; image-rendering:optimizeQuality; fill-rule:evenodd; clip-rule:evenodd"
viewBox="0 0 1000 1000"
 xmlns:xlink="http://www.w3.org/1999/xlink"
 xmlns:xodm="http://www.corel.com/coreldraw/odm/2003"
 xmlns:dc="http://purl.org/dc/elements/1.1/"
 xmlns:cc="http://creativecommons.org/ns#"
 xmlns:rdf="http://www.w3.org/1999/02/22-rdf-syntax-ns#"
 xmlns:svg="http://www.w3.org/2000/svg"
 xmlns:sodipodi="http://sodipodi.sourceforge.net/DTD/sodipodi-0.dtd"
 xmlns:inkscape="http://www.inkscape.org/namespaces/inkscape"
 inkscape:version="0.48.4 r9939"
 sodipodi:docname="IRI.NAJA.FATA (New).svg">
 <defs>
  <style type="text/css">
   <![CDATA[
    .fil0 {fill:#4D4D4D}
   ]]>
  </style>
 </defs>
 <g id="Layer_x0020_1">
  <metadata id="CorelCorpID_0Corel-Layer"/>
  <sodipodi:namedview id="base" pagecolor="#ffffff" bordercolor="#666666" borderopacity="1.0" inkscape:pageopacity="0.0" inkscape:pageshadow="2" inkscape:zoom="0.175" inkscape:cx="-153.67852" inkscape:cy="901.82896" inkscape:document-units="px" inkscape:current-layer="layer1" showgrid="false" inkscape:window-width="1280" inkscape:window-height="962" inkscape:window-x="-8" inkscape:window-y="-8" inkscape:window-maximized="1"/>
  <g id="_2353683819424">
   <path class="fil0" d="M276.1 678.11c22.85,21.78 28.16,24.84 68.4,24.84l250.64 -0.03c73.43,-0.01 95.68,9.62 133.37,-24.75 -131.09,-3.57 -318.25,-2.29 -452.41,-0.06z"/>
   <path class="fil0" d="M277.6 90.82l449.14 0.35c-24.14,-10.98 -3.26,-25.45 -73.48,-25.49l-308.76 0.04c-36.15,0.02 -48.07,6.76 -66.9,25.1z"/>
   <path class="fil0" d="M685.96 982.67c14.39,-21.79 15.3,-60.48 25.05,-86.53l1.25 86.74 22.64 0.11 -0.09 -121.42 -34.31 0.63c-12,20.22 -13.24,57.85 -25.38,78.09 -22.01,-92.36 -15.44,-79.09 -57.37,-78.06l-0.25 120.72 23.1 -1.76 1.15 -79.68c6.76,9.97 18.82,56.65 21.95,81.54l22.27 -0.39z"/>
   <path class="fil0" d="M520.49 591.62c55.13,0.23 110.32,-0.03 165.47,0.01 27.84,0.02 55.72,-0.17 83.56,-0.01 32.19,0.18 47.15,5.79 54.35,-25.53l-290.97 -0.05c-4.54,6.37 -8.85,14.6 -12.41,25.57z"/>
   <path class="fil0" d="M153.87 257.83l272.46 0.54c8.69,-8.76 12.57,-13.92 17.07,-25.25 -52.91,-1.26 -240.44,-6.8 -280.53,1.87l-9 22.85z"/>
   <polygon class="fil0" points="528.54,202.32 823.93,202.71 809.6,177.39 518.51,177.35 "/>
   <path class="fil0" d="M733.27 647.33c21.99,0.2 29.79,3.29 43.47,-13.11 8.93,-10.71 3.16,-1.99 8.36,-12.15 -46.36,-0.14 -253.88,-6.07 -280.61,2.19l-3.8 23.44 232.58 -0.36z"/>
   <path class="fil0" d="M848.38 258.34l-6.15 -24.59 -292.72 -0.96c11.48,30.87 22.15,25.69 56.51,25.56l242.35 -0.01z"/>
   <path class="fil0" d="M850.43 510.67l-281.84 0.25c-4.78,7.44 -12.66,16.32 -16.45,25.09l289.62 -0.27 8.67 -25.07z"/>
   <path class="fil0" d="M180.1 202.47l285.01 0.26 10.35 -25.06 -239.95 -0.3c-38.37,-0.17 -42.39,-7.88 -55.42,25.11z"/>
   <path class="fil0" d="M505.08 146.94l279.67 0.32c-14.02,-23.78 -16.46,-25.93 -51.5,-25.59 -72.37,0.7 -172.07,-3.11 -237.23,0.66l9.06 24.61z"/>
   <path class="fil0" d="M275.51 888.44c7.48,-9.18 21.91,-10.98 32.61,-3.87 17.73,11.78 -3.83,14.05 32.86,12.07 -7.59,-53.53 -73.82,-41.88 -86.58,-18.19 -25.53,47.42 48.7,49.59 64.2,64.47 0.12,15.17 -7.7,22.59 -24.44,21.25 -17.87,-1.43 -17.58,-9.56 -25.98,-21.68l-20.8 1.57c0.4,52.48 75.58,50.93 92.06,22.85 26.65,-45.41 -31.57,-56.53 -45.51,-60.47 -14.44,-4.08 -17.19,-4.48 -18.43,-18z"/>
   <polygon class="fil0" points="191.67,591.58 473.44,591.19 460.26,566.06 179.29,567.09 "/>
   <path class="fil0" d="M440.26 535.95c-5.38,-11.73 -12.02,-21.2 -23.11,-25.33l-264 0.36 9.14 25.08 277.96 -0.11z"/>
   <path class="fil0" d="M402.89 881.8l64.54 -0.71 -0.05 -19.33 -89.91 0.62 0.13 120.23c16.85,1.06 33.57,0.5 50.44,0.59 44.1,0.24 39.79,3.31 41.73,-7.57 -2.81,-20.44 6.59,-8.5 -12.14,-12.76l-54.73 0.24 0.58 -33.52 59.59 -1.81 0.13 -18.03 -60.36 -0.54 0.04 -27.41z"/>
   <path class="fil0" d="M219.77 621.94c2.34,5.59 0.01,3.29 5.81,11.03 13.23,17.69 18.88,14.7 38.82,14.47l229.57 -0.28 -9.87 -25.26 -264.33 0.04z"/>
   <path class="fil0" d="M218.78 146.3l269.93 0.84 6.71 -25.5 -227.27 0.01c-35.78,-0.37 -34.92,3.02 -49.36,24.66z"/>
   <path class="fil0" d="M653.26 314.03l211.63 -0.06 -3.8 -25.42 -265.7 0.02c17.61,30.59 38.51,25.36 57.87,25.46z"/>
   <path class="fil0" d="M831.26 480.65c31.14,-0.08 29.97,6.39 34.39,-25.39l-197.86 -0.01c-26.35,0.04 -46.19,-6.57 -67.61,25.18l231.08 0.22z"/>
   <path class="fil0" d="M137.55 455.71l5.7 24.81 248.72 0.27c-18.08,-36.34 -68.8,-25.54 -116.48,-25.54 -45.52,0 -92.08,-0.96 -137.94,0.46z"/>
   <path class="fil0" d="M138.53 313.48l213.46 0.72c34.9,-0.02 25.86,-8 45.64,-23.89l-249.29 -1.85c-9.25,6.65 -8.27,12.06 -9.81,25.02z"/>
   <path class="fil0" d="M853.06 936.62c-12.26,10.57 -12.08,30.3 -38.69,23.59 -31.31,-7.89 -30.98,-84.81 12.81,-79.08 30.15,3.95 0.62,22 44.89,15.19 -12.05,-57.04 -106.77,-51.18 -104.07,28.51 2.33,68.8 90.46,81.88 104.78,17.52l-19.71 -5.72z"/>
   <path class="fil0" d="M872.49 369.45l-1.8 -25.2 -204.06 -0.18c33.73,37.38 136.33,24.35 205.85,25.38z"/>
   <path class="fil0" d="M130.99 368.18c31.2,3.76 75.53,1.11 108.17,1.19 44.44,0.11 57.51,-1.72 87.2,-24.95 -29.74,-0.96 -175.36,-4.14 -193.58,2.04l-1.8 21.72z"/>
   <path class="fil0" d="M871.6 401.68c-14.04,-5.03 -135.63,-5.79 -157.72,2.39 -12.15,4.5 -27.29,11.19 -36.25,20.7l193.77 -0.26 0.2 -22.83z"/>
   <polygon class="fil0" points="555.67,882 590.48,880.51 590.24,861.83 494.13,862.73 494.03,881.24 530.04,881.76 529.91,982.86 554.86,982.8 "/>
   <polygon class="fil0" points="188.43,882.04 223.76,880.48 223.59,861.77 127.23,862.67 127.49,881.3 163.04,881.8 163.05,983 187.82,982.63 "/>
   <path class="fil0" d="M376.89 733.33c63.36,32.47 186.52,29.26 250.93,-0.42l-250.93 0.42z"/>
   <path class="fil0" d="M132.88 423.23l181.31 1.85 -16.67 -12.87c-28.13,-13.75 -30.87,-12.93 -61.93,-12.78 -32.38,0.17 -72.14,-2.11 -103.48,0.7l0.77 23.09z"/>
   <path class="fil0" d="M375.67 36.22l252.02 1.03c-52.58,-25.71 -135.49,-28.59 -196.11,-16.94 -16.81,3.23 -47.94,14.91 -55.91,15.91z"/>
  </g>
 </g>
</svg>
