<?xml version="1.0" encoding="UTF-8"?>
<!DOCTYPE svg PUBLIC "-//W3C//DTD SVG 1.1//EN" "http://www.w3.org/Graphics/SVG/1.1/DTD/svg11.dtd">
<!-- Creator: CorelDRAW 2020 (64-Bit) -->
<svg xmlns="http://www.w3.org/2000/svg" xml:space="preserve" width="1in" height="1in" version="1.1" style="shape-rendering:geometricPrecision; text-rendering:geometricPrecision; image-rendering:optimizeQuality; fill-rule:evenodd; clip-rule:evenodd"
viewBox="0 0 1000 1000"
 xmlns:xlink="http://www.w3.org/1999/xlink"
 xmlns:xodm="http://www.corel.com/coreldraw/odm/2003">
 <defs>
  <style type="text/css">
   <![CDATA[
    .fil0 {fill:#4D4D4D}
    .fil3 {fill:#EDF9FE}
    .fil2 {fill:#F6FCFD}
    .fil1 {fill:#FEFEFE}
   ]]>
  </style>
 </defs>
 <g id="Layer_x0020_1">
  <metadata id="CorelCorpID_0Corel-Layer"/>
  <g id="_1857480079440">
   <path class="fil0" d="M508.47 936.45l9.21 -13.59c32.16,-2.15 39.38,3.66 37.32,36.41 -12.81,11.31 -8.8,4.64 -10.11,4.97l-8.56 11.9c-7.96,-0.71 -34.96,1.83 -35.56,-22.43 -0.89,-35.64 1.04,-11.25 7.7,-17.26zm-15.92 -915.79l17.45 0c7.39,2.26 14.35,7.44 19.78,15.55 21.46,-14.37 52.62,-25.46 62.19,10.36 32.6,-21.83 47.96,-11.34 62.19,15.55 31.38,-16.61 41.53,-8.52 57,20.73 36.09,0 51.02,0.28 51.82,36.27 28.66,-13.75 49.34,6.48 51.82,36.28 46.2,1.03 41.46,21.22 41.46,46.64 42.78,0.95 37.67,29.78 39.56,38.97 3.95,19.1 -1.99,2.94 17.74,17.37 24.6,18 12.85,35.62 10.06,47.3 32.44,8.66 34.6,30.79 20.73,57 31.12,16.47 34.16,34.39 15.55,62.19 12.4,8.31 18.5,16.04 20.72,23.23l0 13.59c-2.79,9.66 -10.68,18.09 -15.54,25.37 8.7,5.83 13.44,12.01 15.54,18.17l0 17.24c-3.29,11.17 -11.66,20.98 -15.54,26.78 16.63,24.83 16.26,39.17 -10.37,57 11.02,22.96 15.45,48.73 -15.55,57 0.41,18.41 4.17,19.25 2.48,29.87 -4.1,25.69 -26.06,20.92 -29.8,36.89 -2.02,8.6 5.34,8.58 -3.44,26.44 -7.55,15.35 -9.85,9.74 -19.5,17.18 -19.39,14.95 -5.17,-3.47 -13.33,22.95 -6.73,21.78 -8.86,26.63 -40.04,27.32 -0.77,34.46 -11.54,41.46 -46.64,41.46 -3.02,36.25 -13.84,36.28 -51.82,36.28 -6.61,28.37 -26.56,40.52 -57,25.91 -3.07,36.98 -34.22,32.78 -57,20.73 -25.51,48.2 -36.72,9.16 -66.14,21.55 -9.31,3.92 -16.99,7.93 -23.99,9.54l-11.41 0c-5.77,-1.66 -11.44,-6.28 -17.65,-15.55 -12.72,8.52 -18.31,13.74 -23.81,15.55l-9.7 0c-5.39,-1.33 -12.71,-4.5 -24.72,-9.54 -26.35,-11.07 -41.23,25.53 -66.14,-21.55 -26.26,13.89 -48.97,13.74 -57,-20.73 -30.44,14.61 -50.39,2.46 -57,-25.91 -35.75,0 -49.04,-2.84 -51.82,-36.28 -35.1,0 -45.87,-7 -46.64,-41.46 -15.26,-1.27 -24.4,-3.88 -32.79,-13.85 -13.36,-15.88 -3.1,-4.67 -8.13,-17.78 -9.3,-24.19 7.24,11.23 -2.67,-7.7 -10.07,-19.25 -18.22,-6.65 -29.53,-28.02 -6.47,-12.23 -5.3,-18.88 0.57,-31.11 -32.28,-17.09 -31.09,-14.86 -31.09,-62.19 -14.01,-3.74 -19.76,-5.92 -23.17,-23.37 -3.36,-17.16 3.18,-14.54 7.63,-33.63 -26.63,-17.83 -26.99,-32.17 -10.37,-57 -8.03,-11.99 -16.69,-14.28 -17.95,-31.95 -1.19,-16.65 5.43,-21.85 17.95,-30.23 -12.96,-19.35 -30.14,-38.54 5.19,-62.19 -17.19,-32.48 -16.08,-45.45 15.54,-62.19 -13.87,-26.21 -11.71,-48.34 20.73,-57 -11.01,-47.28 0.32,-34.24 23.07,-54.71 14.74,-13.26 -7.84,-47.77 44.29,-48.93 0,-40.32 8.94,-37.84 27.09,-45.46 26.98,-11.33 23.32,-58.02 66.19,-37.45 3.02,-36.25 13.84,-36.27 51.82,-36.27 15.48,-29.25 25.62,-37.33 57,-20.73 16.47,-31.13 34.39,-34.16 62.19,-15.55 9.57,-35.83 40.72,-24.74 62.19,-10.36 5.42,-8.1 12.39,-13.28 19.78,-15.55zm-44.8 938.24c-0.82,-32.3 4.55,-37.94 37.81,-36.65 11.74,19.07 11.29,18.11 10.89,39.94 -3.52,5.83 8.46,5.28 -14.68,10.84 -5.85,1.4 -23.05,0.89 -29.7,1.09 -3.84,-4.6 -3.14,-10.96 -4.32,-15.22zm-56.72 -29.2c4.85,-15.65 8.59,-16.19 30.19,-16.37 18.11,15.63 21.04,21.98 7.53,43 -10.37,10.08 -21.56,18.66 -37.09,5.92 -9.72,-7.97 -10.5,-22.99 -0.63,-32.56zm175.27 21.4c0.1,-67.48 69.07,-38.09 41.54,7.11 -77.39,-17.67 6.92,-31.97 -41.54,-7.11zm58.81 -18.4c-3.6,-36.26 12.46,-39.06 40.78,-31.09 8.61,18.95 8.58,15.15 4.13,37.98 -35.41,-2.3 -27.37,-8.41 -40.41,-9.31 -10.36,-0.72 3.96,6.71 -4.5,2.42zm-287.93 0c-1.23,0.51 -2.82,17.05 -7.15,-6.29 -1.5,-8.08 -1.17,-11.42 3.64,-18.4 31.14,-45.22 76.83,44.89 21.44,28.48 -11.24,-3.33 -10.72,-6.78 -17.93,-3.8zm342.78 -41.83c5.59,-22.72 23.58,-18.15 43.26,-11.3l3.09 31.41 -13.87 17.39c-9.54,-0.8 -36.2,1.2 -37.84,-22.94 -1.46,-21.54 4.06,-12.42 5.35,-14.56zm-356.56 24.42l-46.39 -4.3 0.95 -31.87 36.78 -5.95c9.5,19.47 14.39,21.43 8.66,42.12zm190.83 -70.93c7.38,13.1 8.61,21 0,35.49 -3.55,-3.76 -6.11,11.31 -7.89,-14.69 -1.91,-27.88 6.7,-19.43 7.89,-20.8zm-25.91 0.53c8.56,8.43 6.63,-17.07 8.62,15.38 1.82,29.78 -8,19.51 -8.62,20.13 -6.33,-13.94 -6.23,-21.45 0,-35.5zm285.58 4.33l6.33 33.5c-21.13,-8.84 -15.8,6.92 -37.91,-6.41 -0.84,0.78 -2.27,1.06 -2.52,2.35 -1.01,5.15 -6.05,2.44 -6.63,2.22 -11.91,-32.87 8.25,-43.57 40.74,-31.66zm-510.21 40.1l-31.51 -13.75c-0.33,-0.1 -1.66,0.08 -1.95,0.01 -0.27,-0.06 -1.54,0.41 -1.77,0.34 -1.65,-0.52 -13.78,-8.65 1.61,-25.19 23.3,-25.03 59.15,7.04 33.63,38.58zm557.59 -77.12l4.33 32.34c-20.14,-8.18 -11.8,10.95 -37.41,-4.11 -7.4,6.77 -0.28,-3.25 -7.26,6.93 -9.72,-35.23 1.57,-49.24 40.34,-35.16zm-642.84 27.22c0.59,-20.26 0.05,-39.07 29.11,-31.9 36.06,8.91 15.41,56.18 -11.4,48.37 -16.59,-4.84 -2.05,0.03 -3.04,-3.59 -0.01,-0.04 15.09,-5.5 -6.64,-14.26 -0.36,-0.15 -1.94,-0.24 -2.28,-0.3 -21.46,-3.72 9.4,19.9 -5.75,1.69zm123.04 -8.98c-5.89,-20.56 -3.91,-38.92 25.91,-37.84 20.24,0.73 34.09,18.56 47.2,29.68 14.46,-14.06 12.5,-41.15 53.19,-31.14 28.11,6.92 31.27,21.54 71,21.88 43.09,0.37 42.96,-11.57 72.19,-20.68 44.38,-13.83 41.83,13.46 56.91,29.83 13.61,-9.73 27.56,-26.67 42.81,-29.04 24.54,-3.83 41.94,11.82 30.11,34.76 -7.6,-10.09 -7.13,-20.39 -23.29,-16.96 -9.1,1.93 -19.57,14.47 -24.9,21.69 -19.98,27.01 -13.38,38.13 -57.22,37.22 -11.95,-12.24 -16.87,-15.82 -22.77,-34.23l29.61 1.72c-0.58,-47.48 -39.07,-32.72 -52.61,-13.29 -13.39,27.46 9.02,47.59 -15.7,61.02l-6.7 -52.91c-77.23,-20.44 -37.81,22.67 -59.61,52.73 -19.46,-16.97 -1.52,-34.42 -13.78,-62.41 -14.5,-19.71 -52.18,-29.72 -53.08,13l29.22 1.92c-8.28,37.78 -46.01,45.2 -67.84,14.33 -10.18,-14.39 -24.93,-50.83 -46.3,-39.84 -11.89,6.11 -2.01,-0.45 -10.08,11.12 -0.67,0.95 -1.65,2.84 -2.17,3.65 -0.54,0.83 -1.27,2.61 -2.1,3.79zm563.88 -27.94c-19.72,-6.38 3.97,1.34 -19.35,-0.06 -12.65,-0.76 -17.48,-4.55 -27.92,-7.38 5.38,-46.61 54.63,-42.19 47.27,7.43zm-728.21 -4.53c-3.39,-52.86 56.82,-44.81 45.41,6.56 -27.22,-0.33 -15.66,-1.06 -35.55,-7.21l-4.58 -0.94c-8.8,-0.82 3.13,9.28 -5.27,1.59zm490.58 -27.62l28.36 -6.13c-4.85,17.22 -5.63,17.3 -19.09,24.26 -7.46,-10.81 -4.17,-5.93 -9.28,-18.13zm-280.05 -4.96l27.28 3.53c-1.9,5.54 -1.44,20.02 -15.92,18.04 -13.31,-1.83 -8.17,-11.11 -11.36,-21.56zm348 11.89c6.23,-13.08 4.95,-12.58 20.57,-16.08 -5.68,12.3 -5.42,14.13 -20.57,16.08zm-87.92 -32.03l5.02 21.3 -31.26 1.3c6.66,-22.81 2.83,-22.03 26.24,-22.6zm-202.35 -1.31c15.15,9.3 11.54,5.65 16.06,23.67l-29.56 -0.49c-0.18,-19.61 -0.28,-15.89 13.5,-23.19zm-118.92 18.04c17.13,1.73 14.93,1.7 22.79,16.12 -20.54,-3.81 -15.96,1.82 -22.79,-16.12zm446.38 8.95c-0.06,-15.77 5,-19.22 15.4,-27.69 12,18.93 0.5,23.71 -15.4,27.69zm-482.62 -25.04c13.18,3.31 4.77,-0.9 13.96,6.53 0.8,0.65 1.98,1.74 2.74,2.48l8.82 12.59c-19.8,5.19 -23.06,1.35 -25.52,-21.61zm602.76 0.27c3.53,-43.28 51.15,-44.53 49.52,7.28 -4.73,-0.08 -37,4.28 -49.52,-7.28zm-124.98 50.33c9.83,-16.78 28,-13.93 61.14,-44.65 11.62,-10.77 8.3,-9.41 22.08,-17 -9.76,28.5 -43.38,67.74 -83.22,61.65zm-535.96 -62.4l37.96 31.87c14.65,11.3 30.12,15.58 44.7,25.75 -0.19,0.16 -0.75,13.74 -27,3.59 -6.73,-2.61 -16.08,-11.06 -21,-15.36 -31.97,-28.02 -25.14,-31.88 -34.67,-45.85zm489.69 33.17c-15.78,-5.24 -11.05,-3.44 -25.6,-15.53 24.77,-32.22 27.69,-29.67 48.8,-25.4 -1.28,20.57 -12.35,22.72 -23.19,40.93zm-115.71 -62.11c7.53,2.18 7.46,-11.03 14.57,11.31 3.96,12.46 -0.41,17.18 -4.21,24.41 -23.43,-4.07 -20.23,-17.2 -10.37,-35.73zm-219.2 46.15c-8.3,6.49 -16.33,11.25 -24.98,15.37 -14.91,-28.38 -36.59,-31.23 -18.9,-40.81 18.05,-9.77 29.39,9.05 43.88,25.44zm90.02 -50.41c11.12,21.06 14.79,35.72 -13.23,41.32 -3.21,-23.67 -5.66,-31.94 13.23,-41.32zm-334.54 52.17c-1.36,-23.04 0.46,-23.26 11.57,-37.57l29.39 3.03c12.09,28.18 10.22,46.67 -27.55,46.88l13.11 -5.5c-20.86,-8.08 -17.42,-5.1 -19.94,-30.28l-6.59 23.44zm619.18 -7.32c-10.43,-17.43 0.66,-29.62 17.87,-27.89 -0.26,24.21 0.71,24.89 -17.87,27.89zm-99.46 -45.2l-8.44 32.26 -19.63 -8.77c9.52,-14.65 9.53,-21.33 28.07,-23.49zm-238.6 35.37l-3.71 -34.57c20.49,0.47 21.16,6.04 27.27,26.02 -9.35,2.41 -15.87,5.23 -23.56,8.55zm-118.91 -21.64c17.97,7.13 20.88,9.31 21.86,31.54 -28.39,-1.05 -20.83,-10.01 -21.86,-31.54zm368.15 26.68c2.21,-19.51 18.87,-41.48 27.25,-46.66 36.7,-22.72 10.3,40.99 -27.25,46.66zm-262.07 0c-22.36,-2.84 -18.31,-3.61 -29.82,-18.08 -5.56,-6.99 -22.07,-20.74 -13.46,-29.28 16.28,-16.14 41.07,30.57 43.28,47.36zm-92.57 -56.9c16.44,3.47 8.94,-2.21 20.39,8.62 10.75,10.17 4.92,3.27 8.76,16.86l-23.53 -0.59 -5.62 -24.89zm603.7 5.11c16.83,-70.89 86.85,17.43 26.29,13.78 -17.96,-1.08 -20.79,-7.41 -26.29,-13.78zm-185.14 19.72c3.46,-12.02 -2.35,-4.61 8.37,-15.67 9.24,-9.53 4.77,-8.19 19.63,-7.24 0.26,22.1 -3.63,24.82 -27.99,22.91zm-626.14 -19.72c16.88,-58.63 69.34,-5.44 44.91,15.55 -13.66,11.73 -33.46,-15 -40.56,-16.83 -12.65,-3.28 3.5,15.39 -4.35,1.29zm565.46 12.87l-11.68 -17.83c9.59,-10.31 13.32,-18.37 33.52,-18.86 1.7,17.74 -7.58,23.55 -21.85,36.69zm-292.96 -38.43c23.04,3.15 24.4,7.69 36.24,19.32 -3.25,4.4 -0.47,2.43 -7.07,9.57 -4.4,4.76 -5.29,5.12 -9.79,9.2 -10.75,-23.62 -17.31,-11.21 -19.38,-38.09zm341.61 24.87c-10.74,-11.33 -3.93,-2.45 -9.35,-16.24 20.1,-13.43 20.83,-18.04 36.26,-8.98 -4.13,10.61 2.07,8.42 -26.91,25.22zm-88.45 15.22c-1.11,-1.05 -6.8,-5.74 -9.78,-8.66l-11.24 -12.77c20.17,-11.39 14.58,-19.3 44.69,-19.31 -8.02,26.3 -13.87,12.13 -23.66,40.74zm-211.72 -41.52c28.28,0.67 26.82,7.67 41.99,21.8 -9.17,13.22 -5.18,3.65 -15.81,18.36 -26.04,-21.37 -23.34,-29.69 -26.18,-40.15zm-91.95 1.07c1.44,-0.82 15.46,-13.82 29.89,5.64 12.05,16.25 2,10.64 1.84,11.61 -1.22,0.6 -3.09,0.33 -3.7,1.72 -0.57,1.31 -2.9,1.19 -3.69,1.15 -26.14,-1.39 -20.34,-14.05 -24.34,-20.13zm472.07 91.36c-7.26,-27.69 19.14,-29.02 64.37,-87.24l12.75 -14.36c-8.76,34.1 -57.15,90.97 -77.12,101.6zm-603.23 -102.7l19.71 23.15c43.54,59.23 62.43,46.06 58.46,80.46 -29.5,-16.19 -59.31,-63.92 -78.17,-103.61zm460.8 -10.33l32.05 -7.43c-7.59,23.93 -19.95,37.38 -32.05,7.43zm-273.81 -5.46l32.77 4.02c-10.56,25.17 3.77,-2.18 -4.1,9.5 -6.54,9.71 -4.67,6.22 -7.83,9.81 -24.1,-15.96 -15.63,-17.25 -20.84,-23.33zm399.55 88.9c4.76,-28.66 35.63,-35.46 64.91,-68.87 5.06,-5.77 4.98,-6.98 8.7,-11.63l16.05 -14.8c-9.32,24.22 -63.74,93.57 -89.66,95.3zm-83.35 -77.31c9.8,-11.53 12.04,-13.02 30.69,-16.46 -2.79,12.98 2.15,10.49 -12.03,20.27 -11.59,8 -9.1,4.85 -18.66,-3.81zm-356.4 -15.04c14.38,0.32 3.19,-3.49 16.52,2.61 0.99,0.45 2.37,1.24 3.32,1.8l10.85 10.63c-22.42,19.47 -26.91,-8.21 -30.69,-15.04zm599.1 -17.76c33.3,-14.27 51.21,-4.76 43.56,35.98 -25.61,-2.26 -22.06,-4.57 -43.44,-12.5 -1.62,-0.6 -4.91,-2.89 -0.12,-23.48zm-746.76 7.01c26.88,21.19 19.67,28.12 47.71,51.83 16.52,13.96 43.06,24.19 47.24,52.07 -18.23,-3.65 -40.58,-30.24 -54.74,-44.29 -16.24,-16.11 -28.06,-34.85 -40.21,-59.61zm-109.44 18.85c-5.31,-85.72 110.91,15.06 12.59,16.15l19.97 -5.74c-22.39,-5.72 -20.1,-3.87 -27.59,-22.99l-4.96 12.57zm-13.09 -75.98c15.69,-22.83 25.22,-18.05 45.53,-5.15 9.05,56.9 -36.76,30.64 -45.53,5.15zm926.48 -5.15c7.73,38.83 -17.61,53.61 -39.88,30.01 22.28,12.44 27.05,1.4 27.79,1.02 -23.03,-3.44 -22.02,-5.8 -32.5,-24.28 14.46,-25.2 23.11,-20.37 44.59,-6.75zm-827.52 -19.02c22.17,32.62 35.62,57.45 58.51,84.08 12.76,14.84 23.44,21.71 38.49,34.02 18.58,15.21 31.46,15.83 31.54,40.12 -39.59,-11.48 -125.27,-103.94 -128.54,-158.22zm598.88 155.83c7.51,-37.08 34.06,-24.85 76.56,-76.94 9.81,-12.03 53.77,-69.97 56.41,-88.05 -0.69,33.76 -30.2,76.13 -46.54,97.85 -12.63,16.78 -57.62,64.49 -86.43,67.13zm-596.01 -184.43l16.71 22.04c47.56,81.88 118.7,104.75 122.49,132.38 -42.21,5.2 -129.74,-105.32 -139.2,-154.42zm-108.31 -4.32c13.76,-22.28 19.67,-20.7 44.03,-11.98 6.23,20.06 9.15,25.04 -4.92,38.93 -9.14,14.17 14.24,0.81 -9.01,8.04 -17.68,5.5 -29.66,-11.81 -36.15,-24.54l6.05 -10.45zm694.39 162.22c3.61,-34.24 32.14,-29.59 75.59,-77.03 26.17,-28.56 40.02,-55.18 64.44,-89.82 -8.58,58.96 -92.76,155.37 -140.03,166.85zm200.79 -141.83c-5.28,-70.88 76.3,-29.98 33.28,9.06 -18.98,-5.82 -22.03,-5.84 -28.01,-28.93l-5.26 19.87zm-701.21 -107.03l19.35 -1.6 57.02 0.27 19.38 1.02 -0.02 81.04 -95.8 1.32 0.07 -82.04zm482.66 219.37c-0.22,-23.61 24.17,-26.65 43.88,-39.91 40.28,-27.1 85.37,-67.46 103.05,-114.6l12.18 -35.69c-0.68,50.23 -34.58,93.06 -57.61,119.83 -17.48,20.33 -70.62,71.14 -101.49,70.37zm-572.68 -195.48c6.34,11.63 1.42,0.5 5.79,15.8 2.23,7.82 1.98,9.29 4.4,16.73 19.39,59.74 76.86,109.45 131.37,138.08 15.45,8.11 18.26,7.11 18.74,25.96 -35.31,-2.56 -87.15,-53.16 -101.99,-72.18 -25.05,-32.09 -57.52,-66.33 -58.31,-124.38zm793.11 -6.43c13.8,-9.9 38.55,-11.72 41.99,12.98 3.76,27 -17.16,26.12 -34.56,30.35 -3.79,-1.33 -12.76,-1.24 -17.47,-5.19 0.2,-3.08 -0.2,-18.3 0.19,-21.24 2.18,-16.12 1.11,-10.24 9.85,-16.9zm-254.35 -119.51l22.19 0 0 148.04 -22.27 0 0.08 -148.04zm-639.43 123.71c27.96,-30.73 61.39,-1.74 39,33.42 -10.23,-3 -16.79,-2.62 -25.91,-10.13 -3.04,-2.51 -7.38,-8.41 -8.91,-11.08 -3.39,-5.92 -1.43,-4.24 -4.19,-12.21zm771.07 -28.92c11.74,-14.85 12.87,-15.46 36.29,-14.6 51.39,72.96 -49.43,160.78 -89.28,186.42 -42.87,27.58 -62.4,23.91 -110,40.34 -33.74,11.64 -74.37,40.03 -85.63,70.41 -11.31,30.5 -2.54,33.44 1.64,58.42 11.09,66.26 -83.36,-31.1 6.89,-117.88 81.94,-78.79 158.79,-43.74 193.1,-112.22 43.58,0.11 49.78,-4.13 68.07,-30.69 16.17,-23.48 22.44,-41.81 13.21,-74.03 -36.27,-10.46 -22.62,11.17 -34.29,-6.17zm-77.73 -14.85c12.31,-9.84 13.76,-5.91 50.37,-5.91l0.05 110.28 -75.11 0c2.67,-31.86 13.94,-18.37 50.59,-21.43l0 -67.43c-30.16,-0.35 -22.93,5.04 -25.91,-15.52zm-146.43 -5.91l22.92 0 0 22.19 -23.03 0 0.11 -22.19zm-45.52 1.3l23.63 -0.82 -0.01 20.41 -23.79 0.82 0.17 -20.41zm-290.21 129.01c11.69,33.87 35.56,41.05 75.2,53.22 59.94,18.4 127.06,43.32 148.89,110.3 8.07,24.75 11.8,82.94 -21.86,89 -18.47,-26.37 30.78,-65 -34.7,-120.71 -62.11,-52.84 -141.62,-18.19 -228.54,-129.1 -26.36,-33.64 -59.3,-82.89 -23.32,-126.43 26.14,-1.89 24.41,-2.38 35.18,14.87 -11.73,8.49 7.78,0.08 -8.33,1.53 -36.46,3.28 -38.87,26.59 -22.24,61.47 15.53,32.56 32.85,49.97 79.72,45.86zm-200.44 -112.7l0.06 -33.54 35.57 -6.16c6.11,13.38 13.98,18.38 10,30.82 -5.58,17.48 -24.87,19.41 -39.9,-6.49l-5.73 15.37zm871.28 -33.74c15.57,-5.3 23.44,-5.26 39.28,0 4.88,13.42 12.9,45.79 -14,39.94 -27.54,-5.98 -24.37,-25.92 -25.28,-39.94zm-483.09 102.96l53.97 2.48c-0.02,-20.31 -3.8,-38.3 5.9,-50.95 26.95,2.27 15.79,0.96 17.57,29.74 1.62,26.09 -5.17,21.3 25.25,22.07 0,-39.7 -11.84,-49.54 24.51,-50.22l0 50.22 20.84 0 0.97 -51.84 22.53 0.67 1.14 51.17c31.48,-1.52 21.19,7.17 21.19,-90.19l23.64 0 0.03 110.28 -305.37 0 -3.32 -184.31 23.67 0 0.22 97.6 43.32 2.68 1.06 -61.76c116.91,-4.11 99.35,-5.28 100.5,22.92 -101.47,0 -78.51,-11.55 -77.63,99.43zm215.3 -106.11l-22.8 0c1.84,-14.33 -7.91,-17.55 12,-17.18 17.67,0.33 9.36,2.92 10.81,17.18zm-93.97 -16.24l22.19 0 0 16.24 -22.19 0 0 -16.24zm381 0.58c-3.48,5.31 13.36,11.45 -17.24,10.79 -34,-0.74 -12.76,-3.69 -20.07,-11.49 -19.47,-69 71.28,-46.07 37.31,0.7zm-877.24 -16.15c6.83,-42.54 66.22,-33.49 45.22,14.94l-36.71 -11.94c-14.06,-5.72 0.46,10.97 -8.51,-2.99zm27.96 -45.02l0.54 -29.33c21.86,-9.6 23,-9.31 44.11,0.09 6.76,27.32 -1.05,41.76 -32.61,42.48l11.75 -4.19c1.22,-0.48 3.03,-1.15 4.28,-1.65 1.28,-0.52 3.22,-1.44 4.31,-1.89 1.13,-0.47 3.01,-1.21 4.44,-1.98 -23.52,-1.82 -22.26,0.64 -31.62,-18.09l-5.19 14.56zm790 -26.28c32.3,-38.43 74.92,41.94 4.82,39.52l18.36 -9.53c-12.28,-4.06 -13.59,-2.89 -20.6,-13.91 -3.88,-6.09 -2.08,-14.43 -2.58,-16.08zm-740.74 -21.83l-5.18 8.87c-32.03,-35 -0.28,-49.02 15.48,-47.36 30.03,3.17 31.15,60.2 -10.3,38.49zm699.93 -10.52c1.8,-12.95 4.57,-16.79 10.41,-24.9l30.29 -1.54c9.92,16.26 12.74,21.35 4.69,41.08 -23.48,-2.88 -21.18,2.98 -35.79,-14.65 -20.87,-4.66 17.9,0.97 -4.56,0.81 -9.14,-0.07 5.09,15.24 -5.03,-0.81zm-36.38 -52.89c5.36,-24.81 19.41,-23.16 42.91,-16.19 4.44,11.67 7.55,21.99 -0.06,36.81 -10.58,11.69 12.17,3.3 -13.68,11.18 -8.13,2.48 -13.28,0.94 -19.37,-3.02 -13.02,-8.46 -15.85,-17.48 -9.8,-28.78zm-599.33 -16.19c4.82,13.45 6.51,18.43 0.73,35.56 -45.11,13.22 -67.21,-56.55 -0.73,-35.56zm557.41 -33.55c31.33,-31.55 65.44,11.39 34.14,35.8 -5.37,4.47 11.52,7.95 -18.15,7.12 -13.34,-0.37 -23.62,-10.48 -23.59,-23.22 0.06,-29.54 2.69,-12.43 7.6,-19.7zm-91.75 5.2l25.31 -2.16c-0.62,27.45 5.43,25.5 -24.92,20.4l-0.39 -18.24zm-39.8 -1.77l23.67 0 0 22.19 -23.56 0 -0.11 -22.19zm-426.87 11.09l6.52 -22.14c73.73,-19.32 45.74,79.17 2.34,22.14 -5.19,-3.19 -1.27,15.16 -8.86,0zm288.24 -36.46l27.11 -0.08 -0.96 21.04 -22.2 3.3 -3.96 -24.25zm-87.89 0.22c56.28,1.02 0.05,53.21 87.12,75.99l2.1 -35.28c38.04,0.31 20.71,-1.86 27.83,34.68 77.16,-11.48 34.56,-73.96 86.65,-75.39 -2.6,78.25 -55.07,87.63 -87.39,103.61l-1.91 32.45 46.25 -0.53 0.78 -40.94 62.13 0.02 2.57 38.51c11.86,4.63 14.24,2.48 31.59,1.01 -0.11,-10.22 -1.67,-34.64 -0.92,-41.61 2.97,-27.53 -4.9,-19.37 24.49,-19.97l-0.45 86.71c-17.03,-0 -39.31,-2.81 -55.11,2.78l-1.06 33.52 -61.91 1.12 -1.63 -37.43 -46.06 -0.01 -0.35 37.61 -26.04 0 0.19 -37.61 -56.31 0.46 0.01 54.22 -46.02 -0.06c2.99,-6.63 22.07,-8.47 24.59,-16.98l0.51 -60.83 78.48 0.01 -2 -32.48c-34.58,-16.15 -85.63,-27.37 -88.12,-103.58zm346.01 -18.84c8.71,13.7 9.79,25.01 3.68,41.3l-14.63 -6.1c-21.76,-7.89 -13.7,-9.8 -25.23,-7.05l-3.2 1.02c-4.72,-26.58 4.4,-40.95 39.39,-29.18zm-495.14 34.63l1.24 -34.28c36.41,-9.88 61.72,7 36.32,40.9l1.36 -6.62c-30.58,-1.14 -22.05,-9.17 -32.93,-5.94 -7.12,2.12 9.76,0.53 -5.98,5.94zm54.91 -59.89c9.32,-3.95 24.85,-10.85 37.45,-2.3 10.81,7.33 13.67,23.79 5.84,35.66 -16.87,25.56 -53.44,9.95 -43.3,-33.35zm349.64 2.75c47.81,-32.57 71.69,41.47 9.33,40.56l19.51 -7.08c-27.62,-9.4 -19.18,-14.24 -28.84,-33.48zm-294.65 9.13c-3.23,-40.46 24.01,-50.99 43.57,-28.05 19.42,22.77 -4.39,40.35 -34.48,36.21l28.14 -6.25c-22.61,-1.31 -18.93,2.48 -31.69,-13.99l-5.54 12.07zm236.59 3.14c-1.45,-37.83 10.11,-46.35 43.79,-35.54 14.7,53.13 -29.64,56.09 -33.96,8.11l-9.82 27.43zm-57.58 -10.63c-4.67,-23.55 6.25,-58.19 36.69,-37.97 26.46,17.58 12.04,44.91 -26.63,43.43l17.42 -5.72c-20.62,-7.8 -14.58,-2.97 -21.15,-22.91l-5.34 19.96c-0.1,-0.69 -0.46,2.22 -0.98,3.21zm-122 -7.48c-0.96,-36.46 19.73,-46.06 49.91,-20.84l-0.01 22.68c-13.57,10.17 -15.48,12.56 -36.83,11.5l23.4 -6.4c-24.82,-2.98 -20.6,0.3 -30.57,-19.83l-5.9 12.89zm61.11 0.8c-11.04,-94.78 111.42,7.26 10.44,8.95l16.93 -8c-14.49,-7.2 -13.71,-5.29 -18.88,-21.91l-8.49 20.96z"/>
   <path class="fil1" d="M583.71 279.76l20.1 -6.5 0.2 18.57c-32.7,-2.89 -14.22,-2.97 -20.31,-12.06zm20.31 -48.34c-2.35,17.89 0.87,27.24 -20.31,12.06 6.09,-9.09 -12.39,-9.17 20.31,-12.06zm-117.41 -41.46c-87.07,-22.78 -30.84,-74.97 -87.12,-75.99 2.49,76.21 53.54,87.44 88.12,103.58l2 32.48 -78.48 -0.01 -0.51 60.83c-2.53,8.51 -21.6,10.35 -24.59,16.98l46.02 0.06 -0.01 -54.22 56.31 -0.46 -0.19 37.61 26.04 0 0.35 -37.61 46.06 0.01 1.63 37.43 61.91 -1.12 1.06 -33.52c15.8,-5.59 38.08,-2.78 55.11,-2.78l0.45 -86.71c-29.39,0.6 -21.52,-7.56 -24.49,19.97 -0.75,6.97 0.81,31.39 0.92,41.61 -17.35,1.48 -19.73,3.63 -31.59,-1.01l-2.57 -38.51 -62.13 -0.02 -0.78 40.94 -46.25 0.53 1.91 -32.45c32.31,-15.98 84.79,-25.36 87.39,-103.61 -52.09,1.43 -9.5,63.91 -86.65,75.39 -7.12,-36.54 10.2,-34.37 -27.83,-34.68l-2.1 35.28z"/>
   <path class="fil1" d="M366.1 440.39l44.52 -1.35 0 44.19 -26.03 0.59 -18.43 -3.52 -0.07 -39.91zm67.53 39.49c-0.88,-110.98 -23.84,-99.43 77.63,-99.43 -1.15,-28.19 16.41,-27.03 -100.5,-22.92l-1.06 61.76 -43.32 -2.68 -0.22 -97.6 -23.67 0 3.32 184.31 305.37 0 -0.03 -110.28 -23.64 0c0,97.36 10.29,88.67 -21.19,90.19l-1.14 -51.17 -22.53 -0.67 -0.97 51.84 -20.84 0 0 -50.22c-36.35,0.68 -24.51,10.52 -24.51,50.22 -30.42,-0.78 -23.63,4.02 -25.25,-22.07 -1.78,-28.78 9.38,-27.47 -17.57,-29.74 -9.7,12.65 -5.91,30.63 -5.9,50.95l-53.97 -2.48z"/>
   <path class="fil1" d="M245.89 523.35c-46.87,4.11 -64.19,-13.3 -79.72,-45.86 -16.64,-34.87 -14.23,-58.19 22.24,-61.47 16.11,-1.45 -3.41,6.96 8.33,-1.53 -10.78,-17.24 -9.04,-16.75 -35.18,-14.87 -35.97,43.54 -3.04,92.79 23.32,126.43 86.92,110.92 166.43,76.26 228.54,129.1 65.48,55.72 16.24,94.34 34.7,120.71 33.66,-6.06 29.93,-64.26 21.86,-89 -21.83,-66.98 -88.95,-91.9 -148.89,-110.3 -39.63,-12.17 -63.51,-19.35 -75.2,-53.22z"/>
   <path class="fil1" d="M642.79 625.96c47.6,-16.43 67.13,-12.76 110,-40.34 39.85,-25.64 140.67,-113.46 89.28,-186.42 -23.42,-0.86 -24.55,-0.25 -36.29,14.6 11.67,17.34 -1.98,-4.28 34.29,6.17 9.23,32.22 2.96,50.55 -13.21,74.03 -18.29,26.55 -24.5,30.8 -68.07,30.69 -34.31,68.48 -111.16,33.44 -193.1,112.22 -90.25,86.78 4.2,184.14 -6.89,117.88 -4.18,-24.98 -12.94,-27.92 -1.64,-58.42 11.26,-30.38 51.89,-58.77 85.63,-70.41z"/>
   <path class="fil1" d="M467.59 884.87c21.81,-30.06 -17.61,-73.18 59.61,-52.73l6.7 52.91c24.72,-13.43 2.31,-33.57 15.7,-61.02 13.53,-19.43 52.03,-34.19 52.61,13.29l-29.61 -1.72c5.9,18.41 10.82,21.99 22.77,34.23 43.84,0.91 37.24,-10.21 57.22,-37.22 5.33,-7.21 15.8,-19.75 24.9,-21.69 16.16,-3.43 15.69,6.87 23.29,16.96 11.83,-22.94 -5.57,-38.58 -30.11,-34.76 -15.26,2.37 -29.2,19.31 -42.81,29.04 -15.08,-16.37 -12.53,-43.66 -56.91,-29.83 -29.22,9.11 -29.1,21.04 -72.19,20.68 -39.72,-0.34 -42.89,-14.96 -71,-21.88 -40.7,-10.01 -38.73,17.08 -53.19,31.14 -13.11,-11.13 -26.95,-28.95 -47.2,-29.68 -29.81,-1.07 -31.8,17.28 -25.91,37.84 0.83,-1.18 1.57,-2.96 2.1,-3.79 0.52,-0.81 1.5,-2.7 2.17,-3.65 8.07,-11.57 -1.81,-5.01 10.08,-11.12 21.37,-10.98 36.12,25.45 46.3,39.84 21.83,30.87 59.56,23.45 67.84,-14.33l-29.22 -1.92c0.9,-42.72 38.57,-32.71 53.08,-13 12.25,27.98 -5.69,45.44 13.78,62.41z"/>
   <path class="fil1" d="M252.21 441.45l44.4 -1.07 0.18 25.95 -1.1 20.33 -43.16 -2.68 -0.32 -42.53zm-26.89 61.64l95.8 -1.32 0.02 -81.04 -19.38 -1.02 -57.02 -0.27 -19.35 1.6 -0.07 82.04z"/>
   <path class="fil1" d="M778.43 393.04c-36.61,0 -38.06,-3.93 -50.37,5.91 2.98,20.56 -4.25,15.17 25.91,15.52l0 67.43c-36.66,3.05 -47.93,-10.43 -50.59,21.43l75.11 0 -0.05 -110.28z"/>
   <polygon class="fil1" points="674.06,467.04 696.33,467.04 696.33,319 674.14,319 "/>
   <path class="fil1" d="M145.57 477.46c-2.41,-7.44 -2.17,-8.91 -4.4,-16.73 -4.37,-15.3 0.56,-4.16 -5.79,-15.8 0.79,58.05 33.26,92.29 58.31,124.38 14.84,19.02 66.68,69.62 101.99,72.18 -0.48,-18.85 -3.29,-17.84 -18.74,-25.96 -54.51,-28.63 -111.99,-78.34 -131.37,-138.08z"/>
   <path class="fil1" d="M725.82 669.91c47.27,-11.48 131.45,-107.89 140.03,-166.85 -24.42,34.65 -38.27,61.26 -64.44,89.82 -43.46,47.43 -71.98,42.79 -75.59,77.03z"/>
   <path class="fil1" d="M708.06 640.41c30.87,0.77 84.01,-50.04 101.49,-70.37 23.03,-26.78 56.93,-69.6 57.61,-119.83l-12.18 35.69c-17.68,47.14 -62.77,87.5 -103.05,114.6 -19.7,13.26 -44.1,16.29 -43.88,39.91z"/>
   <path class="fil1" d="M156.45 534.05l-16.71 -22.04c9.46,49.1 96.99,159.62 139.2,154.42 -3.79,-27.63 -74.93,-50.5 -122.49,-132.38z"/>
   <path class="fil2" d="M735.75 696.43c28.81,-2.64 73.8,-50.35 86.43,-67.13 16.35,-21.72 45.85,-64.09 46.54,-97.85 -2.64,18.08 -46.6,76.02 -56.41,88.05 -42.5,52.09 -69.05,39.85 -76.56,76.94z"/>
   <path class="fil1" d="M195.38 624.68c-22.89,-26.63 -36.34,-51.46 -58.51,-84.08 3.28,54.29 88.95,146.75 128.54,158.22 -0.09,-24.3 -12.96,-24.91 -31.54,-40.12 -15.05,-12.31 -25.73,-19.18 -38.49,-34.02z"/>
   <path class="fil3" d="M305.27 69.86c-10.15,43.31 26.43,58.92 43.3,33.35 7.83,-11.87 4.97,-28.33 -5.84,-35.66 -12.6,-8.54 -28.13,-1.65 -37.45,2.3z"/>
   <polygon class="fil0" points="252.53,483.98 295.69,486.65 296.79,466.33 296.61,440.38 252.21,441.45 "/>
   <polygon class="fil0" points="366.17,480.3 384.59,483.81 410.62,483.23 410.62,439.04 366.1,440.39 "/>
   <path class="fil2" d="M135.94 248.82c41.44,21.71 40.33,-35.32 10.3,-38.49 -15.76,-1.66 -47.51,12.35 -15.48,47.36l5.18 -8.87z"/>
   <path class="fil2" d="M55.95 628.18c7.5,19.11 5.2,17.27 27.59,22.99l-19.97 5.74c98.33,-1.1 -17.9,-101.87 -12.59,-16.15l4.96 -12.57z"/>
   <path class="fil2" d="M186.47 838.04c21.73,8.76 6.63,14.22 6.64,14.26 0.99,3.62 -13.56,-1.25 3.04,3.59 26.81,7.81 47.46,-39.46 11.4,-48.37 -29.07,-7.18 -28.52,11.64 -29.11,31.9 15.15,18.21 -15.71,-5.41 5.75,-1.69 0.35,0.06 1.92,0.15 2.28,0.3z"/>
   <path class="fil2" d="M337.17 932.7c7.21,-2.98 6.69,0.47 17.93,3.8 55.39,16.4 9.7,-73.71 -21.44,-28.48 -4.81,6.98 -5.14,10.32 -3.64,18.4 4.33,23.34 5.92,6.8 7.15,6.29z"/>
   <path class="fil2" d="M539.26 74.24c0.52,-0.99 0.88,-3.89 0.98,-3.21l5.34 -19.96c6.57,19.94 0.54,15.11 21.15,22.91l-17.42 5.72c38.67,1.48 53.09,-25.85 26.63,-43.43 -30.44,-20.22 -41.37,14.42 -36.69,37.97z"/>
   <path class="fil2" d="M360.26 81.74l5.54 -12.07c12.76,16.47 9.07,12.68 31.69,13.99l-28.14 6.25c30.09,4.13 53.91,-13.44 34.48,-36.21 -19.57,-22.94 -46.8,-12.41 -43.57,28.05z"/>
   <path class="fil2" d="M108.92 729.61c2.52,25.18 -0.93,22.2 19.94,30.28l-13.11 5.5c37.78,-0.22 39.65,-18.7 27.55,-46.88l-29.39 -3.03c-11.11,14.3 -12.94,14.52 -11.57,37.57l6.59 -23.44z"/>
   <path class="fil1" d="M323.4 915.3c5.74,-20.69 0.84,-22.65 -8.66,-42.12l-36.78 5.95 -0.95 31.87 46.39 4.3z"/>
   <path class="fil1" d="M566.3 951.1c48.45,-24.86 -35.85,-10.56 41.54,7.11 27.53,-45.2 -41.43,-74.59 -41.54,-7.11z"/>
   <path class="fil1" d="M417.26 66.76l5.9 -12.89c9.97,20.13 5.75,16.85 30.57,19.83l-23.4 6.4c21.35,1.05 23.26,-1.33 36.83,-11.5l0.01 -22.68c-30.19,-25.21 -50.87,-15.61 -49.91,20.84z"/>
   <path class="fil1" d="M230.06 850.74c-15.38,16.53 -3.25,24.67 -1.61,25.19 0.23,0.07 1.5,-0.4 1.77,-0.34 0.29,0.07 1.62,-0.11 1.95,-0.01l31.51 13.75c25.52,-31.55 -10.33,-63.61 -33.63,-38.58z"/>
   <path class="fil2" d="M478.37 67.57l8.49 -20.96c5.17,16.62 4.39,14.71 18.88,21.91l-16.93 8c100.98,-1.69 -21.48,-103.73 -10.44,-8.95z"/>
   <path class="fil1" d="M952.3 590.65c-0.74,0.38 -5.51,11.43 -27.79,-1.02 22.27,23.59 47.61,8.81 39.88,-30.01 -21.48,-13.61 -30.13,-18.45 -44.59,6.75 10.48,18.48 9.47,20.84 32.5,24.28z"/>
   <path class="fil1" d="M199.15 150.21c7.59,15.16 3.67,-3.19 8.86,0 43.4,57.02 71.39,-41.46 -2.34,-22.14l-6.52 22.14z"/>
   <path class="fil1" d="M956 376.92c-15.84,-5.26 -23.71,-5.3 -39.28,0 0.91,14.03 -2.26,33.96 25.28,39.94 26.91,5.85 18.88,-26.52 14,-39.94z"/>
   <path class="fil1" d="M625.11 932.7c8.45,4.3 -5.87,-3.13 4.5,-2.42 13.05,0.9 5,7 40.41,9.31 4.45,-22.83 4.48,-19.03 -4.13,-37.98 -28.32,-7.97 -44.38,-5.17 -40.78,31.09z"/>
   <path class="fil1" d="M119.05 302.44c-1.09,0.45 -3.04,1.38 -4.31,1.89 -1.24,0.5 -3.05,1.17 -4.28,1.65l-11.75 4.19c31.56,-0.72 39.38,-15.16 32.61,-42.48 -21.1,-9.41 -22.25,-9.7 -44.11,-0.09l-0.54 29.33 5.19 -14.56c9.35,18.73 8.1,16.27 31.62,18.09 -1.43,0.76 -3.31,1.51 -4.44,1.98z"/>
   <path class="fil1" d="M907.19 614.89c-4.79,20.59 -1.5,22.88 0.12,23.48 21.37,7.93 17.83,10.24 43.44,12.5 7.65,-40.74 -10.25,-50.25 -43.56,-35.98z"/>
   <path class="fil2" d="M709.31 123.28c11.53,-2.75 3.48,-0.84 25.23,7.05l14.63 6.1c6.11,-16.29 5.03,-27.59 -3.68,-41.3 -34.99,-11.78 -44.11,2.6 -39.39,29.18l3.2 -1.02z"/>
   <path class="fil1" d="M881.75 689.15c5.5,6.38 8.32,12.7 26.29,13.78 60.56,3.64 -9.46,-84.68 -26.29,-13.78z"/>
   <path class="fil1" d="M845.46 238.31c14.61,17.63 12.31,11.77 35.79,14.65 8.06,-19.74 5.24,-24.82 -4.69,-41.08l-30.29 1.54c-5.83,8.11 -8.61,11.95 -10.41,24.9 10.13,16.05 -4.11,0.74 5.03,0.81 22.46,0.17 -16.31,-5.47 4.56,-0.81z"/>
   <path class="fil1" d="M780.93 847.37c6.97,-10.19 -0.15,-0.16 7.26,-6.93 25.61,15.07 17.27,-4.07 37.41,4.11l-4.33 -32.34c-38.77,-14.08 -50.06,-0.07 -40.34,35.16z"/>
   <path class="fil1" d="M137.14 797.97c8.4,7.69 -3.53,-2.41 5.27,-1.59l4.58 0.94c19.89,6.16 8.33,6.88 35.55,7.21 11.42,-51.38 -48.79,-59.42 -45.41,-6.56z"/>
   <path class="fil1" d="M200.15 169.23c-66.48,-20.99 -44.38,48.78 0.73,35.56 5.78,-17.14 4.09,-22.11 -0.73,-35.56z"/>
   <path class="fil1" d="M853.01 746.15c12.52,11.56 44.79,7.2 49.52,7.28 1.63,-51.81 -45.99,-50.56 -49.52,-7.28z"/>
   <path class="fil1" d="M739.79 878.66c0.25,-1.28 1.68,-1.57 2.52,-2.35 22.1,13.33 16.78,-2.43 37.91,6.41l-6.33 -33.5c-32.49,-11.91 -52.65,-1.22 -40.74,31.66 0.59,0.21 5.63,2.92 6.63,-2.22z"/>
   <path class="fil1" d="M596.84 84.87l9.82 -27.43c4.33,47.98 48.66,45.02 33.96,-8.11 -33.68,-10.8 -45.24,-2.28 -43.79,35.54z"/>
   <path class="fil1" d="M47.81 466.01c9.12,7.51 15.68,7.13 25.91,10.13 22.39,-35.17 -11.04,-64.15 -39,-33.42 2.76,7.97 0.8,6.29 4.19,12.21 1.53,2.67 5.86,8.57 8.91,11.08z"/>
   <path class="fil1" d="M70.46 689.15c7.85,14.1 -8.3,-4.57 4.35,-1.29 7.1,1.84 26.9,28.56 40.56,16.83 24.43,-20.99 -28.03,-74.18 -44.91,-15.55z"/>
   <path class="fil1" d="M931.87 508.21c5.98,23.09 9.03,23.11 28.01,28.93 43.02,-39.05 -38.56,-79.94 -33.28,-9.06l5.26 -19.87z"/>
   <path class="fil1" d="M51.18 395.29c15.03,25.9 34.32,23.97 39.9,6.49 3.98,-12.44 -3.89,-17.44 -10,-30.82l-35.57 6.16 -0.06 33.54 5.73 -15.37z"/>
   <path class="fil1" d="M654.91 72.61c9.66,19.24 1.22,24.09 28.84,33.48l-19.51 7.08c62.36,0.91 38.48,-73.14 -9.33,-40.56z"/>
   <path class="fil2" d="M898.65 357.4c-1.68,-26.65 -3.04,-4.76 11.73,-13.7 12.08,15.24 5.83,5.36 25.58,14.41 33.97,-46.77 -56.78,-69.7 -37.31,-0.7z"/>
   <path class="fil2" d="M250.36 129.75c15.74,-5.41 -1.14,-3.82 5.98,-5.94 10.88,-3.23 2.35,4.8 32.93,5.94l-1.36 6.62c25.4,-33.9 0.08,-50.78 -36.32,-40.9l-1.24 34.28z"/>
   <path class="fil1" d="M37.91 564.78c8.76,25.48 54.58,51.74 45.53,-5.15 -20.3,-12.89 -29.83,-17.67 -45.53,5.15z"/>
   <path class="fil1" d="M899.86 300.65l-18.36 9.53c70.1,2.43 27.48,-77.95 -4.82,-39.52 0.5,1.65 -1.3,9.99 2.58,16.08 7.01,11.01 8.33,9.85 20.6,13.91z"/>
   <path class="fil1" d="M865.35 802.5c7.36,-49.62 -41.89,-54.04 -47.27,-7.43 10.43,2.83 15.27,6.62 27.92,7.38 23.32,1.4 -0.36,-6.32 19.35,0.06z"/>
   <path class="fil1" d="M58.72 341.95c8.97,13.96 -5.54,-2.73 8.51,2.99l36.71 11.94c21,-48.43 -38.39,-57.48 -45.22,-14.94z"/>
   <path class="fil2" d="M160.43 621.9c12.15,24.76 23.97,43.5 40.21,59.61 14.17,14.05 36.51,40.65 54.74,44.29 -4.18,-27.89 -30.72,-38.11 -47.24,-52.07 -28.04,-23.7 -20.83,-30.64 -47.71,-51.83z"/>
   <path class="fil1" d="M764.54 754.59c19.96,-10.63 68.36,-67.5 77.12,-101.6l-12.75 14.36c-45.22,58.22 -71.63,59.55 -64.37,87.24z"/>
   <path class="fil1" d="M31.43 507.69c23.1,19.75 13.91,11.52 39.11,26.94 14.07,-13.89 11.15,-18.87 4.92,-38.93 -24.37,-8.72 -30.27,-10.3 -44.03,11.98z"/>
   <path class="fil1" d="M679.96 890.87c10.78,25.92 17.6,19.98 46.35,20.11l-3.09 -31.41c-19.68,-6.85 -37.67,-11.43 -43.26,11.3z"/>
   <path class="fil1" d="M508.47 936.45c22.9,19.82 3.72,17.79 36.42,27.78 1.31,-0.33 -2.7,6.35 10.11,-4.97 2.06,-32.75 -5.16,-38.56 -37.32,-36.41l-9.21 13.59z"/>
   <path class="fil1" d="M799.49 185.42c27.12,6.88 -1.56,-0.87 21.7,14.45 6.98,4.59 14,4.1 21.15,6.17 7.61,-14.82 4.5,-25.14 0.06,-36.81 -23.5,-6.97 -37.56,-8.62 -42.91,16.19z"/>
   <path class="fil1" d="M447.75 958.91l1.3 -17.38c24.56,11.5 6.15,12.99 47.39,20.67 0.4,-21.82 0.86,-20.87 -10.89,-39.94 -33.26,-1.29 -38.63,4.35 -37.81,36.65z"/>
   <path class="fil1" d="M747.84 725c25.92,-1.73 80.34,-71.08 89.66,-95.3l-16.05 14.8c-3.72,4.65 -3.65,5.87 -8.7,11.63 -29.28,33.4 -60.15,40.2 -64.91,68.87z"/>
   <path class="fil1" d="M161.3 651.89c18.86,39.69 48.67,87.43 78.17,103.61 3.96,-34.41 -14.92,-21.23 -58.46,-80.46l-19.71 -23.15z"/>
   <path class="fil1" d="M757.56 135.69c1.33,1.18 3.24,1.19 3.85,3.69 0.59,2.43 5.39,5.94 6.28,7.06 4.26,5.31 1.3,3.48 6.25,8.63l17.76 16.43c31.3,-24.41 -2.81,-67.35 -34.14,-35.8z"/>
   <path class="fil1" d="M391.02 929.7c7.91,12.91 20.54,16.97 26.46,20.14 2.68,1.43 6.64,5.45 7.38,4.13 0.65,-1.16 2.61,1.54 3.88,2.37 13.51,-21.02 10.58,-27.37 -7.53,-43 -21.6,0.17 -25.33,0.72 -30.19,16.37z"/>
   <path class="fil1" d="M728.03 796.48c39.83,6.09 73.46,-33.15 83.22,-61.65 -13.78,7.59 -10.46,6.23 -22.08,17 -33.13,30.72 -51.31,27.87 -61.14,44.65z"/>
   <path class="fil1" d="M681.76 767.25c10.85,-18.2 21.91,-20.35 23.19,-40.93 -21.11,-4.27 -24.02,-6.82 -48.8,25.4 14.56,12.09 9.82,10.3 25.6,15.53z"/>
   <path class="fil1" d="M928.5 438.51l26.11 42.13 -18.68 1.2c17.4,-4.23 38.32,-3.34 34.56,-30.35 -3.44,-24.7 -28.19,-22.88 -41.99,-12.98z"/>
   <path class="fil1" d="M321.87 766.66c8.65,-4.12 16.68,-8.89 24.98,-15.37 -14.49,-16.39 -25.83,-35.21 -43.88,-25.44 -17.7,9.58 3.99,12.43 18.9,40.81z"/>
   <path class="fil1" d="M192.07 734.08c9.53,13.97 2.7,17.83 34.67,45.85 4.92,4.31 14.26,12.76 21,15.36 26.25,10.15 26.81,-3.43 27,-3.59 -14.59,-10.17 -30.05,-14.45 -44.7,-25.75l-37.96 -31.87z"/>
   <path class="fil1" d="M340.8 722.85c11.51,14.46 7.46,15.24 29.82,18.08 -2.2,-16.78 -27,-63.5 -43.28,-47.36 -8.61,8.54 7.9,22.29 13.46,29.28z"/>
   <path class="fil1" d="M632.69 740.93c37.55,-5.67 63.95,-69.38 27.25,-46.66 -8.37,5.19 -25.04,27.15 -27.25,46.66z"/>
   <path class="fil0" d="M791.7 171.48l-17.76 -16.43c-4.95,-5.15 -1.98,-3.31 -6.25,-8.63 -0.89,-1.11 -5.69,-4.63 -6.28,-7.06 -0.61,-2.5 -2.53,-2.51 -3.85,-3.69 -4.91,7.27 -7.54,-9.84 -7.6,19.7 -0.03,12.74 10.25,22.85 23.59,23.22 29.67,0.83 12.78,-2.65 18.15,-7.12z"/>
   <path class="fil0" d="M544.89 964.23c-32.7,-10 -13.52,-7.96 -36.42,-27.78 -6.66,6.01 -8.59,-18.38 -7.7,17.26 0.61,24.26 27.6,21.72 35.56,22.43l8.56 -11.9z"/>
   <path class="fil0" d="M935.93 481.84l18.68 -1.2 -26.11 -42.13c-8.74,6.67 -7.68,0.78 -9.85,16.9 -0.39,2.94 0.01,18.16 -0.19,21.24 4.72,3.94 13.69,3.85 17.47,5.19z"/>
   <path class="fil1" d="M384.41 662.17c2.83,10.46 0.13,18.78 26.18,40.15 10.63,-14.7 6.64,-5.14 15.81,-18.36 -15.17,-14.13 -13.71,-21.12 -41.99,-21.8z"/>
   <path class="fil0" d="M428.74 956.34c-1.26,-0.83 -3.23,-3.54 -3.88,-2.37 -0.74,1.32 -4.7,-2.7 -7.38,-4.13 -5.92,-3.17 -18.56,-7.23 -26.46,-20.14 -9.86,9.56 -9.08,24.58 0.63,32.56 15.53,12.74 26.72,4.17 37.09,-5.92z"/>
   <path class="fil0" d="M447.75 958.91c1.18,4.27 0.48,10.63 4.32,15.22 6.65,-0.2 23.85,0.31 29.7,-1.09 23.14,-5.56 11.16,-5.01 14.68,-10.84 -41.25,-7.68 -22.84,-9.17 -47.39,-20.67l-1.3 17.38z"/>
   <path class="fil1" d="M596.13 703.68c9.79,-28.61 15.64,-14.44 23.66,-40.74 -30.1,0.01 -24.52,7.93 -44.69,19.31l11.24 12.77c2.98,2.91 8.67,7.61 9.78,8.66z"/>
   <path class="fil0" d="M726.31 910.98c-28.75,-0.13 -35.57,5.81 -46.35,-20.11 -1.3,2.14 -6.81,-6.98 -5.35,14.56 1.63,24.15 28.3,22.15 37.84,22.94l13.87 -17.39z"/>
   <path class="fil0" d="M842.34 206.04c-7.15,-2.07 -14.17,-1.57 -21.15,-6.17 -23.26,-15.32 5.42,-7.57 -21.7,-14.45 -6.05,11.3 -3.21,20.32 9.8,28.78 6.1,3.96 11.24,5.5 19.37,3.02 25.84,-7.89 3.1,0.5 13.68,-11.18z"/>
   <path class="fil0" d="M70.54 534.63c-25.2,-15.43 -16.01,-7.2 -39.11,-26.94l-6.05 10.45c6.49,12.72 18.47,30.03 36.15,24.54 23.25,-7.23 -0.13,6.13 9.01,-8.04z"/>
   <path class="fil1" d="M379.21 682.91c-11.84,-11.63 -13.2,-16.17 -36.24,-19.32 2.07,26.88 8.63,14.47 19.38,38.09 4.5,-4.07 5.39,-4.43 9.79,-9.2 6.6,-7.15 3.82,-5.18 7.07,-9.57z"/>
   <path class="fil1" d="M436.87 700.87c-18.89,9.37 -16.44,17.65 -13.23,41.32 28.02,-5.6 24.35,-20.26 13.23,-41.32z"/>
   <path class="fil1" d="M635.93 702.02c14.27,-13.14 23.55,-18.94 21.85,-36.69 -20.2,0.49 -23.93,8.55 -33.52,18.86l11.68 17.83z"/>
   <path class="fil0" d="M898.65 357.4c7.31,7.8 -13.93,10.76 20.07,11.49 30.6,0.66 13.76,-5.48 17.24,-10.79 -19.76,-9.04 -13.5,0.84 -25.58,-14.41 -14.76,8.94 -13.41,-12.95 -11.73,13.7z"/>
   <path class="fil1" d="M576.41 740.86c3.8,-7.23 8.17,-11.95 4.21,-24.41 -7.11,-22.35 -7.04,-9.13 -14.57,-11.31 -9.86,18.53 -13.06,31.65 10.37,35.73z"/>
   <path class="fil1" d="M684.58 688.46c28.98,-16.81 22.78,-14.61 26.91,-25.22 -15.43,-9.06 -16.17,-4.44 -36.26,8.98 5.43,13.79 -1.38,4.92 9.35,16.24z"/>
   <path class="fil1" d="M383.44 735.89c7.69,-3.32 14.21,-6.15 23.56,-8.55 -6.11,-19.98 -6.78,-25.55 -27.27,-26.02l3.71 34.57z"/>
   <path class="fil1" d="M322.35 668.88c-14.44,-19.46 -28.45,-6.46 -29.89,-5.64 4,6.08 -1.8,18.74 24.34,20.13 0.8,0.04 3.12,0.16 3.69,-1.15 0.61,-1.39 2.48,-1.13 3.7,-1.72 0.15,-0.97 10.21,4.64 -1.84,-11.61z"/>
   <polygon class="fil1" points="491.34,138 513.54,134.7 514.5,113.67 487.38,113.75 "/>
   <path class="fil1" d="M607.76 745.24c-23.41,0.57 -19.58,-0.22 -26.24,22.6l31.26 -1.3 -5.02 -21.3z"/>
   <path class="fil1" d="M421.46 767.6c-4.52,-18.02 -0.91,-14.37 -16.06,-23.67 -13.78,7.3 -13.68,3.57 -13.5,23.19l29.56 0.49z"/>
   <path class="fil1" d="M666.2 159.13c30.35,5.1 24.3,7.05 24.92,-20.4l-25.31 2.16 0.39 18.24z"/>
   <polygon class="fil1" points="649.69,161.3 649.69,139.12 626.02,139.12 626.13,161.3 "/>
   <polygon class="fil1" points="604.54,415.22 604.54,393.04 581.62,393.04 581.51,415.22 "/>
   <path class="fil1" d="M286.4 745.79c-0.98,-22.22 -3.89,-24.41 -21.86,-31.54 1.03,21.53 -6.52,30.49 21.86,31.54z"/>
   <path class="fil1" d="M721.51 745.72c18.59,-3 17.61,-3.68 17.87,-27.89 -17.22,-1.73 -28.3,10.46 -17.87,27.89z"/>
   <path class="fil1" d="M298.44 692.66c-11.45,-10.83 -3.95,-5.15 -20.39,-8.62l5.62 24.89 23.53 0.59c-3.84,-13.59 1.99,-6.69 -8.76,-16.86z"/>
   <path class="fil1" d="M696.61 708.86c24.36,1.91 28.26,-0.81 27.99,-22.91 -14.85,-0.95 -10.39,-2.28 -19.63,7.24 -10.72,11.06 -4.91,3.65 -8.37,15.67z"/>
   <path class="fil1" d="M622.04 700.52c-18.54,2.16 -18.55,8.85 -28.07,23.49l19.63 8.77 8.44 -32.26z"/>
   <polygon class="fil2" points="559.72,413.93 559.73,393.52 536.1,394.34 535.93,414.74 "/>
   <path class="fil1" d="M654.15 634.13l-32.05 7.43c12.1,29.95 24.46,16.5 32.05,-7.43z"/>
   <path class="fil1" d="M347.67 765.39c3.19,10.45 -1.96,19.74 11.36,21.56 14.48,1.99 14.02,-12.49 15.92,-18.04l-27.28 -3.53z"/>
   <path class="fil2" d="M664.49 647.69c9.56,8.67 7.06,11.81 18.66,3.81 14.18,-9.78 9.24,-7.29 12.03,-20.27 -18.65,3.43 -20.89,4.93 -30.69,16.46z"/>
   <path class="fil1" d="M348.29 636.09c5.2,6.08 -3.26,7.37 20.84,23.33 3.16,-3.59 1.29,-0.09 7.83,-9.81 7.87,-11.68 -6.45,15.67 4.1,-9.5l-32.77 -4.02z"/>
   <path class="fil1" d="M506.34 865.17c1.78,26 4.33,10.93 7.89,14.69 8.61,-14.49 7.38,-22.39 0,-35.49 -1.18,1.37 -9.8,-7.08 -7.89,20.8z"/>
   <path class="fil2" d="M308.09 632.65c3.78,6.83 8.27,34.51 30.69,15.04l-10.85 -10.63c-0.95,-0.56 -2.33,-1.35 -3.32,-1.8 -13.33,-6.09 -2.14,-2.28 -16.52,-2.61z"/>
   <path class="fil2" d="M488.31 880.4c0.62,-0.61 10.44,9.66 8.62,-20.13 -1.98,-32.45 -0.06,-6.95 -8.62,-15.38 -6.23,14.06 -6.33,21.56 0,35.5z"/>
   <path class="fil1" d="M626.13 373.77l22.8 0c-1.45,-14.26 6.86,-16.85 -10.81,-17.18 -19.91,-0.37 -10.15,2.85 -12,17.18z"/>
   <path class="fil1" d="M656.08 764.22l-28.36 6.13c5.1,12.19 1.81,7.31 9.28,18.13 13.46,-6.95 14.24,-7.04 19.09,-24.26z"/>
   <polygon class="fil1" points="577.14,357.52 554.96,357.52 554.96,373.77 577.14,373.77 "/>
   <path class="fil2" d="M264.2 752.41c-9.19,-7.43 -0.78,-3.22 -13.96,-6.53 2.46,22.95 5.72,26.8 25.52,21.61l-8.82 -12.59c-0.77,-0.74 -1.94,-1.83 -2.74,-2.48z"/>
   <path class="fil2" d="M732.87 770.91c15.9,-3.98 27.4,-8.76 15.4,-27.69 -10.4,8.46 -15.45,11.92 -15.4,27.69z"/>
   <path class="fil0" d="M583.71 243.49c21.18,15.17 17.95,5.83 20.31,-12.06 -32.7,2.89 -14.22,2.97 -20.31,12.06z"/>
   <path class="fil0" d="M603.81 273.26l-20.1 6.5c6.09,9.09 -12.39,9.17 20.31,12.06l-0.2 -18.57z"/>
   <path class="fil2" d="M286.49 761.96c6.83,17.94 2.25,12.3 22.79,16.12 -7.86,-14.41 -5.66,-14.39 -22.79,-16.12z"/>
   <path class="fil2" d="M695.68 777.28c15.15,-1.94 14.89,-3.78 20.57,-16.08 -15.62,3.5 -14.34,3 -20.57,16.08z"/>
  </g>
 </g>
</svg>
