<?xml version="1.0" encoding="UTF-8"?>
<!DOCTYPE svg PUBLIC "-//W3C//DTD SVG 1.1//EN" "http://www.w3.org/Graphics/SVG/1.1/DTD/svg11.dtd">
<!-- Creator: CorelDRAW 2020 (64-Bit) -->
<svg xmlns="http://www.w3.org/2000/svg" xml:space="preserve" width="1in" height="1in" version="1.1" style="shape-rendering:geometricPrecision; text-rendering:geometricPrecision; image-rendering:optimizeQuality; fill-rule:evenodd; clip-rule:evenodd"
viewBox="0 0 1000 1000"
 xmlns:xlink="http://www.w3.org/1999/xlink"
 xmlns:xodm="http://www.corel.com/coreldraw/odm/2003">
 <defs>
  <style type="text/css">
   <![CDATA[
    .str0 {stroke:white;stroke-width:16.67;stroke-miterlimit:2.61313}
    .fil0 {fill:#4D4D4D}
   ]]>
  </style>
 </defs>
 <g id="Layer_x0020_1">
  <metadata id="CorelCorpID_0Corel-Layer"/>
  <g id="_1855995051104">
   <path class="fil0" d="M227.91 635.33c20.6,24.66 37.93,39.28 63.15,62.54 -11.18,-23.22 -24.24,-30.27 -38.02,-55.47 -11.45,-20.96 -21.43,-43.35 -28.14,-67.48 -16.93,-60.93 -10.29,-105.63 2.14,-164.61l10.04 -51.28c7.24,-147.24 30.75,-134.81 34.55,-180.45l-101.45 -50.84c-14.87,63.46 -67.46,118.12 -45.56,276.8 10.03,72.64 32.02,123.9 66.24,181.88 14.62,24.77 20.19,28.59 37.06,48.92z"/>
   <path class="fil0" d="M432.17 225.47c56.1,-9.95 115.58,-9.15 168.67,12.93 24.85,10.33 45.44,22 62.04,33.83 16.59,11.83 44.25,35.39 52.41,44.86 19.77,8.87 9.98,2.28 25.11,19.03 11.68,12.93 5.58,10.88 21.81,20.62l5.64 7.93 5.64 5.64c37.86,10.11 89.5,73.8 107.14,107.14 28.98,-15.33 84.44,-52.42 101.5,-56.39 -11.37,-42.57 -113.56,-136.43 -167.16,-165.54 -94.94,-51.56 -163.18,-64.56 -278.31,-59.37 -31.56,5.71 -81.09,10.94 -104.48,29.32z"/>
   <path class="fil0" d="M457.71 802.39c20.94,-1.98 34.52,-7.98 45.29,-20.69 -69.16,-3.41 -113.08,-13.41 -168.78,-50.85 -14.29,-9.61 -35.52,-19.31 -43.16,-32.98 -25.22,-23.26 -42.55,-37.87 -63.15,-62.54 -34.82,-8.29 -96.24,-80.35 -114.17,-107.14l-95.86 62.03c73.9,139.66 275.59,236.06 439.84,212.17z"/>
   <path class="fil0" d="M748.48 663.53c4.74,47.37 -20.13,114.69 -37.02,146.61l106.13 52.79c18.35,-71.15 61.91,-110.51 45.44,-266.39 -4.21,-39.83 -20.17,-90.54 -33.86,-124.03 -22.25,-54.43 -49.62,-79.54 -55.67,-102.22l-5.64 -5.64c-8.44,0 -5.64,1.77 -5.64,-7.93 -16.23,-9.74 -10.13,-7.69 -21.81,-20.62 -15.13,-16.75 -5.33,-10.16 -25.11,-19.03 28.85,52.91 53.74,78.26 61.6,156.09 8.55,84.58 -10.36,114.92 -28.42,190.35z"/>
   <path class="fil0" d="M237.07 359.03l-10.04 51.28c26.82,-48.54 41.04,-86.76 75.53,-116.21 25.78,-22.02 81.57,-61.51 129.6,-68.63 23.39,-18.38 72.92,-23.61 104.48,-29.32 30.41,-23.45 95.06,-26.42 129.7,-34.49 0,-46.25 -5.64,-71.03 -5.64,-112.78 -187.39,0 -345.33,125.46 -413.72,291.13l-9.92 19.02z"/>
   <path class="fil0" d="M423.87 421.06c4,48.12 22.56,78.34 22.56,174.81l28.19 0c0,-44.43 3.69,-37.57 -5.64,-56.39 40.26,0 26.9,-4.97 42.04,-7.44 23.48,-3.83 2.13,7.44 48.18,7.44 15.93,0 33.83,-23.52 33.83,-39.47 0,-29.26 -17.74,-64.82 -28.2,-84.59l-22.39 11.59c7.38,32.35 16.75,29 16.75,67.36 0,21.56 1.73,2.05 -5.64,16.92 -30.29,-8.09 -36.14,-55.87 -39.47,-95.87 -12.85,3 -12.97,4.37 -28.19,5.64 1.06,47.67 21.65,61.72 5.64,90.22 -28.6,-2.38 -22.47,-10.48 -27.87,-39.8 -3.88,-21.04 -9.93,-35.88 -11.61,-56.06 -12.85,3 -13.04,4.06 -28.2,5.64z"/>
   <path class="fil0 str0" d="M660.71 477.44c0,206.13 -189.45,230.83 -283.48,136.87 -99.15,-99.09 -36.35,-265.07 106.06,-280.52 84.25,-9.14 177.42,64.74 177.42,143.65zm-157.72 304.26c-10.77,12.71 -24.35,18.71 -45.29,20.69 -25.46,23.97 -109.31,35.24 -140.97,35.94l0 112.78c121.93,0 201.6,-34.72 273.94,-86.95 36.57,-26.41 65.59,-53.41 91.85,-88.6 345.78,-463.33 -299.98,-783.17 -455.49,-365.26 -51.72,139 28.41,359.2 275.96,371.39z"/>
  </g>
 </g>
</svg>
