<?xml version="1.0" encoding="UTF-8"?>
<!DOCTYPE svg PUBLIC "-//W3C//DTD SVG 1.1//EN" "http://www.w3.org/Graphics/SVG/1.1/DTD/svg11.dtd">
<!-- Creator: CorelDRAW 2020 (64-Bit) -->
<svg xmlns="http://www.w3.org/2000/svg" xml:space="preserve" width="1in" height="1in" version="1.1" style="shape-rendering:geometricPrecision; text-rendering:geometricPrecision; image-rendering:optimizeQuality; fill-rule:evenodd; clip-rule:evenodd"
viewBox="0 0 1000 1000"
 xmlns:xlink="http://www.w3.org/1999/xlink"
 xmlns:xodm="http://www.corel.com/coreldraw/odm/2003">
 <defs>
  <style type="text/css">
   <![CDATA[
    .fil0 {fill:#4D4D4D}
    .fil1 {fill:#FDFDFD}
   ]]>
  </style>
 </defs>
 <g id="Layer_x0020_1">
  <metadata id="CorelCorpID_0Corel-Layer"/>
  <g id="_1856126038288">
   <path class="fil0" d="M455.19 33.8c-264.78,29.6 -447.78,257.98 -420.7,515.15 26,246.9 241.9,443.77 516.87,418.25 240.37,-22.31 447.8,-248.88 416.95,-515.19 -30.33,-261.84 -261.17,-446.37 -513.12,-418.2z"/>
   <path class="fil1" d="M801.82 404.42c-9.2,11.76 -90.19,65.19 -103.94,67.15 -15.3,23.89 -246.74,122.31 -290.12,120.43 -14.07,-6.5 -172.91,-190.1 3.52,-209.15 108.91,-11.76 211.71,40.77 293.82,74.66 13.84,-0.06 51.25,-36.97 63.98,-45.56 -5.19,-11.44 -10.55,-8.25 -36,-17.41 -125.8,-45.28 -238.3,-118.92 -373.99,-44.92 -48.4,26.39 -53.69,113.45 -46.98,164.02 4.95,37.37 15.87,55.07 23.97,84.99 -80,4.82 -143.6,-19.88 -171.94,-68.1 -68.94,-117.28 112.23,-295.86 214.37,-361.49 12.8,-8.22 23.42,-14.26 36.86,-22.26 12.35,-7.35 31.48,-13.27 38.14,-24.2 -28.66,-0.13 -92.19,41.22 -111.91,55.33 -33.01,23.62 -64.62,49.65 -92.09,78.55 -47.6,50.08 -108.96,123.84 -126.78,214.46 -22.1,112.44 54.42,167.23 146.1,187.26 93.65,20.46 112.61,-5.41 137.87,33.06 35.24,53.69 20.78,78.8 21.81,142.85 15.52,-23.49 22.83,-48.83 23.68,-84.84 1.05,-44.51 -10.21,-88.83 -9.53,-99.36 48.77,-17.91 88.14,-32.09 132.49,-51.53 48.86,-21.43 271.74,-148.52 286.44,-172.72 4.5,-7.4 18.47,-66.98 19.89,-77.91 -15.51,6.97 -41.2,30.75 -57.93,43.18l-21.72 13.5z"/>
   <path class="fil1" d="M454.78 171.94c26.71,20.07 38.18,21.24 34.52,79.32 20.53,-6.89 73.96,-51.56 58.68,-87.85 -22.03,-52.3 -88.38,3.11 -93.2,8.52z"/>
   <path class="fil1" d="M453.33 850.93c30.89,56.34 90,18.51 97.43,-38.34 -41.66,2.3 -28.61,18.71 -67.57,-10.79l-29.86 49.13z"/>
  </g>
 </g>
</svg>
